<svg id="svg" version="1.1" xmlns="http://www.w3.org/2000/svg" xmlns:xlink="http://www.w3.org/1999/xlink" width="400" height="399.03614457831327" viewBox="0, 0, 400,399.03614457831327"><g id="svgg"><path id="path0" d="M0.000 199.518 L 0.000 399.036 200.000 399.036 L 400.000 399.036 400.000 199.518 L 400.000 0.000 200.000 0.000 L 0.000 0.000 0.000 199.518 M206.281 10.566 C 210.647 11.540,213.706 12.789,216.548 14.759 C 217.685 15.547,225.568 21.820,225.863 22.172 C 226.012 22.349,229.382 25.105,231.753 26.988 C 232.309 27.430,234.443 29.165,236.496 30.843 C 238.548 32.522,241.565 34.980,243.200 36.305 C 244.835 37.631,246.483 38.980,246.862 39.305 C 247.240 39.629,248.047 40.280,248.655 40.751 C 249.262 41.221,250.274 42.047,250.904 42.586 C 251.533 43.125,252.699 44.063,253.494 44.670 C 254.289 45.277,255.141 45.967,255.387 46.203 C 255.633 46.439,256.790 47.403,257.957 48.346 C 259.125 49.288,261.472 51.193,263.174 52.580 C 267.994 56.507,275.488 62.620,278.022 64.690 C 282.461 68.318,283.433 69.076,283.643 69.076 C 283.760 69.075,283.857 64.919,283.860 59.839 C 283.867 46.342,285.830 42.193,293.333 39.816 C 295.476 39.137,330.723 39.140,332.851 39.819 C 335.905 40.793,339.150 43.537,340.618 46.388 C 342.387 49.820,342.293 47.907,342.479 83.990 L 342.651 117.378 346.859 120.777 C 349.174 122.647,351.704 124.708,352.482 125.357 C 353.259 126.007,355.703 128.002,357.912 129.792 C 360.120 131.582,362.578 133.586,363.373 134.245 C 364.169 134.905,366.337 136.668,368.193 138.163 C 370.048 139.658,371.639 140.961,371.727 141.058 C 371.815 141.155,373.767 142.746,376.064 144.593 C 378.361 146.440,380.313 148.032,380.402 148.130 C 380.551 148.295,383.999 151.094,386.318 152.932 C 392.129 157.537,394.622 159.873,396.128 162.126 L 397.751 164.552 397.751 169.030 C 397.751 174.514,396.919 176.111,392.935 178.268 C 390.116 179.794,388.068 180.002,373.815 180.207 L 360.321 180.402 360.146 275.020 C 360.026 339.795,359.864 370.061,359.632 370.978 C 357.302 380.179,350.429 386.854,340.686 389.376 C 338.839 389.855,259.073 389.855,257.226 389.376 C 254.919 388.779,252.701 388.032,252.386 387.746 C 252.218 387.594,251.872 387.470,251.618 387.470 C 250.736 387.470,245.856 383.939,244.068 382.008 C 240.601 378.264,238.939 375.303,237.664 370.602 C 237.427 369.727,237.257 356.102,237.132 327.871 C 236.980 293.659,236.871 286.257,236.506 285.462 C 235.111 282.421,234.635 281.645,233.446 280.467 C 232.724 279.752,231.337 278.777,230.364 278.299 L 228.594 277.430 202.120 277.342 C 185.986 277.289,174.987 277.376,173.960 277.566 C 169.818 278.332,166.177 281.328,164.704 285.182 L 163.855 287.403 163.855 327.377 C 163.855 355.307,163.748 367.938,163.498 369.298 C 162.340 375.618,159.460 380.683,154.859 384.491 C 152.073 386.797,149.045 388.253,144.702 389.377 C 142.854 389.855,62.124 389.854,60.278 389.376 C 57.971 388.779,55.753 388.032,55.438 387.746 C 55.270 387.594,54.934 387.470,54.691 387.470 C 52.310 387.470,43.052 378.258,43.052 375.889 C 43.052 375.708,42.838 375.232,42.575 374.832 C 40.699 371.968,40.814 378.220,40.724 274.657 L 40.643 180.402 26.988 180.202 C 11.310 179.972,11.752 180.019,8.007 178.199 C 3.582 176.049,0.690 169.686,2.544 166.180 C 2.706 165.874,3.125 164.972,3.474 164.177 C 4.431 161.999,6.514 159.580,9.792 156.842 C 12.653 154.452,30.303 140.049,35.502 135.862 C 38.145 133.733,38.637 133.332,40.957 131.406 C 41.702 130.787,43.237 129.535,44.368 128.623 C 46.204 127.143,55.384 119.643,57.028 118.280 C 57.382 117.987,59.901 115.941,62.628 113.733 C 65.355 111.525,68.463 108.990,69.536 108.098 C 70.608 107.207,73.438 104.898,75.823 102.967 C 78.209 101.037,81.823 98.099,83.855 96.440 C 85.888 94.780,89.647 91.716,92.209 89.630 C 100.379 82.979,106.808 77.727,107.470 77.162 C 107.823 76.861,110.351 74.810,113.087 72.604 C 118.730 68.055,118.330 68.382,122.410 65.008 C 124.088 63.620,126.977 61.256,128.829 59.756 C 130.681 58.256,134.673 55.004,137.699 52.530 C 140.726 50.056,145.344 46.297,147.960 44.177 C 150.576 42.056,154.481 38.876,156.636 37.108 C 160.094 34.275,168.244 27.629,173.950 22.991 C 175.025 22.118,177.482 20.106,179.412 18.522 C 185.817 13.262,188.175 12.038,195.181 10.338 C 197.463 9.784,203.319 9.904,206.281 10.566 " stroke="none" fill="#fbfbfb" fill-rule="evenodd"></path><path id="path1" d="M195.823 10.911 C 195.470 11.070,194.718 11.210,194.152 11.222 C 193.586 11.235,192.791 11.374,192.385 11.531 C 191.979 11.689,190.996 12.067,190.201 12.373 C 186.303 13.869,184.146 15.308,177.192 21.044 C 172.825 24.646,171.097 26.051,168.514 28.099 C 167.277 29.080,165.325 30.678,164.177 31.651 C 163.028 32.623,161.293 34.032,160.321 34.780 C 159.349 35.529,158.482 36.226,158.394 36.331 C 158.241 36.510,156.781 37.705,151.933 41.615 C 150.766 42.557,149.609 43.524,149.363 43.764 C 149.117 44.004,148.342 44.628,147.641 45.152 C 146.940 45.676,146.140 46.326,145.863 46.598 C 145.585 46.869,144.786 47.515,144.085 48.032 C 143.384 48.550,142.225 49.484,141.508 50.109 C 140.791 50.734,138.851 52.329,137.197 53.655 C 135.543 54.980,133.508 56.643,132.675 57.349 C 131.841 58.056,129.965 59.574,128.505 60.723 C 127.046 61.871,125.258 63.326,124.532 63.955 C 123.807 64.583,122.764 65.451,122.216 65.882 C 121.668 66.314,120.168 67.534,118.884 68.594 C 117.599 69.655,115.641 71.245,114.531 72.129 C 111.280 74.717,108.078 77.349,107.596 77.830 C 107.350 78.075,106.563 78.700,105.848 79.218 C 104.468 80.218,102.413 81.898,99.965 84.028 C 99.145 84.742,97.896 85.750,97.189 86.269 C 96.482 86.788,95.470 87.603,94.940 88.081 C 94.410 88.560,93.444 89.358,92.794 89.857 C 92.145 90.355,89.759 92.268,87.493 94.108 C 83.644 97.233,82.691 98.021,78.712 101.365 C 77.871 102.072,75.989 103.590,74.529 104.739 C 73.070 105.888,71.282 107.342,70.556 107.971 C 69.432 108.946,65.866 111.848,59.921 116.627 C 59.152 117.245,57.121 118.908,55.409 120.321 C 53.697 121.735,51.744 123.325,51.071 123.855 C 49.056 125.441,45.152 128.627,44.980 128.826 C 44.892 128.929,44.169 129.513,43.373 130.124 C 42.578 130.736,41.726 131.429,41.480 131.665 C 40.954 132.170,37.050 135.352,35.380 136.638 C 34.740 137.131,33.639 138.023,32.932 138.620 C 32.225 139.218,31.045 140.189,30.310 140.777 C 29.574 141.366,26.852 143.582,24.261 145.703 C 21.669 147.823,18.945 150.039,18.208 150.626 C 17.471 151.213,16.506 152.012,16.064 152.400 C 15.622 152.788,14.683 153.536,13.976 154.063 C 13.269 154.589,12.474 155.226,12.210 155.478 C 11.945 155.730,10.600 156.870,9.221 158.011 C 6.235 160.481,3.217 164.659,3.211 166.329 C 3.210 166.647,2.993 167.322,2.729 167.828 C 2.129 168.979,2.133 169.939,2.741 170.744 C 3.001 171.087,3.213 171.631,3.213 171.953 C 3.213 173.459,5.617 176.343,7.753 177.399 C 12.098 179.548,10.735 179.391,26.253 179.533 C 37.071 179.633,40.537 179.759,40.790 180.064 C 41.017 180.338,41.154 210.356,41.221 274.570 C 41.295 344.448,41.416 369.088,41.692 370.281 C 42.120 372.126,42.832 374.184,43.153 374.505 C 43.274 374.626,43.373 374.929,43.373 375.178 C 43.373 378.090,51.609 385.969,56.386 387.626 C 61.153 389.280,58.816 389.200,102.490 389.208 C 147.907 389.216,144.824 389.366,150.040 386.899 C 154.731 384.680,161.285 377.649,161.285 374.835 C 161.285 374.560,161.413 374.256,161.569 374.159 C 161.726 374.063,161.934 373.584,162.032 373.096 C 162.129 372.608,162.387 371.558,162.603 370.763 C 162.899 369.675,163.043 359.069,163.185 327.871 L 163.373 286.426 164.317 284.498 C 165.419 282.246,167.894 279.501,169.646 278.588 C 170.323 278.235,171.140 277.808,171.462 277.639 C 173.359 276.644,174.793 276.600,201.446 276.718 C 216.201 276.783,228.707 276.945,229.238 277.078 C 232.056 277.782,235.532 281.288,236.764 284.667 C 237.424 286.475,237.430 286.845,237.428 325.655 C 237.426 351.904,237.540 365.667,237.772 367.390 C 238.125 370.003,238.960 373.246,239.423 373.799 C 239.564 373.967,239.679 374.280,239.679 374.494 C 239.679 377.245,249.567 387.149,252.314 387.149 C 252.539 387.149,252.860 387.268,253.028 387.414 C 253.406 387.743,255.227 388.282,258.092 388.915 C 261.562 389.680,336.821 389.641,340.080 388.872 C 348.922 386.786,355.526 381.260,358.075 373.815 C 359.748 368.930,359.627 375.850,359.821 274.056 L 360.000 179.759 374.458 179.580 C 390.134 179.386,388.710 179.541,392.858 177.572 C 394.021 177.019,395.619 175.527,397.349 173.378 C 397.616 173.047,397.751 171.698,397.751 169.379 C 397.751 163.320,396.608 161.871,383.594 151.442 C 382.102 150.246,380.034 148.551,377.366 146.339 C 376.297 145.451,374.972 144.367,374.422 143.929 C 373.539 143.225,368.280 138.973,362.088 133.955 C 360.940 133.025,359.928 132.175,359.839 132.067 C 359.751 131.959,359.028 131.370,358.233 130.759 C 357.438 130.147,355.391 128.488,353.684 127.072 C 351.977 125.656,349.318 123.486,347.776 122.249 C 346.234 121.012,344.272 119.422,343.416 118.715 L 341.859 117.430 341.847 85.301 C 341.834 50.927,341.792 49.921,340.237 46.807 C 339.222 44.775,336.665 42.299,334.501 41.253 C 333.506 40.772,332.440 40.257,332.133 40.109 C 331.253 39.684,294.828 39.768,293.750 40.197 C 289.929 41.719,287.169 44.008,286.001 46.624 C 284.371 50.275,284.386 50.150,284.373 60.039 C 284.359 70.825,284.333 70.940,282.354 68.979 C 282.120 68.746,279.915 66.929,277.454 64.939 C 274.993 62.950,272.319 60.757,271.510 60.066 C 270.702 59.374,268.739 57.774,267.149 56.509 C 265.558 55.244,263.808 53.831,263.259 53.369 C 262.043 52.348,261.540 51.938,258.381 49.400 C 257.018 48.305,255.831 47.332,255.743 47.238 C 255.593 47.077,252.397 44.466,249.639 42.249 C 248.979 41.719,247.033 40.129,245.316 38.715 C 243.598 37.301,241.644 35.711,240.975 35.181 C 240.305 34.651,237.638 32.482,235.047 30.361 C 232.456 28.241,229.857 26.139,229.270 25.691 C 228.684 25.242,227.497 24.283,226.632 23.559 C 225.016 22.205,222.079 19.787,219.267 17.494 C 216.054 14.874,210.690 11.888,209.197 11.888 C 208.892 11.888,208.505 11.757,208.337 11.597 C 207.655 10.949,197.036 10.367,195.823 10.911 " stroke="none" fill="#040404" fill-rule="evenodd"></path><path id="path2" d="M194.859 10.471 C 193.437 10.857,193.400 10.887,194.538 10.732 C 195.245 10.636,197.775 10.449,200.161 10.317 L 204.498 10.078 200.482 10.057 C 198.042 10.044,195.835 10.207,194.859 10.471 M205.141 10.587 C 205.757 10.867,207.478 11.049,207.202 10.806 C 207.129 10.741,206.490 10.600,205.783 10.492 C 204.887 10.356,204.693 10.385,205.141 10.587 M189.237 12.075 C 188.742 12.350,188.625 12.522,188.932 12.525 C 189.206 12.528,189.567 12.400,189.735 12.240 C 189.903 12.080,190.329 11.880,190.683 11.795 L 191.325 11.641 190.683 11.635 C 190.329 11.632,189.679 11.830,189.237 12.075 M210.120 11.802 C 210.386 11.904,211.217 12.249,211.968 12.569 C 212.719 12.888,213.333 13.078,213.333 12.989 C 213.333 12.765,210.472 11.561,210.014 11.592 C 209.807 11.606,209.855 11.700,210.120 11.802 M184.536 14.555 C 183.452 15.297,181.862 16.533,181.002 17.302 C 179.629 18.530,179.693 18.501,181.526 17.063 C 182.675 16.162,184.373 14.980,185.301 14.436 C 186.892 13.503,187.301 13.150,186.747 13.190 C 186.614 13.199,185.619 13.814,184.536 14.555 M213.681 13.299 C 214.085 13.679,216.242 14.746,216.082 14.486 C 215.977 14.316,215.438 13.951,214.884 13.675 C 213.920 13.194,213.396 13.030,213.681 13.299 M217.607 15.639 C 217.735 15.847,218.447 16.498,219.189 17.085 C 219.931 17.672,220.433 17.982,220.305 17.774 C 220.176 17.566,219.464 16.916,218.723 16.329 C 217.981 15.741,217.479 15.431,217.607 15.639 M222.008 19.273 C 223.585 20.718,225.221 21.977,225.221 21.745 C 225.221 21.664,224.173 20.777,222.892 19.773 C 221.329 18.548,221.038 18.384,222.008 19.273 M176.225 21.078 C 171.614 24.933,170.368 26.046,172.369 24.521 C 176.051 21.717,179.721 18.561,179.197 18.648 C 179.153 18.655,177.815 19.749,176.225 21.078 M227.025 23.350 C 229.010 25.149,231.472 27.099,230.843 26.375 C 230.490 25.968,229.261 24.917,228.112 24.039 C 226.964 23.161,226.475 22.851,227.025 23.350 M168.821 27.239 C 167.457 28.494,167.780 28.345,169.583 26.888 C 170.171 26.413,170.532 26.028,170.386 26.034 C 170.240 26.039,169.536 26.581,168.821 27.239 M231.647 27.073 C 231.647 27.163,232.690 28.084,233.966 29.120 C 237.528 32.012,237.751 32.185,237.751 32.042 C 237.751 31.969,236.630 30.983,235.261 29.850 C 231.963 27.124,231.647 26.880,231.647 27.073 M164.823 30.395 C 162.002 32.774,161.661 33.208,164.072 31.351 C 165.839 29.990,167.393 28.557,167.038 28.616 C 166.966 28.628,165.970 29.428,164.823 30.395 M238.199 32.395 C 238.314 32.581,239.873 33.920,241.663 35.371 C 243.453 36.823,244.825 37.860,244.712 37.677 C 244.599 37.494,243.040 36.154,241.248 34.700 C 239.456 33.246,238.084 32.209,238.199 32.395 M160.139 34.298 C 158.766 35.564,159.107 35.412,160.908 33.956 C 161.496 33.481,161.857 33.093,161.711 33.093 C 161.565 33.094,160.858 33.636,160.139 34.298 M156.627 37.159 C 155.251 38.419,155.209 38.488,156.336 37.641 C 157.526 36.746,158.656 35.644,158.353 35.675 C 158.287 35.682,157.510 36.350,156.627 37.159 M151.016 41.634 C 148.990 43.297,147.111 44.896,146.839 45.188 C 146.568 45.479,148.179 44.253,150.420 42.462 C 153.849 39.722,155.291 38.444,154.798 38.582 C 154.743 38.597,153.041 39.971,151.016 41.634 M304.337 39.438 C 309.241 39.487,317.265 39.487,322.169 39.438 C 327.072 39.388,323.060 39.347,313.253 39.347 C 303.446 39.347,299.434 39.388,304.337 39.438 M247.687 40.267 C 248.505 41.168,248.681 41.279,248.665 40.884 C 248.659 40.751,248.261 40.365,247.781 40.026 L 246.908 39.409 247.687 40.267 M334.745 40.888 C 336.213 41.636,338.644 43.801,339.880 45.462 C 340.275 45.992,340.457 46.137,340.285 45.783 C 339.377 43.917,335.005 40.152,333.761 40.165 C 333.526 40.168,333.968 40.493,334.745 40.888 M249.673 41.818 C 251.012 43.021,256.692 47.655,257.623 48.304 L 258.474 48.897 257.755 48.256 C 255.629 46.359,251.132 42.688,249.673 41.657 L 248.835 41.066 249.673 41.818 M288.924 42.177 C 287.545 43.230,286.271 44.749,285.429 46.345 C 284.657 47.810,285.103 47.345,286.413 45.320 C 287.093 44.271,288.277 42.961,289.045 42.409 C 289.813 41.857,290.442 41.343,290.442 41.265 C 290.442 41.035,290.340 41.096,288.924 42.177 M143.330 47.898 C 141.848 49.124,139.968 50.721,139.153 51.447 L 137.671 52.766 139.277 51.535 C 142.942 48.724,146.712 45.473,146.104 45.645 C 146.060 45.658,144.812 46.671,143.330 47.898 M340.585 46.747 C 340.585 46.924,340.792 47.430,341.044 47.871 C 341.297 48.313,341.503 48.530,341.503 48.353 C 341.503 48.177,341.297 47.671,341.044 47.229 C 340.792 46.787,340.585 46.570,340.585 46.747 M259.928 50.120 C 260.567 50.739,262.164 52.116,263.477 53.180 C 266.675 55.774,266.988 56.009,266.988 55.822 C 266.988 55.733,265.578 54.533,263.855 53.153 C 262.133 51.774,260.283 50.274,259.745 49.821 C 259.154 49.322,259.227 49.441,259.928 50.120 M341.587 49.639 C 341.595 49.992,341.712 50.715,341.847 51.245 L 342.093 52.209 342.108 51.245 C 342.117 50.715,341.999 49.992,341.847 49.639 L 341.571 48.996 341.587 49.639 M284.108 50.924 C 284.110 51.807,284.173 52.131,284.247 51.642 C 284.320 51.154,284.318 50.431,284.242 50.036 C 284.166 49.641,284.106 50.040,284.108 50.924 M342.326 84.803 L 342.329 117.397 346.024 120.397 C 348.056 122.047,350.406 123.978,351.245 124.688 C 352.084 125.398,352.765 125.863,352.756 125.721 C 352.748 125.578,350.471 123.642,347.696 121.418 L 342.651 117.374 342.487 84.791 L 342.323 52.209 342.326 84.803 M135.743 54.174 C 134.352 55.446,134.313 55.512,135.453 54.661 C 136.650 53.767,137.766 52.681,137.469 52.697 C 137.403 52.701,136.627 53.365,135.743 54.174 M283.833 60.884 C 283.833 64.948,283.879 66.566,283.935 64.480 C 283.991 62.394,283.991 59.068,283.934 57.090 C 283.878 55.112,283.832 56.819,283.833 60.884 M129.329 59.300 C 126.861 61.316,124.548 63.277,124.188 63.657 C 123.581 64.298,124.477 63.596,131.156 58.198 C 133.264 56.494,134.318 55.505,133.915 55.608 C 133.860 55.622,131.796 57.283,129.329 59.300 M267.336 56.332 C 267.410 56.391,268.699 57.429,270.201 58.639 C 276.828 63.978,277.994 64.888,276.787 63.780 C 274.949 62.092,267.671 56.225,267.416 56.225 C 267.298 56.225,267.262 56.273,267.336 56.332 M279.340 65.977 C 282.552 68.979,284.343 70.004,284.332 68.835 C 284.328 68.378,284.274 68.358,284.039 68.730 C 283.700 69.265,282.932 68.843,280.696 66.897 C 278.986 65.407,278.052 64.774,279.340 65.977 M119.908 67.011 C 118.973 67.793,118.327 68.434,118.471 68.434 C 118.615 68.434,119.451 67.790,120.330 67.002 C 122.387 65.159,122.112 65.165,119.908 67.011 M115.483 70.612 C 114.942 71.093,112.990 72.700,111.145 74.184 C 109.301 75.668,107.968 76.825,108.183 76.754 C 108.896 76.522,117.062 69.735,116.627 69.737 C 116.538 69.737,116.023 70.131,115.483 70.612 M106.024 78.423 L 104.578 79.736 105.939 78.720 C 107.138 77.825,107.865 77.107,107.569 77.109 C 107.515 77.110,106.819 77.701,106.024 78.423 M102.651 81.175 C 101.275 82.435,101.234 82.504,102.360 81.657 C 103.550 80.762,104.680 79.660,104.377 79.691 C 104.311 79.698,103.534 80.366,102.651 81.175 M96.225 86.300 C 93.607 88.428,91.351 90.533,93.366 88.967 C 97.145 86.031,99.389 84.086,98.876 84.193 C 98.831 84.203,97.639 85.151,96.225 86.300 M86.677 94.084 C 83.724 96.498,81.049 98.746,80.734 99.079 C 80.418 99.412,82.719 97.629,85.846 95.117 C 90.779 91.154,92.627 89.560,92.168 89.666 C 92.102 89.681,89.631 91.669,86.677 94.084 M75.390 103.278 C 72.942 105.275,70.629 107.234,70.249 107.630 C 69.869 108.026,70.498 107.596,71.647 106.674 C 72.795 105.752,75.059 103.935,76.677 102.637 C 79.156 100.648,80.380 99.517,79.939 99.622 C 79.884 99.635,77.837 101.280,75.390 103.278 M67.952 109.446 C 66.984 110.310,66.912 110.430,67.659 109.930 C 68.547 109.337,69.664 108.254,69.357 108.285 C 69.291 108.292,68.659 108.814,67.952 109.446 M61.950 114.187 C 59.533 116.147,57.545 117.868,57.533 118.011 C 57.511 118.256,58.044 117.841,62.801 113.895 C 63.867 113.011,65.159 111.960,65.672 111.561 C 66.184 111.161,66.546 110.787,66.475 110.728 C 66.404 110.670,64.368 112.226,61.950 114.187 M53.896 120.825 C 52.173 122.245,50.763 123.482,50.763 123.574 C 50.763 123.757,51.044 123.539,54.703 120.516 C 56.893 118.707,57.410 118.217,57.108 118.239 C 57.064 118.242,55.618 119.406,53.896 120.825 M48.675 125.191 C 47.299 126.451,47.258 126.520,48.384 125.673 C 49.574 124.778,50.705 123.676,50.401 123.707 C 50.335 123.714,49.558 124.382,48.675 125.191 M354.500 127.167 C 354.771 127.606,359.518 131.510,359.518 131.294 C 359.518 131.211,358.339 130.166,356.897 128.974 C 355.456 127.781,354.377 126.968,354.500 127.167 M43.890 128.933 C 40.774 131.605,40.048 132.379,42.429 130.492 C 44.559 128.803,45.948 127.515,45.582 127.567 C 45.516 127.577,44.754 128.191,43.890 128.933 M359.839 131.540 C 359.839 131.620,360.960 132.594,362.329 133.705 C 363.699 134.816,364.619 135.474,364.375 135.167 C 363.876 134.542,359.839 131.313,359.839 131.540 M37.102 134.548 C 36.568 135.028,35.556 135.904,34.853 136.493 C 34.080 137.142,33.955 137.314,34.538 136.930 C 35.593 136.235,38.491 133.683,38.233 133.677 C 38.145 133.675,37.636 134.067,37.102 134.548 M366.708 137.125 C 367.049 137.677,371.731 141.445,371.702 141.145 C 371.688 141.001,370.508 139.956,369.080 138.822 C 367.651 137.689,366.584 136.925,366.708 137.125 M25.060 144.307 C 20.554 148.015,15.169 152.425,13.094 154.107 C 11.019 155.788,9.219 157.329,9.094 157.531 C 8.969 157.733,9.308 157.540,9.848 157.102 C 10.387 156.664,11.891 155.438,13.189 154.378 C 14.487 153.317,16.435 151.727,17.517 150.843 C 18.600 149.960,20.549 148.369,21.847 147.309 C 23.146 146.249,25.095 144.659,26.177 143.775 C 27.260 142.892,29.151 141.360,30.378 140.371 C 32.316 138.811,33.752 137.452,33.373 137.537 C 33.307 137.552,29.566 140.598,25.060 144.307 M372.148 141.588 C 372.418 142.025,374.940 144.060,374.940 143.841 C 374.940 143.759,374.260 143.135,373.429 142.454 C 372.598 141.773,372.021 141.383,372.148 141.588 M375.405 144.230 C 375.730 144.756,380.404 148.501,380.376 148.213 C 380.362 148.070,379.192 147.041,377.777 145.927 C 376.361 144.814,375.294 144.050,375.405 144.230 M380.723 148.576 C 380.723 148.659,381.699 149.515,382.892 150.477 C 384.084 151.439,385.980 152.975,387.104 153.892 C 388.229 154.808,389.051 155.399,388.931 155.206 C 388.614 154.693,380.723 148.319,380.723 148.576 M389.398 155.606 C 389.398 155.687,390.663 156.813,392.209 158.107 C 393.755 159.402,394.834 160.228,394.607 159.943 C 394.109 159.318,389.398 155.396,389.398 155.606 M7.068 159.197 C 6.288 159.992,5.722 160.643,5.810 160.643 C 5.898 160.643,6.609 159.992,7.390 159.197 C 8.170 158.402,8.736 157.751,8.648 157.751 C 8.559 157.751,7.849 158.402,7.068 159.197 M395.502 161.606 C 395.879 162.137,396.261 162.570,396.349 162.570 C 396.437 162.570,396.201 162.137,395.823 161.606 C 395.446 161.076,395.065 160.643,394.976 160.643 C 394.888 160.643,395.125 161.076,395.502 161.606 M4.500 162.297 C 3.969 163.031,3.534 163.778,3.534 163.957 C 3.534 164.347,3.489 164.401,4.753 162.490 C 5.995 160.611,5.819 160.476,4.500 162.297 M2.249 171.689 C 2.249 171.954,2.394 172.260,2.570 172.369 C 2.747 172.479,2.892 172.351,2.892 172.086 C 2.892 171.821,2.747 171.515,2.570 171.406 C 2.394 171.296,2.249 171.424,2.249 171.689 M4.980 176.064 C 5.670 176.771,6.295 177.349,6.368 177.349 C 6.638 177.349,4.326 174.832,4.031 174.806 C 3.863 174.791,4.290 175.357,4.980 176.064 M394.056 177.199 C 393.526 177.633,393.248 177.989,393.438 177.990 C 393.628 177.991,394.123 177.631,394.538 177.189 C 395.490 176.175,395.300 176.179,394.056 177.199 M6.747 177.494 C 6.747 177.582,7.181 177.878,7.711 178.153 C 8.241 178.427,8.675 178.579,8.675 178.490 C 8.675 178.402,8.241 178.105,7.711 177.831 C 7.181 177.557,6.747 177.405,6.747 177.494 M390.683 178.818 C 389.534 179.229,388.784 179.573,389.016 179.582 C 389.666 179.607,392.598 178.593,392.795 178.275 C 392.891 178.119,392.925 178.009,392.870 178.031 C 392.816 178.052,391.831 178.406,390.683 178.818 M9.317 178.844 C 9.582 178.931,10.105 179.151,10.480 179.332 C 10.854 179.514,11.433 179.592,11.765 179.507 C 12.197 179.396,12.123 179.341,11.505 179.314 C 11.029 179.294,10.551 179.133,10.442 178.956 C 10.333 178.779,9.926 178.646,9.539 178.660 C 9.095 178.676,9.013 178.744,9.317 178.844 M13.065 179.920 C 13.153 180.008,19.423 180.153,26.999 180.241 C 34.574 180.329,40.671 180.302,40.547 180.181 C 40.423 180.059,34.152 179.915,26.613 179.860 C 19.073 179.804,12.977 179.831,13.065 179.920 M373.450 179.839 C 363.170 179.909,360.482 180.014,360.199 180.356 C 359.940 180.667,359.812 206.739,359.732 275.212 C 359.671 327.146,359.533 370.217,359.424 370.924 L 359.226 372.209 359.594 370.924 C 359.864 369.979,360.009 344.578,360.141 275.020 L 360.321 180.402 373.869 180.241 C 381.321 180.153,387.525 179.972,387.658 179.839 C 387.790 179.707,387.549 179.633,387.122 179.675 C 386.695 179.717,380.542 179.791,373.450 179.839 M173.876 277.221 C 173.468 277.336,185.643 277.430,200.932 277.430 C 216.221 277.430,228.483 277.331,228.181 277.211 C 227.478 276.932,174.869 276.941,173.876 277.221 M171.103 278.083 C 170.314 278.680,170.559 278.680,171.931 278.085 C 172.679 277.760,172.814 277.615,172.369 277.613 C 172.016 277.612,171.446 277.823,171.103 278.083 M230.201 278.190 C 230.908 278.513,231.962 279.178,232.544 279.669 C 233.125 280.160,233.684 280.479,233.785 280.378 C 234.038 280.125,230.064 277.589,229.428 277.597 C 229.146 277.601,229.494 277.868,230.201 278.190 M167.878 280.198 C 167.251 280.749,166.437 281.653,166.069 282.206 C 165.413 283.194,165.418 283.193,166.346 282.120 C 166.866 281.519,167.784 280.619,168.385 280.121 C 168.986 279.622,169.375 279.210,169.248 279.205 C 169.122 279.201,168.505 279.647,167.878 280.198 M235.502 283.301 C 235.502 283.459,235.601 283.687,235.722 283.808 C 236.172 284.258,236.779 286.472,236.836 287.871 L 236.895 289.317 237.025 288.047 C 237.156 286.766,236.334 283.529,235.794 283.194 C 235.633 283.095,235.502 283.143,235.502 283.301 M163.613 328.233 C 163.570 349.813,163.462 367.958,163.375 368.554 L 163.215 369.639 163.537 368.625 C 163.746 367.966,163.829 353.868,163.775 328.304 L 163.692 288.996 163.613 328.233 M237.177 367.229 C 237.175 367.847,237.288 368.715,237.430 369.157 C 237.791 370.284,237.803 369.106,237.448 367.390 L 237.182 366.104 237.177 367.229 M40.846 368.514 C 40.837 368.779,41.029 369.791,41.271 370.763 C 41.514 371.735,41.722 372.241,41.734 371.888 C 41.745 371.534,41.554 370.522,41.308 369.639 C 41.062 368.755,40.854 368.249,40.846 368.514 M162.966 370.763 C 162.966 371.382,163.032 371.635,163.113 371.325 C 163.194 371.016,163.194 370.510,163.113 370.201 C 163.032 369.892,162.966 370.145,162.966 370.763 M41.767 372.808 C 41.767 373.162,42.683 375.261,42.837 375.261 C 43.022 375.261,42.269 373.086,41.987 372.804 C 41.866 372.683,41.767 372.685,41.767 372.808 M238.418 373.012 C 238.416 373.475,239.323 375.314,239.346 374.896 C 239.352 374.784,239.146 374.206,238.888 373.611 C 238.630 373.017,238.418 372.747,238.418 373.012 M161.354 375.491 C 160.974 376.318,160.712 377.044,160.772 377.104 C 160.832 377.164,161.197 376.541,161.583 375.720 C 161.970 374.899,162.232 374.173,162.166 374.107 C 162.100 374.041,161.734 374.664,161.354 375.491 M357.618 375.591 C 356.017 379.132,353.087 382.648,349.799 384.972 C 347.763 386.412,347.389 386.861,348.976 385.962 C 350.394 385.159,354.581 381.170,355.674 379.581 C 356.785 377.968,358.667 374.303,358.481 374.117 C 358.406 374.042,358.018 374.705,357.618 375.591 M43.052 376.007 C 43.052 376.307,45.906 380.723,46.100 380.723 C 46.189 380.723,45.593 379.675,44.777 378.394 C 43.141 375.826,43.052 375.702,43.052 376.007 M159.578 378.876 C 159.135 379.627,157.952 381.181,156.948 382.329 L 155.124 384.418 157.183 382.247 C 158.315 381.053,159.566 379.499,159.963 378.793 C 160.929 377.074,160.597 377.145,159.578 378.876 M242.892 380.681 C 242.892 381.596,250.442 387.470,251.618 387.470 C 251.849 387.470,251.463 387.164,250.758 386.790 C 248.613 385.652,245.688 383.450,244.253 381.892 C 243.504 381.080,242.892 380.535,242.892 380.681 M46.586 381.279 C 46.586 381.434,47.127 382.059,47.788 382.668 C 48.826 383.624,48.881 383.645,48.190 382.826 C 46.865 381.253,46.586 380.985,46.586 381.279 M49.157 383.876 C 49.157 384.230,54.126 387.471,54.661 387.465 C 54.903 387.463,54.492 387.150,53.749 386.769 C 53.005 386.388,51.668 385.525,50.777 384.851 C 49.886 384.176,49.157 383.738,49.157 383.876 M154.205 384.719 C 153.947 384.974,152.876 385.697,151.826 386.326 C 150.776 386.955,150.067 387.470,150.250 387.470 C 150.681 387.470,154.393 385.073,154.679 384.610 C 154.983 384.119,154.765 384.169,154.205 384.719 M57.510 388.536 C 58.916 389.100,61.515 389.730,62.254 389.686 C 62.794 389.654,61.938 389.393,59.277 388.779 C 58.570 388.616,57.631 388.393,57.189 388.284 C 56.747 388.175,56.892 388.289,57.510 388.536 M147.149 388.434 C 146.884 388.605,146.305 388.767,145.863 388.794 C 145.206 388.834,145.179 388.866,145.714 388.973 C 146.074 389.044,146.870 388.886,147.482 388.620 C 148.094 388.355,148.378 388.134,148.112 388.130 C 147.847 388.126,147.414 388.262,147.149 388.434 M254.458 388.536 C 255.864 389.100,258.463 389.730,259.201 389.686 C 259.742 389.654,258.886 389.393,256.225 388.779 C 255.518 388.616,254.578 388.393,254.137 388.284 C 253.695 388.175,253.839 388.289,254.458 388.536 M343.362 388.312 C 343.252 388.421,342.469 388.654,341.621 388.828 C 338.298 389.512,337.822 389.645,338.550 389.682 C 339.391 389.725,341.852 389.165,343.454 388.566 C 344.072 388.335,344.349 388.138,344.070 388.129 C 343.790 388.120,343.471 388.202,343.362 388.312 M143.133 389.398 C 142.258 389.620,142.243 389.644,142.972 389.658 C 143.414 389.667,144.064 389.549,144.418 389.398 C 145.210 389.057,144.470 389.057,143.133 389.398 " stroke="none" fill="#848484" fill-rule="evenodd"></path><path id="path3" d="M284.156 60.402 C 284.156 64.908,284.201 66.751,284.256 64.498 C 284.311 62.245,284.311 58.558,284.256 56.305 C 284.201 54.052,284.156 55.896,284.156 60.402 M163.615 288.032 C 163.619 288.739,163.685 288.990,163.761 288.591 C 163.838 288.191,163.835 287.613,163.755 287.305 C 163.674 286.998,163.612 287.325,163.615 288.032 M156.145 382.811 C 155.364 383.606,154.798 384.257,154.886 384.257 C 154.975 384.257,155.685 383.606,156.466 382.811 C 157.246 382.016,157.813 381.365,157.724 381.365 C 157.636 381.365,156.925 382.016,156.145 382.811 M82.490 389.639 C 93.490 389.685,111.490 389.685,122.490 389.639 C 133.490 389.592,124.490 389.553,102.490 389.553 C 80.490 389.553,71.490 389.592,82.490 389.639 M279.116 389.639 C 289.940 389.685,307.651 389.685,318.474 389.639 C 329.297 389.592,320.442 389.553,298.795 389.553 C 277.149 389.553,268.293 389.592,279.116 389.639 " stroke="none" fill="#747474" fill-rule="evenodd"></path><path id="path4" d="M200.482 10.608 C 202.691 10.735,205.221 10.923,206.104 11.027 L 207.711 11.215 206.265 10.880 C 205.470 10.695,202.940 10.507,200.643 10.461 L 196.466 10.377 200.482 10.608 M194.378 10.924 C 193.279 11.155,193.276 11.161,194.217 11.180 C 194.747 11.191,195.470 11.076,195.823 10.924 C 196.596 10.592,195.955 10.592,194.378 10.924 M189.398 12.381 C 188.867 12.624,188.651 12.824,188.916 12.826 C 189.181 12.827,189.759 12.622,190.201 12.369 C 191.217 11.789,190.674 11.797,189.398 12.381 M212.165 13.014 C 213.337 13.625,213.634 13.629,212.832 13.022 C 212.489 12.763,211.992 12.547,211.727 12.542 C 211.462 12.538,211.659 12.750,212.165 13.014 M183.775 15.458 C 182.803 16.184,181.719 17.078,181.365 17.446 C 181.012 17.813,181.373 17.606,182.169 16.984 C 182.964 16.363,184.190 15.468,184.894 14.996 C 185.598 14.523,186.031 14.137,185.858 14.138 C 185.684 14.139,184.747 14.733,183.775 15.458 M214.940 14.290 C 214.940 14.372,215.699 14.941,216.627 15.556 C 217.554 16.171,218.892 17.131,219.598 17.690 C 220.752 18.603,220.735 18.571,219.438 17.385 C 218.059 16.125,214.940 13.978,214.940 14.290 M221.044 18.735 C 221.044 18.790,221.514 19.260,222.088 19.779 L 223.133 20.723 222.189 19.679 C 221.309 18.705,221.044 18.487,221.044 18.735 M223.293 20.669 C 223.293 20.757,223.871 21.288,224.578 21.847 C 225.285 22.407,225.863 22.793,225.863 22.705 C 225.863 22.616,225.285 22.086,224.578 21.526 C 223.871 20.966,223.293 20.581,223.293 20.669 M174.707 22.731 C 173.729 23.570,171.683 25.264,170.159 26.495 C 168.636 27.726,167.390 28.792,167.390 28.864 C 167.390 29.028,168.052 28.528,170.281 26.677 C 171.253 25.870,172.554 24.818,173.173 24.340 C 174.850 23.041,176.894 21.215,176.676 21.210 C 176.571 21.207,175.685 21.892,174.707 22.731 M227.218 24.024 C 229.048 25.570,229.619 25.864,228.112 24.484 C 227.317 23.756,226.553 23.154,226.415 23.146 C 226.276 23.139,226.637 23.534,227.218 24.024 M229.719 25.844 C 229.719 25.925,230.912 26.980,232.369 28.188 C 236.660 31.742,238.072 32.858,238.072 32.695 C 238.072 32.557,236.474 31.209,231.406 27.072 C 230.478 26.315,229.719 25.762,229.719 25.844 M164.177 31.346 C 163.028 32.309,161.329 33.692,160.402 34.419 C 158.485 35.920,158.080 36.538,159.920 35.154 C 161.895 33.668,166.680 29.572,166.426 29.585 C 166.337 29.590,165.325 30.382,164.177 31.346 M238.876 33.387 C 239.500 34.105,241.285 35.501,241.285 35.271 C 241.285 35.208,240.598 34.592,239.759 33.902 C 238.920 33.212,238.522 32.980,238.876 33.387 M242.353 36.223 C 243.037 37.002,246.747 39.957,246.747 39.723 C 246.747 39.636,245.627 38.663,244.257 37.561 C 242.888 36.458,242.031 35.856,242.353 36.223 M155.857 38.067 C 154.904 38.836,153.748 39.860,153.287 40.344 C 152.506 41.165,154.644 39.499,156.911 37.519 C 158.470 36.158,157.782 36.516,155.857 38.067 M303.878 39.759 C 309.060 39.809,317.445 39.808,322.513 39.759 C 327.581 39.709,323.341 39.669,313.092 39.669 C 302.843 39.669,298.697 39.709,303.878 39.759 M247.711 40.589 C 247.711 40.677,248.289 41.207,248.996 41.767 C 249.703 42.327,250.281 42.713,250.281 42.624 C 250.281 42.536,249.703 42.006,248.996 41.446 C 248.289 40.886,247.711 40.500,247.711 40.589 M334.956 41.418 C 335.848 41.930,336.769 42.579,337.003 42.861 C 337.237 43.143,337.575 43.373,337.754 43.373 C 338.165 43.373,335.877 41.536,334.715 40.933 C 333.127 40.108,333.308 40.474,334.956 41.418 M150.644 42.434 L 149.237 43.744 150.763 42.527 C 151.602 41.857,152.289 41.268,152.289 41.217 C 152.289 40.969,151.938 41.229,150.644 42.434 M288.012 43.454 L 287.068 44.498 288.112 43.554 C 288.687 43.035,289.157 42.565,289.157 42.510 C 289.157 42.262,288.892 42.480,288.012 43.454 M251.028 43.290 C 251.672 44.025,255.422 47.032,255.422 46.814 C 255.422 46.739,254.301 45.766,252.932 44.650 C 251.562 43.535,250.706 42.923,251.028 43.290 M338.818 44.689 C 339.336 45.324,339.824 45.789,339.903 45.723 C 339.982 45.656,339.559 45.137,338.963 44.568 L 337.878 43.534 338.818 44.689 M147.618 44.908 C 146.536 45.877,146.812 45.792,148.236 44.716 C 148.746 44.331,149.035 44.020,148.879 44.025 C 148.722 44.029,148.155 44.427,147.618 44.908 M286.517 45.221 C 285.668 46.193,284.098 49.988,284.413 50.304 C 284.480 50.371,284.720 49.887,284.945 49.229 C 285.589 47.346,286.304 45.832,286.838 45.221 C 287.108 44.912,287.256 44.659,287.168 44.659 C 287.080 44.659,286.787 44.912,286.517 45.221 M145.684 46.378 C 145.498 46.581,144.775 47.229,144.078 47.819 C 143.379 48.410,143.243 48.594,143.775 48.229 C 145.453 47.079,146.341 46.314,146.180 46.159 C 146.094 46.076,145.871 46.175,145.684 46.378 M256.386 47.657 C 256.386 47.745,256.964 48.276,257.671 48.835 C 258.378 49.395,258.956 49.781,258.956 49.693 C 258.956 49.604,258.378 49.074,257.671 48.514 C 256.964 47.954,256.386 47.568,256.386 47.657 M141.348 50.040 L 140.241 51.245 141.446 50.138 C 142.108 49.529,142.651 48.987,142.651 48.933 C 142.651 48.688,142.379 48.919,141.348 50.040 M341.420 49.960 C 341.528 50.667,341.705 66.140,341.812 84.346 L 342.008 117.447 343.454 118.710 C 345.619 120.600,346.100 120.850,344.265 119.130 C 343.377 118.299,342.542 117.612,342.410 117.604 C 342.277 117.597,342.160 103.024,342.149 85.221 C 342.133 58.628,342.048 52.479,341.676 50.763 C 341.427 49.614,341.312 49.253,341.420 49.960 M262.811 52.791 C 262.811 52.847,263.281 53.316,263.855 53.835 L 264.900 54.779 263.956 53.735 C 263.076 52.762,262.811 52.543,262.811 52.791 M135.145 54.967 C 133.140 56.598,129.958 59.477,131.296 58.450 C 134.607 55.907,137.336 53.534,136.787 53.675 C 136.743 53.687,136.004 54.268,135.145 54.967 M266.964 56.331 C 267.782 57.232,267.958 57.343,267.942 56.948 C 267.936 56.815,267.539 56.429,267.058 56.090 L 266.185 55.473 266.964 56.331 M271.618 60.034 C 271.736 60.225,272.940 61.286,274.293 62.392 C 275.647 63.498,276.649 64.233,276.521 64.025 C 276.392 63.817,275.188 62.756,273.845 61.667 C 272.502 60.578,271.500 59.843,271.618 60.034 M126.747 61.895 C 125.779 62.760,125.707 62.880,126.454 62.380 C 127.342 61.786,128.459 60.704,128.152 60.735 C 128.086 60.742,127.454 61.264,126.747 61.895 M123.565 64.355 C 120.678 66.825,119.027 68.446,121.095 66.781 C 123.140 65.135,125.530 62.984,125.301 62.997 C 125.213 63.002,124.431 63.613,123.565 64.355 M277.048 64.480 C 277.318 64.917,279.839 66.951,279.839 66.732 C 279.839 66.650,279.159 66.026,278.328 65.345 C 277.497 64.664,276.921 64.275,277.048 64.480 M116.781 69.969 C 116.247 70.450,115.235 71.326,114.532 71.915 C 113.758 72.563,113.634 72.736,114.217 72.352 C 115.271 71.657,118.170 69.105,117.912 69.099 C 117.823 69.097,117.314 69.488,116.781 69.969 M111.790 74.137 L 110.683 75.341 111.888 74.234 C 112.550 73.625,113.092 73.083,113.092 73.029 C 113.092 72.784,112.820 73.015,111.790 74.137 M108.877 76.491 L 107.470 77.800 108.996 76.583 C 109.835 75.914,110.522 75.324,110.522 75.273 C 110.522 75.026,110.171 75.285,108.877 76.491 M105.575 79.058 C 104.886 79.576,104.452 79.996,104.611 79.991 C 104.770 79.986,105.468 79.552,106.162 79.027 C 106.856 78.502,107.290 78.082,107.126 78.094 C 106.961 78.106,106.264 78.540,105.575 79.058 M98.956 84.550 C 97.984 85.447,97.622 85.888,98.153 85.529 C 99.060 84.916,101.168 82.875,100.863 82.905 C 100.786 82.913,99.928 83.653,98.956 84.550 M93.494 89.035 C 92.374 90.017,92.374 90.018,93.404 89.333 C 93.973 88.954,94.524 88.507,94.628 88.338 C 94.938 87.837,94.681 87.995,93.494 89.035 M90.906 91.165 L 89.799 92.369 91.004 91.262 C 92.125 90.232,92.357 89.960,92.111 89.960 C 92.058 89.960,91.515 90.502,90.906 91.165 M87.993 93.519 L 86.586 94.829 88.112 93.611 C 88.952 92.942,89.639 92.352,89.639 92.301 C 89.639 92.054,89.288 92.313,87.993 93.519 M80.643 99.458 C 79.494 100.422,77.831 101.765,76.947 102.444 C 76.064 103.122,75.124 103.952,74.859 104.288 C 74.594 104.625,74.905 104.466,75.550 103.936 C 76.196 103.406,77.700 102.177,78.892 101.205 C 81.629 98.975,83.098 97.687,82.892 97.698 C 82.803 97.702,81.791 98.495,80.643 99.458 M72.771 105.911 C 71.804 106.776,71.731 106.896,72.478 106.396 C 73.366 105.802,74.483 104.720,74.176 104.751 C 74.110 104.758,73.478 105.280,72.771 105.911 M69.592 108.371 C 66.477 111.042,65.751 111.817,68.132 109.930 C 70.262 108.241,71.651 106.952,71.284 107.005 C 71.219 107.015,70.457 107.629,69.592 108.371 M60.562 115.871 C 59.595 116.736,59.522 116.856,60.269 116.356 C 61.158 115.762,62.275 114.680,61.967 114.711 C 61.901 114.717,61.269 115.240,60.562 115.871 M57.189 118.611 C 55.958 119.750,55.812 119.951,56.707 119.275 C 57.899 118.374,59.384 116.930,59.086 116.962 C 59.014 116.969,58.161 117.711,57.189 118.611 M53.107 121.874 C 50.746 123.869,50.242 124.384,51.566 123.448 C 52.715 122.636,55.490 120.188,55.261 120.189 C 55.173 120.189,54.203 120.947,53.107 121.874 M348.566 122.839 C 349.036 123.424,350.843 124.801,350.843 124.574 C 350.843 124.503,350.229 123.957,349.478 123.360 C 348.727 122.763,348.316 122.529,348.566 122.839 M49.130 125.069 C 48.498 125.638,47.341 126.652,46.560 127.322 C 45.748 128.018,46.033 127.861,47.229 126.954 C 49.092 125.540,50.764 124.001,50.411 124.025 C 50.340 124.030,49.763 124.499,49.130 125.069 M354.538 127.698 C 356.157 129.171,359.518 131.814,359.518 131.614 C 359.518 131.532,358.554 130.692,357.377 129.748 C 354.058 127.088,353.134 126.421,354.538 127.698 M43.992 129.372 L 43.213 130.230 44.086 129.613 C 44.567 129.274,44.964 128.888,44.970 128.755 C 44.986 128.359,44.810 128.470,43.992 129.372 M38.650 133.598 C 37.200 134.778,36.008 135.859,35.999 136.002 C 35.991 136.144,36.671 135.681,37.510 134.973 C 38.349 134.265,39.664 133.172,40.432 132.546 C 41.200 131.919,41.706 131.416,41.557 131.429 C 41.407 131.442,40.099 132.418,38.650 133.598 M360.482 132.511 C 360.482 132.660,364.085 135.641,366.071 137.136 C 367.712 138.370,364.701 135.685,362.490 133.942 C 361.386 133.071,360.482 132.427,360.482 132.511 M34.538 137.056 L 33.574 137.884 34.618 137.193 C 35.193 136.813,35.663 136.440,35.663 136.364 C 35.663 136.123,35.527 136.207,34.538 137.056 M369.157 139.544 C 369.157 139.633,369.735 140.163,370.442 140.723 C 371.149 141.283,371.727 141.668,371.727 141.580 C 371.727 141.492,371.149 140.961,370.442 140.402 C 369.735 139.842,369.157 139.456,369.157 139.544 M27.825 142.427 C 24.710 145.099,23.984 145.873,26.365 143.986 C 28.495 142.297,29.884 141.009,29.517 141.061 C 29.451 141.071,28.690 141.685,27.825 142.427 M372.339 142.109 C 372.837 142.734,375.261 144.713,375.261 144.495 C 375.261 144.419,374.502 143.725,373.574 142.951 C 372.647 142.177,372.091 141.798,372.339 142.109 M375.582 144.679 C 375.582 144.734,376.052 145.204,376.627 145.723 L 377.671 146.667 376.727 145.622 C 375.847 144.649,375.582 144.431,375.582 144.679 M377.831 146.613 C 377.831 146.701,378.410 147.231,379.116 147.791 C 379.823 148.351,380.402 148.737,380.402 148.648 C 380.402 148.560,379.823 148.030,379.116 147.470 C 378.410 146.910,377.831 146.524,377.831 146.613 M19.572 149.165 C 18.939 149.735,17.783 150.749,17.002 151.418 C 16.189 152.115,16.475 151.957,17.671 151.050 C 19.533 149.636,21.205 148.098,20.853 148.121 C 20.781 148.126,20.205 148.596,19.572 149.165 M381.742 149.940 C 383.545 151.397,383.869 151.546,382.504 150.291 C 381.789 149.633,381.085 149.091,380.939 149.086 C 380.793 149.081,381.155 149.465,381.742 149.940 M384.555 152.085 C 385.080 152.736,391.325 157.845,391.325 157.623 C 391.325 157.543,389.699 156.136,387.711 154.497 C 385.723 152.857,384.303 151.772,384.555 152.085 M9.960 157.154 L 8.193 158.786 9.879 157.436 C 11.357 156.252,12.139 155.480,11.826 155.512 C 11.772 155.518,10.932 156.257,9.960 157.154 M6.887 159.759 L 5.944 160.803 6.988 159.860 C 7.562 159.341,8.032 158.871,8.032 158.815 C 8.032 158.567,7.767 158.786,6.887 159.759 M393.574 159.569 C 393.574 159.745,393.972 160.238,394.458 160.667 L 395.341 161.446 394.538 160.482 C 394.096 159.952,393.699 159.458,393.655 159.384 C 393.610 159.311,393.574 159.394,393.574 159.569 M4.485 162.910 C 4.100 163.450,3.839 163.946,3.904 164.012 C 3.970 164.077,4.349 163.635,4.746 163.029 C 5.641 161.663,5.439 161.571,4.485 162.910 M396.787 164.054 C 396.787 164.231,396.999 164.656,397.259 164.999 C 397.518 165.342,397.731 165.478,397.731 165.301 C 397.731 165.124,397.518 164.699,397.259 164.356 C 396.999 164.013,396.787 163.877,396.787 164.054 M2.615 167.084 C 2.375 167.626,2.263 168.153,2.366 168.256 C 2.582 168.472,3.279 166.785,3.142 166.375 C 3.092 166.223,2.854 166.543,2.615 167.084 M2.259 170.458 C 2.254 170.643,2.380 170.933,2.539 171.100 C 2.699 171.268,2.899 171.695,2.984 172.048 C 3.135 172.675,3.139 172.675,3.176 172.029 C 3.196 171.665,3.001 171.087,2.741 170.744 C 2.482 170.401,2.265 170.272,2.259 170.458 M395.518 175.565 L 394.088 177.189 395.663 175.674 C 396.529 174.841,397.173 174.110,397.093 174.051 C 397.013 173.991,396.304 174.673,395.518 175.565 M4.498 175.100 C 4.875 175.631,5.257 176.064,5.345 176.064 C 5.433 176.064,5.197 175.631,4.819 175.100 C 4.442 174.570,4.061 174.137,3.972 174.137 C 3.884 174.137,4.121 174.570,4.498 175.100 M7.068 177.402 C 8.264 178.138,11.289 179.341,11.475 179.154 C 11.537 179.092,11.112 178.871,10.532 178.663 C 9.952 178.454,8.791 177.928,7.952 177.495 C 6.068 176.522,5.552 176.468,7.068 177.402 M392.129 177.992 C 392.019 178.169,391.613 178.330,391.226 178.351 C 390.692 178.379,390.656 178.423,391.078 178.534 C 391.384 178.614,391.959 178.452,392.355 178.175 C 392.751 177.898,392.906 177.671,392.701 177.671 C 392.495 177.671,392.238 177.815,392.129 177.992 M13.739 179.504 C 14.138 179.581,14.717 179.578,15.024 179.498 C 15.331 179.417,15.004 179.355,14.297 179.358 C 13.590 179.362,13.339 179.427,13.739 179.504 M386.108 179.504 C 386.508 179.581,387.086 179.578,387.393 179.498 C 387.700 179.417,387.373 179.355,386.667 179.358 C 385.960 179.362,385.709 179.427,386.108 179.504 M28.112 179.914 L 40.643 180.080 40.804 273.896 L 40.965 367.711 41.045 274.040 C 41.107 201.525,41.037 180.282,40.739 179.984 C 40.450 179.695,37.258 179.617,27.968 179.673 L 15.582 179.748 28.112 179.914 M360.049 179.839 C 359.913 180.059,369.450 180.054,380.884 179.829 C 383.357 179.780,379.715 179.708,372.790 179.669 C 365.865 179.630,360.131 179.707,360.049 179.839 M173.605 276.870 C 173.401 277.001,185.618 277.111,200.754 277.115 C 220.152 277.120,228.628 277.228,229.476 277.482 C 230.137 277.681,230.609 277.731,230.524 277.593 C 230.439 277.456,229.898 277.229,229.321 277.090 C 227.979 276.765,174.100 276.553,173.605 276.870 M231.644 278.460 C 232.084 278.777,233.024 279.536,233.732 280.147 L 235.020 281.258 233.986 280.142 C 233.417 279.528,232.477 278.769,231.897 278.455 C 230.881 277.904,230.872 277.904,231.644 278.460 M166.957 280.779 C 165.958 281.826,165.141 282.787,165.141 282.913 C 165.141 283.039,165.729 282.474,166.448 281.658 C 167.167 280.841,168.126 279.881,168.579 279.524 C 169.033 279.167,169.262 278.876,169.088 278.876 C 168.915 278.876,167.955 279.732,166.957 280.779 M163.928 285.382 C 163.381 286.894,163.457 287.304,164.037 285.968 C 164.299 285.363,164.471 284.738,164.418 284.580 C 164.365 284.421,164.145 284.782,163.928 285.382 M237.211 287.871 C 237.211 289.020,237.270 289.490,237.341 288.916 C 237.412 288.341,237.412 287.402,237.341 286.827 C 237.270 286.253,237.211 286.723,237.211 287.871 M163.288 328.193 C 163.243 349.398,163.137 367.325,163.054 368.032 L 162.901 369.317 163.219 368.082 C 163.422 367.293,163.507 352.916,163.454 328.243 L 163.371 289.639 163.288 328.193 M237.264 327.871 C 237.264 348.546,237.302 356.957,237.349 346.562 C 237.396 336.166,237.396 319.251,237.349 308.971 C 237.302 298.692,237.264 307.197,237.264 327.871 M237.485 366.586 C 237.475 367.028,237.586 367.968,237.733 368.675 C 237.903 369.499,238.005 369.672,238.017 369.157 C 238.027 368.715,237.916 367.775,237.769 367.068 C 237.599 366.244,237.497 366.071,237.485 366.586 M359.380 368.698 C 359.262 369.168,359.238 369.626,359.326 369.714 C 359.415 369.803,359.583 369.490,359.702 369.019 C 359.820 368.548,359.844 368.091,359.756 368.002 C 359.668 367.914,359.499 368.227,359.380 368.698 M162.499 370.763 C 162.387 371.382,162.207 372.321,162.100 372.851 C 161.978 373.452,162.098 373.293,162.417 372.428 C 162.700 371.665,162.879 370.725,162.817 370.340 C 162.732 369.816,162.651 369.923,162.499 370.763 M358.819 371.084 C 358.710 371.703,358.526 372.570,358.409 373.012 C 358.285 373.485,358.409 373.356,358.712 372.700 C 358.994 372.086,359.179 371.219,359.121 370.772 C 359.031 370.073,358.989 370.117,358.819 371.084 M41.788 371.566 C 41.772 372.013,42.504 374.004,42.968 374.779 C 43.421 375.533,43.512 375.190,43.076 374.373 C 42.913 374.066,42.559 373.237,42.289 372.530 C 42.020 371.823,41.795 371.390,41.788 371.566 M238.752 372.734 C 238.732 373.023,238.931 373.674,239.195 374.180 C 239.459 374.686,239.676 374.876,239.677 374.602 C 239.678 374.329,239.548 373.967,239.389 373.799 C 239.229 373.631,239.029 373.205,238.944 372.851 C 238.835 372.399,238.778 372.364,238.752 372.734 M240.161 376.225 C 240.435 376.755,240.731 377.189,240.820 377.189 C 240.908 377.189,240.756 376.755,240.482 376.225 C 240.208 375.695,239.911 375.261,239.823 375.261 C 239.735 375.261,239.887 375.695,240.161 376.225 M356.663 376.871 C 356.267 377.576,356.010 378.153,356.092 378.153 C 356.310 378.153,357.638 375.844,357.500 375.706 C 357.436 375.642,357.059 376.166,356.663 376.871 M44.003 377.070 C 44.405 377.800,45.083 378.812,45.509 379.319 C 45.936 379.826,45.699 379.310,44.983 378.173 C 43.447 375.733,42.974 375.200,44.003 377.070 M159.885 377.678 C 159.438 378.478,159.211 379.046,159.380 378.942 C 159.718 378.733,161.063 376.225,160.837 376.225 C 160.760 376.225,160.332 376.879,159.885 377.678 M242.892 380.241 C 243.491 380.859,244.054 381.365,244.142 381.365 C 244.230 381.365,243.812 380.859,243.213 380.241 C 242.613 379.622,242.051 379.116,241.962 379.116 C 241.874 379.116,242.292 379.622,242.892 380.241 M157.772 380.809 C 156.857 381.937,156.821 382.032,157.561 381.365 C 158.329 380.673,159.242 379.426,158.967 379.444 C 158.917 379.447,158.379 380.061,157.772 380.809 M48.032 382.329 C 49.081 383.390,50.012 384.257,50.100 384.257 C 50.189 384.257,49.403 383.390,48.353 382.329 C 47.304 381.269,46.374 380.402,46.285 380.402 C 46.197 380.402,46.983 381.269,48.032 382.329 M352.606 382.255 C 351.544 383.268,350.243 384.428,349.715 384.833 C 349.187 385.239,349.406 385.143,350.201 384.621 C 351.467 383.789,355.085 380.391,354.687 380.408 C 354.605 380.411,353.669 381.242,352.606 382.255 M154.679 384.016 L 153.735 385.060 154.779 384.117 C 155.353 383.598,155.823 383.128,155.823 383.072 C 155.823 382.824,155.558 383.043,154.679 384.016 M246.267 383.573 C 246.906 384.332,250.083 386.513,250.528 386.498 C 250.657 386.493,249.983 385.992,249.029 385.384 C 248.075 384.777,246.919 383.949,246.461 383.545 L 245.627 382.811 246.267 383.573 M52.209 385.675 C 52.739 386.130,53.305 386.504,53.467 386.504 C 53.816 386.506,53.812 386.503,52.369 385.572 L 51.245 384.846 52.209 385.675 M151.247 386.269 C 150.585 386.637,150.092 386.986,150.151 387.045 C 150.307 387.202,152.245 386.194,152.462 385.843 C 152.697 385.463,152.689 385.466,151.247 386.269 M148.916 387.470 C 148.806 387.647,148.400 387.808,148.013 387.828 C 147.479 387.857,147.443 387.901,147.866 388.011 C 148.171 388.092,148.746 387.930,149.142 387.653 C 149.538 387.376,149.694 387.149,149.488 387.149 C 149.282 387.149,149.025 387.293,148.916 387.470 M344.257 387.642 C 343.727 387.885,343.510 388.085,343.775 388.087 C 344.040 388.088,344.618 387.883,345.060 387.631 C 346.076 387.050,345.533 387.058,344.257 387.642 M57.467 388.255 C 58.061 388.530,58.929 388.738,59.394 388.718 C 60.123 388.686,60.084 388.645,59.116 388.425 C 58.498 388.284,57.631 388.076,57.189 387.962 C 56.669 387.829,56.767 387.932,57.467 388.255 M146.024 388.434 L 145.060 388.679 145.925 388.717 C 146.400 388.738,146.879 388.610,146.988 388.434 C 147.097 388.257,147.142 388.130,147.087 388.150 C 147.033 388.171,146.554 388.299,146.024 388.434 M257.831 389.076 C 258.185 389.228,258.763 389.348,259.116 389.343 C 259.633 389.335,259.602 389.283,258.956 389.076 C 257.857 388.724,257.013 388.724,257.831 389.076 " stroke="none" fill="#575757" fill-rule="evenodd"></path></g></svg>