<svg id="svg" version="1.1" xmlns="http://www.w3.org/2000/svg" xmlns:xlink="http://www.w3.org/1999/xlink" width="400" height="399.03614457831327" viewBox="0, 0, 400,399.03614457831327"><g id="svgg"><path id="path0" d="M0.000 199.518 L 0.000 399.036 200.000 399.036 L 400.000 399.036 400.000 199.518 L 400.000 0.000 200.000 0.000 L 0.000 0.000 0.000 199.518 M346.988 43.626 C 355.757 47.014,361.765 53.834,363.890 62.811 C 364.464 65.239,364.498 67.072,364.498 95.904 L 364.498 126.426 293.725 126.586 L 222.951 126.747 222.959 174.779 C 222.963 201.197,223.063 234.197,223.182 248.112 L 223.397 273.414 292.662 273.432 C 330.758 273.442,362.506 273.553,363.213 273.679 L 364.498 273.907 364.498 305.387 C 364.498 339.018,364.542 337.943,362.988 342.329 C 360.070 350.567,351.442 358.201,344.016 359.116 C 343.353 359.198,342.811 359.394,342.811 359.552 C 342.811 359.721,278.200 359.839,186.345 359.839 C 82.249 359.839,29.880 359.732,29.880 359.518 C 29.880 359.341,29.487 359.197,29.007 359.197 C 28.241 359.197,26.683 358.744,24.578 357.910 C 19.216 355.786,14.329 351.851,11.414 347.309 C 9.415 344.195,7.711 340.167,7.711 338.554 C 7.711 338.068,7.566 337.671,7.390 337.671 C 7.176 337.671,7.068 291.888,7.068 200.964 C 7.068 110.040,7.176 64.257,7.390 64.257 C 7.566 64.257,7.711 63.943,7.711 63.558 C 7.711 62.565,9.192 58.402,10.182 56.614 C 14.060 49.608,22.367 43.563,29.398 42.631 C 29.928 42.561,100.988 42.519,187.309 42.537 L 344.257 42.570 346.988 43.626 M381.205 152.456 C 387.057 154.211,394.538 161.020,394.538 164.592 C 394.538 164.915,394.683 165.089,394.859 164.980 C 395.073 164.848,395.181 176.596,395.181 199.981 C 395.181 223.233,395.072 235.181,394.859 235.181 C 394.683 235.181,394.538 235.409,394.538 235.687 C 394.538 237.852,389.316 243.923,385.860 245.777 C 380.660 248.566,384.797 248.408,320.000 248.294 C 256.582 248.182,261.470 248.341,257.992 246.276 C 257.373 245.908,256.456 245.398,255.952 245.142 C 253.084 243.683,249.391 238.749,248.016 234.538 L 247.229 232.129 247.229 200.161 L 247.229 168.193 248.006 165.821 C 250.074 159.507,257.040 152.642,261.414 152.606 C 261.741 152.603,262.225 152.460,262.490 152.289 C 263.380 151.714,379.273 151.877,381.205 152.456 M299.277 178.814 C 298.924 178.896,297.839 179.136,296.867 179.346 C 279.502 183.106,274.903 207.648,289.633 217.949 C 307.164 230.208,329.376 213.747,322.957 193.253 C 321.590 188.886,316.810 183.129,313.127 181.411 C 310.843 180.346,309.173 179.642,308.140 179.308 C 306.975 178.930,300.359 178.562,299.277 178.814 " stroke="none" fill="#fbfbfb" fill-rule="evenodd"></path><path id="path1" d="M33.366 42.564 C 33.280 42.650,32.062 42.876,30.661 43.066 C 28.366 43.377,27.213 43.643,25.221 44.325 C 19.172 46.394,12.461 52.376,10.071 57.831 C 8.576 61.242,8.117 62.829,7.867 65.461 C 7.745 66.741,7.516 67.709,7.357 67.610 C 7.186 67.505,7.068 121.960,7.068 200.765 C 7.068 281.739,7.185 334.170,7.364 334.282 C 7.527 334.382,7.756 335.439,7.872 336.630 C 8.083 338.790,9.076 342.002,10.380 344.739 C 13.869 352.063,23.100 358.395,31.161 358.994 C 32.484 359.092,33.616 359.322,33.677 359.506 C 33.840 359.994,338.695 359.972,339.183 359.483 C 339.379 359.288,340.528 359.058,341.737 358.973 C 344.781 358.758,348.385 357.508,351.982 355.419 C 354.690 353.845,359.024 349.355,360.350 346.748 C 360.688 346.085,361.267 345.036,361.637 344.418 C 362.007 343.799,362.390 342.932,362.488 342.490 C 362.586 342.048,362.932 340.819,363.257 339.759 C 363.813 337.944,363.848 335.972,363.851 306.024 L 363.855 274.217 293.333 274.056 L 222.811 273.896 222.617 245.622 C 222.510 230.072,222.402 196.856,222.376 171.808 L 222.329 126.266 293.092 126.185 L 363.855 126.104 363.855 95.261 C 363.855 71.529,363.763 64.103,363.454 63.052 C 363.233 62.301,362.890 61.072,362.692 60.321 C 362.348 59.015,361.464 56.885,361.124 56.546 C 361.036 56.458,360.694 55.855,360.365 55.206 C 358.482 51.501,350.617 44.659,348.240 44.659 C 348.077 44.659,347.692 44.532,347.385 44.377 C 346.378 43.868,344.523 43.363,342.284 42.988 C 340.081 42.619,33.731 42.199,33.366 42.564 M262.811 152.672 C 258.574 153.881,255.931 155.376,253.203 158.103 C 251.003 160.303,248.978 163.342,248.991 164.422 C 248.994 164.645,248.862 165.079,248.699 165.386 C 247.454 167.722,247.388 169.468,247.389 200.060 C 247.390 231.307,247.378 231.025,248.833 235.365 C 250.037 238.959,253.684 243.454,256.701 245.062 C 257.449 245.461,258.443 245.989,258.910 246.234 C 259.955 246.784,261.672 247.234,264.455 247.686 C 267.427 248.170,375.464 248.170,378.437 247.686 C 383.390 246.881,386.653 245.307,389.715 242.245 C 391.680 240.279,394.217 236.245,394.217 235.085 C 394.217 234.827,394.434 234.437,394.699 234.217 C 395.122 233.866,395.181 229.667,395.181 199.995 C 395.181 170.228,395.123 166.151,394.699 165.988 C 394.434 165.887,394.217 165.493,394.217 165.114 C 394.217 161.494,387.707 155.300,381.526 153.038 C 379.658 152.354,265.162 152.001,262.811 152.672 M305.209 178.323 C 306.882 178.499,308.393 178.786,308.567 178.960 C 308.741 179.135,309.146 179.277,309.466 179.277 C 309.787 179.277,310.300 179.404,310.607 179.558 C 313.407 180.968,314.288 181.492,315.823 182.663 C 318.670 184.834,320.708 187.309,322.262 190.484 C 324.402 194.853,325.300 200.041,324.466 203.213 C 324.280 203.920,324.014 205.076,323.874 205.783 C 323.580 207.275,323.427 207.706,322.316 210.201 C 321.864 211.217,321.384 212.048,321.250 212.048 C 321.117 212.048,320.905 212.371,320.779 212.766 C 320.143 214.771,314.538 219.407,311.004 220.851 C 310.209 221.176,309.269 221.560,308.916 221.703 C 306.911 222.517,300.955 222.866,298.474 222.314 C 287.080 219.781,280.346 211.602,280.365 200.321 C 280.372 195.647,280.575 194.555,281.970 191.647 C 282.394 190.763,282.739 189.859,282.736 189.639 C 282.733 189.418,282.843 189.237,282.979 189.237 C 283.116 189.237,283.496 188.737,283.825 188.126 C 285.105 185.750,288.900 182.308,291.888 180.814 C 295.863 178.825,297.436 178.380,301.687 178.041 C 301.952 178.020,303.537 178.147,305.209 178.323 " stroke="none" fill="#040404" fill-rule="evenodd"></path><path id="path2" d="M222.447 130.602 C 222.447 132.369,222.501 133.051,222.567 132.118 C 222.632 131.184,222.631 129.738,222.565 128.905 C 222.499 128.071,222.446 128.835,222.447 130.602 M301.767 222.551 C 302.076 222.632,302.582 222.632,302.892 222.551 C 303.201 222.470,302.948 222.404,302.329 222.404 C 301.711 222.404,301.458 222.470,301.767 222.551 M222.781 228.755 C 222.781 231.671,222.830 232.863,222.890 231.406 C 222.949 229.948,222.949 227.562,222.890 226.104 C 222.830 224.647,222.781 225.839,222.781 228.755 M258.233 273.976 C 277.361 274.022,308.663 274.022,327.791 273.976 C 346.920 273.930,331.269 273.893,293.012 273.893 C 254.755 273.893,239.104 273.930,258.233 273.976 " stroke="none" fill="#7c7c7c" fill-rule="evenodd"></path><path id="path3" d="M28.353 42.952 C 28.663 43.033,29.169 43.033,29.478 42.952 C 29.787 42.872,29.534 42.805,28.916 42.805 C 28.297 42.805,28.044 42.872,28.353 42.952 M343.213 42.952 C 343.522 43.033,344.028 43.033,344.337 42.952 C 344.647 42.872,344.394 42.805,343.775 42.805 C 343.157 42.805,342.904 42.872,343.213 42.952 M22.670 44.829 C 21.868 45.436,22.165 45.432,23.337 44.821 C 23.843 44.557,24.040 44.345,23.775 44.350 C 23.510 44.354,23.013 44.570,22.670 44.829 M349.558 44.803 C 349.558 44.891,349.992 45.188,350.522 45.462 C 351.052 45.736,351.486 45.888,351.486 45.800 C 351.486 45.711,351.052 45.415,350.522 45.141 C 349.992 44.866,349.558 44.714,349.558 44.803 M18.313 47.370 C 17.695 47.781,16.827 48.522,16.386 49.017 C 15.620 49.875,15.642 49.870,16.867 48.898 C 17.574 48.338,18.514 47.593,18.956 47.243 C 20.040 46.385,19.695 46.454,18.313 47.370 M356.292 49.558 C 357.623 50.977,357.912 51.232,357.912 50.991 C 357.912 50.939,357.225 50.252,356.386 49.464 L 354.859 48.032 356.292 49.558 M13.449 51.968 C 12.822 52.631,11.990 53.679,11.599 54.297 L 10.888 55.422 11.629 54.475 C 12.036 53.954,12.930 52.906,13.615 52.146 C 15.146 50.446,15.018 50.309,13.449 51.968 M358.554 52.209 C 358.969 52.651,359.363 53.012,359.428 53.012 C 359.695 53.012,358.371 51.425,358.097 51.416 C 357.933 51.410,358.139 51.767,358.554 52.209 M362.422 58.678 C 362.415 58.879,362.621 59.529,362.879 60.124 C 363.137 60.718,363.354 61.041,363.361 60.840 C 363.368 60.640,363.162 59.989,362.904 59.394 C 362.646 58.800,362.429 58.477,362.422 58.678 M7.068 64.900 C 7.068 65.253,7.213 65.542,7.390 65.542 C 7.566 65.542,7.711 65.253,7.711 64.900 C 7.711 64.546,7.566 64.257,7.390 64.257 C 7.213 64.257,7.068 64.546,7.068 64.900 M364.177 95.100 L 364.177 126.104 293.655 126.267 L 223.133 126.429 293.815 126.427 L 364.498 126.426 364.580 97.940 C 364.625 82.273,364.553 68.249,364.419 66.775 C 364.286 65.302,364.177 78.048,364.177 95.100 M222.807 175.904 C 222.807 202.233,222.845 212.957,222.892 199.734 C 222.938 186.511,222.938 164.969,222.892 151.862 C 222.845 138.756,222.807 149.574,222.807 175.904 M262.490 152.285 C 262.162 152.494,262.418 152.529,263.293 152.395 C 264.881 152.152,265.152 151.966,263.909 151.973 C 263.394 151.975,262.755 152.116,262.490 152.285 M380.402 152.407 C 380.402 152.557,383.445 153.581,383.835 153.562 C 384.214 153.543,382.323 152.753,381.285 152.496 C 380.799 152.375,380.402 152.335,380.402 152.407 M259.759 153.104 C 258.484 153.688,259.100 153.686,260.723 153.102 C 261.430 152.847,261.719 152.644,261.365 152.651 C 261.012 152.657,260.289 152.861,259.759 153.104 M253.956 156.712 C 252.885 157.725,252.451 158.184,252.992 157.732 C 255.883 155.316,256.386 154.860,256.156 154.865 C 256.017 154.868,255.027 155.699,253.956 156.712 M389.705 157.510 C 391.037 158.929,391.325 159.184,391.325 158.942 C 391.325 158.891,390.639 158.204,389.799 157.416 L 388.273 155.984 389.705 157.510 M251.020 159.759 C 250.658 160.157,250.196 160.843,249.993 161.285 C 249.681 161.966,249.687 161.996,250.034 161.483 C 250.258 161.150,250.780 160.463,251.193 159.957 C 252.084 158.865,251.961 158.725,251.020 159.759 M393.414 162.570 C 393.688 163.100,393.984 163.534,394.073 163.534 C 394.161 163.534,394.009 163.100,393.735 162.570 C 393.461 162.040,393.164 161.606,393.076 161.606 C 392.988 161.606,393.140 162.040,393.414 162.570 M247.223 200.161 C 247.223 217.390,247.262 224.438,247.309 215.823 C 247.357 207.209,247.357 193.112,247.309 184.498 C 247.262 175.884,247.223 182.932,247.223 200.161 M301.606 178.540 C 302.004 178.617,302.655 178.617,303.052 178.540 C 303.450 178.463,303.124 178.401,302.329 178.401 C 301.534 178.401,301.209 178.463,301.606 178.540 M296.546 179.144 C 295.526 179.561,295.511 179.584,296.386 179.392 C 296.916 179.276,297.928 179.076,298.635 178.948 L 299.920 178.715 298.795 178.699 C 298.177 178.691,297.165 178.891,296.546 179.144 M305.141 178.861 C 305.538 178.938,306.189 178.938,306.586 178.861 C 306.984 178.785,306.659 178.722,305.863 178.722 C 305.068 178.722,304.743 178.785,305.141 178.861 M307.952 179.277 C 308.305 179.429,308.811 179.553,309.076 179.553 C 309.380 179.553,309.321 179.451,308.916 179.277 C 308.562 179.125,308.056 179.001,307.791 179.001 C 307.487 179.001,307.547 179.103,307.952 179.277 M309.719 179.740 C 309.719 179.904,312.569 181.211,312.892 181.195 C 313.184 181.181,312.133 180.598,310.840 180.058 C 310.224 179.801,309.719 179.657,309.719 179.740 M316.371 183.584 C 317.114 184.235,318.250 185.376,318.895 186.119 C 319.555 186.879,319.784 187.049,319.418 186.506 C 318.739 185.498,316.764 183.564,315.663 182.830 C 315.309 182.594,315.628 182.933,316.371 183.584 M285.509 186.255 C 284.511 187.442,283.695 188.548,283.695 188.713 C 283.695 188.877,284.092 188.490,284.578 187.853 C 285.064 187.215,285.944 186.110,286.533 185.395 C 287.122 184.681,287.541 184.096,287.464 184.096 C 287.387 184.096,286.507 185.068,285.509 186.255 M282.478 190.854 C 282.264 191.197,282.089 191.660,282.090 191.883 C 282.091 192.106,282.311 191.870,282.578 191.358 C 283.135 190.290,283.061 189.920,282.478 190.854 M323.063 193.414 C 323.176 193.855,323.384 194.723,323.525 195.341 C 323.746 196.309,323.787 196.348,323.818 195.619 C 323.839 195.154,323.631 194.286,323.356 193.692 C 323.033 192.992,322.929 192.894,323.063 193.414 M280.599 200.321 C 280.600 202.088,280.654 202.770,280.719 201.837 C 280.784 200.903,280.784 199.457,280.718 198.624 C 280.652 197.790,280.598 198.554,280.599 200.321 M324.237 200.161 C 324.199 201.486,324.094 202.932,324.003 203.373 L 323.837 204.177 324.180 203.392 C 324.369 202.961,324.474 201.515,324.414 200.179 L 324.306 197.751 324.237 200.161 M323.478 205.301 C 323.369 205.920,323.185 206.787,323.068 207.229 C 322.944 207.701,323.068 207.573,323.370 206.917 C 323.653 206.303,323.837 205.436,323.780 204.989 C 323.690 204.290,323.648 204.334,323.478 205.301 M280.848 204.980 C 280.848 205.245,280.973 205.751,281.124 206.104 C 281.299 206.509,281.401 206.569,281.401 206.265 C 281.401 206.000,281.276 205.494,281.124 205.141 C 280.950 204.736,280.848 204.676,280.848 204.980 M281.446 207.343 C 281.446 207.712,283.321 211.727,283.494 211.727 C 283.582 211.727,283.214 210.751,282.676 209.558 C 281.692 207.378,281.446 206.934,281.446 207.343 M320.295 212.771 C 319.902 213.345,318.700 214.755,317.622 215.903 L 315.663 217.991 317.538 216.224 C 319.209 214.649,321.564 211.727,321.162 211.727 C 321.077 211.727,320.687 212.197,320.295 212.771 M284.337 213.012 C 284.715 213.542,285.096 213.976,285.184 213.976 C 285.273 213.976,285.036 213.542,284.659 213.012 C 284.281 212.482,283.900 212.048,283.812 212.048 C 283.723 212.048,283.960 212.482,284.337 213.012 M286.586 215.743 C 287.367 216.538,288.066 217.189,288.141 217.189 C 288.412 217.189,285.774 214.357,285.475 214.327 C 285.306 214.311,285.806 214.948,286.586 215.743 M289.317 217.982 C 290.287 218.832,291.406 219.561,291.406 219.343 C 291.406 219.278,290.719 218.756,289.880 218.181 C 288.724 217.391,288.588 217.343,289.317 217.982 M311.165 220.248 C 310.281 220.673,309.712 221.026,309.899 221.033 C 310.318 221.047,312.932 219.804,312.932 219.591 C 312.932 219.389,313.006 219.362,311.165 220.248 M293.589 220.585 C 293.985 220.862,294.559 221.023,294.865 220.943 C 295.288 220.833,295.252 220.788,294.718 220.760 C 294.331 220.740,293.924 220.578,293.815 220.402 C 293.706 220.225,293.448 220.080,293.243 220.080 C 293.037 220.080,293.193 220.307,293.589 220.585 M298.635 222.000 C 299.248 222.271,301.296 222.455,301.017 222.213 C 300.944 222.150,300.233 222.011,299.438 221.906 C 298.472 221.779,298.205 221.810,298.635 222.000 M304.578 222.008 L 303.133 222.233 304.418 222.276 C 305.124 222.300,305.920 222.179,306.185 222.008 C 306.450 221.837,306.522 221.716,306.345 221.740 C 306.169 221.764,305.373 221.884,304.578 222.008 M247.454 232.129 C 247.454 232.482,247.569 233.133,247.711 233.574 C 247.915 234.210,247.968 234.244,247.968 233.735 C 247.968 233.382,247.852 232.731,247.711 232.289 C 247.507 231.653,247.454 231.620,247.454 232.129 M393.976 236.546 C 393.630 237.490,393.639 237.531,394.066 236.967 C 394.474 236.427,394.716 235.502,394.448 235.502 C 394.398 235.502,394.186 235.972,393.976 236.546 M248.680 236.528 C 248.673 236.819,249.982 239.036,250.160 239.036 C 250.236 239.036,250.082 238.639,249.819 238.153 C 249.164 236.943,248.686 236.261,248.680 236.528 M391.813 240.182 C 391.332 240.812,390.990 241.378,391.052 241.440 C 391.114 241.502,391.572 240.986,392.069 240.294 C 393.200 238.721,392.995 238.631,391.813 240.182 M250.574 239.946 C 250.747 240.270,251.141 240.740,251.449 240.990 C 251.797 241.272,251.719 241.048,251.246 240.402 C 250.402 239.249,250.086 239.035,250.574 239.946 M223.049 257.590 L 222.972 273.735 292.771 273.655 L 362.570 273.576 292.935 273.494 L 223.299 273.412 223.213 257.429 L 223.126 241.446 223.049 257.590 M389.538 242.972 L 388.594 244.016 389.639 243.072 C 390.612 242.193,390.830 241.928,390.582 241.928 C 390.527 241.928,390.057 242.398,389.538 242.972 M255.088 244.475 C 255.700 245.018,256.339 245.462,256.507 245.462 C 256.676 245.462,256.754 245.420,256.680 245.369 C 256.606 245.317,255.968 244.873,255.261 244.381 L 253.976 243.488 255.088 244.475 M258.483 246.517 C 259.287 247.040,261.530 247.814,261.712 247.632 C 261.788 247.556,261.235 247.300,260.484 247.064 C 259.732 246.828,258.979 246.516,258.811 246.370 C 258.643 246.224,258.358 246.104,258.178 246.104 C 257.997 246.104,258.134 246.290,258.483 246.517 M382.868 246.892 C 382.192 247.133,381.541 247.439,381.422 247.572 C 381.302 247.705,381.494 247.699,381.847 247.560 C 382.201 247.421,382.817 247.236,383.218 247.149 C 383.618 247.063,384.024 246.864,384.120 246.709 C 384.334 246.362,384.369 246.357,382.868 246.892 M263.293 248.051 C 264.921 248.387,266.236 248.372,264.900 248.032 C 264.369 247.897,263.502 247.786,262.972 247.786 C 262.161 247.785,262.213 247.827,263.293 248.051 M377.992 248.032 C 377.132 248.251,377.115 248.277,377.831 248.277 C 378.273 248.277,379.068 248.167,379.598 248.032 C 380.458 247.813,380.476 247.787,379.759 247.787 C 379.317 247.787,378.522 247.897,377.992 248.032 M363.953 273.981 C 364.294 274.221,364.354 280.208,364.274 306.054 C 364.221 323.531,364.286 336.626,364.419 335.153 C 364.918 329.644,364.552 273.964,364.016 273.818 C 363.642 273.715,363.628 273.752,363.953 273.981 M7.239 336.801 C 7.101 337.118,7.079 337.467,7.189 337.577 C 7.515 337.904,7.778 337.445,7.628 336.812 C 7.495 336.251,7.478 336.251,7.239 336.801 M7.744 338.839 C 7.726 339.216,7.936 340.011,8.210 340.606 C 8.704 341.675,8.678 341.444,8.041 339.116 C 7.841 338.389,7.769 338.321,7.744 338.839 M362.727 342.247 C 362.491 342.999,362.178 343.752,362.032 343.920 C 361.887 344.088,361.767 344.373,361.767 344.553 C 361.767 345.089,362.559 343.711,363.012 342.386 C 363.243 341.710,363.370 341.095,363.294 341.019 C 363.218 340.943,362.963 341.496,362.727 342.247 M12.152 348.514 C 12.499 349.000,13.115 349.687,13.521 350.040 C 13.927 350.394,13.696 349.996,13.006 349.157 C 11.625 347.476,11.167 347.132,12.152 348.514 M358.571 349.799 C 358.163 350.285,357.161 351.406,356.345 352.289 L 354.859 353.896 356.572 352.289 C 358.121 350.836,359.752 348.916,359.437 348.916 C 359.369 348.916,358.979 349.313,358.571 349.799 M353.107 354.899 C 351.595 355.972,351.462 356.159,352.634 355.564 C 353.177 355.288,353.809 354.836,354.039 354.559 C 354.586 353.900,354.440 353.953,353.107 354.899 M20.884 356.144 C 20.884 356.346,23.496 357.591,23.916 357.588 C 24.103 357.587,23.896 357.404,23.454 357.181 C 21.986 356.441,20.884 355.996,20.884 356.144 M349.237 357.135 C 348.789 357.384,348.647 357.578,348.916 357.575 C 349.181 357.572,349.678 357.358,350.021 357.098 C 350.795 356.513,350.317 356.536,349.237 357.135 M26.945 358.697 C 27.539 358.972,28.443 359.197,28.953 359.197 C 29.462 359.197,29.880 359.341,29.880 359.518 C 29.880 359.695,30.342 359.839,30.908 359.839 C 32.492 359.839,31.590 359.297,29.398 358.932 C 28.337 358.755,27.108 358.518,26.667 358.404 C 26.147 358.271,26.246 358.374,26.945 358.697 M345.382 358.525 C 345.116 358.675,344.068 358.897,343.052 359.020 C 341.223 359.241,340.460 359.839,342.008 359.839 C 342.450 359.839,342.811 359.695,342.811 359.518 C 342.811 359.341,343.228 359.197,343.738 359.197 C 344.248 359.197,345.152 358.986,345.746 358.727 C 346.341 358.469,346.610 358.257,346.345 358.255 C 346.080 358.254,345.647 358.375,345.382 358.525 " stroke="none" fill="#848484" fill-rule="evenodd"></path><path id="path4" d="M31.004 42.731 L 30.040 42.976 31.004 42.982 C 31.534 42.985,32.329 42.872,32.771 42.731 L 33.574 42.474 32.771 42.480 C 32.329 42.483,31.534 42.596,31.004 42.731 M339.920 42.731 C 340.361 42.872,341.229 42.986,341.847 42.983 L 342.972 42.978 341.687 42.712 C 339.970 42.357,338.792 42.370,339.920 42.731 M26.827 43.454 C 25.055 44.068,23.925 44.644,24.479 44.651 C 24.778 44.655,25.101 44.531,25.198 44.374 C 25.295 44.218,25.773 44.008,26.261 43.908 C 29.142 43.315,29.742 43.126,28.755 43.123 C 28.225 43.122,27.357 43.271,26.827 43.454 M344.418 43.424 C 346.484 43.987,347.162 44.047,345.863 43.552 C 345.157 43.282,344.289 43.075,343.936 43.090 C 343.571 43.106,343.779 43.250,344.418 43.424 M348.916 44.806 C 348.916 44.895,349.494 45.262,350.201 45.622 C 350.908 45.983,351.486 46.206,351.486 46.117 C 351.486 46.029,350.908 45.662,350.201 45.301 C 349.494 44.941,348.916 44.718,348.916 44.806 M16.526 49.237 L 15.582 50.281 16.627 49.337 C 17.600 48.458,17.818 48.193,17.570 48.193 C 17.515 48.193,17.045 48.663,16.526 49.237 M356.305 49.960 C 356.905 50.578,357.467 51.084,357.556 51.084 C 357.644 51.084,357.226 50.578,356.627 49.960 C 356.027 49.341,355.464 48.835,355.376 48.835 C 355.288 48.835,355.706 49.341,356.305 49.960 M358.408 52.377 C 358.930 53.000,359.617 53.867,359.934 54.305 C 360.489 55.071,360.489 55.061,359.936 54.042 C 359.621 53.460,358.934 52.592,358.411 52.114 L 357.459 51.245 358.408 52.377 M11.627 54.605 C 11.240 55.128,10.924 55.663,10.924 55.792 C 10.924 55.922,11.285 55.539,11.727 54.940 C 12.169 54.341,12.530 53.807,12.530 53.753 C 12.530 53.490,12.269 53.737,11.627 54.605 M9.249 58.964 C 9.150 59.313,8.971 59.888,8.851 60.241 C 8.732 60.594,8.869 60.477,9.157 59.981 C 9.444 59.484,9.623 58.910,9.555 58.704 C 9.486 58.498,9.349 58.615,9.249 58.964 M363.245 62.008 C 363.342 62.627,363.539 64.072,363.683 65.221 L 363.946 67.309 363.859 65.221 C 363.811 64.072,363.614 62.627,363.421 62.008 L 363.070 60.884 363.245 62.008 M7.711 64.827 C 7.711 65.200,7.566 65.594,7.390 65.703 C 6.996 65.946,6.963 67.367,7.346 67.603 C 7.632 67.781,8.135 64.575,7.864 64.303 C 7.780 64.219,7.711 64.455,7.711 64.827 M364.016 97.092 C 363.928 113.120,363.965 126.124,364.098 125.990 C 364.232 125.857,364.304 112.744,364.259 96.850 L 364.177 67.952 364.016 97.092 M222.486 178.635 C 222.486 203.462,222.524 213.618,222.570 201.205 C 222.617 188.791,222.617 168.478,222.570 156.064 C 222.524 143.651,222.486 153.807,222.486 178.635 M293.414 152.209 C 308.743 152.255,333.827 152.255,349.157 152.209 C 364.486 152.163,351.944 152.125,321.285 152.125 C 290.627 152.125,278.084 152.163,293.414 152.209 M259.759 153.425 C 259.229 153.668,259.012 153.868,259.277 153.870 C 259.542 153.871,260.120 153.666,260.562 153.414 C 261.578 152.833,261.035 152.841,259.759 153.425 M384.053 154.058 C 385.225 154.669,385.522 154.673,384.720 154.066 C 384.377 153.807,383.880 153.591,383.614 153.586 C 383.349 153.582,383.547 153.794,384.053 154.058 M255.076 156.064 L 254.297 156.948 255.261 156.145 C 255.791 155.703,256.285 155.305,256.359 155.261 C 256.432 155.217,256.349 155.181,256.174 155.181 C 255.998 155.181,255.504 155.578,255.076 156.064 M389.880 158.072 C 390.570 158.779,391.207 159.357,391.295 159.357 C 391.383 159.357,390.891 158.779,390.201 158.072 C 389.511 157.365,388.874 156.787,388.785 156.787 C 388.697 156.787,389.189 157.365,389.880 158.072 M393.290 162.888 C 393.686 163.593,394.062 164.117,394.126 164.053 C 394.264 163.915,392.936 161.606,392.719 161.606 C 392.637 161.606,392.893 162.183,393.290 162.888 M247.590 168.394 C 247.477 168.958,247.445 169.479,247.517 169.552 C 247.590 169.625,247.750 169.230,247.871 168.675 C 247.993 168.119,248.026 167.598,247.944 167.516 C 247.863 167.434,247.703 167.829,247.590 168.394 M301.610 178.219 C 302.010 178.296,302.588 178.293,302.895 178.213 C 303.202 178.132,302.876 178.069,302.169 178.073 C 301.462 178.077,301.211 178.142,301.610 178.219 M298.559 178.544 C 299.047 178.618,299.770 178.616,300.165 178.539 C 300.560 178.463,300.161 178.403,299.277 178.405 C 298.394 178.408,298.070 178.470,298.559 178.544 M304.663 178.544 C 305.151 178.618,305.874 178.616,306.269 178.539 C 306.665 178.463,306.265 178.403,305.382 178.405 C 304.498 178.408,304.175 178.470,304.663 178.544 M311.764 180.404 C 312.935 181.015,313.233 181.018,312.431 180.412 C 312.088 180.152,311.590 179.936,311.325 179.932 C 311.060 179.927,311.257 180.140,311.764 180.404 M313.896 181.514 C 314.337 181.884,314.988 182.337,315.341 182.521 C 315.780 182.748,315.729 182.641,315.181 182.181 C 314.739 181.811,314.088 181.358,313.735 181.174 C 313.296 180.946,313.347 181.054,313.896 181.514 M289.606 182.128 C 288.917 182.636,287.775 183.589,287.068 184.246 C 286.225 185.031,286.451 184.907,287.726 183.885 C 288.794 183.030,290.023 182.084,290.457 181.784 C 290.890 181.484,291.158 181.231,291.052 181.222 C 290.946 181.212,290.296 181.620,289.606 182.128 M318.112 184.888 C 318.929 185.778,319.756 186.795,319.950 187.149 C 320.148 187.511,320.306 187.602,320.312 187.358 C 320.317 187.119,319.490 186.102,318.474 185.097 C 316.832 183.474,316.792 183.450,318.112 184.888 M322.249 190.906 C 322.249 191.008,322.465 191.505,322.729 192.011 C 322.993 192.518,323.205 192.715,323.201 192.450 C 323.196 192.185,322.980 191.687,322.721 191.344 C 322.461 191.001,322.249 190.804,322.249 190.906 M281.437 192.467 C 281.243 192.829,281.129 193.344,281.185 193.611 C 281.240 193.878,281.444 193.582,281.639 192.952 C 282.036 191.665,281.962 191.486,281.437 192.467 M280.682 194.872 C 280.572 195.159,280.497 195.707,280.515 196.091 C 280.536 196.531,280.645 196.374,280.812 195.665 C 281.092 194.471,281.016 194.003,280.682 194.872 M323.901 195.984 C 323.901 196.249,324.025 196.755,324.177 197.108 C 324.351 197.513,324.453 197.573,324.453 197.269 C 324.453 197.004,324.329 196.498,324.177 196.145 C 324.003 195.740,323.901 195.680,323.901 195.984 M324.603 200.321 C 324.605 201.558,324.663 202.025,324.732 201.358 C 324.802 200.692,324.801 199.680,324.730 199.109 C 324.659 198.539,324.602 199.084,324.603 200.321 M280.235 201.446 C 280.235 202.064,280.301 202.317,280.382 202.008 C 280.463 201.699,280.463 201.193,280.382 200.884 C 280.301 200.574,280.235 200.827,280.235 201.446 M321.825 210.617 C 321.070 212.200,321.176 212.469,321.965 210.974 C 322.324 210.294,322.560 209.682,322.490 209.612 C 322.421 209.543,322.121 209.995,321.825 210.617 M282.733 210.950 C 282.733 211.112,283.107 211.679,283.562 212.209 L 284.390 213.173 283.665 212.048 C 282.734 210.606,282.731 210.602,282.733 210.950 M317.641 215.993 C 316.079 217.581,315.211 218.588,315.713 218.229 C 316.709 217.518,320.643 213.505,320.643 213.200 C 320.643 212.932,320.751 212.831,317.641 215.993 M284.596 213.815 C 284.781 214.169,285.770 215.253,286.793 216.225 L 288.654 217.992 286.758 215.904 C 284.151 213.031,284.219 213.097,284.596 213.815 M290.364 219.036 C 290.780 219.434,291.293 219.755,291.504 219.749 C 291.715 219.744,291.598 219.579,291.245 219.383 C 290.892 219.187,290.378 218.866,290.105 218.670 C 289.831 218.474,289.948 218.639,290.364 219.036 M307.791 221.687 L 306.667 221.923 307.692 221.966 C 308.256 221.989,308.806 221.863,308.916 221.687 C 309.025 221.510,309.070 221.384,309.015 221.408 C 308.960 221.431,308.410 221.557,307.791 221.687 M298.635 222.327 C 299.248 222.593,301.617 222.775,301.339 222.535 C 301.265 222.472,300.482 222.336,299.598 222.234 C 298.565 222.115,298.221 222.148,298.635 222.327 M304.578 222.329 L 303.133 222.554 304.418 222.597 C 305.124 222.621,305.920 222.501,306.185 222.329 C 306.450 222.158,306.522 222.037,306.345 222.061 C 306.169 222.085,305.373 222.206,304.578 222.329 M248.057 233.574 C 248.018 234.786,250.665 240.246,251.559 240.799 C 251.725 240.901,251.276 240.023,250.561 238.847 C 249.847 237.670,248.995 235.895,248.667 234.900 C 248.340 233.906,248.066 233.309,248.057 233.574 M222.808 253.789 C 222.811 271.339,222.871 273.859,223.293 273.974 C 223.647 274.070,223.669 274.030,223.376 273.822 C 223.067 273.603,222.957 269.046,222.890 253.637 L 222.804 233.735 222.808 253.789 M393.327 237.183 C 392.931 237.906,392.654 238.545,392.712 238.602 C 392.770 238.660,393.147 238.121,393.550 237.405 C 393.952 236.689,394.229 236.050,394.165 235.985 C 394.100 235.921,393.723 236.460,393.327 237.183 M389.702 242.490 L 388.594 243.695 389.799 242.588 C 390.921 241.557,391.152 241.285,390.906 241.285 C 390.853 241.285,390.311 241.827,389.702 242.490 M262.413 247.617 C 262.813 247.694,263.391 247.691,263.699 247.610 C 264.006 247.530,263.679 247.467,262.972 247.471 C 262.265 247.474,262.014 247.540,262.413 247.617 M379.361 247.617 C 379.761 247.694,380.339 247.691,380.646 247.610 C 380.953 247.530,380.627 247.467,379.920 247.471 C 379.213 247.474,378.962 247.540,379.361 247.617 M293.760 248.273 C 309.104 248.319,334.116 248.319,349.343 248.273 C 364.570 248.227,352.016 248.189,321.446 248.189 C 290.876 248.189,278.417 248.227,293.760 248.273 M364.016 304.193 L 364.177 334.297 364.259 304.435 C 364.304 288.011,364.232 274.464,364.098 274.331 C 363.965 274.197,363.928 287.635,364.016 304.193 M7.068 335.081 C 7.068 335.622,7.213 336.064,7.390 336.064 C 7.566 336.064,7.711 335.711,7.711 335.280 C 7.711 334.849,7.566 334.406,7.390 334.297 C 7.202 334.181,7.068 334.508,7.068 335.081 M363.754 336.600 C 363.722 337.513,363.612 338.526,363.510 338.849 C 363.337 339.400,363.348 339.402,363.687 338.874 C 363.887 338.564,363.996 337.552,363.932 336.625 L 363.814 334.940 363.754 336.600 M8.687 341.088 C 8.680 341.288,8.886 341.939,9.144 342.533 C 9.402 343.128,9.619 343.450,9.626 343.250 C 9.633 343.049,9.427 342.399,9.169 341.804 C 8.911 341.209,8.694 340.887,8.687 341.088 M360.734 346.025 C 360.280 346.905,360.040 347.545,360.200 347.446 C 360.572 347.216,361.853 344.718,361.685 344.550 C 361.616 344.480,361.187 345.144,360.734 346.025 M358.986 348.835 C 358.626 349.321,357.573 350.586,356.645 351.647 C 355.228 353.266,355.301 353.215,357.101 351.325 C 358.996 349.338,360.084 347.952,359.750 347.952 C 359.689 347.952,359.345 348.349,358.986 348.835 M13.494 349.719 C 14.093 350.337,14.656 350.843,14.745 350.843 C 14.833 350.843,14.415 350.337,13.815 349.719 C 13.216 349.100,12.653 348.594,12.565 348.594 C 12.476 348.594,12.895 349.100,13.494 349.719 M19.759 355.153 C 20.289 355.608,20.855 355.981,21.017 355.982 C 21.366 355.984,21.362 355.981,19.920 355.050 L 18.795 354.324 19.759 355.153 M351.486 355.691 C 350.952 356.128,350.899 356.237,351.325 356.016 C 352.373 355.475,352.954 355.030,352.610 355.032 C 352.434 355.033,351.928 355.330,351.486 355.691 M24.879 357.765 C 25.398 358.036,26.049 358.196,26.325 358.122 C 26.642 358.036,26.567 357.972,26.123 357.949 C 25.736 357.928,25.330 357.767,25.221 357.590 C 25.112 357.414,24.778 357.270,24.479 357.271 C 24.141 357.272,24.293 357.459,24.879 357.765 M30.843 359.107 C 31.285 359.186,31.784 359.384,31.952 359.545 C 32.340 359.919,33.735 359.931,33.735 359.560 C 33.735 359.265,31.770 358.855,30.683 358.923 C 30.206 358.953,30.248 359.000,30.843 359.107 M340.080 359.105 C 338.917 359.384,338.778 359.839,339.855 359.839 C 340.421 359.839,340.884 359.704,340.884 359.539 C 340.884 359.374,341.281 359.179,341.767 359.106 C 342.638 358.974,342.637 358.972,341.687 358.961 C 341.157 358.955,340.434 359.020,340.080 359.105 " stroke="none" fill="#747474" fill-rule="evenodd"></path></g></svg>