<svg id="svg" version="1.1" xmlns="http://www.w3.org/2000/svg" xmlns:xlink="http://www.w3.org/1999/xlink" width="400" height="399.03614457831327" viewBox="0, 0, 400,399.03614457831327"><g id="svgg"><path id="path0" d="M0.000 199.518 L 0.000 399.036 200.000 399.036 L 400.000 399.036 400.000 199.518 L 400.000 0.000 200.000 0.000 L 0.000 0.000 0.000 199.518 M14.458 2.259 C 22.096 3.016,28.154 3.848,50.602 7.224 C 53.606 7.676,58.522 8.400,61.526 8.833 C 64.530 9.266,69.446 9.991,72.450 10.444 C 75.454 10.897,78.851 11.402,80.000 11.568 C 86.515 12.506,91.129 13.263,94.583 13.958 C 96.723 14.388,103.534 15.695,109.719 16.861 C 130.436 20.766,138.472 22.353,155.984 25.995 C 170.829 29.082,174.621 29.884,174.960 30.009 C 175.148 30.078,178.473 32.221,182.350 34.771 C 186.226 37.321,191.060 40.495,193.092 41.824 C 195.124 43.153,201.486 47.323,207.229 51.089 C 212.972 54.855,220.851 60.023,224.739 62.572 C 228.627 65.121,234.371 68.892,237.505 70.953 C 242.536 74.260,256.699 84.016,282.494 101.941 C 286.870 104.982,292.074 108.599,294.060 109.979 C 296.046 111.359,298.177 112.830,298.795 113.247 C 302.565 115.788,310.322 121.333,316.221 125.702 C 319.978 128.485,326.594 133.378,330.924 136.575 L 338.795 142.388 344.329 152.720 C 347.372 158.403,350.504 164.498,351.288 166.265 C 352.830 169.742,361.903 190.259,367.626 203.213 C 369.578 207.631,372.328 213.847,373.738 217.028 C 377.629 225.808,378.027 226.766,384.914 243.961 C 391.952 261.533,391.724 260.699,390.831 265.678 C 390.559 267.194,390.127 269.590,389.871 271.004 C 389.616 272.418,388.889 276.466,388.257 280.000 C 387.385 284.874,386.214 289.528,383.408 299.277 C 381.374 306.345,378.921 314.876,377.957 318.233 C 376.993 321.590,375.537 326.072,374.721 328.193 C 371.927 335.456,371.129 337.514,369.867 340.723 C 369.171 342.490,367.630 346.466,366.441 349.558 C 363.267 357.815,362.446 358.915,355.382 364.386 C 352.267 366.798,345.598 371.966,340.562 375.871 C 331.104 383.204,317.679 391.861,314.859 392.445 C 314.241 392.573,311.856 393.183,309.560 393.800 C 305.495 394.892,305.305 394.913,302.314 394.598 L 299.242 394.276 294.875 391.377 C 292.473 389.783,290.406 388.314,290.281 388.112 C 289.445 386.760,288.514 380.051,288.514 375.385 L 288.514 370.449 291.199 362.804 L 293.885 355.160 298.247 349.349 C 301.181 345.440,303.694 342.498,305.921 340.363 C 307.743 338.617,310.680 335.797,312.448 334.097 C 314.216 332.396,316.275 330.444,317.024 329.759 L 318.386 328.514 319.839 318.715 C 320.834 312.007,321.652 304.628,322.433 295.324 L 323.573 281.732 322.911 275.379 C 322.547 271.884,322.249 268.741,322.249 268.393 C 322.249 266.881,306.521 247.833,302.344 244.286 C 288.279 232.344,268.018 222.462,249.639 218.582 L 242.731 217.123 230.052 217.492 L 217.374 217.861 208.432 220.101 L 199.490 222.341 194.604 225.425 C 185.033 231.467,185.531 231.066,181.297 236.120 C 174.778 243.901,174.114 245.098,171.397 253.976 L 169.234 261.044 168.815 268.755 C 168.244 279.272,169.152 292.979,171.104 303.293 C 171.507 305.419,172.828 312.735,174.297 320.964 C 174.565 322.466,175.202 326.008,175.712 328.835 C 176.222 331.663,176.731 334.988,176.843 336.225 C 177.173 339.873,177.976 348.090,178.484 353.014 C 179.185 359.819,179.103 363.261,178.136 367.582 C 177.685 369.597,177.166 372.035,176.982 373.002 C 176.798 373.970,176.178 375.483,175.599 376.375 C 175.022 377.264,173.349 379.915,171.881 382.265 C 168.905 387.028,169.344 386.630,162.731 390.572 C 156.146 394.496,152.472 394.914,143.392 392.774 C 142.581 392.582,137.654 386.308,136.959 384.582 C 136.710 383.962,136.220 382.831,135.872 382.069 C 135.524 381.307,134.291 378.488,133.132 375.804 C 128.817 365.810,127.235 362.162,125.791 358.876 C 124.116 355.064,118.755 342.212,114.531 331.888 C 112.977 328.088,109.981 320.787,107.873 315.663 C 105.764 310.538,103.055 303.454,101.851 299.920 C 100.647 296.386,98.789 290.964,97.722 287.871 C 95.402 281.150,94.611 276.647,93.970 266.506 C 93.736 262.795,93.387 257.229,93.194 254.137 C 93.002 251.044,92.633 245.189,92.373 241.124 C 92.114 237.060,91.606 228.964,91.245 223.133 C 90.328 208.294,89.618 198.139,89.484 197.922 C 89.422 197.821,88.845 193.982,88.203 189.391 C 87.118 181.626,85.353 173.751,83.458 168.206 C 82.017 163.992,73.601 157.293,65.863 154.201 C 57.039 150.676,52.891 149.170,49.624 148.308 C 47.865 147.844,44.546 146.952,42.249 146.326 C 37.951 145.155,7.789 137.510,7.466 137.510 C 7.291 137.510,7.477 94.584,7.925 31.530 L 8.138 1.534 9.450 1.713 C 10.172 1.811,12.426 2.057,14.458 2.259 M285.231 257.751 L 285.141 269.076 235.904 269.158 L 186.667 269.239 186.667 257.832 L 186.667 246.426 235.994 246.426 L 285.322 246.426 285.231 257.751 M285.225 287.470 L 285.309 298.795 235.988 298.795 L 186.667 298.795 186.667 287.389 L 186.667 275.982 235.904 276.063 L 285.141 276.145 285.225 287.470 M285.141 317.269 L 285.141 328.514 235.904 328.595 L 186.667 328.677 186.667 317.269 L 186.667 305.861 235.904 305.943 L 285.141 306.024 285.141 317.269 M285.293 346.988 L 285.316 358.233 235.991 358.233 L 186.667 358.233 186.667 346.988 L 186.667 335.743 235.968 335.743 L 285.270 335.743 285.293 346.988 M285.141 376.707 L 285.141 387.952 235.904 388.033 L 186.667 388.114 186.667 376.707 L 186.667 365.299 235.904 365.381 L 285.141 365.462 285.141 376.707 " stroke="none" fill="#fbfbfb" fill-rule="evenodd"></path><path id="path1" d="M8.233 8.076 C 8.087 12.754,7.552 111.370,7.550 133.932 L 7.550 137.262 24.418 141.520 C 46.957 147.211,52.748 148.812,57.510 150.669 C 71.609 156.169,70.461 155.618,75.136 159.123 C 79.207 162.175,80.201 163.076,82.422 165.732 C 84.905 168.702,89.668 192.491,90.408 205.622 C 90.632 209.582,91.731 227.229,93.320 252.369 C 93.577 256.434,93.944 262.434,94.135 265.703 C 94.810 277.225,95.468 280.534,99.343 291.888 C 103.792 304.925,104.471 306.773,107.538 314.217 C 109.031 317.839,110.758 322.032,111.376 323.534 C 111.994 325.036,112.978 327.422,113.561 328.835 C 114.145 330.249,115.740 334.153,117.106 337.510 C 120.708 346.366,123.288 352.592,124.493 355.341 C 127.203 361.521,127.911 363.139,129.411 366.586 C 130.296 368.618,132.203 373.028,133.649 376.386 C 137.604 385.566,137.649 385.652,140.398 389.213 L 142.957 392.527 146.258 393.040 C 155.288 394.443,155.973 394.319,163.255 389.978 C 166.267 388.182,168.944 386.413,169.205 386.047 C 169.466 385.681,171.198 382.948,173.054 379.975 L 176.429 374.568 177.451 370.015 C 178.750 364.232,178.829 357.922,177.736 347.309 C 177.344 343.510,176.874 338.956,176.691 337.189 C 176.508 335.422,175.849 331.084,175.226 327.550 C 173.575 318.180,171.402 306.022,170.488 301.044 C 170.051 298.659,169.605 295.550,169.499 294.137 C 169.393 292.723,169.092 289.036,168.831 285.944 C 167.742 273.029,168.335 263.527,170.726 255.582 C 171.683 252.402,172.640 249.149,172.852 248.353 C 173.436 246.162,176.695 241.059,179.758 237.541 C 179.935 237.337,181.237 235.802,182.651 234.129 C 185.131 231.194,185.468 230.932,192.307 226.596 L 199.393 222.104 208.532 219.839 L 217.671 217.574 230.189 217.239 L 242.708 216.903 248.824 218.182 C 252.188 218.885,255.373 219.544,255.904 219.647 C 256.434 219.750,259.715 220.902,263.196 222.206 C 266.676 223.511,269.608 224.578,269.712 224.578 C 269.815 224.578,274.808 227.031,280.807 230.028 C 296.568 237.903,300.144 240.800,314.706 257.493 C 316.568 259.627,321.009 265.525,322.069 267.271 C 322.217 267.514,322.666 270.840,323.067 274.660 L 323.795 281.606 322.704 294.779 C 322.104 302.024,321.393 309.470,321.125 311.325 C 320.856 313.181,320.191 317.807,319.646 321.606 L 318.656 328.514 317.159 329.952 C 316.336 330.742,312.785 334.140,309.268 337.502 C 303.471 343.043,296.811 350.883,294.172 355.273 C 293.918 355.695,291.885 361.338,289.929 367.051 C 288.498 371.231,288.351 377.719,289.541 384.121 L 290.263 388.000 294.734 390.978 C 301.086 395.210,302.836 395.439,311.220 393.136 L 316.417 391.709 323.751 387.283 C 328.843 384.210,332.934 381.427,337.138 378.176 C 340.468 375.601,344.227 372.698,345.492 371.726 C 346.756 370.754,350.454 367.885,353.708 365.350 C 356.962 362.816,359.894 360.575,360.223 360.371 C 361.576 359.532,364.005 355.058,366.269 349.234 C 367.539 345.966,369.489 340.980,370.602 338.153 C 375.121 326.672,375.947 324.316,378.264 316.305 C 379.592 311.711,381.644 304.627,382.824 300.562 C 387.140 285.692,386.886 286.796,389.751 270.522 L 391.420 261.044 390.756 259.277 C 390.055 257.412,389.130 255.077,384.961 244.659 C 379.061 229.912,377.353 225.814,372.708 215.261 C 370.024 209.165,367.274 202.948,366.596 201.446 C 365.380 198.753,359.688 185.893,356.178 177.912 C 352.156 168.762,350.743 165.561,350.187 164.337 C 349.044 161.820,339.021 143.256,338.487 142.666 C 338.188 142.335,334.253 139.341,329.743 136.012 C 325.233 132.683,318.918 128.020,315.711 125.650 C 308.454 120.287,306.769 119.080,299.759 114.222 C 296.667 112.079,293.197 109.669,292.048 108.866 C 288.862 106.641,269.987 93.549,267.706 91.983 C 266.600 91.223,264.792 89.959,263.690 89.175 C 262.588 88.390,260.313 86.806,258.635 85.654 C 256.956 84.502,253.920 82.398,251.888 80.980 C 246.377 77.133,238.363 71.798,221.365 60.661 C 218.803 58.983,213.671 55.617,209.960 53.182 C 206.249 50.748,201.082 47.364,198.478 45.663 C 195.874 43.962,189.526 39.796,184.371 36.405 C 177.716 32.028,174.571 30.144,173.524 29.906 C 171.631 29.477,154.405 25.881,144.418 23.830 C 137.207 22.349,132.846 21.501,118.394 18.768 C 115.213 18.167,111.960 17.536,111.165 17.367 C 110.369 17.198,106.972 16.543,103.614 15.911 C 100.257 15.280,95.269 14.340,92.530 13.823 C 89.791 13.306,85.960 12.652,84.016 12.370 C 78.913 11.630,63.682 9.385,59.920 8.818 C 58.153 8.552,53.815 7.907,50.281 7.385 C 46.747 6.863,39.880 5.843,35.020 5.119 C 25.171 3.651,20.937 3.109,15.261 2.590 C 13.141 2.396,10.735 2.151,9.916 2.046 L 8.426 1.855 8.233 8.076 M186.882 246.639 C 186.764 246.757,186.667 251.818,186.667 257.885 L 186.667 268.916 235.827 268.916 L 284.988 268.916 284.904 257.751 L 284.819 246.586 235.958 246.505 C 209.085 246.460,187.000 246.520,186.882 246.639 M186.743 287.470 L 186.827 298.635 235.904 298.716 L 284.980 298.797 284.980 287.551 L 284.980 276.305 235.819 276.305 L 186.658 276.305 186.743 287.470 M186.667 317.269 L 186.667 328.353 235.823 328.353 L 284.980 328.353 284.980 317.269 L 284.980 306.185 235.823 306.185 L 186.667 306.185 186.667 317.269 M186.667 346.988 L 186.667 358.233 235.823 358.233 L 284.980 358.233 284.980 346.988 L 284.980 335.743 235.823 335.743 L 186.667 335.743 186.667 346.988 M186.667 376.707 L 186.667 387.791 235.823 387.791 L 284.980 387.791 284.980 376.707 L 284.980 365.622 235.823 365.622 L 186.667 365.622 186.667 376.707 " stroke="none" fill="#040404" fill-rule="evenodd"></path><path id="path2" d="M8.434 1.828 C 8.743 1.909,9.249 1.909,9.558 1.828 C 9.867 1.747,9.614 1.681,8.996 1.681 C 8.378 1.681,8.124 1.747,8.434 1.828 M7.837 44.016 C 7.837 46.402,7.887 47.378,7.949 46.185 C 8.011 44.992,8.011 43.040,7.949 41.847 C 7.887 40.655,7.837 41.631,7.837 44.016 M7.526 97.189 C 7.527 101.076,7.573 102.623,7.630 100.625 C 7.686 98.627,7.686 95.446,7.629 93.556 C 7.572 91.667,7.526 93.301,7.526 97.189 M90.690 214.618 C 90.690 215.414,90.753 215.739,90.829 215.341 C 90.906 214.944,90.906 214.293,90.829 213.896 C 90.753 213.498,90.690 213.823,90.690 214.618 M231.888 217.415 C 232.285 217.492,232.936 217.492,233.333 217.415 C 233.731 217.339,233.406 217.276,232.610 217.276 C 231.815 217.276,231.490 217.339,231.888 217.415 M221.610 217.737 C 222.010 217.814,222.588 217.811,222.895 217.731 C 223.202 217.650,222.876 217.587,222.169 217.591 C 221.462 217.595,221.211 217.660,221.610 217.737 M91.005 219.920 C 91.008 220.627,91.074 220.878,91.151 220.478 C 91.228 220.079,91.225 219.500,91.144 219.193 C 91.064 218.886,91.001 219.213,91.005 219.920 M91.975 235.181 C 91.975 235.976,92.038 236.301,92.114 235.904 C 92.191 235.506,92.191 234.855,92.114 234.458 C 92.038 234.060,91.975 234.386,91.975 235.181 M285.124 257.189 C 285.124 263.197,285.168 265.609,285.220 262.550 C 285.273 259.490,285.273 254.575,285.220 251.626 C 285.167 248.677,285.124 251.181,285.124 257.189 M92.939 250.602 C 92.939 251.398,93.002 251.723,93.078 251.325 C 93.155 250.928,93.155 250.277,93.078 249.880 C 93.002 249.482,92.939 249.807,92.939 250.602 M93.260 255.743 C 93.260 256.538,93.323 256.863,93.399 256.466 C 93.476 256.068,93.476 255.418,93.399 255.020 C 93.323 254.622,93.260 254.948,93.260 255.743 M93.896 265.863 C 93.900 266.570,93.966 266.822,94.042 266.422 C 94.119 266.022,94.116 265.444,94.036 265.137 C 93.956 264.830,93.893 265.157,93.896 265.863 M284.980 268.541 C 284.980 268.824,272.997 268.935,235.743 268.995 L 186.506 269.074 235.646 269.157 C 282.373 269.235,285.993 269.179,285.199 268.386 C 285.079 268.265,284.980 268.335,284.980 268.541 M94.224 271.165 C 94.224 271.960,94.287 272.285,94.363 271.888 C 94.440 271.490,94.440 270.839,94.363 270.442 C 94.287 270.044,94.224 270.369,94.224 271.165 M168.428 274.056 C 168.428 274.675,168.494 274.928,168.575 274.618 C 168.656 274.309,168.656 273.803,168.575 273.494 C 168.494 273.185,168.428 273.438,168.428 274.056 M235.739 276.224 L 284.972 276.307 285.062 287.471 L 285.153 298.635 285.147 287.390 L 285.141 276.145 235.823 276.143 L 186.506 276.141 235.739 276.224 M169.071 287.550 C 169.071 288.169,169.137 288.422,169.217 288.112 C 169.298 287.803,169.298 287.297,169.217 286.988 C 169.137 286.679,169.071 286.932,169.071 287.550 M285.123 318.072 C 285.123 323.815,285.167 326.165,285.220 323.293 C 285.274 320.422,285.274 315.723,285.220 312.851 C 285.167 309.980,285.123 312.329,285.123 318.072 M314.217 332.369 C 313.436 333.165,312.870 333.815,312.959 333.815 C 313.047 333.815,313.758 333.165,314.538 332.369 C 315.319 331.574,315.885 330.924,315.796 330.924 C 315.708 330.924,314.997 331.574,314.217 332.369 M285.124 347.309 C 285.124 353.406,285.168 355.900,285.220 352.851 C 285.273 349.803,285.273 344.815,285.220 341.767 C 285.168 338.719,285.124 341.213,285.124 347.309 M308.095 338.233 L 306.988 339.438 308.193 338.331 C 309.314 337.300,309.545 337.028,309.300 337.028 C 309.246 337.028,308.704 337.570,308.095 338.233 M178.760 360.482 C 178.760 362.867,178.811 363.843,178.873 362.651 C 178.935 361.458,178.935 359.506,178.873 358.313 C 178.811 357.120,178.760 358.096,178.760 360.482 M211.511 365.542 C 224.734 365.589,246.276 365.589,259.383 365.542 C 272.489 365.496,261.671 365.458,235.341 365.458 C 209.012 365.458,198.288 365.496,211.511 365.542 M284.574 365.534 C 284.872 365.745,284.994 368.450,285.063 376.402 L 285.154 386.988 285.147 376.252 C 285.141 366.985,285.075 365.497,284.659 365.384 C 284.306 365.288,284.284 365.328,284.574 365.534 M288.638 373.976 C 288.638 376.185,288.689 377.088,288.752 375.984 C 288.815 374.880,288.815 373.072,288.752 371.968 C 288.689 370.863,288.638 371.767,288.638 373.976 " stroke="none" fill="#848484" fill-rule="evenodd"></path><path id="path3" d="M8.149 4.980 C 8.150 6.747,8.204 7.429,8.269 6.495 C 8.334 5.562,8.334 4.116,8.268 3.282 C 8.202 2.449,8.149 3.213,8.149 4.980 M7.855 63.454 C 7.856 69.639,7.899 72.123,7.951 68.975 C 8.004 65.827,8.004 60.767,7.951 57.730 C 7.898 54.693,7.855 57.269,7.855 63.454 M7.528 123.373 C 7.528 127.703,7.574 129.474,7.630 127.309 C 7.685 125.145,7.685 121.602,7.630 119.438 C 7.574 117.273,7.528 119.044,7.528 123.373 M90.356 207.229 C 90.356 207.847,90.422 208.100,90.503 207.791 C 90.583 207.482,90.583 206.976,90.503 206.667 C 90.422 206.357,90.356 206.610,90.356 207.229 M239.116 217.089 C 239.426 217.170,239.932 217.170,240.241 217.089 C 240.550 217.008,240.297 216.942,239.679 216.942 C 239.060 216.942,238.807 217.008,239.116 217.089 M227.876 217.419 C 228.364 217.493,229.087 217.491,229.482 217.415 C 229.877 217.339,229.478 217.278,228.594 217.281 C 227.711 217.283,227.388 217.345,227.876 217.419 M91.320 222.651 C 91.320 223.269,91.386 223.522,91.466 223.213 C 91.547 222.904,91.547 222.398,91.466 222.088 C 91.386 221.779,91.320 222.032,91.320 222.651 M91.647 227.631 C 91.651 228.337,91.717 228.589,91.793 228.189 C 91.870 227.789,91.867 227.211,91.787 226.904 C 91.707 226.597,91.644 226.924,91.647 227.631 M92.611 243.052 C 92.615 243.759,92.681 244.010,92.757 243.611 C 92.834 243.211,92.831 242.633,92.751 242.326 C 92.670 242.018,92.608 242.345,92.611 243.052 M311.004 253.595 C 311.004 253.650,311.474 254.120,312.048 254.639 L 313.092 255.582 312.149 254.538 C 311.269 253.565,311.004 253.346,311.004 253.595 M93.575 258.474 C 93.579 259.181,93.644 259.432,93.721 259.032 C 93.798 258.633,93.795 258.054,93.715 257.747 C 93.634 257.440,93.571 257.767,93.575 258.474 M168.441 271.165 C 168.441 271.960,168.504 272.285,168.580 271.888 C 168.657 271.490,168.657 270.839,168.580 270.442 C 168.504 270.044,168.441 270.369,168.441 271.165 M323.609 281.767 C 323.609 282.386,323.675 282.639,323.756 282.329 C 323.836 282.020,323.836 281.514,323.756 281.205 C 323.675 280.896,323.609 281.149,323.609 281.767 M211.165 306.104 C 224.727 306.151,246.920 306.151,260.482 306.104 C 274.044 306.058,262.948 306.020,235.823 306.020 C 208.699 306.020,197.602 306.058,211.165 306.104 M317.412 329.558 L 316.305 330.763 317.510 329.656 C 318.631 328.625,318.863 328.353,318.617 328.353 C 318.564 328.353,318.021 328.896,317.412 329.558 M310.344 336.305 L 309.237 337.510 310.442 336.403 C 311.563 335.372,311.794 335.100,311.549 335.100 C 311.495 335.100,310.953 335.643,310.344 336.305 M303.760 342.570 L 302.490 343.936 303.855 342.666 C 304.606 341.967,305.221 341.353,305.221 341.300 C 305.221 341.057,304.941 341.300,303.760 342.570 M211.165 388.032 C 224.727 388.078,246.920 388.078,260.482 388.032 C 274.044 387.986,262.948 387.948,235.823 387.948 C 208.699 387.948,197.602 387.986,211.165 388.032 " stroke="none" fill="#565656" fill-rule="evenodd"></path><path id="path4" d="M7.807 49.799 C 7.807 50.771,7.867 51.169,7.941 50.683 C 8.015 50.197,8.015 49.402,7.941 48.916 C 7.867 48.430,7.807 48.827,7.807 49.799 M7.523 109.880 C 7.523 113.149,7.571 114.486,7.629 112.851 C 7.687 111.217,7.687 108.542,7.629 106.908 C 7.571 105.273,7.523 106.610,7.523 109.880 M219.036 217.737 C 219.434 217.813,220.084 217.813,220.482 217.737 C 220.880 217.660,220.554 217.598,219.759 217.598 C 218.964 217.598,218.639 217.660,219.036 217.737 M168.762 266.024 C 168.762 266.819,168.825 267.145,168.901 266.747 C 168.978 266.349,168.978 265.699,168.901 265.301 C 168.825 264.904,168.762 265.229,168.762 266.024 M211.165 328.594 C 224.727 328.641,246.920 328.641,260.482 328.594 C 274.044 328.548,262.948 328.510,235.823 328.510 C 208.699 328.510,197.602 328.548,211.165 328.594 M288.602 379.116 C 288.602 379.912,288.664 380.237,288.741 379.839 C 288.817 379.442,288.817 378.791,288.741 378.394 C 288.664 377.996,288.602 378.321,288.602 379.116 " stroke="none" fill="#7c7c7c" fill-rule="evenodd"></path></g></svg>