<svg id="svg" version="1.1" xmlns="http://www.w3.org/2000/svg" xmlns:xlink="http://www.w3.org/1999/xlink" width="400" height="399.03614457831327" viewBox="0, 0, 400,399.03614457831327"><g id="svgg"><path id="path0" d="M191.807 4.512 C 183.552 5.384,178.761 6.171,178.182 6.750 C 178.007 6.925,177.422 7.073,176.884 7.080 C 176.345 7.086,175.542 7.298,175.100 7.550 C 174.659 7.803,173.863 8.020,173.333 8.032 C 172.803 8.045,172.008 8.262,171.566 8.514 C 171.124 8.767,170.377 8.978,169.906 8.985 C 169.434 8.991,168.639 9.207,168.138 9.465 C 167.288 9.904,166.017 10.477,162.088 12.195 C 159.015 13.539,158.542 13.754,156.466 14.750 C 155.317 15.301,154.102 15.930,153.766 16.149 C 153.430 16.367,152.008 17.305,150.606 18.233 C 149.204 19.161,148.008 19.920,147.948 19.920 C 147.544 19.920,142.587 23.479,141.091 24.843 C 140.089 25.758,138.415 27.229,137.371 28.112 C 133.699 31.220,132.585 32.311,130.645 34.699 C 129.568 36.024,128.228 37.614,127.669 38.233 C 126.531 39.490,124.044 42.536,123.503 43.335 C 122.668 44.569,120.889 47.429,120.682 47.871 C 120.342 48.599,119.758 49.541,118.956 50.659 C 118.558 51.212,118.233 51.806,118.233 51.978 C 118.233 52.150,118.009 52.477,117.735 52.704 C 117.222 53.130,115.984 55.606,115.984 56.207 C 115.984 56.394,115.839 56.546,115.663 56.546 C 115.486 56.546,115.341 56.744,115.341 56.987 C 115.341 57.375,114.362 59.842,112.838 63.293 C 112.564 63.912,112.127 64.924,111.866 65.542 C 111.605 66.161,111.242 66.956,111.059 67.309 C 110.876 67.663,110.620 68.530,110.490 69.237 C 110.361 69.944,110.017 71.390,109.727 72.450 C 109.436 73.510,109.073 75.055,108.919 75.882 C 108.766 76.710,108.485 77.676,108.296 78.030 C 108.107 78.383,107.952 79.026,107.952 79.458 C 107.952 79.890,107.735 80.762,107.470 81.396 C 107.169 82.117,106.988 83.583,106.988 85.304 C 106.988 86.820,106.757 89.174,106.474 90.536 C 105.644 94.542,106.429 110.924,107.591 113.836 C 107.789 114.334,107.952 115.247,107.952 115.865 C 107.952 116.484,108.097 117.262,108.275 117.594 C 108.453 117.927,108.734 119.038,108.899 120.063 C 109.397 123.159,109.867 125.096,110.204 125.433 C 110.379 125.608,110.523 125.975,110.524 126.249 C 110.525 126.523,110.728 127.135,110.976 127.609 C 111.223 128.083,111.522 128.913,111.641 129.453 C 111.760 129.993,111.990 130.517,112.153 130.618 C 112.316 130.718,112.450 131.126,112.450 131.524 C 112.450 131.921,112.662 132.527,112.922 132.870 C 113.181 133.213,113.398 133.748,113.403 134.057 C 113.413 134.610,115.620 139.315,117.058 141.847 C 119.249 145.709,119.671 146.463,120.346 147.720 C 121.088 149.103,123.152 152.066,123.950 152.896 C 124.187 153.141,125.581 154.948,127.048 156.912 C 131.014 162.217,138.984 169.819,144.435 173.494 C 145.615 174.289,147.052 175.337,147.629 175.823 C 148.207 176.309,148.784 176.707,148.912 176.707 C 149.040 176.707,149.671 177.113,150.315 177.609 C 150.959 178.105,154.522 180.000,158.233 181.820 C 161.944 183.639,165.231 185.257,165.538 185.415 C 165.845 185.574,166.427 185.703,166.832 185.703 C 167.237 185.703,167.853 185.900,168.202 186.141 C 168.550 186.381,169.269 186.654,169.799 186.746 C 170.329 186.839,171.269 187.096,171.888 187.318 C 172.506 187.540,173.518 187.898,174.137 188.112 C 174.755 188.327,175.767 188.688,176.386 188.914 C 177.004 189.139,178.378 189.441,179.438 189.583 C 180.498 189.725,182.667 190.066,184.257 190.339 C 185.847 190.613,188.161 190.971,189.398 191.135 C 192.619 191.563,206.947 191.621,209.799 191.218 C 220.825 189.661,222.288 189.407,222.722 188.972 C 222.930 188.764,223.541 188.590,224.080 188.584 C 224.619 188.579,225.341 188.362,225.684 188.102 C 226.027 187.843,226.651 187.631,227.070 187.631 C 227.490 187.631,228.149 187.461,228.535 187.253 C 228.921 187.045,229.743 186.770,230.361 186.642 C 232.259 186.248,233.779 185.626,240.482 182.499 C 245.846 179.997,251.011 177.073,251.888 176.041 C 251.976 175.937,253.349 175.002,254.940 173.964 C 256.530 172.925,257.994 171.917,258.193 171.724 C 258.391 171.530,259.691 170.367,261.081 169.139 C 265.377 165.345,269.558 161.199,270.785 159.518 C 271.430 158.635,272.466 157.357,273.087 156.679 C 273.708 156.000,274.349 155.205,274.511 154.912 C 274.673 154.618,275.414 153.655,276.158 152.771 C 276.902 151.888,277.968 150.369,278.529 149.398 C 279.089 148.426,279.673 147.414,279.826 147.149 C 279.979 146.884,280.755 145.582,281.549 144.257 C 283.546 140.922,285.620 136.855,285.633 136.249 C 285.638 135.971,285.855 135.462,286.115 135.119 C 286.374 134.776,286.586 134.180,286.586 133.793 C 286.586 133.407,286.803 132.911,287.068 132.691 C 287.333 132.471,287.550 131.976,287.550 131.591 C 287.550 131.206,287.666 130.754,287.807 130.586 C 287.949 130.418,288.392 129.414,288.793 128.353 C 289.194 127.293,289.657 126.175,289.822 125.868 C 289.986 125.561,290.120 124.870,290.120 124.331 C 290.120 123.793,290.337 122.834,290.602 122.199 C 290.867 121.565,291.084 120.625,291.084 120.111 C 291.084 119.597,291.301 118.657,291.566 118.023 C 291.831 117.388,292.048 116.449,292.048 115.934 C 292.048 115.420,292.265 114.480,292.530 113.846 C 292.824 113.142,293.012 111.675,293.012 110.081 C 293.013 108.645,293.229 106.241,293.494 104.739 C 294.063 101.511,294.134 92.428,293.615 89.317 C 293.423 88.169,293.160 86.361,293.031 85.301 C 292.902 84.241,292.628 82.966,292.422 82.469 C 292.217 81.972,292.048 81.005,292.048 80.321 C 292.048 79.637,291.898 78.684,291.715 78.203 C 291.532 77.721,291.259 76.519,291.108 75.531 C 290.861 73.915,290.542 72.799,289.771 70.843 C 289.631 70.490,289.196 69.189,288.804 67.952 C 288.412 66.715,287.969 65.565,287.820 65.398 C 287.672 65.230,287.550 64.715,287.550 64.254 C 287.550 63.793,287.338 63.135,287.078 62.792 C 286.819 62.449,286.602 61.920,286.597 61.616 C 286.591 61.313,286.261 60.465,285.863 59.732 C 285.100 58.325,283.067 54.504,280.878 50.362 C 279.639 48.017,278.360 45.983,277.897 45.622 C 277.784 45.534,277.141 44.674,276.469 43.710 C 275.796 42.747,275.122 41.807,274.971 41.622 C 274.819 41.437,273.842 40.129,272.799 38.715 C 268.109 32.358,254.234 20.401,247.690 17.075 C 246.553 16.497,245.406 15.899,245.141 15.746 C 244.876 15.593,244.442 15.384,244.177 15.281 C 243.912 15.178,243.261 14.807,242.731 14.458 C 242.201 14.108,241.550 13.727,241.285 13.610 C 241.020 13.493,239.636 12.841,238.209 12.161 C 236.783 11.480,235.329 10.924,234.978 10.924 C 234.627 10.924,234.059 10.711,233.716 10.452 C 233.373 10.193,232.795 9.976,232.431 9.970 C 232.067 9.964,231.489 9.748,231.146 9.488 C 230.803 9.229,230.183 9.012,229.768 9.006 C 229.354 9.001,228.631 8.799,228.162 8.559 C 226.839 7.880,225.204 7.349,223.535 7.055 C 222.696 6.907,221.871 6.700,221.701 6.595 C 221.531 6.490,220.482 6.270,219.371 6.106 C 215.359 5.514,212.193 4.947,211.883 4.765 C 211.353 4.454,194.382 4.240,191.807 4.512 M134.779 255.068 C 133.896 255.180,132.998 255.383,132.784 255.519 C 132.571 255.654,131.486 255.900,130.375 256.065 C 129.263 256.229,127.269 256.597,125.944 256.880 C 124.618 257.164,122.662 257.508,121.596 257.645 C 120.530 257.782,119.347 258.061,118.967 258.265 C 118.586 258.468,117.705 258.635,117.008 258.635 C 116.311 258.635,115.222 258.851,114.588 259.116 C 113.953 259.382,112.869 259.598,112.178 259.598 C 111.487 259.598,110.403 259.815,109.768 260.080 C 109.134 260.345,107.989 260.562,107.223 260.562 C 106.458 260.562,105.683 260.711,105.502 260.892 C 105.320 261.073,104.388 261.302,103.429 261.400 C 102.471 261.499,101.325 261.711,100.884 261.873 C 100.442 262.035,99.213 262.301,98.153 262.464 C 94.896 262.967,93.861 263.342,92.120 264.655 C 91.197 265.351,90.296 265.979,90.118 266.052 C 89.712 266.219,84.073 269.964,83.855 270.212 C 83.767 270.313,83.116 270.742,82.410 271.165 C 81.703 271.588,81.052 272.021,80.964 272.127 C 80.709 272.433,73.900 276.948,73.693 276.948 C 73.590 276.948,72.958 277.382,72.289 277.912 C 71.620 278.442,70.948 278.881,70.797 278.889 C 70.646 278.896,70.022 279.329,69.410 279.852 C 68.798 280.375,68.177 280.803,68.030 280.803 C 67.883 280.803,67.373 281.165,66.897 281.606 C 66.420 282.048,65.929 282.410,65.805 282.410 C 65.681 282.410,64.450 283.205,63.071 284.177 C 61.691 285.150,60.237 286.086,59.839 286.258 C 59.442 286.430,59.116 286.715,59.116 286.892 C 59.116 287.158,56.143 291.745,54.420 294.137 C 54.165 294.490,53.708 295.166,53.404 295.638 C 52.528 296.999,44.902 308.307,42.754 311.430 C 41.681 312.990,40.803 314.343,40.803 314.436 C 40.803 314.530,40.369 315.154,39.839 315.823 C 39.309 316.493,38.876 317.145,38.876 317.272 C 38.876 317.400,38.383 318.176,37.781 318.996 C 36.547 320.677,35.341 323.927,35.341 325.573 C 35.341 326.176,35.124 327.188,34.859 327.822 C 34.594 328.456,34.378 329.477,34.378 330.089 C 34.378 330.702,34.218 331.610,34.024 332.108 C 33.829 332.605,33.544 333.880,33.389 334.940 C 33.235 336.000,32.883 337.952,32.608 339.277 C 32.333 340.602,31.973 342.589,31.809 343.692 C 31.646 344.795,31.361 345.978,31.177 346.322 C 30.994 346.665,30.843 347.466,30.843 348.102 C 30.843 348.737,30.627 349.777,30.361 350.411 C 30.096 351.045,29.874 352.234,29.868 353.051 C 29.862 353.869,29.650 354.900,29.398 355.341 C 29.145 355.783,28.933 356.741,28.927 357.471 C 28.921 358.200,28.699 359.316,28.434 359.950 C 28.119 360.703,27.952 362.172,27.952 364.177 C 27.952 366.181,28.119 367.651,28.434 368.403 C 28.699 369.037,28.916 370.099,28.916 370.763 C 28.916 371.427,29.133 372.489,29.398 373.123 C 29.663 373.758,29.880 374.725,29.880 375.272 C 29.880 375.839,30.225 376.721,30.683 377.321 C 31.124 377.900,31.492 378.505,31.499 378.665 C 31.506 378.825,31.940 379.456,32.463 380.068 C 32.986 380.680,33.414 381.293,33.414 381.431 C 33.414 381.661,34.462 383.143,36.491 385.781 C 37.168 386.660,38.421 387.623,41.408 389.558 C 41.680 389.735,43.012 390.639,44.367 391.566 C 45.723 392.494,47.192 393.253,47.633 393.253 C 48.075 393.253,48.955 393.470,49.589 393.735 C 50.223 394.000,51.244 394.217,51.856 394.217 C 52.469 394.217,53.377 394.383,53.875 394.587 C 56.366 395.606,59.637 395.630,200.000 395.630 C 339.409 395.630,344.112 395.597,345.923 394.602 C 346.309 394.390,347.195 394.217,347.891 394.217 C 348.588 394.217,349.678 394.000,350.312 393.735 C 350.946 393.470,351.823 393.253,352.260 393.253 C 352.697 393.253,354.215 392.458,355.634 391.486 C 357.054 390.514,358.327 389.713,358.465 389.706 C 358.602 389.699,359.215 389.265,359.827 388.742 C 360.439 388.219,361.109 387.791,361.316 387.791 C 361.789 387.791,363.702 385.690,364.885 383.871 C 365.379 383.111,365.900 382.345,366.043 382.169 C 366.186 381.992,366.576 381.414,366.910 380.884 C 367.243 380.353,368.102 379.074,368.818 378.040 C 369.693 376.777,370.120 375.814,370.120 375.107 C 370.120 374.528,370.337 373.535,370.602 372.901 C 370.867 372.267,371.084 371.255,371.084 370.653 C 371.084 370.051,371.301 368.944,371.566 368.193 C 372.203 366.389,372.203 361.795,371.566 360.272 C 371.301 359.637,371.084 358.553,371.084 357.862 C 371.084 357.171,370.867 356.087,370.602 355.452 C 370.337 354.818,370.120 353.756,370.120 353.092 C 370.120 352.429,369.904 351.367,369.639 350.732 C 369.373 350.098,369.157 349.086,369.157 348.484 C 369.157 347.883,368.940 346.775,368.675 346.024 C 368.410 345.273,368.193 344.089,368.193 343.392 C 368.193 342.696,368.029 341.821,367.830 341.448 C 367.630 341.075,367.347 339.964,367.200 338.979 C 367.053 337.995,366.702 336.032,366.421 334.618 C 366.139 333.205,365.788 331.253,365.639 330.281 C 365.491 329.309,365.210 328.107,365.014 327.610 C 364.819 327.112,364.659 326.192,364.659 325.564 C 364.659 323.417,360.475 315.226,358.534 313.574 C 358.430 313.486,358.067 312.908,357.727 312.289 C 357.387 311.671,357.030 311.092,356.934 311.004 C 356.607 310.704,353.735 306.476,353.735 306.296 C 353.735 306.197,353.301 305.569,352.771 304.900 C 352.241 304.230,351.807 303.614,351.807 303.530 C 351.807 303.307,347.664 297.131,347.068 296.464 C 346.790 296.153,346.406 295.611,346.213 295.259 C 345.256 293.509,340.366 286.296,340.127 286.282 C 339.975 286.273,339.304 285.831,338.635 285.301 C 337.965 284.771,337.339 284.337,337.243 284.337 C 337.013 284.337,332.737 281.420,332.530 281.121 C 332.442 280.994,332.080 280.800,331.727 280.689 C 331.373 280.579,330.693 280.126,330.215 279.682 C 329.737 279.239,329.225 278.876,329.078 278.876 C 328.931 278.876,328.311 278.448,327.699 277.925 C 327.087 277.402,326.484 276.968,326.359 276.961 C 326.126 276.948,316.437 270.545,316.145 270.212 C 315.920 269.956,310.277 266.213,309.882 266.058 C 309.704 265.988,309.031 265.518,308.388 265.014 C 307.744 264.509,307.104 264.096,306.967 264.096 C 306.830 264.096,306.489 263.903,306.210 263.668 C 305.931 263.432,304.908 263.073,303.936 262.870 C 302.964 262.667,301.446 262.344,300.562 262.151 C 299.679 261.958,298.053 261.672,296.951 261.516 C 295.848 261.359,294.664 261.080,294.321 260.896 C 293.978 260.713,293.177 260.562,292.541 260.562 C 291.905 260.562,290.866 260.345,290.232 260.080 C 289.597 259.815,288.513 259.598,287.822 259.598 C 287.131 259.598,286.047 259.382,285.412 259.116 C 284.778 258.851,283.689 258.635,282.992 258.635 C 282.295 258.635,281.409 258.459,281.023 258.245 C 280.637 258.030,279.454 257.752,278.394 257.625 C 277.333 257.499,275.309 257.164,273.896 256.880 C 272.482 256.597,270.486 256.226,269.461 256.056 C 268.435 255.886,267.279 255.566,266.891 255.344 C 266.133 254.910,138.109 254.643,134.779 255.068 " stroke="none" fill="#040404" fill-rule="evenodd"></path><path id="path1" d="M0.000 199.518 L 0.000 399.036 200.000 399.036 L 400.000 399.036 400.000 199.518 L 400.000 0.000 200.000 0.000 L 0.000 0.000 0.000 199.518 M204.659 3.485 C 204.659 3.635,206.234 3.786,208.159 3.819 C 210.084 3.853,212.144 4.030,212.737 4.213 C 213.330 4.395,214.610 4.663,215.582 4.808 C 220.758 5.579,224.897 6.628,230.201 8.511 C 232.498 9.327,234.811 10.109,235.341 10.250 C 236.853 10.651,240.088 12.269,248.514 16.836 C 249.751 17.507,251.486 18.597,252.369 19.258 C 253.253 19.920,255.928 21.911,258.313 23.684 C 262.879 27.076,270.981 35.029,273.574 38.663 C 274.281 39.654,275.103 40.794,275.401 41.196 C 280.473 48.044,280.583 48.225,285.087 57.028 C 286.764 60.306,288.183 63.706,288.843 66.024 C 288.993 66.554,289.638 68.434,290.275 70.201 C 290.912 71.968,291.557 74.064,291.707 74.859 C 291.858 75.655,292.148 77.173,292.351 78.233 C 292.554 79.293,292.852 80.884,293.013 81.767 C 293.174 82.651,293.469 84.169,293.668 85.141 C 294.792 90.639,294.385 110.596,293.068 114.538 C 292.891 115.068,292.508 116.659,292.218 118.072 C 291.929 119.486,291.482 121.378,291.227 122.277 C 290.972 123.176,290.763 124.220,290.763 124.596 C 290.763 124.972,290.559 125.754,290.310 126.334 C 289.810 127.501,288.466 130.843,286.913 134.779 C 285.375 138.680,284.611 140.230,282.243 144.257 C 281.049 146.289,279.681 148.651,279.205 149.505 C 278.434 150.887,276.909 152.986,275.259 154.938 C 274.948 155.305,273.792 156.766,272.688 158.183 C 267.892 164.347,260.327 171.132,252.321 176.451 C 246.841 180.093,244.194 181.551,237.751 184.477 C 236.602 184.998,235.301 185.607,234.859 185.828 C 234.418 186.050,233.189 186.492,232.129 186.811 C 231.068 187.129,229.979 187.497,229.708 187.630 C 229.437 187.762,228.715 187.969,228.102 188.090 C 227.489 188.211,226.699 188.426,226.345 188.568 C 225.992 188.710,224.908 189.051,223.936 189.327 C 222.964 189.603,221.393 190.057,220.445 190.336 C 219.497 190.615,218.050 190.843,217.230 190.843 C 216.410 190.843,215.234 190.992,214.616 191.174 C 209.628 192.645,191.635 192.806,186.667 191.424 C 186.048 191.252,184.458 190.984,183.133 190.827 C 180.343 190.498,176.901 189.792,175.743 189.311 C 175.301 189.127,172.988 188.371,170.602 187.629 C 164.950 185.873,152.124 180.151,151.700 179.197 C 151.641 179.064,151.458 178.956,151.292 178.956 C 151.127 178.956,149.874 178.152,148.508 177.171 C 147.142 176.189,144.534 174.319,142.714 173.015 C 139.338 170.599,128.514 160.532,128.514 159.809 C 128.514 159.590,128.397 159.363,128.254 159.304 C 128.024 159.209,126.716 157.547,121.526 150.752 C 120.775 149.769,120.161 148.842,120.161 148.693 C 120.161 148.543,119.822 147.882,119.408 147.223 C 118.994 146.563,118.199 145.193,117.641 144.177 C 117.083 143.161,116.170 141.498,115.612 140.482 C 115.053 139.466,114.482 138.418,114.342 138.153 C 113.899 137.314,113.212 135.543,111.665 131.245 C 110.837 128.948,110.011 126.707,109.827 126.265 C 109.123 124.565,108.281 121.568,108.277 120.744 C 108.275 120.269,108.123 119.487,107.940 119.006 C 107.757 118.525,107.477 117.322,107.318 116.334 C 107.159 115.346,106.806 113.526,106.535 112.289 C 105.811 108.994,105.294 96.338,105.707 92.011 C 105.890 90.087,106.194 86.854,106.382 84.825 C 106.570 82.797,106.855 80.891,107.016 80.590 C 107.177 80.289,107.309 79.760,107.309 79.415 C 107.309 78.809,107.798 76.947,108.770 73.852 C 109.027 73.034,109.237 72.107,109.237 71.792 C 109.237 71.121,110.109 68.049,110.691 66.667 C 110.914 66.137,111.249 65.341,111.435 64.900 C 111.621 64.458,112.215 63.127,112.754 61.941 C 113.294 60.756,113.735 59.693,113.735 59.580 C 113.735 59.368,114.360 57.867,115.265 55.904 C 116.419 53.402,123.313 42.433,124.958 40.482 C 125.926 39.333,127.865 37.020,129.267 35.341 C 130.669 33.663,132.266 31.879,132.816 31.378 C 133.365 30.877,134.397 29.937,135.109 29.290 C 135.820 28.642,137.483 27.173,138.803 26.026 C 140.124 24.878,141.566 23.606,142.008 23.200 C 142.450 22.793,143.317 22.149,143.936 21.769 C 144.554 21.389,145.133 20.998,145.221 20.900 C 145.309 20.803,145.671 20.551,146.024 20.341 C 148.008 19.161,152.152 16.556,152.289 16.403 C 152.606 16.048,155.872 14.137,156.161 14.137 C 156.324 14.137,157.362 13.684,158.469 13.130 C 159.576 12.577,160.916 11.941,161.446 11.717 C 162.712 11.181,164.179 10.532,166.828 9.334 C 168.021 8.795,169.280 8.353,169.624 8.353 C 169.969 8.353,170.583 8.228,170.989 8.074 C 171.697 7.806,173.277 7.348,177.271 6.255 C 178.286 5.977,179.786 5.541,180.605 5.285 C 181.424 5.029,182.749 4.819,183.549 4.819 C 184.349 4.819,186.137 4.602,187.522 4.337 C 188.907 4.072,190.799 3.856,191.727 3.855 C 192.655 3.855,193.414 3.711,193.414 3.534 C 193.414 3.332,195.502 3.213,199.036 3.213 C 202.129 3.213,204.659 3.336,204.659 3.485 M263.851 254.117 C 264.604 254.282,266.341 254.644,267.711 254.920 C 269.080 255.196,271.285 255.641,272.609 255.909 C 273.934 256.176,276.139 256.620,277.509 256.894 C 278.879 257.169,280.940 257.593,282.088 257.838 C 283.237 258.082,284.610 258.351,285.141 258.436 C 285.671 258.520,287.261 258.829,288.675 259.121 C 290.088 259.414,291.679 259.720,292.209 259.802 C 293.312 259.972,296.327 260.601,299.598 261.343 C 300.835 261.623,302.227 261.852,302.691 261.850 C 304.453 261.844,306.370 262.945,316.750 269.925 C 322.626 273.876,327.697 277.258,328.019 277.441 C 328.870 277.927,331.379 279.644,331.566 279.871 C 331.655 279.977,331.874 280.122,332.053 280.193 C 332.232 280.263,334.279 281.594,336.601 283.150 L 340.824 285.980 347.010 295.199 C 350.413 300.269,355.265 307.526,357.792 311.325 C 360.318 315.124,362.544 318.417,362.738 318.641 C 363.629 319.674,364.717 322.310,364.967 324.040 C 365.118 325.087,365.400 326.351,365.593 326.848 C 365.786 327.346,365.944 328.231,365.944 328.816 C 365.944 329.401,366.161 330.494,366.426 331.245 C 366.691 331.996,366.908 333.050,366.908 333.586 C 366.908 334.123,367.113 335.298,367.364 336.197 C 367.615 337.096,367.998 338.771,368.214 339.920 C 368.716 342.592,368.992 344.009,369.588 346.988 C 369.854 348.313,370.310 350.627,370.602 352.129 C 370.895 353.631,371.356 355.944,371.628 357.269 C 371.899 358.594,372.191 360.293,372.278 361.044 C 372.364 361.795,372.564 362.410,372.723 362.410 C 373.120 362.410,373.090 365.858,372.691 366.104 C 372.514 366.214,372.369 366.810,372.369 367.430 C 372.369 368.049,372.226 368.825,372.050 369.152 C 371.875 369.480,371.588 370.663,371.413 371.782 C 370.857 375.329,370.453 376.964,370.005 377.486 C 369.766 377.764,368.240 379.970,366.614 382.387 C 363.404 387.159,364.288 386.354,356.145 391.916 C 354.731 392.882,352.996 393.799,352.289 393.955 C 351.582 394.111,349.920 394.462,348.594 394.735 C 347.269 395.008,345.534 395.392,344.739 395.589 C 342.930 396.036,57.380 396.313,56.386 395.868 C 55.755 395.586,53.200 395.047,47.711 394.036 C 47.004 393.906,45.899 393.388,45.255 392.884 C 44.611 392.380,44.011 391.968,43.922 391.968 C 43.725 391.968,41.424 390.426,38.448 388.301 C 36.883 387.183,35.815 386.079,34.725 384.451 C 33.885 383.196,32.355 380.940,31.326 379.438 C 30.257 377.878,29.348 376.156,29.206 375.422 C 28.731 372.974,27.900 368.989,27.563 367.550 C 26.983 365.065,27.224 360.903,28.066 358.876 C 28.176 358.610,28.409 357.454,28.584 356.305 C 28.759 355.157,29.138 353.133,29.427 351.807 C 29.716 350.482,30.059 348.675,30.190 347.791 C 30.321 346.908,30.585 345.534,30.777 344.739 C 31.100 343.396,31.368 342.109,32.596 335.984 C 32.852 334.703,33.232 332.859,33.440 331.888 C 33.647 330.916,33.928 329.470,34.063 328.675 C 35.409 320.785,34.548 322.539,43.880 308.681 C 47.958 302.625,53.063 295.043,55.226 291.831 L 59.158 285.991 63.373 283.156 C 65.691 281.597,68.049 280.032,68.612 279.679 C 69.483 279.133,80.270 271.900,90.800 264.802 C 94.163 262.535,94.917 262.195,97.349 261.848 C 99.607 261.525,102.696 260.914,103.943 260.541 C 104.478 260.382,105.779 260.112,106.835 259.940 C 107.891 259.769,109.839 259.405,111.165 259.131 C 112.490 258.857,114.369 258.501,115.341 258.341 C 116.313 258.180,117.759 257.898,118.554 257.714 C 121.495 257.033,123.576 256.615,125.141 256.389 C 126.024 256.262,127.398 256.002,128.193 255.811 C 128.988 255.621,130.361 255.290,131.245 255.077 C 132.129 254.864,133.692 254.579,134.720 254.445 C 135.747 254.311,136.675 254.115,136.781 254.008 C 137.110 253.680,262.352 253.787,263.851 254.117 " stroke="none" fill="#fbfbfb" fill-rule="evenodd"></path><path id="path2" d="M193.414 3.534 C 193.414 3.711,192.582 3.864,191.566 3.875 C 190.550 3.886,188.779 4.101,187.631 4.352 C 186.177 4.670,185.982 4.759,186.988 4.643 C 188.248 4.498,194.436 3.908,195.100 3.869 C 195.854 3.826,195.179 3.213,194.378 3.213 C 193.847 3.213,193.414 3.357,193.414 3.534 M197.912 3.488 C 197.912 3.640,201.201 3.916,205.221 4.101 C 209.241 4.287,212.964 4.522,213.494 4.624 C 214.024 4.725,213.832 4.600,213.066 4.345 C 212.260 4.076,210.199 3.855,208.167 3.820 C 206.237 3.786,204.659 3.635,204.659 3.485 C 204.659 3.336,203.141 3.213,201.285 3.213 C 199.430 3.213,197.912 3.337,197.912 3.488 M180.723 5.343 C 179.945 5.723,179.914 5.772,180.562 5.596 C 181.004 5.476,182.305 5.275,183.454 5.149 L 185.542 4.920 183.614 4.896 C 182.523 4.882,181.269 5.076,180.723 5.343 M215.904 5.168 C 219.401 5.804,219.697 5.822,218.153 5.309 C 217.357 5.045,216.201 4.846,215.582 4.867 C 214.510 4.903,214.526 4.917,215.904 5.168 M177.189 6.277 C 175.914 6.860,176.530 6.859,178.153 6.274 C 178.859 6.020,179.149 5.817,178.795 5.823 C 178.442 5.830,177.719 6.034,177.189 6.277 M221.205 6.139 C 223.968 6.746,224.875 6.806,223.293 6.276 C 222.498 6.011,221.414 5.807,220.884 5.825 C 220.017 5.854,220.050 5.886,221.205 6.139 M173.655 7.241 C 172.355 7.836,173.452 7.837,174.823 7.241 C 175.542 6.929,175.689 6.777,175.261 6.786 C 174.908 6.793,174.185 6.998,173.655 7.241 M225.820 7.241 C 226.415 7.500,226.993 7.706,227.105 7.699 C 227.523 7.676,225.684 6.770,225.221 6.771 C 224.956 6.772,225.225 6.983,225.820 7.241 M170.924 8.032 C 170.659 8.203,170.134 8.346,169.759 8.348 C 169.053 8.354,165.462 9.828,165.462 10.112 C 165.462 10.201,166.275 9.913,167.269 9.474 C 168.263 9.034,169.331 8.675,169.642 8.675 C 169.953 8.675,170.694 8.463,171.288 8.205 C 171.883 7.947,172.153 7.733,171.888 7.728 C 171.622 7.724,171.189 7.861,170.924 8.032 M228.434 8.193 C 228.876 8.445,229.526 8.651,229.880 8.649 C 230.233 8.648,229.944 8.438,229.237 8.184 C 227.627 7.604,227.407 7.606,228.434 8.193 M231.325 9.157 C 231.767 9.409,232.418 9.615,232.771 9.613 C 233.124 9.612,232.835 9.402,232.129 9.147 C 230.519 8.567,230.299 8.570,231.325 9.157 M234.037 10.103 C 234.380 10.378,234.923 10.602,235.244 10.602 C 235.564 10.602,236.574 10.963,237.487 11.403 C 238.400 11.844,239.213 12.139,239.292 12.060 C 239.480 11.873,235.890 10.281,235.280 10.281 C 235.026 10.281,234.501 10.129,234.115 9.942 C 233.438 9.615,233.435 9.620,234.037 10.103 M163.534 10.737 C 163.092 10.978,162.315 11.341,161.806 11.544 C 161.297 11.746,160.958 11.989,161.052 12.082 C 161.146 12.176,161.490 12.117,161.816 11.950 C 162.143 11.784,163.060 11.342,163.855 10.969 C 164.651 10.595,165.084 10.292,164.819 10.294 C 164.554 10.296,163.976 10.496,163.534 10.737 M159.216 12.701 C 158.422 13.301,158.944 13.294,160.000 12.691 C 160.466 12.424,160.601 12.231,160.321 12.230 C 160.056 12.230,159.559 12.442,159.216 12.701 M240.188 12.666 C 241.165 13.350,246.525 16.072,246.649 15.948 C 246.709 15.888,245.418 15.150,243.780 14.307 C 242.143 13.464,240.666 12.647,240.498 12.492 C 240.330 12.336,240.045 12.209,239.864 12.209 C 239.684 12.209,239.829 12.414,240.188 12.666 M154.217 15.113 C 153.422 15.623,152.627 16.159,152.450 16.304 C 152.273 16.450,150.858 17.346,149.305 18.295 C 147.751 19.245,146.399 20.154,146.300 20.315 C 146.200 20.475,147.446 19.786,149.068 18.783 C 151.633 17.196,152.685 16.528,155.716 14.557 C 156.040 14.347,156.161 14.177,155.984 14.180 C 155.807 14.184,155.012 14.604,154.217 15.113 M249.799 17.862 C 250.859 18.496,252.088 19.346,252.530 19.749 C 252.972 20.153,253.638 20.640,254.009 20.830 C 254.381 21.021,255.266 21.653,255.977 22.235 C 256.687 22.817,258.190 23.942,259.317 24.736 C 260.444 25.529,263.426 28.271,265.944 30.830 C 268.462 33.388,270.522 35.351,270.522 35.192 C 270.522 35.032,268.751 33.106,266.586 30.910 C 263.056 27.330,260.845 25.522,252.369 19.278 C 250.462 17.873,248.550 16.707,248.155 16.708 C 247.999 16.708,248.739 17.227,249.799 17.862 M145.221 20.810 C 145.221 20.947,144.748 21.314,144.169 21.625 C 143.590 21.937,142.687 22.585,142.161 23.066 C 141.635 23.547,140.122 24.880,138.799 26.027 C 137.475 27.174,135.740 28.743,134.943 29.514 C 133.286 31.116,137.154 27.913,140.752 24.704 C 142.061 23.536,143.747 22.196,144.498 21.728 C 145.865 20.875,146.145 20.562,145.542 20.562 C 145.365 20.562,145.221 20.674,145.221 20.810 M129.754 34.779 C 128.244 36.590,126.207 39.012,125.227 40.161 C 123.344 42.368,117.893 50.763,118.343 50.763 C 118.433 50.763,119.608 48.968,120.954 46.774 C 122.427 44.373,125.090 40.780,127.644 37.749 C 131.986 32.597,132.871 31.486,132.635 31.486 C 132.561 31.486,131.265 32.968,129.754 34.779 M270.880 35.502 C 270.948 35.679,273.005 38.510,275.452 41.795 C 277.942 45.138,280.679 49.239,281.671 51.112 C 282.645 52.952,283.589 54.602,283.769 54.779 C 284.738 55.734,280.090 47.591,278.180 44.989 C 276.945 43.305,275.692 41.586,275.396 41.169 C 273.186 38.046,270.620 34.826,270.880 35.502 M117.713 51.486 C 116.607 53.362,116.535 53.522,117.098 52.851 C 117.751 52.074,118.313 51.084,118.103 51.084 C 118.018 51.084,117.843 51.265,117.713 51.486 M114.979 56.466 C 114.787 56.952,114.501 57.600,114.343 57.907 C 113.970 58.634,113.976 59.006,114.355 58.618 C 114.685 58.282,115.665 55.582,115.458 55.582 C 115.386 55.582,115.171 55.980,114.979 56.466 M113.494 60.161 C 113.148 61.105,113.157 61.145,113.584 60.581 C 113.993 60.042,114.234 59.116,113.966 59.116 C 113.916 59.116,113.704 59.586,113.494 60.161 M286.932 61.365 C 286.930 61.828,287.837 63.668,287.860 63.250 C 287.866 63.137,287.660 62.559,287.402 61.965 C 287.144 61.370,286.932 61.100,286.932 61.365 M111.522 64.614 C 111.287 65.145,111.163 65.648,111.247 65.732 C 111.331 65.815,111.583 65.441,111.807 64.900 C 112.339 63.615,112.079 63.355,111.522 64.614 M287.884 64.318 C 287.877 64.617,288.016 64.951,288.193 65.060 C 288.369 65.169,288.531 65.576,288.551 65.963 C 288.579 66.477,288.627 66.520,288.732 66.123 C 288.811 65.824,288.655 65.173,288.386 64.677 C 288.059 64.074,287.893 63.955,287.884 64.318 M110.590 66.838 C 110.376 67.181,110.206 67.716,110.213 68.028 C 110.220 68.348,110.432 68.119,110.700 67.502 C 111.237 66.266,111.176 65.900,110.590 66.838 M288.997 67.309 C 290.428 71.688,290.795 72.713,291.099 73.184 C 291.413 73.670,291.430 73.660,291.244 73.092 C 289.813 68.714,289.446 67.689,289.142 67.218 C 288.828 66.731,288.811 66.742,288.997 67.309 M109.597 70.082 C 109.365 70.900,109.244 71.840,109.329 72.170 C 109.434 72.578,109.496 72.480,109.521 71.866 C 109.541 71.369,109.712 70.675,109.900 70.323 C 110.088 69.972,110.192 69.440,110.131 69.140 C 110.070 68.840,109.830 69.264,109.597 70.082 M108.596 74.266 C 108.396 75.034,108.083 76.143,107.902 76.731 C 107.720 77.318,107.647 77.875,107.739 77.967 C 107.832 78.059,108.072 77.506,108.274 76.738 C 108.475 75.970,108.770 74.843,108.928 74.233 C 109.087 73.624,109.159 73.067,109.088 72.997 C 109.018 72.927,108.796 73.498,108.596 74.266 M291.451 74.699 C 291.431 75.229,291.633 76.313,291.899 77.108 C 292.405 78.619,292.404 78.609,291.728 75.020 C 291.517 73.898,291.482 73.857,291.451 74.699 M107.253 79.357 C 107.144 79.976,106.960 80.843,106.843 81.285 C 106.719 81.758,106.843 81.629,107.145 80.973 C 107.428 80.359,107.612 79.492,107.555 79.045 C 107.465 78.347,107.423 78.390,107.253 79.357 M292.437 79.839 C 292.427 80.546,292.622 81.703,292.870 82.410 C 293.315 83.675,293.319 83.677,293.125 82.570 C 293.017 81.952,292.822 80.795,292.692 80.000 L 292.455 78.554 292.437 79.839 M106.270 86.104 C 106.141 87.606,105.964 89.558,105.878 90.442 C 105.767 91.585,105.859 91.353,106.197 89.639 C 106.458 88.313,106.635 86.361,106.589 85.301 C 106.508 83.411,106.501 83.426,106.270 86.104 M293.521 86.104 C 293.629 86.900,293.827 88.345,293.961 89.317 L 294.203 91.084 294.236 89.478 C 294.254 88.594,294.056 87.149,293.796 86.265 L 293.323 84.659 293.521 86.104 M105.494 96.386 C 105.494 97.888,105.549 98.502,105.617 97.751 C 105.684 97.000,105.684 95.771,105.617 95.020 C 105.549 94.269,105.494 94.884,105.494 96.386 M294.397 97.510 C 294.399 98.570,294.459 98.965,294.530 98.388 C 294.602 97.810,294.600 96.943,294.527 96.460 C 294.453 95.977,294.395 96.450,294.397 97.510 M293.698 106.827 C 293.457 109.124,293.327 111.438,293.409 111.968 C 293.498 112.543,293.578 112.165,293.606 111.030 C 293.633 109.985,293.809 108.240,293.999 107.153 C 294.188 106.066,294.296 104.608,294.240 103.914 C 294.180 103.179,293.953 104.398,293.698 106.827 M105.894 106.506 C 105.979 108.450,106.183 110.546,106.348 111.165 C 106.666 112.358,106.546 110.347,106.003 105.382 C 105.776 103.309,105.761 103.466,105.894 106.506 M106.848 113.574 C 106.951 114.104,107.149 115.189,107.290 115.984 L 107.545 117.430 107.563 116.145 C 107.573 115.438,107.375 114.353,107.122 113.735 C 106.691 112.683,106.674 112.673,106.848 113.574 M292.742 114.332 C 292.537 115.017,292.379 115.849,292.391 116.182 C 292.402 116.515,292.622 116.007,292.878 115.053 C 293.414 113.059,293.302 112.464,292.742 114.332 M291.806 118.625 C 291.624 119.381,291.296 120.723,291.077 121.606 C 290.858 122.490,290.573 123.791,290.443 124.498 C 290.313 125.205,290.105 126.072,289.981 126.426 C 289.833 126.847,289.924 126.792,290.248 126.265 C 290.519 125.823,290.745 125.113,290.752 124.687 C 290.758 124.261,290.967 123.176,291.217 122.277 C 291.939 119.674,292.401 117.515,292.263 117.377 C 292.194 117.308,291.988 117.869,291.806 118.625 M107.783 118.233 C 107.891 118.675,108.105 119.831,108.259 120.803 C 108.413 121.775,108.700 122.932,108.897 123.373 L 109.255 124.177 109.072 123.373 C 108.971 122.932,108.748 121.651,108.577 120.527 C 108.406 119.403,108.113 118.247,107.926 117.957 C 107.653 117.534,107.625 117.588,107.783 118.233 M110.213 127.112 C 110.206 127.312,110.412 127.963,110.670 128.557 C 110.928 129.152,111.145 129.474,111.152 129.274 C 111.159 129.073,110.953 128.423,110.695 127.828 C 110.437 127.233,110.220 126.911,110.213 127.112 M289.251 128.130 C 288.252 130.477,287.873 131.515,287.978 131.619 C 288.041 131.683,288.496 130.787,288.988 129.630 C 289.479 128.473,289.823 127.467,289.751 127.395 C 289.679 127.322,289.454 127.653,289.251 128.130 M111.176 129.843 C 111.170 129.955,111.376 130.533,111.634 131.128 C 111.892 131.722,112.104 131.992,112.105 131.727 C 112.106 131.264,111.199 129.425,111.176 129.843 M112.140 132.413 C 112.134 132.525,112.340 133.103,112.598 133.698 C 112.856 134.293,113.068 134.562,113.068 134.297 C 113.070 133.834,112.163 131.995,112.140 132.413 M287.297 133.022 C 287.083 133.365,286.913 133.829,286.920 134.052 C 286.928 134.275,287.156 134.047,287.428 133.546 C 287.992 132.504,287.886 132.079,287.297 133.022 M286.317 135.435 C 286.112 135.886,285.949 136.429,285.956 136.642 C 285.963 136.854,286.182 136.536,286.443 135.935 C 286.992 134.670,286.876 134.209,286.317 135.435 M113.103 135.305 C 113.097 135.417,113.308 135.923,113.572 136.429 C 113.836 136.935,114.053 137.124,114.054 136.849 C 114.056 136.377,113.125 134.866,113.103 135.305 M285.369 137.842 C 285.155 138.185,284.981 138.648,284.982 138.871 C 284.983 139.094,285.202 138.858,285.470 138.346 C 286.026 137.278,285.953 136.908,285.369 137.842 M114.056 137.652 C 114.056 137.969,115.431 140.098,115.555 139.974 C 115.629 139.900,115.379 139.316,115.001 138.675 C 114.377 137.617,114.056 137.270,114.056 137.652 M282.718 142.892 C 281.618 144.791,280.436 146.815,280.092 147.390 C 279.747 147.964,279.541 148.434,279.634 148.434 C 279.781 148.434,281.056 146.329,284.159 140.964 C 284.644 140.124,284.968 139.438,284.879 139.438 C 284.790 139.438,283.818 140.992,282.718 142.892 M115.669 140.441 C 115.657 140.814,117.341 143.649,117.487 143.503 C 117.567 143.424,117.192 142.657,116.654 141.800 C 116.115 140.942,115.672 140.331,115.669 140.441 M117.590 144.009 C 117.590 144.300,119.886 148.112,120.061 148.112 C 120.142 148.112,119.742 147.281,119.172 146.265 C 118.129 144.405,117.590 143.636,117.590 144.009 M120.170 148.619 C 120.165 148.809,120.817 149.821,121.620 150.868 C 122.423 151.915,123.656 153.530,124.361 154.458 C 125.066 155.386,125.718 156.145,125.810 156.145 C 125.995 156.145,125.016 154.794,122.551 151.647 C 121.652 150.498,120.750 149.269,120.548 148.916 C 120.346 148.562,120.176 148.429,120.170 148.619 M278.594 149.963 C 278.237 150.661,277.289 152.002,276.486 152.943 C 275.684 153.883,275.109 154.734,275.208 154.833 C 275.308 154.933,275.535 154.754,275.714 154.436 C 275.892 154.117,276.438 153.396,276.928 152.832 C 278.098 151.485,279.607 149.059,279.403 148.854 C 279.314 148.765,278.950 149.264,278.594 149.963 M273.644 156.546 C 270.582 160.273,269.606 161.567,269.966 161.420 C 270.184 161.332,270.975 160.434,271.724 159.425 C 272.474 158.416,273.536 157.048,274.085 156.386 C 274.633 155.723,275.011 155.181,274.924 155.181 C 274.837 155.181,274.260 155.795,273.644 156.546 M126.940 157.751 C 127.521 158.546,128.040 159.257,128.094 159.331 C 128.148 159.404,128.193 159.320,128.193 159.143 C 128.193 158.967,127.674 158.256,127.039 157.564 L 125.885 156.305 126.940 157.751 M128.514 159.867 C 128.514 160.042,129.267 160.902,130.186 161.779 L 131.859 163.373 130.458 161.767 C 129.688 160.884,128.935 160.023,128.786 159.855 C 128.615 159.664,128.514 159.668,128.514 159.867 M267.631 163.586 C 266.659 164.488,265.141 165.898,264.257 166.720 C 262.337 168.507,257.399 172.783,256.337 173.577 C 255.826 173.960,255.961 173.930,256.753 173.485 C 258.220 172.662,270.133 161.922,269.558 161.941 C 269.470 161.944,268.602 162.684,267.631 163.586 M132.048 163.353 C 132.048 163.927,139.688 170.849,142.705 173.009 C 144.531 174.316,147.157 176.200,148.542 177.196 C 149.927 178.192,151.107 178.959,151.163 178.901 C 151.219 178.843,150.042 177.928,148.547 176.867 C 141.066 171.563,138.759 169.735,135.544 166.563 C 133.621 164.666,132.048 163.222,132.048 163.353 M250.950 177.029 C 246.857 179.754,244.478 181.551,247.229 179.841 C 249.522 178.415,255.422 174.401,255.422 174.267 C 255.422 174.053,255.424 174.052,250.950 177.029 M151.647 179.239 C 151.647 179.509,153.968 180.597,154.151 180.414 C 154.221 180.344,153.687 180.000,152.963 179.650 C 152.239 179.300,151.647 179.115,151.647 179.239 M244.356 181.054 C 243.554 181.661,243.852 181.657,245.024 181.046 C 245.530 180.782,245.727 180.570,245.462 180.574 C 245.197 180.579,244.699 180.795,244.356 181.054 M156.504 181.671 C 156.805 181.972,163.709 185.381,164.016 185.380 C 164.193 185.380,162.636 184.512,160.556 183.453 C 157.145 181.715,156.079 181.246,156.504 181.671 M239.197 183.466 C 237.076 184.507,235.486 185.364,235.663 185.369 C 235.839 185.374,237.329 184.728,238.974 183.934 C 240.618 183.140,242.064 182.485,242.186 182.480 C 242.309 182.474,242.690 182.257,243.033 181.998 C 244.168 181.140,243.099 181.549,239.197 183.466 M164.953 185.724 C 165.292 185.940,166.015 186.223,166.560 186.354 C 167.104 186.485,167.839 186.692,168.193 186.815 C 168.814 187.029,168.815 187.024,168.220 186.645 C 167.881 186.430,167.158 186.146,166.613 186.015 C 166.068 185.884,165.333 185.677,164.980 185.555 C 164.358 185.340,164.358 185.346,164.953 185.724 M232.289 186.506 C 231.263 187.093,231.483 187.095,233.092 186.515 C 233.799 186.261,234.088 186.051,233.735 186.050 C 233.382 186.048,232.731 186.253,232.289 186.506 M170.120 187.479 C 171.730 188.059,171.950 188.057,170.924 187.470 C 170.482 187.217,169.831 187.012,169.478 187.013 C 169.124 187.015,169.414 187.225,170.120 187.479 M229.076 187.470 C 228.567 187.761,228.455 187.933,228.771 187.940 C 229.045 187.947,229.406 187.819,229.574 187.658 C 229.742 187.496,230.241 187.299,230.683 187.220 L 231.486 187.075 230.683 187.043 C 230.241 187.025,229.518 187.217,229.076 187.470 M173.129 188.446 C 173.724 188.704,174.374 188.910,174.575 188.903 C 174.776 188.896,174.453 188.679,173.859 188.421 C 173.264 188.163,172.614 187.957,172.413 187.964 C 172.212 187.971,172.535 188.188,173.129 188.446 M225.863 188.434 C 225.354 188.725,225.242 188.897,225.558 188.904 C 225.832 188.911,226.194 188.783,226.361 188.622 C 226.529 188.460,227.028 188.263,227.470 188.183 L 228.273 188.039 227.470 188.007 C 227.028 187.989,226.305 188.181,225.863 188.434 M176.064 189.398 C 176.506 189.650,177.157 189.856,177.510 189.854 C 177.863 189.853,177.574 189.643,176.867 189.388 C 175.258 188.808,175.038 188.811,176.064 189.398 M223.133 189.237 C 223.023 189.414,222.617 189.575,222.230 189.596 C 221.793 189.619,221.715 189.684,222.025 189.767 C 222.299 189.841,223.022 189.686,223.631 189.421 C 224.504 189.043,224.590 188.938,224.035 188.928 C 223.648 188.921,223.242 189.060,223.133 189.237 M180.080 190.342 C 180.964 190.602,182.265 190.802,182.972 190.786 L 184.257 190.758 182.811 190.507 C 182.016 190.369,180.715 190.169,179.920 190.062 L 178.474 189.869 180.080 190.342 M219.986 190.081 C 219.875 190.192,218.947 190.402,217.924 190.547 L 216.064 190.811 218.041 190.700 C 219.831 190.599,222.070 189.916,220.696 189.889 C 220.416 189.884,220.097 189.970,219.986 190.081 M186.185 191.306 C 186.892 191.555,188.120 191.749,188.916 191.737 L 190.361 191.717 188.755 191.485 C 187.871 191.357,186.643 191.163,186.024 191.054 C 184.920 190.858,184.922 190.863,186.185 191.306 M213.225 191.059 C 213.107 191.177,212.034 191.373,210.842 191.495 L 208.675 191.716 210.442 191.731 C 212.438 191.747,216.188 190.949,214.431 190.882 C 213.886 190.861,213.344 190.940,213.225 191.059 M191.807 192.170 C 193.597 192.457,206.799 192.463,207.795 192.177 C 208.195 192.062,204.436 191.961,199.442 191.953 C 194.448 191.945,191.012 192.042,191.807 192.170 M136.386 254.137 C 136.032 254.288,135.165 254.434,134.458 254.460 C 133.751 254.486,132.667 254.714,132.048 254.968 L 130.924 255.430 132.048 255.227 C 132.667 255.115,133.896 254.872,134.779 254.687 C 137.095 254.200,260.985 253.980,263.614 254.457 C 265.660 254.828,269.348 255.568,271.907 256.121 C 272.756 256.305,273.516 256.390,273.595 256.311 C 273.736 256.171,272.481 255.874,267.631 254.901 C 266.305 254.636,264.604 254.282,263.851 254.117 C 262.109 253.734,137.278 253.753,136.386 254.137 M127.550 255.931 C 126.530 256.348,126.515 256.372,127.390 256.179 C 127.920 256.063,128.932 255.863,129.639 255.735 L 130.924 255.502 129.799 255.486 C 129.181 255.478,128.169 255.678,127.550 255.931 M122.570 256.905 C 121.153 257.403,121.111 257.406,124.819 256.708 L 126.104 256.466 124.980 256.459 C 124.361 256.456,123.277 256.656,122.570 256.905 M275.502 256.759 C 277.905 257.319,278.777 257.376,277.269 256.875 C 276.474 256.611,275.462 256.410,275.020 256.427 C 274.446 256.450,274.583 256.545,275.502 256.759 M117.751 257.865 C 116.721 258.224,116.657 258.285,117.430 258.175 C 119.127 257.931,120.766 257.415,119.839 257.416 C 119.398 257.416,118.458 257.618,117.751 257.865 M280.482 257.726 C 282.478 258.277,283.657 258.360,282.088 257.839 C 281.293 257.575,280.353 257.372,280.000 257.387 C 279.632 257.403,279.838 257.548,280.482 257.726 M113.993 258.483 C 113.900 258.576,113.189 258.778,112.414 258.930 C 111.320 259.145,111.220 259.209,111.968 259.217 C 113.110 259.230,115.848 258.398,114.833 258.347 C 114.465 258.328,114.087 258.390,113.993 258.483 M285.622 258.768 C 286.241 259.021,287.253 259.221,287.871 259.212 L 288.996 259.197 287.711 258.936 C 284.399 258.265,284.389 258.264,285.622 258.768 M109.116 259.505 C 108.991 259.630,108.208 259.828,107.376 259.944 L 105.863 260.155 107.149 260.174 C 108.497 260.193,111.274 259.348,110.013 259.302 C 109.645 259.288,109.242 259.380,109.116 259.505 M290.442 259.732 C 291.060 259.985,292.145 260.184,292.851 260.174 L 294.137 260.155 292.691 259.928 C 291.896 259.803,290.811 259.604,290.281 259.486 C 289.410 259.292,289.426 259.316,290.442 259.732 M104.297 260.469 C 104.172 260.594,103.389 260.791,102.557 260.908 L 101.044 261.119 102.329 261.137 C 103.678 261.157,106.455 260.311,105.194 260.265 C 104.826 260.252,104.422 260.343,104.297 260.469 M295.261 260.696 C 295.880 260.949,296.964 261.148,297.671 261.137 L 298.956 261.119 297.510 260.892 C 296.715 260.766,295.631 260.568,295.100 260.450 C 294.230 260.256,294.245 260.280,295.261 260.696 M99.438 261.526 L 98.795 261.802 99.438 261.820 C 99.791 261.830,100.297 261.697,100.562 261.526 C 101.201 261.113,100.398 261.113,99.438 261.526 M299.598 261.526 C 299.952 261.678,300.458 261.802,300.723 261.802 C 301.027 261.802,300.967 261.700,300.562 261.526 C 300.209 261.374,299.703 261.250,299.438 261.250 C 299.134 261.250,299.193 261.352,299.598 261.526 M95.009 262.339 C 93.792 262.786,86.569 267.461,86.217 268.029 C 85.997 268.385,88.132 267.030,90.546 265.280 C 93.080 263.444,95.160 262.457,97.082 262.177 C 98.638 261.950,98.678 261.926,97.510 261.910 C 96.803 261.901,95.678 262.093,95.009 262.339 M302.651 262.173 C 305.262 262.606,305.940 262.984,314.976 269.050 C 319.898 272.354,323.975 275.008,324.035 274.948 C 324.248 274.735,305.685 262.556,304.611 262.205 C 304.010 262.008,302.998 261.867,302.362 261.890 C 301.237 261.932,301.245 261.940,302.651 262.173 M83.621 269.622 C 82.521 270.360,81.682 271.026,81.759 271.103 C 81.876 271.220,84.644 269.376,85.606 268.539 C 86.323 267.916,85.484 268.373,83.621 269.622 M80.014 272.008 C 78.641 272.983,78.530 273.092,78.914 273.092 C 79.083 273.092,79.722 272.665,80.333 272.142 C 81.677 270.993,81.530 270.932,80.014 272.008 M74.378 275.842 C 73.779 276.351,73.667 276.539,74.083 276.340 C 74.680 276.053,75.763 275.018,75.461 275.022 C 75.395 275.023,74.908 275.392,74.378 275.842 M324.498 275.250 C 324.498 275.401,324.932 275.780,325.462 276.093 C 325.992 276.407,326.426 276.592,326.426 276.506 C 326.426 276.420,325.992 276.040,325.462 275.663 C 324.932 275.285,324.498 275.100,324.498 275.250 M71.425 277.744 C 70.512 278.358,69.676 279.007,69.565 279.185 C 69.455 279.364,70.240 278.929,71.309 278.218 C 72.969 277.116,73.540 276.627,73.168 276.627 C 73.122 276.627,72.337 277.129,71.425 277.744 M328.032 277.678 C 328.483 278.171,331.565 280.137,331.555 279.925 C 331.548 279.790,330.869 279.245,330.045 278.715 C 328.587 277.776,327.708 277.323,328.032 277.678 M63.941 282.754 C 60.520 285.092,59.006 286.340,58.223 287.465 C 57.168 288.981,57.167 288.985,58.137 287.884 C 58.676 287.272,59.116 286.677,59.116 286.562 C 59.116 286.447,61.249 284.935,63.855 283.203 C 68.926 279.833,69.381 279.502,68.900 279.545 C 68.732 279.560,66.500 281.004,63.941 282.754 M332.530 280.702 C 332.972 281.048,335.004 282.446,337.046 283.809 C 339.319 285.326,340.994 286.688,341.367 287.320 C 341.702 287.888,342.100 288.498,342.253 288.675 C 342.405 288.851,342.773 289.384,343.072 289.857 C 344.754 292.529,351.894 302.972,352.037 302.972 C 352.131 302.972,352.073 302.791,351.909 302.570 C 351.746 302.349,349.181 298.524,346.211 294.069 L 340.810 285.970 336.594 283.146 C 332.439 280.361,330.958 279.471,332.530 280.702 M56.124 290.469 C 55.626 291.161,55.294 291.727,55.384 291.727 C 55.634 291.727,57.297 289.479,57.153 289.335 C 57.084 289.267,56.621 289.777,56.124 290.469 M52.283 296.227 C 51.821 296.933,51.500 297.510,51.569 297.510 C 51.818 297.510,53.419 295.240,53.273 295.094 C 53.191 295.011,52.745 295.521,52.283 296.227 M47.050 304.016 C 44.786 307.418,42.798 310.382,42.633 310.602 C 42.467 310.823,42.415 311.004,42.518 311.004 C 42.620 311.004,43.972 309.088,45.522 306.747 C 47.072 304.406,48.416 302.418,48.508 302.329 C 49.026 301.831,51.513 297.831,51.305 297.831 C 51.228 297.831,49.314 300.614,47.050 304.016 M353.739 305.622 C 354.639 306.992,355.433 308.112,355.505 308.112 C 355.716 308.112,353.807 305.147,352.919 304.096 C 352.471 303.566,352.840 304.253,353.739 305.622 M356.179 309.375 C 356.513 309.945,356.979 310.571,357.213 310.767 C 357.447 310.963,357.324 310.590,356.940 309.938 C 356.555 309.286,356.090 308.660,355.905 308.546 C 355.721 308.432,355.844 308.805,356.179 309.375 M41.553 312.209 C 41.250 312.695,40.849 313.309,40.662 313.574 C 40.381 313.972,40.405 313.990,40.803 313.679 C 41.336 313.263,42.547 311.325,42.275 311.325 C 42.180 311.325,41.855 311.723,41.553 312.209 M357.789 311.727 C 359.102 313.951,363.161 319.741,362.237 318.072 C 361.564 316.855,357.855 311.325,357.713 311.325 C 357.624 311.325,357.659 311.506,357.789 311.727 M39.625 315.100 C 39.322 315.586,38.921 316.192,38.734 316.447 C 38.486 316.784,38.494 316.850,38.763 316.689 C 39.153 316.455,40.561 314.217,40.318 314.217 C 40.240 314.217,39.928 314.614,39.625 315.100 M37.110 318.755 C 35.922 320.409,35.001 322.521,35.042 323.494 C 35.055 323.781,35.283 323.304,35.550 322.434 C 35.818 321.564,36.608 320.010,37.307 318.980 C 38.876 316.670,38.728 316.503,37.110 318.755 M362.731 318.947 C 362.731 319.134,363.029 319.628,363.393 320.045 L 364.054 320.803 363.490 319.839 C 362.747 318.571,362.731 318.552,362.731 318.947 M364.065 321.285 C 364.065 321.550,364.260 322.273,364.498 322.892 C 364.736 323.510,364.931 323.799,364.931 323.534 C 364.931 323.269,364.736 322.546,364.498 321.928 C 364.260 321.309,364.065 321.020,364.065 321.285 M34.615 325.622 C 34.492 326.329,34.313 327.341,34.219 327.871 C 34.125 328.402,34.275 328.135,34.552 327.279 C 34.830 326.424,35.008 325.412,34.949 325.030 C 34.877 324.572,34.764 324.772,34.615 325.622 M365.159 326.265 C 365.260 326.795,365.460 327.807,365.603 328.514 L 365.863 329.799 365.879 328.675 C 365.888 328.056,365.688 327.044,365.435 326.426 C 365.003 325.371,364.986 325.361,365.159 326.265 M33.437 331.603 C 33.202 332.595,33.089 333.607,33.186 333.852 C 33.283 334.097,33.374 333.890,33.388 333.393 C 33.402 332.895,33.567 332.201,33.755 331.850 C 33.943 331.499,34.044 330.894,33.981 330.506 C 33.906 330.050,33.713 330.439,33.437 331.603 M366.125 331.084 C 366.228 331.614,366.426 332.699,366.567 333.494 L 366.822 334.940 366.840 333.655 C 366.850 332.948,366.652 331.863,366.399 331.245 C 365.969 330.193,365.951 330.183,366.125 331.084 M32.808 335.154 C 32.788 335.449,32.688 335.955,32.586 336.279 C 32.411 336.837,32.420 336.838,32.768 336.295 C 32.970 335.980,33.070 335.474,32.991 335.171 C 32.860 334.673,32.842 334.672,32.808 335.154 M367.076 335.743 C 367.178 336.185,367.385 337.414,367.536 338.474 C 367.687 339.534,367.972 340.763,368.169 341.205 C 368.516 341.980,368.522 341.974,368.330 341.044 C 368.220 340.514,368.013 339.285,367.868 338.313 C 367.724 337.341,367.445 336.185,367.248 335.743 L 366.890 334.940 367.076 335.743 M32.210 338.153 C 32.213 338.859,32.279 339.111,32.356 338.711 C 32.433 338.311,32.430 337.733,32.349 337.426 C 32.269 337.119,32.206 337.446,32.210 338.153 M31.502 341.421 C 31.303 342.451,30.980 343.944,30.786 344.739 C 30.591 345.534,30.316 346.980,30.174 347.952 C 30.032 348.924,29.832 350.080,29.728 350.522 L 29.540 351.325 29.903 350.522 C 30.103 350.080,30.376 348.924,30.510 347.952 C 30.644 346.980,30.910 345.534,31.101 344.739 C 31.905 341.402,32.188 339.872,32.031 339.715 C 31.939 339.623,31.701 340.391,31.502 341.421 M368.673 343.697 C 368.746 344.625,368.966 345.637,369.162 345.946 C 369.449 346.397,369.474 346.318,369.289 345.542 C 369.163 345.012,368.943 344.000,368.800 343.293 C 368.564 342.124,368.553 342.161,368.673 343.697 M369.543 348.112 C 369.534 348.819,369.735 349.904,369.988 350.522 L 370.450 351.647 370.246 350.522 C 370.134 349.904,369.933 348.819,369.800 348.112 L 369.558 346.827 369.543 348.112 M29.161 352.932 C 28.558 356.264,28.560 356.210,29.085 354.859 C 29.359 354.153,29.541 353.141,29.489 352.610 C 29.400 351.712,29.378 351.734,29.161 352.932 M370.484 352.771 C 370.466 353.213,370.669 354.225,370.935 355.020 C 371.331 356.202,371.382 356.261,371.216 355.341 C 370.743 352.729,370.517 351.935,370.484 352.771 M28.200 358.072 C 27.628 360.704,27.614 360.983,28.120 359.679 C 28.393 358.972,28.571 358.104,28.513 357.751 C 28.435 357.266,28.358 357.345,28.200 358.072 M371.591 358.394 C 372.050 361.370,372.287 362.318,372.315 361.285 C 372.329 360.755,372.128 359.598,371.867 358.715 C 371.444 357.279,371.415 357.245,371.591 358.394 M27.226 362.195 C 26.830 363.174,26.923 364.322,27.340 363.605 C 27.523 363.291,27.626 362.713,27.568 362.320 C 27.474 361.678,27.440 361.665,27.226 362.195 M372.369 363.033 C 372.369 363.376,372.514 363.746,372.691 363.855 C 372.873 363.968,373.012 363.698,373.012 363.232 C 373.012 362.780,372.867 362.410,372.691 362.410 C 372.514 362.410,372.369 362.690,372.369 363.033 M26.993 365.382 C 27.004 366.299,27.621 366.768,27.626 365.863 C 27.628 365.378,27.486 364.980,27.309 364.980 C 27.133 364.980,26.990 365.161,26.993 365.382 M372.369 365.641 C 372.369 366.005,372.514 366.214,372.691 366.104 C 372.867 365.995,373.012 365.698,373.012 365.443 C 373.012 365.188,372.867 364.980,372.691 364.980 C 372.514 364.980,372.369 365.278,372.369 365.641 M371.982 367.711 C 371.870 368.418,371.689 369.430,371.580 369.960 C 371.459 370.551,371.580 370.388,371.895 369.537 C 372.177 368.774,372.358 367.762,372.297 367.288 C 372.204 366.566,372.153 366.635,371.982 367.711 M27.659 367.871 C 27.659 368.771,28.550 371.606,28.568 370.763 C 28.577 370.321,28.376 369.382,28.122 368.675 C 27.867 367.968,27.659 367.606,27.659 367.871 M370.785 373.722 C 370.551 374.698,370.439 375.697,370.536 375.941 C 370.633 376.186,370.724 376.010,370.738 375.550 C 370.752 375.090,370.921 374.262,371.113 373.709 C 371.306 373.157,371.407 372.534,371.337 372.326 C 371.268 372.117,371.020 372.746,370.785 373.722 M28.773 373.173 C 28.874 373.703,29.074 374.715,29.217 375.422 L 29.478 376.707 29.494 375.582 C 29.502 374.964,29.302 373.952,29.049 373.333 C 28.618 372.278,28.601 372.268,28.773 373.173 M369.755 377.313 C 368.336 379.212,363.042 387.193,363.313 387.025 C 363.483 386.920,364.961 384.845,366.596 382.413 C 368.232 379.981,369.790 377.738,370.058 377.428 C 370.326 377.117,370.486 376.806,370.413 376.736 C 370.340 376.666,370.044 376.926,369.755 377.313 M31.159 379.197 C 32.058 380.566,32.866 381.687,32.953 381.687 C 33.196 381.687,30.866 378.079,30.152 377.349 C 29.806 376.996,30.259 377.827,31.159 379.197 M35.649 385.770 C 36.024 386.338,36.795 387.109,37.362 387.484 L 38.394 388.166 37.472 387.374 C 36.965 386.938,36.194 386.167,35.759 385.660 L 34.967 384.739 35.649 385.770 M38.876 388.528 C 39.607 389.253,43.757 392.013,43.900 391.869 C 43.969 391.800,43.192 391.180,42.174 390.492 C 39.452 388.652,38.320 387.977,38.876 388.528 M356.964 391.028 C 354.881 392.397,354.575 392.852,356.543 391.655 C 357.469 391.092,358.309 390.498,358.409 390.336 C 358.662 389.928,358.585 389.964,356.964 391.028 M45.289 392.859 C 45.900 393.392,46.912 393.909,47.538 394.006 C 48.163 394.104,49.036 394.265,49.478 394.365 C 49.928 394.467,49.786 394.344,49.157 394.085 C 48.538 393.831,47.697 393.612,47.288 393.599 C 46.878 393.585,46.011 393.195,45.360 392.731 L 44.177 391.888 45.289 392.859 M354.150 392.966 C 353.955 393.162,353.311 393.436,352.721 393.576 C 351.759 393.803,351.736 393.833,352.495 393.863 C 353.169 393.889,355.334 392.661,354.683 392.621 C 354.586 392.615,354.346 392.771,354.150 392.966 M52.851 395.043 C 54.946 395.625,55.850 395.594,53.976 395.003 C 53.181 394.753,52.241 394.559,51.888 394.572 C 51.534 394.585,51.968 394.797,52.851 395.043 M345.863 395.029 C 344.152 395.593,345.116 395.592,347.149 395.028 C 348.035 394.782,348.395 394.587,347.952 394.594 C 347.510 394.600,346.570 394.796,345.863 395.029 M56.386 395.823 C 56.495 396.000,56.873 396.145,57.227 396.145 C 57.580 396.145,57.780 396.000,57.671 395.823 C 57.561 395.647,57.183 395.502,56.830 395.502 C 56.476 395.502,56.276 395.647,56.386 395.823 M342.169 395.823 C 341.770 396.081,341.797 396.135,342.329 396.135 C 342.683 396.135,343.189 395.995,343.454 395.823 C 343.853 395.565,343.825 395.512,343.293 395.512 C 342.940 395.512,342.434 395.652,342.169 395.823 " stroke="none" fill="#a1a1a1" fill-rule="evenodd"></path><path id="path3" d="M195.341 3.857 C 194.510 4.031,195.013 4.113,197.269 4.172 C 203.156 4.326,211.898 4.759,213.012 4.952 C 214.083 5.138,214.075 5.126,212.836 4.715 C 212.005 4.439,208.969 4.206,204.429 4.069 C 200.520 3.952,197.129 3.803,196.894 3.738 C 196.658 3.674,195.960 3.727,195.341 3.857 M187.952 4.698 L 186.185 5.130 187.791 4.941 C 188.675 4.838,190.482 4.648,191.807 4.518 L 194.217 4.283 191.968 4.274 C 190.731 4.269,188.924 4.460,187.952 4.698 M181.044 5.664 C 180.264 6.046,180.233 6.094,180.884 5.919 C 181.325 5.800,182.554 5.598,183.614 5.471 L 185.542 5.239 183.775 5.216 C 182.803 5.203,181.574 5.405,181.044 5.664 M215.743 5.489 C 218.657 6.097,219.385 6.147,217.831 5.631 C 217.036 5.366,215.952 5.166,215.422 5.186 C 214.561 5.217,214.595 5.250,215.743 5.489 M177.349 6.607 C 176.530 6.917,176.411 7.037,176.911 7.050 C 177.288 7.060,178.011 6.852,178.517 6.588 C 179.632 6.007,178.904 6.018,177.349 6.607 M221.687 6.578 C 222.482 6.842,223.422 7.046,223.775 7.031 C 224.484 7.000,222.754 6.468,221.205 6.240 C 220.576 6.147,220.744 6.265,221.687 6.578 M174.688 7.266 C 174.579 7.375,174.013 7.577,173.430 7.715 L 172.369 7.966 173.333 7.988 C 173.863 8.000,174.659 7.803,175.100 7.550 C 175.629 7.248,175.730 7.087,175.395 7.080 C 175.115 7.073,174.797 7.157,174.688 7.266 M225.542 7.550 C 225.984 7.803,226.635 8.008,226.988 8.007 C 227.341 8.005,227.052 7.796,226.345 7.541 C 224.736 6.961,224.516 6.964,225.542 7.550 M171.245 8.353 C 170.980 8.525,170.352 8.667,169.849 8.670 C 169.346 8.672,168.551 8.882,168.082 9.135 C 167.040 9.697,162.943 11.566,162.752 11.566 C 162.677 11.566,161.701 11.987,160.585 12.502 C 159.468 13.017,157.701 13.814,156.657 14.274 C 155.614 14.733,154.827 15.175,154.908 15.256 C 154.989 15.337,155.626 15.127,156.323 14.789 C 157.442 14.248,158.374 13.830,162.410 12.059 C 165.940 10.511,167.339 9.878,168.138 9.465 C 168.639 9.207,169.434 8.991,169.906 8.985 C 170.693 8.974,172.778 8.063,172.048 8.048 C 171.871 8.045,171.510 8.182,171.245 8.353 M228.254 8.524 C 228.597 8.784,229.248 8.976,229.700 8.952 L 230.522 8.908 229.719 8.764 C 229.277 8.685,228.778 8.488,228.610 8.326 C 228.443 8.164,228.153 8.037,227.968 8.042 C 227.782 8.048,227.911 8.265,228.254 8.524 M231.146 9.488 C 231.489 9.747,232.074 9.960,232.447 9.960 C 232.820 9.960,233.280 10.116,233.471 10.306 C 233.661 10.497,234.305 10.769,234.900 10.912 C 235.496 11.054,236.273 11.265,236.627 11.380 C 237.636 11.709,235.487 10.721,234.056 10.199 C 231.158 9.141,230.463 8.971,231.146 9.488 M239.009 12.537 C 239.965 13.064,240.797 13.446,240.858 13.386 C 240.996 13.248,237.923 11.564,237.547 11.572 C 237.394 11.575,238.052 12.009,239.009 12.537 M241.922 13.969 C 242.145 14.238,242.479 14.458,242.665 14.458 C 242.850 14.458,243.258 14.690,243.571 14.973 C 243.883 15.256,244.295 15.436,244.485 15.372 C 244.675 15.309,244.085 14.857,243.173 14.368 C 242.261 13.879,241.698 13.699,241.922 13.969 M153.735 15.865 C 152.167 16.792,149.398 18.668,149.398 18.802 C 149.398 18.883,150.131 18.481,151.028 17.909 C 151.925 17.336,152.949 16.703,153.304 16.503 C 153.932 16.149,154.812 15.390,154.522 15.453 C 154.443 15.471,154.088 15.656,153.735 15.865 M245.275 15.700 C 245.371 15.856,246.429 16.470,247.625 17.065 C 248.821 17.660,251.173 19.166,252.851 20.413 C 258.676 24.740,259.598 25.401,259.598 25.250 C 259.598 25.166,257.900 23.838,255.823 22.298 C 253.747 20.759,251.976 19.410,251.888 19.300 C 251.415 18.716,244.970 15.207,245.275 15.700 M148.112 19.438 C 147.889 19.707,147.855 19.920,148.034 19.920 C 148.210 19.920,148.535 19.703,148.755 19.438 C 148.978 19.169,149.013 18.956,148.834 18.956 C 148.657 18.956,148.332 19.173,148.112 19.438 M145.622 21.058 C 144.695 21.666,143.936 22.231,143.936 22.313 C 143.936 22.516,147.141 20.513,147.346 20.182 C 147.589 19.789,147.455 19.857,145.622 21.058 M140.270 25.141 C 138.600 26.598,137.224 27.914,137.211 28.065 C 137.199 28.216,138.211 27.421,139.461 26.298 C 140.710 25.176,142.192 23.863,142.754 23.382 C 143.316 22.901,143.670 22.503,143.541 22.499 C 143.412 22.494,141.940 23.683,140.270 25.141 M265.447 30.763 C 268.459 33.723,271.772 37.301,272.810 38.715 C 273.847 40.129,274.819 41.437,274.971 41.622 C 275.122 41.807,275.799 42.747,276.476 43.710 C 277.153 44.674,277.883 45.639,278.099 45.855 C 278.315 46.071,278.806 46.758,279.192 47.381 C 279.577 48.004,279.969 48.514,280.063 48.514 C 280.388 48.514,279.501 47.253,273.507 39.197 C 271.608 36.645,260.716 25.382,260.147 25.382 C 260.050 25.382,262.435 27.803,265.447 30.763 M133.605 31.226 C 130.895 33.918,129.341 35.691,124.672 41.416 C 123.885 42.382,123.421 43.061,123.643 42.924 C 123.864 42.787,124.632 41.928,125.348 41.016 C 126.065 40.104,127.109 38.851,127.669 38.233 C 128.228 37.614,129.568 36.024,130.645 34.699 C 132.586 32.310,134.696 30.206,136.206 29.155 C 136.637 28.855,136.905 28.525,136.802 28.422 C 136.700 28.320,135.261 29.581,133.605 31.226 M122.192 44.900 C 120.932 46.883,120.739 47.229,120.891 47.229 C 121.000 47.229,122.523 44.933,123.183 43.775 C 123.789 42.711,123.046 43.554,122.192 44.900 M120.295 47.930 C 120.157 48.163,119.327 49.510,118.451 50.924 C 117.559 52.362,117.160 53.224,117.545 52.882 C 117.923 52.545,118.233 52.125,118.233 51.948 C 118.233 51.772,118.594 51.153,119.036 50.574 C 119.478 49.995,119.839 49.414,119.839 49.284 C 119.839 49.153,120.079 48.781,120.373 48.457 C 120.666 48.133,120.825 47.787,120.726 47.687 C 120.627 47.588,120.433 47.698,120.295 47.930 M280.161 48.877 C 280.161 48.978,280.540 49.769,281.003 50.635 C 281.466 51.501,282.284 53.041,282.821 54.059 C 283.357 55.077,283.853 55.853,283.922 55.784 C 283.991 55.714,283.366 54.376,282.533 52.809 C 281.008 49.940,280.161 48.536,280.161 48.877 M115.918 55.341 C 115.469 56.269,114.634 58.185,114.060 59.598 C 112.932 62.381,112.204 64.078,111.738 65.011 C 111.575 65.338,111.499 65.663,111.570 65.734 C 111.696 65.859,112.095 65.093,112.926 63.133 C 113.150 62.602,113.786 61.102,114.338 59.798 C 114.890 58.494,115.341 57.229,115.341 56.987 C 115.341 56.744,115.486 56.546,115.663 56.546 C 115.839 56.546,115.985 56.365,115.986 56.145 C 115.987 55.924,116.206 55.324,116.474 54.812 C 116.741 54.299,116.908 53.829,116.846 53.767 C 116.783 53.704,116.366 54.413,115.918 55.341 M284.406 57.108 C 284.613 57.594,284.937 58.209,285.126 58.474 C 285.890 59.548,286.587 61.017,286.597 61.576 C 286.602 61.902,286.819 62.449,287.078 62.792 C 287.338 63.135,287.550 63.252,287.550 63.052 C 287.550 62.852,287.406 62.599,287.229 62.490 C 287.052 62.381,286.901 61.975,286.894 61.587 C 286.886 61.200,286.529 60.305,286.099 59.598 C 285.670 58.892,285.105 57.843,284.845 57.269 C 284.270 56.005,283.874 55.860,284.406 57.108 M287.564 64.140 C 287.557 64.517,287.766 65.240,288.030 65.746 C 288.638 66.912,288.644 66.410,288.041 64.739 C 287.742 63.907,287.573 63.696,287.564 64.140 M110.912 66.967 C 110.373 68.148,110.424 68.395,111.028 67.533 C 111.306 67.136,111.482 66.654,111.417 66.461 C 111.353 66.269,111.126 66.497,110.912 66.967 M288.516 67.031 C 288.513 67.627,289.452 69.606,289.465 69.033 C 289.472 68.744,289.262 68.093,288.998 67.587 C 288.734 67.081,288.517 66.831,288.516 67.031 M109.915 70.417 C 109.680 71.243,109.565 72.111,109.659 72.345 C 109.752 72.579,109.840 72.436,109.854 72.027 C 109.868 71.618,110.033 70.996,110.221 70.645 C 110.409 70.294,110.513 69.761,110.452 69.461 C 110.391 69.161,110.149 69.591,109.915 70.417 M289.498 69.964 C 289.487 70.187,289.603 70.621,289.756 70.928 C 290.346 72.112,290.844 73.807,291.108 75.531 C 291.259 76.519,291.532 77.721,291.715 78.203 C 291.898 78.684,292.055 79.683,292.063 80.423 C 292.071 81.162,292.290 82.201,292.549 82.731 C 292.809 83.261,292.932 83.406,292.822 83.052 C 292.712 82.699,292.512 81.450,292.376 80.277 C 292.241 79.104,292.040 77.997,291.928 77.817 C 291.817 77.637,291.598 76.645,291.440 75.612 C 291.283 74.580,290.975 73.229,290.756 72.610 C 290.092 70.737,289.520 69.535,289.498 69.964 M109.000 74.135 C 108.453 76.070,107.931 78.135,107.637 79.518 C 107.487 80.225,107.276 81.165,107.167 81.606 L 106.970 82.410 107.343 81.606 C 107.548 81.165,107.831 80.225,107.973 79.518 C 108.274 78.020,108.835 75.792,109.294 74.273 C 109.472 73.686,109.555 73.143,109.479 73.067 C 109.403 72.991,109.187 73.471,109.000 74.135 M106.731 85.205 C 106.696 86.743,106.510 88.731,106.319 89.623 C 106.127 90.515,106.033 91.426,106.110 91.647 C 106.406 92.498,107.013 87.422,106.907 84.980 L 106.796 82.410 106.731 85.205 M293.192 85.944 C 293.271 86.827,293.471 88.273,293.637 89.157 L 293.938 90.763 293.796 89.157 C 293.717 88.273,293.517 86.827,293.351 85.944 L 293.050 84.337 293.192 85.944 M105.817 96.546 C 105.816 98.137,105.870 98.828,105.938 98.082 C 106.005 97.336,106.006 96.035,105.939 95.190 C 105.873 94.346,105.818 94.956,105.817 96.546 M294.068 97.831 C 294.070 98.715,294.133 99.038,294.206 98.550 C 294.280 98.061,294.278 97.339,294.202 96.943 C 294.126 96.548,294.065 96.948,294.068 97.831 M293.387 105.303 C 293.178 106.671,293.036 108.948,293.069 110.361 C 293.115 112.247,293.155 112.461,293.221 111.165 C 293.271 110.193,293.478 107.981,293.682 106.250 C 294.127 102.468,293.919 101.803,293.387 105.303 M106.030 104.123 C 106.042 106.222,106.957 113.399,107.293 114.026 C 107.479 114.373,107.637 115.208,107.645 115.882 C 107.653 116.557,107.871 117.542,108.130 118.072 C 108.527 118.884,108.571 118.909,108.407 118.233 C 108.299 117.791,108.094 116.635,107.950 115.663 C 107.806 114.691,107.543 113.462,107.366 112.932 C 107.188 112.402,106.878 110.020,106.676 107.639 C 106.323 103.482,106.017 101.817,106.030 104.123 M292.384 114.231 C 292.165 114.946,292.053 115.885,292.134 116.319 C 292.254 116.960,292.290 116.908,292.326 116.043 C 292.350 115.457,292.523 114.690,292.712 114.339 C 292.900 113.987,292.992 113.527,292.917 113.316 C 292.842 113.104,292.602 113.516,292.384 114.231 M291.437 118.281 C 291.243 118.837,291.102 119.741,291.125 120.289 C 291.161 121.186,291.187 121.158,291.387 120.000 C 291.509 119.293,291.718 118.390,291.850 117.992 C 291.983 117.594,292.024 117.269,291.941 117.269 C 291.858 117.269,291.631 117.724,291.437 118.281 M108.662 120.321 C 108.652 121.028,108.850 122.112,109.103 122.731 C 109.533 123.783,109.551 123.793,109.377 122.892 C 109.274 122.361,109.076 121.277,108.935 120.482 L 108.680 119.036 108.662 120.321 M290.202 124.177 C 290.205 124.884,290.271 125.135,290.348 124.735 C 290.425 124.336,290.422 123.757,290.341 123.450 C 290.261 123.143,290.198 123.470,290.202 124.177 M109.572 124.659 C 109.583 125.235,110.494 126.908,110.511 126.382 C 110.517 126.181,110.306 125.603,110.042 125.097 C 109.778 124.591,109.566 124.394,109.572 124.659 M110.524 127.074 C 110.520 127.769,112.413 132.169,112.431 131.505 C 112.441 131.118,112.316 130.718,112.153 130.618 C 111.990 130.517,111.760 129.993,111.641 129.453 C 111.411 128.408,110.527 126.524,110.524 127.074 M288.904 128.011 C 288.365 129.192,288.416 129.439,289.020 128.577 C 289.298 128.180,289.474 127.698,289.409 127.505 C 289.345 127.313,289.118 127.541,288.904 128.011 M287.924 130.439 C 287.689 130.970,287.569 131.586,287.659 131.807 C 287.748 132.028,287.832 131.912,287.846 131.550 C 287.860 131.188,288.032 130.731,288.229 130.534 C 288.426 130.338,288.534 130.018,288.469 129.825 C 288.405 129.631,288.159 129.908,287.924 130.439 M112.450 132.610 C 112.450 132.810,112.594 133.063,112.771 133.173 C 112.948 133.282,113.092 133.634,113.092 133.955 C 113.092 134.649,114.662 138.296,114.871 138.088 C 114.951 138.008,114.655 137.195,114.215 136.282 C 113.774 135.369,113.409 134.368,113.403 134.058 C 113.392 133.445,112.450 132.014,112.450 132.610 M286.920 132.836 C 286.708 133.093,286.581 133.541,286.640 133.833 C 286.711 134.187,286.871 134.032,287.121 133.366 C 287.536 132.259,287.493 132.146,286.920 132.836 M285.960 135.390 C 285.734 135.815,285.625 136.357,285.720 136.595 C 285.825 136.857,285.903 136.769,285.918 136.369 C 285.932 136.007,286.115 135.540,286.324 135.331 C 286.533 135.122,286.630 134.876,286.539 134.785 C 286.448 134.694,286.187 134.966,285.960 135.390 M284.666 138.534 C 283.956 140.004,283.859 140.373,284.308 139.904 C 284.657 139.538,285.648 137.189,285.453 137.189 C 285.378 137.189,285.024 137.794,284.666 138.534 M282.937 141.855 C 282.491 142.654,282.263 143.223,282.433 143.118 C 282.770 142.910,284.115 140.402,283.889 140.402 C 283.813 140.402,283.384 141.056,282.937 141.855 M116.954 142.089 C 116.951 142.222,117.379 143.018,117.906 143.856 C 118.432 144.695,118.866 145.273,118.869 145.140 C 118.873 145.007,118.445 144.211,117.918 143.373 C 117.391 142.534,116.957 141.956,116.954 142.089 M281.003 145.023 C 279.836 147.014,279.954 147.337,281.152 145.429 C 281.690 144.572,282.066 143.806,281.988 143.728 C 281.909 143.650,281.466 144.232,281.003 145.023 M119.708 147.182 C 120.629 148.912,122.993 152.289,123.282 152.289 C 123.366 152.289,122.920 151.602,122.290 150.763 C 121.660 149.924,120.750 148.469,120.269 147.531 C 119.787 146.592,119.256 145.739,119.089 145.636 C 118.921 145.532,119.200 146.228,119.708 147.182 M279.613 147.550 C 279.052 148.288,277.500 151.169,277.839 150.843 C 278.229 150.469,280.198 147.149,280.031 147.149 C 279.969 147.149,279.781 147.329,279.613 147.550 M276.110 152.817 C 275.422 153.646,274.715 154.577,274.538 154.885 C 274.361 155.194,273.708 156.001,273.087 156.679 C 272.466 157.357,271.430 158.635,270.785 159.518 C 269.257 161.612,259.379 171.075,258.265 171.513 C 258.115 171.572,257.992 171.766,257.992 171.944 C 257.992 172.299,262.460 168.396,266.477 164.533 C 268.899 162.202,270.383 160.496,275.029 154.699 C 276.162 153.285,277.233 152.028,277.410 151.905 C 277.588 151.782,277.649 151.598,277.546 151.495 C 277.444 151.393,276.797 151.987,276.110 152.817 M124.533 154.137 C 127.050 157.460,129.450 160.301,127.983 158.221 C 125.903 155.270,123.840 152.623,123.617 152.617 C 123.485 152.613,123.898 153.297,124.533 154.137 M134.455 165.311 C 137.499 168.320,140.840 171.357,141.879 172.058 C 142.918 172.759,144.854 174.104,146.182 175.047 C 147.509 175.989,148.142 176.350,147.590 175.850 C 147.038 175.349,145.619 174.289,144.438 173.494 C 141.120 171.260,138.715 169.225,133.617 164.340 C 129.660 160.547,129.792 160.700,134.455 165.311 M254.621 174.150 C 253.032 175.203,251.865 176.064,252.029 176.064 C 252.352 176.064,257.671 172.553,257.671 172.340 C 257.671 172.131,257.653 172.142,254.621 174.150 M249.776 177.510 C 248.907 178.129,248.288 178.635,248.402 178.635 C 248.517 178.635,249.362 178.129,250.281 177.510 C 251.200 176.892,251.818 176.386,251.655 176.386 C 251.492 176.386,250.646 176.892,249.776 177.510 M148.755 176.825 C 148.755 176.890,149.369 177.333,150.120 177.809 L 151.486 178.675 150.361 177.700 C 149.349 176.821,148.755 176.498,148.755 176.825 M151.647 178.750 C 151.647 178.964,160.074 183.166,160.217 183.023 C 160.275 182.965,158.491 181.990,156.252 180.856 C 151.615 178.508,151.647 178.523,151.647 178.750 M247.534 178.933 C 247.366 179.097,246.470 179.611,245.542 180.074 C 243.560 181.065,243.339 181.356,245.092 180.667 C 246.203 180.231,248.454 178.675,248.016 178.646 C 247.919 178.640,247.702 178.769,247.534 178.933 M241.205 182.098 C 239.031 183.265,239.522 183.329,241.797 182.176 C 242.841 181.646,243.478 181.228,243.213 181.246 C 242.948 181.264,242.044 181.648,241.205 182.098 M161.106 183.625 C 161.449 183.884,161.874 184.096,162.051 184.096 C 162.227 184.096,162.091 183.884,161.748 183.625 C 161.405 183.365,160.980 183.153,160.803 183.153 C 160.627 183.153,160.763 183.365,161.106 183.625 M236.305 184.373 C 233.286 185.793,231.899 186.323,230.361 186.642 C 229.743 186.770,228.921 187.045,228.535 187.253 C 228.149 187.461,227.490 187.631,227.070 187.631 C 226.310 187.631,224.716 188.565,225.443 188.584 C 225.653 188.590,225.915 188.450,226.024 188.273 C 226.133 188.096,226.612 187.951,227.087 187.950 C 227.563 187.949,228.366 187.732,228.872 187.468 C 229.378 187.204,230.101 186.987,230.478 186.986 C 230.856 186.985,231.579 186.768,232.085 186.504 C 232.591 186.240,233.169 186.021,233.370 186.018 C 233.829 186.010,239.634 183.169,239.197 183.166 C 239.020 183.165,237.719 183.708,236.305 184.373 M163.033 184.589 C 163.376 184.848,163.882 185.059,164.158 185.058 C 164.433 185.057,164.245 184.840,163.738 184.576 C 162.573 183.969,162.222 183.975,163.033 184.589 M165.282 185.552 C 165.625 185.812,166.276 186.029,166.728 186.034 C 167.180 186.040,167.831 186.257,168.174 186.516 C 168.517 186.776,169.195 186.988,169.681 186.988 C 170.167 186.988,170.654 187.133,170.763 187.309 C 170.872 187.486,171.206 187.625,171.505 187.619 C 172.370 187.601,170.589 186.693,169.639 186.668 C 169.197 186.656,168.555 186.434,168.212 186.175 C 167.869 185.915,167.190 185.703,166.705 185.703 C 166.219 185.703,165.732 185.558,165.622 185.382 C 165.513 185.205,165.252 185.065,165.041 185.070 C 164.831 185.076,164.939 185.293,165.282 185.552 M172.691 187.860 C 173.044 187.945,173.471 188.145,173.639 188.304 C 173.806 188.464,174.168 188.589,174.442 188.583 C 174.758 188.576,174.646 188.404,174.137 188.112 C 173.695 187.860,173.044 187.665,172.691 187.679 L 172.048 187.705 172.691 187.860 M176.225 189.086 C 177.835 189.666,178.054 189.663,177.028 189.076 C 176.586 188.824,175.936 188.618,175.582 188.620 C 175.229 188.621,175.518 188.831,176.225 189.086 M222.509 189.087 C 221.740 189.668,221.837 189.668,223.454 189.086 C 224.474 188.718,224.574 188.622,223.936 188.619 C 223.494 188.617,222.852 188.827,222.509 189.087 M180.080 189.905 C 180.787 190.078,182.088 190.279,182.972 190.352 L 184.578 190.485 182.972 190.170 C 182.088 189.998,180.787 189.797,180.080 189.724 L 178.795 189.591 180.080 189.905 M219.306 189.797 C 219.174 189.929,218.246 190.125,217.244 190.232 L 215.422 190.428 217.028 190.450 C 218.758 190.474,221.950 189.656,220.375 189.592 C 219.918 189.573,219.437 189.666,219.306 189.797 M186.506 190.997 C 188.507 191.595,204.786 192.337,206.855 191.924 C 207.825 191.731,205.736 191.616,199.983 191.546 C 192.655 191.456,190.379 191.315,186.024 190.681 C 185.220 190.563,185.357 190.653,186.506 190.997 M212.904 190.737 C 212.785 190.856,211.713 191.052,210.521 191.174 C 208.547 191.375,208.497 191.397,209.960 191.420 C 210.843 191.433,212.434 191.249,213.494 191.010 C 215.138 190.640,215.253 190.572,214.270 190.549 C 213.637 190.534,213.022 190.619,212.904 190.737 M134.940 254.747 C 133.590 254.927,238.416 254.879,255.743 254.692 C 260.072 254.645,234.988 254.595,200.000 254.581 C 165.012 254.566,135.735 254.641,134.940 254.747 M264.337 255.006 C 264.735 255.082,265.386 255.082,265.783 255.006 C 266.181 254.929,265.855 254.867,265.060 254.867 C 264.265 254.867,263.940 254.929,264.337 255.006 M267.041 255.398 C 267.520 255.708,268.998 256.018,272.450 256.533 L 273.574 256.700 272.610 256.367 C 272.080 256.184,270.764 255.900,269.686 255.736 C 268.607 255.572,267.450 255.351,267.115 255.245 C 266.579 255.075,266.570 255.093,267.041 255.398 M127.550 256.272 C 126.515 256.688,126.503 256.709,127.390 256.529 C 127.920 256.422,129.076 256.222,129.960 256.084 L 131.566 255.833 130.120 255.827 C 129.325 255.823,128.169 256.023,127.550 256.272 M122.892 257.222 L 121.606 257.670 122.731 257.497 C 123.349 257.402,124.434 257.203,125.141 257.055 L 126.426 256.787 125.301 256.781 C 124.683 256.777,123.598 256.976,122.892 257.222 M274.859 257.035 C 275.566 257.194,276.651 257.398,277.269 257.488 L 278.394 257.653 277.269 257.312 C 276.651 257.125,275.566 256.920,274.859 256.859 L 273.574 256.746 274.859 257.035 M119.134 257.841 C 119.041 257.934,118.330 258.135,117.554 258.287 C 116.331 258.527,116.278 258.569,117.152 258.599 C 117.706 258.619,118.646 258.423,119.240 258.165 C 119.835 257.907,120.092 257.690,119.813 257.683 C 119.533 257.676,119.227 257.747,119.134 257.841 M280.803 258.119 C 281.245 258.390,282.112 258.599,282.731 258.583 L 283.855 258.554 282.570 258.320 C 281.863 258.191,280.996 257.982,280.643 257.856 C 280.227 257.707,280.283 257.800,280.803 258.119 M114.257 258.862 C 114.132 258.987,113.349 259.185,112.517 259.301 L 111.004 259.513 112.289 259.541 C 113.491 259.568,116.102 258.717,114.993 258.661 C 114.714 258.646,114.382 258.737,114.257 258.862 M285.462 259.097 C 285.992 259.357,287.004 259.558,287.711 259.544 C 288.969 259.519,288.962 259.513,287.390 259.271 C 286.506 259.134,285.494 258.933,285.141 258.824 C 284.787 258.714,284.932 258.837,285.462 259.097 M109.785 259.800 C 109.674 259.911,108.746 260.109,107.723 260.240 C 105.928 260.470,105.914 260.479,107.309 260.506 C 108.528 260.529,111.367 259.702,110.335 259.624 C 110.143 259.610,109.896 259.689,109.785 259.800 M290.281 260.061 C 290.811 260.321,291.797 260.540,292.471 260.548 C 293.145 260.556,293.978 260.713,294.321 260.896 C 294.664 261.080,295.848 261.360,296.951 261.519 C 298.053 261.678,299.390 261.891,299.920 261.991 C 300.825 262.162,300.815 262.146,299.759 261.714 C 299.141 261.461,298.102 261.243,297.451 261.229 C 296.799 261.216,295.860 261.046,295.362 260.851 C 294.865 260.657,293.590 260.382,292.530 260.240 C 291.470 260.099,290.313 259.894,289.960 259.786 C 289.606 259.677,289.751 259.801,290.281 260.061 M104.578 260.884 C 104.225 261.035,103.357 261.181,102.651 261.207 C 101.944 261.233,100.859 261.461,100.241 261.714 C 99.185 262.146,99.175 262.162,100.080 261.991 C 100.610 261.891,101.974 261.675,103.111 261.512 C 104.248 261.349,105.325 261.069,105.505 260.889 C 105.895 260.498,105.480 260.496,104.578 260.884 M95.422 262.698 C 94.384 263.115,94.371 263.135,95.261 262.957 C 95.791 262.851,96.876 262.650,97.671 262.510 L 99.116 262.255 97.831 262.250 C 97.124 262.247,96.040 262.449,95.422 262.698 M302.169 262.491 C 302.876 262.624,303.960 262.830,304.578 262.948 C 305.697 263.161,305.697 263.160,304.418 262.670 C 303.711 262.400,302.627 262.194,302.008 262.214 L 300.884 262.249 302.169 262.491 M86.104 268.320 C 81.952 271.143,77.443 274.201,76.085 275.114 C 74.727 276.028,73.663 276.823,73.721 276.880 C 73.824 276.983,80.652 272.502,80.964 272.127 C 81.052 272.021,81.703 271.588,82.410 271.165 C 83.116 270.742,83.767 270.313,83.855 270.212 C 84.065 269.974,89.701 266.224,90.103 266.056 C 90.656 265.825,94.215 263.132,93.931 263.159 C 93.779 263.174,90.257 265.496,86.104 268.320 M306.185 263.614 C 306.405 263.880,306.729 264.096,306.906 264.096 C 307.085 264.096,307.050 263.883,306.827 263.614 C 306.607 263.349,306.283 263.133,306.106 263.133 C 305.927 263.133,305.962 263.346,306.185 263.614 M308.434 265.042 C 309.052 265.573,309.676 266.011,309.821 266.015 C 309.965 266.020,310.616 266.402,311.266 266.863 L 312.450 267.702 311.486 266.864 C 310.956 266.403,309.799 265.587,308.916 265.052 L 307.309 264.077 308.434 265.042 M314.057 268.746 C 314.940 269.360,315.807 269.979,315.984 270.122 C 316.927 270.884,326.195 276.964,326.282 276.877 C 326.339 276.821,325.274 276.026,323.915 275.111 C 322.557 274.196,319.516 272.139,317.156 270.539 C 314.797 268.939,312.773 267.631,312.659 267.631 C 312.545 267.631,313.174 268.132,314.057 268.746 M327.699 277.888 C 328.311 278.431,328.949 278.876,329.118 278.876 C 329.286 278.876,329.364 278.834,329.290 278.782 C 329.217 278.731,328.578 278.287,327.871 277.795 L 326.586 276.901 327.699 277.888 M68.948 279.861 C 68.259 280.379,67.831 280.803,67.996 280.803 C 68.162 280.803,68.798 280.375,69.410 279.852 C 70.833 278.636,70.571 278.641,68.948 279.861 M329.641 279.120 C 329.643 279.412,331.856 280.946,332.020 280.769 C 332.085 280.700,331.576 280.246,330.888 279.762 C 330.201 279.278,329.640 278.989,329.641 279.120 M63.936 283.252 C 62.080 284.558,60.237 285.767,59.839 285.938 C 59.442 286.109,59.116 286.320,59.116 286.408 C 59.116 286.642,60.168 286.227,60.723 285.774 C 61.620 285.041,65.581 282.410,65.803 282.399 C 66.127 282.383,67.583 281.129,67.435 280.993 C 67.366 280.930,65.791 281.946,63.936 283.252 M332.534 281.053 C 332.537 281.305,337.061 284.412,337.209 284.264 C 337.258 284.214,336.226 283.419,334.915 282.497 C 333.603 281.575,332.532 280.925,332.534 281.053 M339.275 285.781 C 339.496 286.047,339.840 286.273,340.039 286.282 C 340.327 286.295,344.683 292.608,346.185 295.189 C 346.637 295.965,348.273 297.896,348.273 297.652 C 348.273 297.542,347.976 297.067,347.613 296.597 C 347.251 296.127,346.575 295.165,346.111 294.458 C 342.557 289.034,340.387 286.082,339.690 285.720 C 338.970 285.347,338.921 285.354,339.275 285.781 M57.472 289.084 C 48.752 302.119,46.754 305.083,46.596 305.221 C 46.494 305.309,46.161 305.779,45.856 306.265 C 45.551 306.751,45.068 307.510,44.782 307.952 C 44.497 308.394,44.348 308.755,44.451 308.755 C 44.601 308.755,50.928 299.485,53.404 295.638 C 53.708 295.166,54.165 294.490,54.420 294.137 C 56.083 291.827,59.133 287.139,59.035 287.041 C 58.971 286.976,58.267 287.895,57.472 289.084 M348.617 298.622 C 349.033 299.378,350.200 300.789,350.192 300.525 C 350.187 300.369,349.790 299.802,349.309 299.265 C 348.827 298.728,348.516 298.438,348.617 298.622 M355.741 309.392 C 356.316 310.272,356.885 310.995,357.004 310.998 C 357.299 311.006,355.243 307.833,354.937 307.810 C 354.803 307.800,355.165 308.511,355.741 309.392 M357.269 311.444 C 357.269 311.673,358.236 313.281,358.551 313.574 C 359.359 314.329,363.668 321.429,363.981 322.521 C 364.202 323.289,364.439 323.861,364.508 323.791 C 364.960 323.340,363.305 320.063,360.626 316.102 C 357.162 310.981,357.269 311.130,357.269 311.444 M37.482 318.903 C 36.303 320.653,35.141 323.440,35.457 323.757 C 35.546 323.846,35.841 323.171,36.112 322.258 C 36.384 321.344,37.134 319.877,37.779 318.998 C 38.424 318.119,38.891 317.338,38.816 317.263 C 38.740 317.187,38.140 317.926,37.482 318.903 M34.975 325.622 C 34.869 326.506,34.683 327.590,34.562 328.032 C 34.439 328.480,34.570 328.342,34.857 327.719 C 35.143 327.098,35.326 326.028,35.270 325.309 L 35.169 324.016 34.975 325.622 M364.720 325.944 C 364.713 326.474,364.914 327.414,365.167 328.032 C 365.672 329.265,365.626 328.746,364.999 326.104 C 364.736 324.996,364.732 324.993,364.720 325.944 M33.980 330.924 C 33.859 331.542,33.679 332.410,33.580 332.851 C 33.482 333.293,33.626 333.076,33.901 332.369 C 34.175 331.663,34.355 330.795,34.300 330.442 C 34.234 330.019,34.124 330.185,33.980 330.924 M365.793 331.245 C 366.222 333.978,366.504 335.004,366.541 333.976 C 366.561 333.446,366.361 332.361,366.096 331.566 C 365.682 330.319,365.640 330.275,365.793 331.245 M32.843 336.399 C 32.627 337.093,32.469 338.133,32.494 338.710 C 32.528 339.547,32.562 339.597,32.662 338.956 C 32.730 338.514,32.947 337.534,33.144 336.778 C 33.601 335.026,33.365 334.729,32.843 336.399 M366.754 336.225 C 366.861 336.755,367.065 337.995,367.207 338.979 C 367.350 339.964,367.630 341.075,367.830 341.448 C 368.029 341.821,368.193 342.696,368.193 343.392 C 368.193 344.089,368.410 345.273,368.675 346.024 C 368.940 346.775,369.163 347.914,369.171 348.554 C 369.179 349.195,369.398 350.153,369.657 350.683 C 370.063 351.515,370.103 351.537,369.949 350.843 C 369.852 350.402,369.646 349.245,369.494 348.273 C 369.341 347.301,369.058 346.099,368.865 345.602 C 368.672 345.104,368.514 344.146,368.514 343.472 C 368.514 342.798,368.297 341.728,368.032 341.094 C 367.767 340.459,367.548 339.466,367.545 338.886 C 367.543 338.306,367.320 337.253,367.050 336.546 C 366.687 335.594,366.610 335.511,366.754 336.225 M31.888 341.178 C 31.667 341.894,31.486 342.906,31.486 343.428 C 31.486 343.949,31.327 344.783,31.132 345.280 C 30.938 345.778,30.663 347.052,30.521 348.112 C 30.380 349.173,30.175 350.329,30.067 350.683 C 29.958 351.036,30.082 350.892,30.342 350.361 C 30.602 349.831,30.823 348.892,30.834 348.273 C 30.844 347.655,31.061 346.570,31.316 345.863 C 31.571 345.157,31.785 344.027,31.793 343.352 C 31.801 342.678,31.961 341.839,32.149 341.488 C 32.337 341.137,32.445 340.631,32.390 340.363 C 32.334 340.096,32.108 340.463,31.888 341.178 M29.520 353.092 C 29.410 354.064,29.220 355.149,29.098 355.502 C 28.975 355.855,29.109 355.741,29.394 355.248 C 29.726 354.675,29.878 353.805,29.816 352.838 L 29.719 351.325 29.520 353.092 M370.163 352.975 C 370.140 353.706,370.345 354.790,370.618 355.385 C 371.105 356.443,371.111 356.445,370.889 355.502 C 370.764 354.972,370.559 353.888,370.434 353.092 L 370.206 351.647 370.163 352.975 M28.546 357.912 C 28.439 358.707,28.253 359.719,28.134 360.161 C 28.011 360.616,28.140 360.480,28.431 359.847 C 28.714 359.233,28.900 358.221,28.844 357.598 C 28.744 356.490,28.737 356.497,28.546 357.912 M371.121 358.116 C 371.101 358.670,371.308 359.609,371.582 360.204 C 372.071 361.266,372.076 361.268,371.858 360.321 C 371.736 359.791,371.529 358.851,371.397 358.233 L 371.158 357.108 371.121 358.116 M27.535 363.516 C 27.436 364.125,27.477 365.029,27.626 365.525 C 27.843 366.249,27.902 366.032,27.924 364.418 C 27.955 362.184,27.807 361.841,27.535 363.516 M372.048 364.337 C 372.048 365.280,372.129 365.970,372.229 365.871 C 372.477 365.622,372.492 363.068,372.247 362.823 C 372.138 362.713,372.048 363.395,372.048 364.337 M371.445 368.556 C 371.212 369.374,371.092 370.314,371.177 370.644 C 371.281 371.052,371.343 370.954,371.368 370.340 C 371.389 369.843,371.559 369.148,371.747 368.797 C 371.935 368.446,372.039 367.914,371.978 367.614 C 371.917 367.314,371.677 367.738,371.445 368.556 M28.129 368.193 C 28.245 368.635,28.451 369.647,28.585 370.442 C 28.826 371.866,28.830 371.870,28.873 370.720 C 28.896 370.077,28.691 369.065,28.416 368.471 C 28.102 367.790,27.995 367.687,28.129 368.193 M370.506 373.115 C 370.294 373.702,370.139 374.678,370.161 375.284 L 370.201 376.386 370.434 375.100 C 370.562 374.394,370.776 373.418,370.910 372.932 C 371.250 371.700,370.973 371.826,370.506 373.115 M29.107 373.012 C 29.216 373.454,29.400 374.394,29.517 375.100 C 29.730 376.392,31.101 378.966,31.410 378.657 C 31.501 378.566,31.194 377.991,30.728 377.380 C 30.219 376.713,29.874 375.841,29.865 375.202 C 29.857 374.616,29.639 373.703,29.380 373.173 C 28.985 372.365,28.941 372.339,29.107 373.012 M368.590 378.352 C 367.930 379.345,367.145 380.537,366.847 381.002 C 366.549 381.467,366.187 381.992,366.044 382.169 C 365.900 382.345,365.379 383.111,364.885 383.871 C 363.702 385.690,361.789 387.791,361.316 387.791 C 361.109 387.791,360.439 388.235,359.827 388.778 L 358.715 389.765 359.870 388.939 C 360.505 388.484,361.160 388.112,361.325 388.112 C 361.982 388.112,363.987 385.752,366.409 382.127 C 367.810 380.030,369.228 377.916,369.560 377.430 C 369.893 376.944,370.080 376.546,369.978 376.546 C 369.875 376.546,369.251 377.359,368.590 378.352 M32.333 380.241 C 32.825 380.948,33.269 381.586,33.320 381.660 C 33.372 381.734,33.414 381.656,33.414 381.487 C 33.414 381.319,32.969 380.680,32.427 380.068 L 31.440 378.956 32.333 380.241 M34.903 384.096 C 36.319 386.235,38.054 388.071,38.685 388.099 C 38.845 388.107,39.495 388.496,40.130 388.964 C 40.765 389.432,41.056 389.570,40.777 389.271 C 40.497 388.971,39.564 388.262,38.702 387.696 C 37.840 387.130,36.654 386.016,36.065 385.221 C 33.986 382.411,33.432 381.875,34.903 384.096 M41.622 389.978 C 43.080 391.217,46.970 393.518,47.871 393.675 C 48.490 393.783,49.357 393.956,49.799 394.061 C 50.353 394.193,50.266 394.097,49.521 393.753 C 48.927 393.478,48.078 393.253,47.636 393.253 C 47.181 393.253,45.737 392.486,44.309 391.486 C 42.174 389.989,40.590 389.101,41.622 389.978 M355.564 391.505 C 354.089 392.533,352.699 393.259,352.190 393.268 C 351.715 393.275,350.892 393.494,350.361 393.753 C 349.528 394.160,349.506 394.200,350.201 394.047 C 350.643 393.950,351.510 393.779,352.129 393.668 C 352.747 393.556,354.410 392.675,355.823 391.709 C 358.807 389.669,358.751 389.713,358.367 389.738 C 358.205 389.749,356.944 390.544,355.564 391.505 M52.048 394.547 C 52.843 394.682,53.855 394.881,54.297 394.990 C 54.970 395.156,54.944 395.111,54.137 394.717 C 53.606 394.458,52.594 394.259,51.888 394.274 L 50.602 394.303 52.048 394.547 M345.703 394.730 L 344.900 395.221 345.703 395.006 C 346.145 394.888,347.157 394.682,347.952 394.547 L 349.398 394.303 347.952 394.271 C 347.157 394.254,346.145 394.460,345.703 394.730 M57.028 395.383 C 57.382 395.483,57.808 395.695,57.976 395.854 C 58.394 396.252,341.847 396.242,341.847 395.845 C 341.847 395.680,342.173 395.482,342.570 395.405 C 342.968 395.328,342.787 395.353,342.169 395.461 C 340.579 395.738,59.233 395.706,57.671 395.429 C 56.964 395.303,56.675 395.283,57.028 395.383 " stroke="none" fill="#7c7c7c" fill-rule="evenodd"></path><path id="path4" d="M195.341 3.490 C 195.341 3.643,195.920 3.768,196.627 3.768 C 197.333 3.768,197.912 3.643,197.912 3.490 C 197.912 3.338,197.333 3.213,196.627 3.213 C 195.920 3.213,195.341 3.338,195.341 3.490 M202.651 4.082 C 203.048 4.159,203.699 4.159,204.096 4.082 C 204.494 4.006,204.169 3.943,203.373 3.943 C 202.578 3.943,202.253 4.006,202.651 4.082 M294.090 93.655 C 294.089 95.245,294.143 95.936,294.211 95.190 C 294.278 94.445,294.279 93.144,294.212 92.299 C 294.146 91.454,294.091 92.064,294.090 93.655 M105.777 92.851 C 105.777 93.470,105.843 93.723,105.924 93.414 C 106.005 93.104,106.005 92.598,105.924 92.289 C 105.843 91.980,105.777 92.233,105.777 92.851 M105.806 101.205 C 105.806 102.353,105.864 102.823,105.935 102.249 C 106.006 101.675,106.006 100.735,105.935 100.161 C 105.864 99.586,105.806 100.056,105.806 101.205 M294.075 101.044 C 294.077 102.104,294.137 102.499,294.209 101.922 C 294.280 101.344,294.279 100.477,294.205 99.994 C 294.132 99.511,294.074 99.984,294.075 101.044 M130.602 161.928 C 131.293 162.635,131.930 163.213,132.018 163.213 C 132.106 163.213,131.614 162.635,130.924 161.928 C 130.233 161.221,129.596 160.643,129.508 160.643 C 129.420 160.643,129.912 161.221,130.602 161.928 M196.218 192.039 C 196.788 192.110,197.800 192.111,198.467 192.042 C 199.133 191.972,198.667 191.914,197.430 191.913 C 196.193 191.911,195.647 191.968,196.218 192.039 M168.408 254.377 C 185.667 254.423,214.005 254.423,231.380 254.377 C 248.756 254.332,234.635 254.294,200.000 254.294 C 165.365 254.294,151.149 254.332,168.408 254.377 M372.456 364.360 C 372.430 364.701,372.545 364.980,372.711 364.980 C 373.076 364.980,373.114 364.117,372.757 363.897 C 372.617 363.810,372.482 364.018,372.456 364.360 " stroke="none" fill="#848484" fill-rule="evenodd"></path></g></svg>