<svg id="svg" version="1.1" xmlns="http://www.w3.org/2000/svg" xmlns:xlink="http://www.w3.org/1999/xlink" width="400" height="399.03614457831327" viewBox="0, 0, 400,399.03614457831327"><g id="svgg"><path id="path0" d="M0.000 199.518 L 0.000 399.036 200.000 399.036 L 400.000 399.036 400.000 199.518 L 400.000 0.000 200.000 0.000 L 0.000 0.000 0.000 199.518 M14.779 2.267 C 20.453 2.816,27.352 3.704,35.823 4.976 C 42.634 5.998,57.083 8.136,62.972 8.993 C 64.120 9.160,67.952 9.727,71.486 10.254 C 75.020 10.781,80.008 11.514,82.570 11.883 C 87.028 12.524,91.698 13.331,96.546 14.296 C 97.783 14.542,101.181 15.194,104.096 15.744 C 107.012 16.294,110.048 16.881,110.843 17.048 C 111.639 17.215,118.361 18.504,125.783 19.912 C 133.205 21.321,142.386 23.121,146.185 23.913 C 149.984 24.705,156.273 26.019,160.161 26.832 C 166.943 28.251,170.447 28.977,173.435 29.586 C 174.198 29.741,174.993 29.972,175.202 30.099 C 175.710 30.407,192.459 41.357,199.518 45.995 C 204.757 49.437,207.669 51.348,219.277 58.958 C 221.751 60.580,225.221 62.847,226.988 63.995 C 234.846 69.103,247.673 77.671,252.530 81.058 C 261.267 87.150,262.654 88.115,270.522 93.578 C 274.675 96.461,279.229 99.623,280.643 100.605 C 282.056 101.587,288.707 106.199,295.422 110.854 C 302.137 115.510,309.799 120.927,312.450 122.892 C 315.100 124.857,318.859 127.635,320.803 129.065 C 329.437 135.419,337.568 141.428,338.218 141.936 C 339.254 142.746,349.725 162.574,352.633 169.233 C 354.004 172.372,355.659 176.096,356.311 177.510 C 356.964 178.924,357.969 181.165,358.545 182.490 C 359.122 183.815,361.443 189.092,363.705 194.217 C 365.966 199.341,369.503 207.365,371.565 212.048 C 373.627 216.731,375.647 221.285,376.053 222.169 C 377.684 225.716,378.997 228.917,385.033 244.067 C 392.257 262.200,391.851 260.330,390.360 268.564 C 389.829 271.497,388.896 276.715,388.286 280.161 C 387.489 284.666,386.355 289.269,384.249 296.546 C 382.638 302.112,380.170 310.676,378.763 315.576 C 376.154 324.665,375.395 326.751,366.080 350.436 C 363.530 356.919,361.919 359.433,358.803 361.792 C 357.538 362.750,354.746 364.908,352.597 366.586 C 350.449 368.265,348.272 369.958,347.759 370.348 C 347.247 370.739,345.526 372.068,343.936 373.302 C 342.345 374.536,338.876 377.227,336.225 379.282 C 328.131 385.556,317.449 391.748,312.324 393.134 C 305.572 394.962,305.342 394.995,302.080 394.631 L 299.116 394.300 294.859 391.472 C 292.518 389.917,290.447 388.436,290.258 388.180 C 289.427 387.060,288.505 380.289,288.509 375.343 L 288.514 370.445 290.148 365.704 C 291.047 363.097,292.220 359.688,292.755 358.128 C 294.498 353.052,300.704 345.264,310.276 336.142 C 314.476 332.140,318.017 328.696,318.146 328.490 C 318.275 328.283,319.030 323.722,319.824 318.354 C 321.292 308.428,321.511 306.304,323.228 285.383 C 323.480 282.311,323.448 280.550,323.082 277.351 C 322.824 275.097,322.511 272.048,322.387 270.575 C 322.189 268.229,322.020 267.690,321.025 266.237 C 315.435 258.071,304.462 245.967,297.917 240.747 C 295.308 238.666,292.928 236.743,292.629 236.473 C 291.442 235.403,270.327 225.124,266.274 223.643 C 263.928 222.786,260.779 221.635,259.277 221.085 C 257.775 220.536,253.438 219.427,249.639 218.622 L 242.731 217.157 230.104 217.510 L 217.478 217.863 208.614 220.078 C 200.292 222.158,199.599 222.388,197.274 223.838 C 185.810 230.985,185.248 231.381,183.454 233.572 C 182.482 234.759,180.669 236.944,179.426 238.428 C 175.392 243.239,173.723 246.333,172.041 252.113 C 171.229 254.905,170.268 258.129,169.906 259.277 C 169.207 261.492,168.225 275.326,168.527 278.715 C 168.944 283.409,169.356 288.488,169.619 292.209 C 169.782 294.506,170.436 299.277,171.072 302.811 C 171.709 306.345,172.739 312.056,173.361 315.502 C 173.983 318.948,174.692 322.924,174.936 324.337 C 175.180 325.751,175.669 328.498,176.023 330.442 C 176.376 332.386,176.972 337.229,177.346 341.205 C 177.720 345.181,178.235 350.415,178.491 352.838 C 179.268 360.194,179.134 363.296,177.776 369.441 L 176.596 374.779 173.709 379.438 C 172.121 382.000,170.447 384.694,169.989 385.425 C 168.558 387.710,158.760 393.359,155.322 393.882 C 152.369 394.332,143.661 393.304,142.596 392.380 C 140.413 390.487,137.352 385.619,135.122 380.493 C 133.832 377.527,131.514 372.209,129.971 368.675 C 124.266 355.612,121.940 350.119,117.114 338.313 C 115.994 335.574,113.538 329.574,111.655 324.980 C 103.387 304.802,104.047 306.523,99.649 293.655 C 98.411 290.032,97.090 286.201,96.714 285.141 C 95.426 281.511,94.299 273.739,93.827 265.221 C 93.641 261.863,93.276 255.791,93.015 251.727 C 92.755 247.663,92.109 237.325,91.578 228.755 C 91.048 220.185,90.456 210.643,90.263 207.550 C 89.957 202.648,88.042 187.307,87.034 181.687 C 86.522 178.835,83.287 167.390,82.821 166.786 C 80.815 164.184,79.058 162.456,76.315 160.389 C 74.542 159.054,72.586 157.566,71.968 157.082 C 70.811 156.178,70.293 155.955,59.906 151.879 C 54.464 149.744,51.682 148.894,38.072 145.208 C 36.835 144.873,29.968 143.142,22.811 141.362 C 15.655 139.581,9.239 137.976,8.555 137.795 L 7.311 137.464 7.512 86.001 C 7.623 57.697,7.802 27.112,7.911 18.036 L 8.110 1.534 9.597 1.722 C 10.415 1.825,12.747 2.071,14.779 2.267 M285.225 257.751 L 285.141 269.076 236.004 269.158 C 196.906 269.222,186.814 269.157,186.611 268.836 C 186.315 268.370,186.248 247.695,186.540 246.934 C 186.717 246.474,191.375 246.426,236.022 246.426 L 285.309 246.426 285.225 257.751 M285.225 287.470 L 285.309 298.795 235.827 298.795 L 186.345 298.795 186.345 287.898 C 186.345 281.904,186.433 276.771,186.541 276.491 C 186.718 276.029,191.280 275.989,235.938 276.063 L 285.141 276.145 285.225 287.470 M285.141 317.269 L 285.141 328.514 236.004 328.595 C 196.905 328.660,186.815 328.595,186.614 328.274 C 186.331 327.825,186.280 307.051,186.559 306.324 C 186.712 305.924,193.382 305.872,235.938 305.943 L 285.141 306.024 285.141 317.269 M284.418 335.636 L 285.301 335.818 285.301 347.019 L 285.301 358.221 284.578 358.395 C 284.181 358.491,261.952 358.530,235.181 358.482 L 186.506 358.394 186.422 347.220 L 186.337 336.047 187.064 335.757 C 187.847 335.444,282.912 335.327,284.418 335.636 M285.141 376.707 L 285.141 387.952 236.004 388.033 C 196.904 388.098,186.815 388.032,186.615 387.712 C 186.329 387.253,186.268 366.518,186.551 365.781 C 186.715 365.355,192.445 365.309,235.938 365.381 L 285.141 365.462 285.141 376.707 " stroke="none" fill="#fbfbfb" fill-rule="evenodd"></path><path id="path1" d="M8.590 2.972 C 8.506 3.369,8.404 15.622,8.365 30.200 C 8.326 44.777,8.246 56.782,8.187 56.876 C 8.129 56.971,8.044 75.044,7.999 97.038 L 7.917 137.028 9.982 137.558 C 11.119 137.850,18.916 139.822,27.309 141.940 C 51.381 148.015,52.254 148.278,64.411 153.090 C 72.827 156.422,77.595 159.646,82.210 165.130 C 84.454 167.796,87.265 178.201,88.679 189.076 C 88.886 190.667,89.180 192.691,89.332 193.574 C 90.010 197.495,90.644 204.814,91.393 217.349 C 91.836 224.771,92.348 233.012,92.530 235.663 C 92.712 238.313,93.295 247.566,93.827 256.225 C 95.082 276.666,95.535 279.990,98.047 287.229 C 98.936 289.791,100.641 294.779,101.836 298.313 C 103.031 301.847,105.567 308.570,107.472 313.253 C 109.376 317.936,111.331 322.782,111.817 324.023 C 112.302 325.264,112.990 326.926,113.346 327.718 C 113.702 328.509,115.546 332.988,117.443 337.671 C 119.340 342.353,121.143 346.763,121.450 347.470 C 121.757 348.177,122.302 349.478,122.662 350.361 C 123.217 351.724,126.968 360.436,128.334 363.534 C 128.568 364.064,128.979 365.004,129.248 365.622 C 129.725 366.718,131.859 371.558,133.003 374.137 C 133.316 374.843,134.538 377.678,135.718 380.435 C 137.932 385.606,138.077 385.858,141.044 389.679 C 143.061 392.277,143.175 392.329,148.673 393.124 C 154.178 393.921,156.330 393.624,159.897 391.574 C 161.456 390.678,163.165 389.699,163.695 389.398 C 168.725 386.542,168.500 386.773,172.456 380.392 L 176.135 374.458 177.222 369.317 C 178.495 363.301,178.633 359.180,177.819 351.486 C 177.548 348.924,177.044 343.791,176.699 340.080 C 176.354 336.369,175.929 332.683,175.755 331.888 C 175.581 331.092,175.204 329.068,174.917 327.390 C 174.630 325.711,174.199 323.253,173.959 321.928 C 173.719 320.602,173.300 318.289,173.027 316.787 C 169.940 299.759,169.432 296.540,169.016 291.406 C 168.808 288.843,168.502 285.240,168.335 283.398 C 167.516 274.345,168.225 263.066,169.988 257.101 C 170.705 254.675,171.668 251.390,172.128 249.799 C 172.588 248.209,173.192 246.521,173.470 246.048 C 179.116 236.446,184.079 231.282,192.719 226.020 C 193.013 225.841,193.687 225.418,194.217 225.080 C 199.647 221.614,198.783 221.948,208.675 219.507 L 217.992 217.209 227.791 217.032 C 233.181 216.934,238.602 216.776,239.839 216.681 C 243.150 216.426,255.071 218.867,260.402 220.891 C 261.462 221.293,263.631 222.089,265.221 222.659 C 266.811 223.229,268.568 223.894,269.125 224.137 C 269.682 224.380,270.235 224.578,270.355 224.578 C 270.912 224.578,291.944 235.335,293.157 236.241 C 298.874 240.509,303.781 244.812,306.662 248.084 C 310.014 251.890,311.478 253.527,313.092 255.273 C 315.939 258.352,320.640 264.413,322.343 267.197 C 322.563 267.557,322.831 269.745,323.655 277.912 C 324.070 282.020,324.045 282.658,323.060 293.494 C 322.803 296.321,322.504 299.936,322.395 301.526 C 322.130 305.410,321.379 312.117,320.811 315.663 C 320.557 317.253,320.191 319.711,319.998 321.124 C 319.679 323.467,319.190 326.516,318.860 328.216 C 318.789 328.583,317.824 329.731,316.715 330.769 C 307.844 339.067,302.640 344.301,300.774 346.802 C 293.607 356.402,294.439 354.895,291.363 363.855 L 289.157 370.281 289.154 375.422 C 289.152 379.305,289.316 381.440,289.827 384.153 L 290.502 387.743 292.480 389.111 C 300.989 394.995,302.402 395.270,311.451 392.805 C 316.157 391.523,316.473 391.375,323.196 387.309 C 325.533 385.896,328.048 384.391,328.783 383.965 C 330.584 382.923,337.232 377.952,342.972 373.353 C 344.209 372.362,345.794 371.126,346.495 370.606 C 347.195 370.087,347.990 369.465,348.262 369.225 C 348.533 368.985,349.984 367.863,351.486 366.731 C 352.988 365.598,354.361 364.560,354.538 364.423 C 362.595 358.164,362.535 358.252,367.563 345.221 C 370.371 337.943,373.625 329.592,373.948 328.835 C 375.041 326.272,375.999 323.435,376.987 319.839 C 377.618 317.542,378.731 313.639,379.461 311.165 C 380.190 308.691,380.901 306.233,381.039 305.703 C 381.177 305.173,382.407 300.908,383.771 296.225 C 386.647 286.353,386.966 284.962,388.772 274.378 C 388.938 273.406,389.281 271.526,389.534 270.201 C 389.787 268.876,390.242 266.201,390.544 264.257 L 391.094 260.723 389.476 256.707 C 388.586 254.498,386.041 248.137,383.821 242.570 C 377.830 227.547,376.630 224.654,374.288 219.598 C 373.960 218.892,372.603 215.819,371.272 212.771 C 369.940 209.722,368.576 206.614,368.240 205.863 C 366.825 202.701,366.119 201.096,364.670 197.751 C 362.843 193.536,362.060 191.781,360.608 188.658 C 360.009 187.367,359.518 186.179,359.518 186.017 C 359.518 185.855,359.252 185.248,358.927 184.668 C 358.602 184.089,357.721 182.169,356.970 180.402 C 356.218 178.635,355.411 176.755,355.175 176.225 C 354.940 175.695,354.360 174.394,353.887 173.333 C 353.413 172.273,352.257 169.671,351.317 167.550 C 350.377 165.430,347.144 159.068,344.132 153.414 C 338.096 142.080,338.709 142.883,332.822 138.594 C 331.336 137.511,327.735 134.861,324.819 132.705 C 321.904 130.550,319.175 128.544,318.755 128.248 C 318.335 127.953,317.323 127.197,316.506 126.569 C 314.998 125.411,303.614 117.187,301.847 115.980 C 301.317 115.618,299.799 114.561,298.474 113.631 C 295.616 111.627,291.587 108.833,288.032 106.392 C 286.618 105.422,284.833 104.183,284.064 103.639 C 283.294 103.095,282.428 102.506,282.137 102.329 C 281.847 102.153,281.102 101.635,280.483 101.180 C 279.864 100.724,278.201 99.555,276.787 98.581 C 275.373 97.608,272.554 95.651,270.522 94.234 C 268.490 92.816,265.743 90.904,264.418 89.984 C 263.092 89.065,259.366 86.478,256.138 84.236 C 252.909 81.995,246.114 77.384,241.037 73.991 C 235.961 70.598,231.663 67.702,231.486 67.555 C 231.309 67.409,230.586 66.941,229.880 66.516 C 229.173 66.092,225.631 63.783,222.008 61.386 C 218.386 58.989,215.308 56.978,215.169 56.917 C 215.031 56.856,212.883 55.447,210.396 53.785 C 207.909 52.123,205.821 50.763,205.756 50.763 C 205.690 50.763,203.717 49.484,201.372 47.920 C 194.938 43.630,188.473 39.377,188.112 39.197 C 187.936 39.108,185.622 37.605,182.972 35.855 C 180.321 34.105,177.391 32.173,176.459 31.562 C 175.528 30.951,174.154 30.312,173.407 30.143 C 167.628 28.836,132.479 21.696,124.016 20.109 C 118.548 19.085,105.567 16.595,98.795 15.273 C 91.654 13.878,85.246 12.778,80.000 12.045 C 76.731 11.589,72.177 10.930,69.880 10.582 C 67.582 10.233,64.618 9.799,63.293 9.616 C 61.968 9.434,60.088 9.142,59.116 8.967 C 58.145 8.793,55.398 8.378,53.012 8.044 C 50.627 7.711,45.205 6.926,40.964 6.300 C 25.030 3.948,22.231 3.564,18.474 3.213 C 16.353 3.015,13.475 2.717,12.077 2.551 C 8.705 2.150,8.767 2.143,8.590 2.972 M187.134 247.150 C 187.049 247.373,187.017 252.253,187.064 257.995 L 187.149 268.434 235.823 268.434 L 284.498 268.434 284.498 257.671 L 284.498 246.908 235.894 246.826 C 197.014 246.761,187.259 246.826,187.134 247.150 M187.064 287.470 L 187.149 298.313 235.823 298.313 L 284.498 298.313 284.583 287.470 L 284.667 276.627 235.823 276.627 L 186.979 276.627 187.064 287.470 M187.375 306.569 C 187.089 306.855,186.988 309.710,186.988 317.494 L 186.988 328.032 235.828 328.032 L 284.667 328.032 284.583 317.189 L 284.498 306.345 236.130 306.264 C 198.775 306.201,187.673 306.271,187.375 306.569 M187.134 336.467 C 187.049 336.690,187.017 341.570,187.064 347.312 L 187.149 357.751 235.823 357.751 L 284.498 357.751 284.498 346.988 L 284.498 336.225 235.894 336.144 C 197.014 336.078,187.259 336.143,187.134 336.467 M186.988 376.701 L 186.988 387.458 187.711 387.632 C 188.108 387.728,210.048 387.767,236.466 387.718 L 284.498 387.631 284.583 376.787 L 284.667 365.944 235.828 365.944 L 186.988 365.944 186.988 376.701 " stroke="none" fill="#fb7c04" fill-rule="evenodd"></path><path id="path2" d="M8.138 4.016 C 8.139 5.253,8.197 5.720,8.267 5.053 C 8.336 4.386,8.335 3.374,8.264 2.804 C 8.193 2.234,8.136 2.779,8.138 4.016 M7.850 56.546 C 7.850 60.876,7.895 62.647,7.951 60.482 C 8.006 58.317,8.006 54.775,7.951 52.610 C 7.895 50.446,7.850 52.217,7.850 56.546 M7.533 120.803 C 7.533 126.546,7.577 128.896,7.630 126.024 C 7.683 123.153,7.683 118.454,7.630 115.582 C 7.577 112.711,7.533 115.060,7.533 120.803 M90.369 207.229 C 90.369 208.024,90.431 208.349,90.508 207.952 C 90.584 207.554,90.584 206.904,90.508 206.506 C 90.431 206.108,90.369 206.434,90.369 207.229 M239.598 217.094 C 239.996 217.171,240.647 217.171,241.044 217.094 C 241.442 217.018,241.116 216.955,240.321 216.955 C 239.526 216.955,239.201 217.018,239.598 217.094 M228.514 217.419 C 229.000 217.492,229.795 217.492,230.281 217.419 C 230.767 217.345,230.369 217.285,229.398 217.285 C 228.426 217.285,228.028 217.345,228.514 217.419 M91.326 223.133 C 91.330 223.839,91.395 224.091,91.472 223.691 C 91.549 223.291,91.546 222.713,91.466 222.406 C 91.385 222.099,91.322 222.426,91.326 223.133 M91.654 227.470 C 91.654 228.265,91.716 228.590,91.793 228.193 C 91.870 227.795,91.870 227.145,91.793 226.747 C 91.716 226.349,91.654 226.675,91.654 227.470 M92.605 243.534 C 92.605 244.153,92.671 244.406,92.752 244.096 C 92.832 243.787,92.832 243.281,92.752 242.972 C 92.671 242.663,92.605 242.916,92.605 243.534 M211.325 246.667 C 224.799 246.713,246.847 246.713,260.321 246.667 C 273.795 246.620,262.771 246.582,235.823 246.582 C 208.876 246.582,197.851 246.620,211.325 246.667 M93.575 258.474 C 93.579 259.181,93.644 259.432,93.721 259.032 C 93.798 258.633,93.795 258.054,93.715 257.747 C 93.634 257.440,93.571 257.767,93.575 258.474 M168.434 271.325 C 168.438 272.032,168.504 272.283,168.581 271.884 C 168.657 271.484,168.655 270.906,168.574 270.599 C 168.494 270.291,168.431 270.618,168.434 271.325 M323.609 281.767 C 323.609 282.386,323.675 282.639,323.756 282.329 C 323.836 282.020,323.836 281.514,323.756 281.205 C 323.675 280.896,323.609 281.149,323.609 281.767 M186.667 306.104 C 186.667 306.322,220.635 306.321,267.470 306.101 C 277.189 306.056,262.984 305.984,235.904 305.941 C 208.823 305.898,186.667 305.972,186.667 306.104 M317.124 329.782 L 315.695 331.406 317.270 329.891 C 318.136 329.058,318.779 328.327,318.699 328.267 C 318.620 328.208,317.911 328.889,317.124 329.782 M303.614 342.651 C 302.834 343.446,302.268 344.096,302.356 344.096 C 302.445 344.096,303.155 343.446,303.936 342.651 C 304.716 341.855,305.282 341.205,305.194 341.205 C 305.106 341.205,304.395 341.855,303.614 342.651 M211.165 388.032 C 224.727 388.078,246.920 388.078,260.482 388.032 C 274.044 387.986,262.948 387.948,235.823 387.948 C 208.699 387.948,197.602 387.986,211.165 388.032 M304.180 394.765 C 304.580 394.842,305.158 394.839,305.466 394.759 C 305.773 394.678,305.446 394.616,304.739 394.619 C 304.032 394.623,303.781 394.689,304.180 394.765 " stroke="none" fill="#e79f59" fill-rule="evenodd"></path><path id="path3" d="M8.391 2.651 C 8.417 3.163,8.470 3.216,8.571 2.831 C 8.650 2.532,9.103 2.228,9.578 2.156 C 10.358 2.037,10.340 2.019,9.398 1.976 C 8.505 1.935,8.359 2.033,8.391 2.651 M12.048 2.572 C 13.695 2.842,17.241 2.986,17.001 2.773 C 16.928 2.708,15.422 2.577,13.655 2.482 C 11.429 2.363,10.936 2.390,12.048 2.572 M17.912 3.118 C 18.309 3.195,18.960 3.195,19.357 3.118 C 19.755 3.042,19.430 2.979,18.635 2.979 C 17.839 2.979,17.514 3.042,17.912 3.118 M20.803 3.440 C 21.201 3.516,21.851 3.516,22.249 3.440 C 22.647 3.363,22.321 3.300,21.526 3.300 C 20.731 3.300,20.406 3.363,20.803 3.440 M25.703 4.036 C 28.824 4.582,30.022 4.550,27.309 3.993 C 26.161 3.757,24.787 3.576,24.257 3.590 C 23.727 3.604,24.378 3.805,25.703 4.036 M8.238 5.659 C 8.125 6.483,8.061 18.379,8.096 32.093 L 8.159 57.028 8.347 30.683 C 8.450 16.193,8.513 4.297,8.488 4.248 C 8.464 4.199,8.351 4.834,8.238 5.659 M30.446 4.725 C 30.845 4.802,31.423 4.799,31.731 4.719 C 32.038 4.638,31.711 4.575,31.004 4.579 C 30.297 4.583,30.046 4.648,30.446 4.725 M32.477 4.953 C 32.715 5.191,42.079 6.483,42.491 6.334 C 42.711 6.255,42.024 6.085,40.964 5.957 C 39.904 5.829,37.735 5.521,36.145 5.273 C 33.138 4.804,32.250 4.726,32.477 4.953 M43.454 6.647 C 43.763 6.728,44.269 6.728,44.578 6.647 C 44.888 6.566,44.635 6.500,44.016 6.500 C 43.398 6.500,43.145 6.566,43.454 6.647 M45.703 6.968 C 46.012 7.049,46.518 7.049,46.827 6.968 C 47.137 6.888,46.884 6.822,46.265 6.822 C 45.647 6.822,45.394 6.888,45.703 6.968 M47.582 7.207 C 47.798 7.424,55.254 8.409,55.657 8.275 C 55.854 8.209,54.219 7.909,52.023 7.606 C 47.800 7.025,47.360 6.986,47.582 7.207 M59.438 8.989 C 61.280 9.416,65.168 9.962,66.110 9.927 C 67.147 9.888,63.009 9.172,60.241 8.911 C 58.894 8.784,58.652 8.808,59.438 8.989 M68.273 10.300 C 68.980 10.446,69.920 10.557,70.361 10.547 C 70.877 10.535,70.704 10.433,69.880 10.263 C 69.173 10.116,68.233 10.005,67.791 10.015 C 67.276 10.027,67.449 10.129,68.273 10.300 M72.241 10.923 C 72.833 11.063,74.279 11.254,75.454 11.348 L 77.590 11.519 75.181 11.081 C 72.501 10.594,70.361 10.478,72.241 10.923 M78.153 11.788 C 78.462 11.869,78.968 11.869,79.277 11.788 C 79.586 11.707,79.333 11.641,78.715 11.641 C 78.096 11.641,77.843 11.707,78.153 11.788 M83.213 12.547 C 85.152 12.892,86.671 12.862,84.980 12.512 C 84.273 12.365,83.261 12.256,82.731 12.268 C 82.008 12.284,82.129 12.354,83.213 12.547 M89.478 13.494 C 90.008 13.629,90.803 13.739,91.245 13.739 C 91.961 13.739,91.944 13.713,91.084 13.494 C 90.554 13.359,89.759 13.249,89.317 13.249 C 88.601 13.249,88.618 13.275,89.478 13.494 M94.458 14.458 C 94.900 14.599,95.622 14.712,96.064 14.709 C 96.786 14.704,96.769 14.678,95.904 14.458 C 94.545 14.112,93.378 14.112,94.458 14.458 M99.598 15.422 C 100.040 15.563,100.763 15.676,101.205 15.673 C 101.926 15.668,101.910 15.642,101.044 15.422 C 99.685 15.076,98.519 15.076,99.598 15.422 M104.578 16.386 C 105.937 16.731,107.104 16.731,106.024 16.386 C 105.582 16.244,104.859 16.131,104.418 16.134 C 103.696 16.140,103.713 16.165,104.578 16.386 M108.755 17.195 C 109.815 17.434,110.972 17.622,111.325 17.612 C 112.301 17.585,108.897 16.769,107.791 16.765 C 107.206 16.762,107.585 16.931,108.755 17.195 M118.233 18.988 C 120.795 19.497,123.031 19.868,123.201 19.813 C 123.591 19.687,114.938 17.979,114.153 18.027 C 113.835 18.047,115.671 18.479,118.233 18.988 M123.722 20.039 C 123.795 20.105,124.578 20.247,125.462 20.354 C 126.543 20.486,126.858 20.454,126.426 20.257 C 125.815 19.979,123.440 19.788,123.722 20.039 M129.317 21.060 C 130.063 21.353,146.252 24.457,146.378 24.332 C 146.453 24.256,142.718 23.446,138.077 22.532 C 130.468 21.033,128.334 20.675,129.317 21.060 M151.486 25.549 C 152.369 25.777,153.382 25.959,153.735 25.955 C 154.088 25.951,153.655 25.762,152.771 25.535 C 151.888 25.308,150.876 25.125,150.522 25.129 C 150.169 25.133,150.602 25.322,151.486 25.549 M157.430 26.841 C 158.402 27.084,159.486 27.276,159.839 27.268 C 160.193 27.261,159.687 27.056,158.715 26.814 C 157.743 26.571,156.659 26.379,156.305 26.386 C 155.952 26.394,156.458 26.598,157.430 26.841 M161.285 27.631 C 161.727 27.772,162.450 27.885,162.892 27.882 C 163.613 27.876,163.597 27.851,162.731 27.631 C 161.372 27.285,160.205 27.285,161.285 27.631 M165.944 28.594 C 167.303 28.940,168.469 28.940,167.390 28.594 C 166.948 28.453,166.225 28.340,165.783 28.343 C 165.062 28.349,165.078 28.374,165.944 28.594 M173.081 30.018 C 174.002 30.254,175.954 31.233,177.418 32.192 C 180.718 34.354,180.884 34.453,180.884 34.256 C 180.884 34.097,176.029 30.865,174.895 30.268 C 174.566 30.095,173.647 29.872,172.851 29.771 L 171.406 29.588 173.081 30.018 M183.293 35.888 C 183.836 36.468,188.024 39.232,188.157 39.098 C 188.226 39.029,187.522 38.470,186.591 37.855 C 184.008 36.148,182.939 35.510,183.293 35.888 M188.594 39.332 C 188.594 39.471,191.970 41.802,192.771 42.216 C 193.036 42.353,192.892 42.162,192.450 41.792 C 191.509 41.003,188.594 39.144,188.594 39.332 M193.414 42.545 C 193.414 42.630,194.462 43.378,195.743 44.206 C 197.024 45.035,198.398 45.926,198.795 46.187 C 199.193 46.447,199.518 46.591,199.518 46.505 C 199.518 46.420,198.951 45.975,198.259 45.517 C 195.274 43.542,193.414 42.401,193.414 42.545 M200.056 46.928 C 200.263 47.182,200.914 47.670,201.501 48.012 C 202.172 48.402,202.430 48.462,202.193 48.172 C 201.986 47.918,201.335 47.431,200.748 47.089 C 200.077 46.698,199.819 46.638,200.056 46.928 M202.731 48.622 C 202.731 48.902,205.648 50.845,205.816 50.677 C 205.897 50.595,205.598 50.292,205.151 50.003 C 204.703 49.714,203.976 49.244,203.534 48.959 C 203.092 48.674,202.731 48.522,202.731 48.622 M207.229 51.561 C 207.229 51.700,210.447 53.924,211.406 54.449 C 211.745 54.635,211.792 54.609,211.566 54.363 C 211.149 53.908,207.229 51.376,207.229 51.561 M212.209 54.818 C 212.941 55.542,214.993 56.921,215.132 56.783 C 215.214 56.701,214.915 56.397,214.468 56.108 C 212.753 55.000,211.900 54.513,212.209 54.818 M215.582 56.990 C 215.582 57.161,227.669 65.245,229.076 66.015 C 230.733 66.922,228.102 65.079,222.651 61.513 C 219.205 59.260,216.205 57.275,215.984 57.102 C 215.763 56.930,215.582 56.879,215.582 56.990 M7.865 96.386 C 7.865 114.145,7.904 121.410,7.952 112.530 C 7.999 103.651,7.999 89.120,7.952 80.241 C 7.904 71.361,7.865 78.627,7.865 96.386 M230.201 66.640 C 230.554 66.908,230.988 67.241,231.165 67.381 C 231.341 67.521,231.920 67.895,232.450 68.213 L 233.414 68.791 232.450 67.953 C 231.920 67.492,231.052 66.899,230.522 66.634 C 229.659 66.204,229.625 66.204,230.201 66.640 M235.663 70.268 C 236.218 70.825,248.728 79.061,248.529 78.739 C 248.425 78.570,245.632 76.639,242.322 74.446 C 236.155 70.361,235.087 69.691,235.663 70.268 M250.058 79.899 C 250.175 80.089,251.611 81.150,253.248 82.257 C 254.885 83.364,256.008 84.055,255.743 83.791 C 255.007 83.060,249.814 79.505,250.058 79.899 M256.386 84.309 C 256.386 84.402,257.470 85.210,258.795 86.104 C 260.120 86.999,261.205 87.665,261.205 87.585 C 261.205 87.505,260.301 86.808,259.197 86.036 C 256.687 84.283,256.386 84.098,256.386 84.309 M261.526 87.828 C 261.526 87.916,261.960 88.297,262.490 88.675 C 263.020 89.052,263.454 89.289,263.454 89.200 C 263.454 89.112,263.020 88.731,262.490 88.353 C 261.960 87.976,261.526 87.739,261.526 87.828 M263.915 89.605 C 264.034 89.798,264.431 90.116,264.796 90.311 C 265.271 90.566,265.397 90.567,265.242 90.315 C 265.122 90.122,264.726 89.804,264.361 89.608 C 263.886 89.354,263.759 89.353,263.915 89.605 M266.024 90.982 C 266.289 91.248,267.735 92.307,269.237 93.333 C 270.739 94.360,271.751 94.980,271.486 94.710 C 271.221 94.440,269.775 93.382,268.273 92.358 C 266.771 91.335,265.759 90.715,266.024 90.982 M273.180 95.945 C 273.293 96.129,274.006 96.698,274.765 97.211 C 275.524 97.724,277.426 99.056,278.993 100.172 C 280.560 101.288,281.895 102.148,281.960 102.083 C 282.025 102.018,281.466 101.535,280.718 101.009 C 275.108 97.073,273.002 95.658,273.180 95.945 M282.704 102.600 C 283.164 103.173,284.337 103.925,284.337 103.648 C 284.337 103.565,283.867 103.168,283.293 102.765 C 282.552 102.246,282.381 102.198,282.704 102.600 M284.765 104.008 C 284.882 104.199,285.803 104.911,286.810 105.591 C 289.162 107.179,289.478 107.370,289.478 107.205 C 289.478 107.130,288.369 106.302,287.014 105.365 C 285.659 104.429,284.647 103.818,284.765 104.008 M289.904 107.540 C 290.004 107.702,291.195 108.598,292.551 109.531 C 293.907 110.464,294.935 111.096,294.835 110.934 C 294.735 110.772,293.544 109.876,292.188 108.943 C 290.832 108.009,289.804 107.378,289.904 107.540 M296.225 111.911 C 296.225 112.000,297.129 112.710,298.233 113.491 C 300.408 115.027,301.415 115.645,300.884 115.116 C 300.332 114.567,296.225 111.742,296.225 111.911 M301.632 115.744 C 302.059 116.272,304.257 117.687,304.257 117.434 C 304.257 117.360,303.570 116.831,302.731 116.258 C 301.892 115.685,301.397 115.454,301.632 115.744 M304.578 117.704 C 304.578 117.790,306.633 119.354,309.144 121.179 C 311.655 123.005,313.968 124.687,314.285 124.918 C 314.601 125.149,314.859 125.269,314.859 125.185 C 314.859 125.101,313.016 123.678,310.763 122.022 C 305.512 118.163,304.578 117.512,304.578 117.704 M316.145 126.274 C 317.277 127.281,318.394 128.015,318.394 127.752 C 318.394 127.674,317.635 127.085,316.707 126.442 C 315.166 125.375,315.117 125.360,316.145 126.274 M318.727 128.113 C 318.734 128.245,319.537 128.895,320.512 129.557 C 321.487 130.219,322.205 130.630,322.106 130.470 C 321.824 130.015,318.713 127.844,318.727 128.113 M322.570 130.847 C 322.570 130.935,323.402 131.629,324.418 132.389 C 325.434 133.149,326.735 134.123,327.309 134.554 C 327.884 134.985,328.353 135.265,328.353 135.177 C 328.353 135.089,327.522 134.395,326.506 133.635 C 325.490 132.875,324.189 131.901,323.614 131.470 C 323.040 131.039,322.570 130.759,322.570 130.847 M7.457 134.151 C 7.549 137.301,7.562 137.351,8.353 137.424 C 9.053 137.489,9.074 137.465,8.521 137.234 C 7.965 137.002,7.874 136.610,7.801 134.136 C 7.755 132.579,7.638 131.225,7.541 131.129 C 7.444 131.032,7.406 132.392,7.457 134.151 M328.675 135.378 C 328.675 135.462,330.084 136.577,331.807 137.855 C 333.530 139.133,335.120 140.319,335.341 140.490 C 335.562 140.661,335.743 140.723,335.743 140.627 C 335.743 140.484,333.764 138.966,329.246 135.644 C 328.932 135.414,328.675 135.293,328.675 135.378 M9.318 137.607 C 9.529 137.832,15.890 139.445,16.444 139.414 C 16.677 139.401,15.639 139.056,14.137 138.647 C 10.841 137.750,9.100 137.375,9.318 137.607 M23.293 141.225 C 26.297 141.999,28.895 142.590,29.065 142.538 C 29.424 142.429,18.853 139.744,18.240 139.788 C 18.015 139.804,20.289 140.451,23.293 141.225 M337.400 142.054 C 338.224 142.824,339.051 143.743,339.238 144.096 C 339.426 144.450,339.583 144.569,339.589 144.362 C 339.603 143.821,338.114 142.131,336.922 141.335 C 336.205 140.856,336.347 141.069,337.400 142.054 M30.361 142.929 C 30.715 143.083,31.510 143.302,32.129 143.414 C 32.900 143.554,33.052 143.529,32.610 143.336 C 32.257 143.182,31.462 142.963,30.843 142.851 C 30.071 142.711,29.920 142.736,30.361 142.929 M40.945 145.728 C 45.175 146.870,48.764 147.761,48.920 147.710 C 49.263 147.595,34.397 143.607,33.726 143.633 C 33.466 143.643,36.714 144.586,40.945 145.728 M340.972 147.550 C 341.760 149.008,343.304 151.900,344.403 153.976 C 345.503 156.052,346.474 157.751,346.562 157.751 C 346.650 157.751,345.750 155.908,344.562 153.655 C 341.255 147.381,339.877 144.900,339.701 144.900 C 339.612 144.900,340.185 146.092,340.972 147.550 M52.048 148.755 C 53.147 149.107,53.991 149.107,53.173 148.755 C 52.819 148.603,52.241 148.483,51.888 148.488 C 51.371 148.496,51.402 148.548,52.048 148.755 M57.226 150.506 C 57.482 150.762,63.382 152.950,63.499 152.833 C 63.561 152.771,62.255 152.189,60.596 151.541 C 57.767 150.435,56.884 150.163,57.226 150.506 M64.578 153.414 C 65.020 153.666,65.526 153.873,65.703 153.873 C 65.880 153.873,65.663 153.666,65.221 153.414 C 64.779 153.161,64.273 152.954,64.096 152.954 C 63.920 152.954,64.137 153.161,64.578 153.414 M66.506 154.163 C 66.771 154.326,67.349 154.557,67.791 154.675 C 68.349 154.825,68.447 154.799,68.112 154.592 C 67.847 154.429,67.269 154.198,66.827 154.080 C 66.269 153.930,66.171 153.956,66.506 154.163 M71.354 156.319 C 71.957 156.769,73.823 158.154,75.502 159.398 C 77.181 160.642,79.265 162.335,80.134 163.159 C 81.003 163.984,81.417 164.262,81.054 163.778 C 80.015 162.391,71.277 155.508,70.551 155.504 C 70.390 155.503,70.751 155.870,71.354 156.319 M348.146 160.962 C 348.984 162.551,349.720 163.801,349.781 163.740 C 349.920 163.601,346.992 158.072,346.779 158.072 C 346.693 158.072,347.308 159.372,348.146 160.962 M349.891 164.353 C 349.897 164.521,350.120 165.020,350.386 165.462 L 350.870 166.265 350.660 165.462 C 350.441 164.624,349.870 163.802,349.891 164.353 M82.464 165.829 C 83.023 166.490,83.626 167.720,83.851 168.657 C 84.070 169.569,84.318 170.246,84.403 170.162 C 84.823 169.742,83.475 166.493,82.516 165.614 L 81.475 164.659 82.464 165.829 M351.608 168.032 C 351.871 168.990,353.508 172.543,353.630 172.421 C 353.699 172.352,353.242 171.228,352.615 169.923 C 351.989 168.618,351.535 167.767,351.608 168.032 M84.819 171.836 C 84.819 172.456,86.529 178.317,86.669 178.177 C 86.803 178.043,85.181 171.830,84.950 171.593 C 84.878 171.519,84.819 171.629,84.819 171.836 M354.553 174.859 C 354.673 175.257,354.903 175.724,355.065 175.896 C 355.227 176.069,355.196 175.744,354.997 175.173 C 354.591 174.006,354.215 173.741,354.553 174.859 M356.102 178.313 C 356.509 179.544,358.335 183.649,358.603 183.934 C 358.981 184.336,357.233 180.072,356.493 178.786 C 356.191 178.261,356.015 178.048,356.102 178.313 M86.811 179.116 C 86.811 179.470,86.927 180.120,87.068 180.562 C 87.272 181.198,87.326 181.232,87.326 180.723 C 87.326 180.369,87.210 179.719,87.068 179.277 C 86.865 178.641,86.811 178.608,86.811 179.116 M87.767 184.418 C 87.762 184.859,87.874 185.871,88.016 186.667 L 88.273 188.112 88.281 186.667 C 88.286 185.871,88.174 184.859,88.032 184.418 L 87.775 183.614 87.767 184.418 M359.536 186.024 C 359.547 186.503,361.082 189.589,361.110 189.189 C 361.118 189.074,360.764 188.206,360.324 187.261 C 359.884 186.316,359.529 185.759,359.536 186.024 M88.541 189.880 C 88.719 191.842,89.174 194.981,89.637 197.430 L 89.940 199.036 89.782 197.269 C 89.590 195.116,89.019 191.142,88.652 189.398 C 88.417 188.283,88.402 188.347,88.541 189.880 M364.602 197.597 C 364.769 198.035,365.550 199.839,366.337 201.606 C 367.125 203.373,367.867 205.093,367.988 205.428 C 368.109 205.762,368.278 205.965,368.365 205.879 C 368.522 205.721,364.912 197.415,364.512 197.015 C 364.394 196.897,364.434 197.159,364.602 197.597 M90.034 200.803 C 90.034 201.422,90.100 201.675,90.181 201.365 C 90.262 201.056,90.262 200.550,90.181 200.241 C 90.100 199.932,90.034 200.185,90.034 200.803 M90.381 204.177 C 90.382 205.237,90.442 205.632,90.514 205.054 C 90.585 204.477,90.584 203.610,90.511 203.127 C 90.437 202.644,90.379 203.116,90.381 204.177 M368.636 206.586 C 368.899 207.544,370.536 211.097,370.658 210.975 C 370.727 210.906,370.270 209.782,369.644 208.477 C 369.017 207.172,368.564 206.321,368.636 206.586 M90.715 209.478 C 90.715 210.980,90.770 211.594,90.838 210.843 C 90.905 210.092,90.905 208.863,90.838 208.112 C 90.770 207.361,90.715 207.976,90.715 209.478 M370.885 211.727 C 371.148 212.685,372.785 216.238,372.907 216.116 C 372.976 216.047,372.519 214.923,371.893 213.618 C 371.266 212.313,370.813 211.462,370.885 211.727 M91.032 214.618 C 91.032 215.944,91.088 216.486,91.158 215.823 C 91.227 215.161,91.227 214.076,91.158 213.414 C 91.088 212.751,91.032 213.293,91.032 214.618 M240.727 216.777 C 241.216 216.851,241.939 216.849,242.334 216.772 C 242.729 216.696,242.329 216.636,241.446 216.638 C 240.562 216.640,240.239 216.703,240.727 216.777 M373.012 216.613 C 373.012 216.954,374.613 220.402,374.771 220.402 C 374.859 220.402,374.567 219.577,374.122 218.570 C 373.350 216.826,373.012 216.229,373.012 216.613 M221.365 217.204 L 217.349 217.380 221.847 217.401 C 224.321 217.413,229.237 217.319,232.771 217.193 L 239.197 216.963 232.289 216.995 C 228.490 217.013,223.574 217.107,221.365 217.204 M244.016 217.189 C 245.375 217.535,246.542 217.535,245.462 217.189 C 245.020 217.047,244.297 216.934,243.855 216.938 C 243.134 216.943,243.150 216.968,244.016 217.189 M91.353 219.759 C 91.353 221.084,91.410 221.627,91.479 220.964 C 91.548 220.301,91.548 219.217,91.479 218.554 C 91.410 217.892,91.353 218.434,91.353 219.759 M213.498 218.239 C 212.086 218.605,211.074 218.949,211.249 219.002 C 211.423 219.056,212.867 218.755,214.458 218.334 C 216.048 217.913,217.060 217.569,216.707 217.570 C 216.353 217.572,214.909 217.872,213.498 218.239 M247.871 217.999 C 248.755 218.226,249.839 218.414,250.281 218.416 C 250.723 218.418,250.289 218.221,249.317 217.978 C 248.345 217.736,247.261 217.548,246.908 217.562 C 246.554 217.575,246.988 217.772,247.871 217.999 M253.173 219.116 C 253.614 219.258,254.265 219.374,254.618 219.374 C 255.127 219.374,255.094 219.320,254.458 219.116 C 254.016 218.975,253.365 218.859,253.012 218.859 C 252.503 218.859,252.537 218.913,253.173 219.116 M208.353 219.589 C 206.628 220.158,207.307 220.180,209.317 219.621 C 210.201 219.375,210.635 219.172,210.281 219.170 C 209.928 219.168,209.060 219.356,208.353 219.589 M203.279 220.794 C 201.902 221.152,200.836 221.506,200.911 221.581 C 201.049 221.719,206.634 220.430,206.881 220.203 C 207.181 219.927,205.638 220.180,203.279 220.794 M258.635 220.562 C 260.121 221.135,260.600 221.135,259.598 220.562 C 259.157 220.310,258.506 220.109,258.153 220.116 C 257.732 220.125,257.898 220.279,258.635 220.562 M375.115 221.446 C 375.235 221.843,375.466 222.310,375.627 222.483 C 375.789 222.655,375.758 222.330,375.560 221.760 C 375.153 220.593,374.777 220.327,375.115 221.446 M197.928 222.675 C 195.994 223.945,195.460 224.561,197.269 223.435 C 198.064 222.940,199.076 222.345,199.518 222.113 C 199.960 221.881,200.104 221.701,199.839 221.714 C 199.574 221.726,198.714 222.159,197.928 222.675 M265.341 223.001 C 267.174 223.707,268.749 224.210,268.841 224.118 C 268.933 224.026,268.734 223.865,268.399 223.759 C 268.065 223.654,266.661 223.145,265.281 222.627 C 263.900 222.110,262.599 221.693,262.389 221.702 C 262.180 221.710,263.508 222.294,265.341 223.001 M91.666 224.418 C 91.668 225.478,91.728 225.873,91.799 225.295 C 91.871 224.718,91.869 223.851,91.796 223.368 C 91.723 222.885,91.664 223.357,91.666 224.418 M375.926 223.133 C 375.926 223.309,376.133 223.815,376.386 224.257 C 376.638 224.699,376.845 224.916,376.845 224.739 C 376.845 224.562,376.638 224.056,376.386 223.614 C 376.133 223.173,375.926 222.956,375.926 223.133 M194.458 224.896 C 193.884 225.246,193.414 225.602,193.414 225.687 C 193.414 225.772,193.920 225.543,194.538 225.178 C 195.157 224.813,195.663 224.457,195.663 224.386 C 195.663 224.180,195.561 224.223,194.458 224.896 M274.663 226.968 C 277.736 228.491,280.300 229.687,280.361 229.626 C 280.506 229.480,270.923 224.730,269.880 224.430 C 269.438 224.303,271.590 225.445,274.663 226.968 M191.647 226.707 C 191.116 227.158,190.972 227.380,191.325 227.201 C 192.286 226.713,193.298 225.884,192.932 225.885 C 192.755 225.886,192.177 226.256,191.647 226.707 M377.311 226.345 C 377.903 228.038,380.535 234.191,380.627 234.099 C 380.768 233.958,377.641 226.202,377.331 225.923 C 377.196 225.802,377.188 225.992,377.311 226.345 M92.000 230.361 C 92.000 231.863,92.055 232.478,92.123 231.727 C 92.190 230.976,92.190 229.747,92.123 228.996 C 92.055 228.245,92.000 228.859,92.000 230.361 M186.747 229.756 C 185.652 230.457,185.297 230.928,186.265 230.396 C 187.002 229.991,188.157 229.098,187.952 229.092 C 187.863 229.089,187.321 229.388,186.747 229.756 M280.803 229.879 C 280.803 230.091,290.481 234.928,290.622 234.786 C 290.683 234.725,288.499 233.560,285.768 232.198 C 283.038 230.836,280.803 229.792,280.803 229.879 M180.923 235.776 C 178.559 238.578,176.489 241.144,176.323 241.479 C 176.158 241.814,176.357 241.655,176.766 241.124 C 177.174 240.594,179.178 238.209,181.219 235.823 C 184.712 231.739,185.556 230.682,185.320 230.683 C 185.266 230.683,183.287 232.975,180.923 235.776 M92.312 235.502 C 92.312 236.651,92.370 237.120,92.441 236.546 C 92.513 235.972,92.513 235.032,92.441 234.458 C 92.370 233.884,92.312 234.353,92.312 235.502 M292.039 235.710 C 294.621 237.831,297.639 240.020,296.386 238.863 C 295.064 237.644,292.261 235.495,291.406 235.047 C 291.141 234.908,291.426 235.206,292.039 235.710 M381.365 236.250 C 381.365 236.657,384.336 243.883,384.455 243.765 C 384.574 243.646,381.778 236.450,381.507 236.179 C 381.429 236.101,381.365 236.133,381.365 236.250 M92.640 240.161 C 92.641 241.574,92.698 242.113,92.766 241.357 C 92.834 240.601,92.833 239.445,92.764 238.787 C 92.695 238.129,92.639 238.747,92.640 240.161 M297.831 240.109 C 297.831 240.212,299.024 241.258,300.482 242.434 C 301.940 243.609,305.216 246.904,307.762 249.756 C 310.309 252.607,312.547 254.999,312.737 255.072 C 312.926 255.144,312.867 254.984,312.605 254.715 C 311.897 253.989,310.253 252.157,306.581 248.004 C 304.770 245.956,302.676 243.796,301.926 243.203 C 301.176 242.610,299.948 241.629,299.197 241.024 C 298.446 240.418,297.831 240.007,297.831 240.109 M174.658 244.063 C 174.010 245.061,173.539 245.936,173.611 246.007 C 173.683 246.079,174.075 245.588,174.482 244.916 C 174.889 244.245,175.428 243.369,175.680 242.972 C 175.932 242.574,176.070 242.249,175.987 242.249 C 175.903 242.249,175.305 243.065,174.658 244.063 M92.957 245.622 C 92.958 246.859,93.016 247.326,93.086 246.660 C 93.155 245.993,93.154 244.981,93.083 244.411 C 93.012 243.840,92.955 244.386,92.957 245.622 M384.615 244.337 C 384.621 244.514,384.904 245.237,385.244 245.944 C 385.584 246.651,385.772 246.867,385.662 246.426 C 385.436 245.516,384.598 243.846,384.615 244.337 M173.020 246.827 C 171.964 250.016,171.137 253.530,171.867 251.727 C 172.323 250.602,173.450 246.426,173.298 246.426 C 173.218 246.426,173.093 246.606,173.020 246.827 M186.743 257.751 L 186.827 268.755 235.823 268.755 L 284.819 268.755 284.904 257.751 C 284.950 251.699,284.878 246.747,284.743 246.747 C 284.608 246.747,284.498 251.626,284.498 257.590 L 284.498 268.434 235.823 268.434 L 187.149 268.434 187.149 257.590 C 187.149 251.626,187.038 246.747,186.903 246.747 C 186.769 246.747,186.696 251.699,186.743 257.751 M93.283 250.763 C 93.284 252.177,93.340 252.715,93.408 251.959 C 93.476 251.204,93.475 250.047,93.406 249.389 C 93.337 248.731,93.282 249.349,93.283 250.763 M387.007 250.442 C 387.128 250.795,387.509 251.807,387.853 252.691 C 388.198 253.574,388.631 254.702,388.815 255.197 C 389.000 255.692,389.208 256.040,389.278 255.969 C 389.443 255.805,387.908 251.721,387.272 250.632 C 386.992 250.152,386.880 250.072,387.007 250.442 M171.134 253.068 C 171.041 253.391,170.656 254.717,170.279 256.015 C 169.902 257.313,169.650 258.432,169.720 258.502 C 169.790 258.572,170.241 257.312,170.723 255.703 C 171.205 254.094,171.532 252.710,171.451 252.629 C 171.370 252.548,171.228 252.746,171.134 253.068 M93.594 255.582 C 93.595 256.643,93.655 257.038,93.727 256.460 C 93.798 255.883,93.797 255.015,93.724 254.532 C 93.650 254.050,93.592 254.522,93.594 255.582 M312.932 255.532 C 312.932 255.582,313.389 256.047,313.948 256.566 C 314.962 257.509,314.963 257.509,314.349 256.640 C 313.837 255.915,312.932 255.208,312.932 255.532 M389.423 256.410 C 389.409 256.513,389.772 257.518,390.230 258.644 C 390.903 260.301,391.029 261.032,390.890 262.474 L 390.719 264.257 391.049 262.848 C 391.231 262.073,391.294 260.988,391.188 260.438 C 391.008 259.499,389.478 256.008,389.423 256.410 M315.181 257.823 C 315.181 257.988,315.592 258.563,316.094 259.101 C 317.272 260.365,321.888 266.844,322.251 267.744 C 322.419 268.160,322.538 268.242,322.550 267.951 C 322.561 267.685,321.378 265.799,319.920 263.759 C 316.919 259.561,315.181 257.383,315.181 257.823 M93.925 261.365 C 93.927 262.779,93.983 263.317,94.051 262.562 C 94.119 261.806,94.118 260.649,94.049 259.992 C 93.980 259.334,93.924 259.952,93.925 261.365 M169.015 260.332 C 168.801 261.099,168.685 262.224,168.759 262.831 C 168.889 263.900,168.895 263.893,168.945 262.618 C 168.973 261.894,169.157 260.838,169.354 260.273 C 169.552 259.707,169.644 259.175,169.559 259.091 C 169.475 259.006,169.230 259.565,169.015 260.332 M94.242 266.185 C 94.243 267.422,94.301 267.888,94.371 267.222 C 94.441 266.555,94.439 265.543,94.368 264.973 C 94.297 264.402,94.241 264.948,94.242 266.185 M168.471 267.149 C 168.472 268.916,168.526 269.598,168.591 268.664 C 168.656 267.730,168.655 266.285,168.589 265.451 C 168.523 264.618,168.470 265.382,168.471 267.149 M390.228 266.051 C 390.107 266.961,390.073 267.770,390.152 267.849 C 390.231 267.928,390.397 267.252,390.522 266.345 C 390.647 265.439,390.681 264.630,390.598 264.547 C 390.515 264.464,390.348 265.141,390.228 266.051 M94.496 270.870 C 94.517 272.004,94.642 273.365,94.774 273.896 C 94.906 274.426,94.941 273.558,94.852 271.968 C 94.662 268.580,94.441 267.898,94.496 270.870 M322.667 270.522 C 322.667 271.494,322.727 271.892,322.800 271.406 C 322.874 270.920,322.874 270.124,322.800 269.639 C 322.727 269.153,322.667 269.550,322.667 270.522 M389.292 271.130 C 389.173 271.723,389.092 272.516,389.112 272.892 C 389.131 273.267,389.275 272.924,389.431 272.129 C 389.588 271.333,389.669 270.540,389.612 270.366 C 389.555 270.193,389.411 270.536,389.292 271.130 M168.070 275.689 C 168.090 278.590,168.207 281.904,168.328 283.052 C 168.449 284.201,168.485 281.888,168.408 277.912 C 168.331 273.936,168.215 270.622,168.150 270.549 C 168.085 270.475,168.049 272.788,168.070 275.689 M323.119 275.020 C 323.216 276.522,323.349 277.811,323.415 277.885 C 323.632 278.129,323.491 275.206,323.215 273.735 C 323.017 272.684,322.991 273.036,323.119 275.020 M388.637 274.728 C 388.525 275.286,388.451 276.122,388.471 276.586 C 388.492 277.050,388.639 276.649,388.797 275.694 C 389.106 273.832,388.974 273.039,388.637 274.728 M95.138 276.171 C 95.159 276.863,95.292 277.863,95.434 278.394 C 95.596 279.001,95.626 278.585,95.514 277.269 C 95.315 274.928,95.080 274.242,95.138 276.171 M186.882 276.518 C 186.361 277.039,186.644 298.397,187.175 298.600 C 187.945 298.896,284.116 298.824,284.583 298.528 C 284.899 298.327,284.970 295.876,284.904 287.368 L 284.819 276.466 235.958 276.385 C 209.085 276.340,187.000 276.400,186.882 276.518 M284.583 287.470 L 284.498 298.313 235.823 298.313 L 187.149 298.313 187.064 287.470 L 186.979 276.627 235.823 276.627 L 284.667 276.627 284.583 287.470 M323.622 279.518 C 323.622 280.313,323.684 280.639,323.761 280.241 C 323.837 279.843,323.837 279.193,323.761 278.795 C 323.684 278.398,323.622 278.723,323.622 279.518 M387.479 281.397 C 387.251 282.608,387.130 283.799,387.211 284.042 C 387.292 284.285,387.540 283.355,387.763 281.975 C 388.266 278.854,388.044 278.402,387.479 281.397 M95.775 280.348 C 95.793 280.863,95.930 281.647,96.080 282.088 C 96.264 282.630,96.293 282.368,96.167 281.285 C 95.959 279.478,95.726 278.923,95.775 280.348 M323.630 284.337 C 323.630 285.309,323.691 285.707,323.764 285.221 C 323.838 284.735,323.838 283.940,323.764 283.454 C 323.691 282.968,323.630 283.365,323.630 284.337 M386.685 285.801 C 386.564 286.446,386.529 287.038,386.607 287.116 C 386.686 287.195,386.849 286.731,386.970 286.087 C 387.091 285.442,387.126 284.850,387.047 284.771 C 386.969 284.693,386.805 285.156,386.685 285.801 M97.032 285.007 C 97.045 285.513,101.769 299.146,102.018 299.394 C 102.382 299.758,102.388 299.776,98.485 288.526 C 97.474 285.609,97.019 284.508,97.032 285.007 M168.706 287.416 C 168.724 288.462,168.856 290.112,169.001 291.084 C 169.183 292.314,169.211 291.776,169.091 289.317 C 168.907 285.530,168.654 284.278,168.706 287.416 M323.318 288.353 C 323.320 289.590,323.378 290.057,323.447 289.390 C 323.517 288.724,323.516 287.712,323.445 287.141 C 323.374 286.571,323.317 287.116,323.318 288.353 M385.726 289.340 C 385.608 289.811,385.573 290.258,385.649 290.334 C 385.724 290.410,385.883 290.086,386.001 289.616 C 386.119 289.145,386.154 288.698,386.078 288.622 C 386.003 288.546,385.844 288.869,385.726 289.340 M322.983 292.209 C 322.986 293.092,323.048 293.416,323.122 292.927 C 323.196 292.439,323.194 291.716,323.118 291.321 C 323.041 290.926,322.981 291.325,322.983 292.209 M384.929 292.077 C 384.712 292.803,384.593 293.455,384.665 293.527 C 384.738 293.600,384.974 293.065,385.192 292.340 C 385.409 291.615,385.528 290.963,385.455 290.890 C 385.383 290.818,385.146 291.352,384.929 292.077 M169.420 294.940 C 169.420 296.088,169.478 296.558,169.550 295.984 C 169.621 295.410,169.621 294.470,169.550 293.896 C 169.478 293.321,169.420 293.791,169.420 294.940 M322.662 295.422 C 322.665 296.305,322.727 296.629,322.801 296.140 C 322.875 295.652,322.873 294.929,322.796 294.534 C 322.720 294.139,322.660 294.538,322.662 295.422 M383.005 298.828 C 382.253 301.492,381.695 303.730,381.765 303.800 C 381.836 303.870,382.508 301.748,383.260 299.084 C 384.012 296.419,384.570 294.182,384.500 294.112 C 384.430 294.041,383.757 296.164,383.005 298.828 M169.709 297.992 C 169.712 298.345,169.825 299.068,169.960 299.598 C 170.180 300.464,170.206 300.481,170.211 299.759 C 170.214 299.317,170.101 298.594,169.960 298.153 C 169.758 297.523,169.704 297.488,169.709 297.992 M322.345 299.759 C 322.345 300.731,322.406 301.129,322.479 300.643 C 322.553 300.157,322.553 299.361,322.479 298.876 C 322.406 298.390,322.345 298.787,322.345 299.759 M102.192 299.943 C 102.159 300.428,103.178 303.354,103.328 303.205 C 103.396 303.137,103.174 302.297,102.834 301.340 C 102.494 300.382,102.205 299.753,102.192 299.943 M322.027 303.775 C 322.029 304.835,322.089 305.230,322.161 304.653 C 322.232 304.075,322.231 303.208,322.157 302.725 C 322.084 302.242,322.025 302.715,322.027 303.775 M170.643 303.293 C 170.636 303.735,170.828 304.892,171.071 305.863 C 171.642 308.152,171.659 306.938,171.091 304.418 C 170.852 303.357,170.650 302.851,170.643 303.293 M381.245 304.751 C 381.134 305.039,381.057 305.515,381.072 305.809 C 381.087 306.104,381.227 305.919,381.382 305.398 C 381.685 304.384,381.578 303.882,381.245 304.751 M103.935 305.221 C 104.067 305.663,104.857 307.687,105.690 309.719 C 106.524 311.751,107.393 313.888,107.622 314.468 C 107.851 315.048,108.093 315.468,108.159 315.402 C 108.225 315.335,107.324 312.909,106.156 310.010 C 104.156 305.045,103.388 303.389,103.935 305.221 M321.694 307.149 C 321.694 307.944,321.757 308.269,321.833 307.871 C 321.910 307.474,321.910 306.823,321.833 306.426 C 321.757 306.028,321.694 306.353,321.694 307.149 M186.813 306.589 C 186.727 306.811,186.696 311.763,186.742 317.593 L 186.827 328.193 235.904 328.274 L 284.980 328.355 284.980 317.270 C 284.980 311.173,284.871 306.185,284.739 306.185 C 284.606 306.185,284.538 311.100,284.587 317.108 L 284.675 328.032 235.832 328.032 L 186.988 328.032 186.988 317.494 C 186.988 309.726,187.089 306.854,187.373 306.570 C 187.673 306.270,187.671 306.185,187.363 306.185 C 187.146 306.185,186.898 306.367,186.813 306.589 M380.404 307.839 C 380.205 308.608,379.969 309.490,379.879 309.799 C 379.789 310.108,379.788 310.361,379.875 310.361 C 380.112 310.361,381.109 306.785,380.924 306.600 C 380.836 306.513,380.602 307.070,380.404 307.839 M321.373 310.040 C 321.373 310.835,321.435 311.161,321.512 310.763 C 321.588 310.365,321.588 309.715,321.512 309.317 C 321.435 308.920,321.373 309.245,321.373 310.040 M171.964 310.361 C 171.964 310.803,172.074 311.598,172.209 312.129 C 172.428 312.988,172.454 313.006,172.454 312.289 C 172.454 311.847,172.344 311.052,172.209 310.522 C 171.990 309.662,171.964 309.645,171.964 310.361 M379.300 311.509 C 379.182 311.980,379.147 312.427,379.223 312.503 C 379.299 312.578,379.457 312.255,379.575 311.784 C 379.694 311.313,379.728 310.866,379.653 310.790 C 379.577 310.715,379.418 311.038,379.300 311.509 M320.659 314.394 C 320.434 315.906,320.322 317.216,320.410 317.305 C 320.499 317.393,320.748 316.220,320.964 314.699 C 321.180 313.177,321.292 311.867,321.212 311.788 C 321.133 311.708,320.884 312.881,320.659 314.394 M378.657 313.758 C 378.539 314.229,378.505 314.676,378.580 314.752 C 378.656 314.827,378.815 314.504,378.933 314.033 C 379.051 313.562,379.086 313.115,379.010 313.039 C 378.934 312.964,378.776 313.287,378.657 313.758 M172.605 314.217 C 172.605 314.835,172.671 315.088,172.752 314.779 C 172.832 314.470,172.832 313.964,172.752 313.655 C 172.671 313.345,172.605 313.598,172.605 314.217 M377.691 317.129 C 377.387 318.209,377.203 319.157,377.280 319.234 C 377.357 319.312,377.669 318.491,377.972 317.410 C 378.275 316.329,378.460 315.381,378.383 315.304 C 378.305 315.226,377.994 316.048,377.691 317.129 M108.296 315.984 C 108.296 316.161,108.502 316.667,108.755 317.108 C 109.008 317.550,109.214 317.767,109.214 317.590 C 109.214 317.414,109.008 316.908,108.755 316.466 C 108.502 316.024,108.296 315.807,108.296 315.984 M320.081 318.876 C 320.085 319.582,320.150 319.834,320.227 319.434 C 320.304 319.034,320.301 318.456,320.221 318.149 C 320.140 317.842,320.077 318.169,320.081 318.876 M110.066 320.269 C 110.174 320.682,110.612 321.766,111.040 322.679 C 111.467 323.591,111.729 323.999,111.621 323.586 C 111.513 323.174,111.075 322.089,110.647 321.177 C 110.219 320.265,109.958 319.856,110.066 320.269 M376.730 320.505 C 376.612 320.976,376.577 321.423,376.653 321.499 C 376.728 321.574,376.887 321.251,377.005 320.780 C 377.123 320.309,377.158 319.862,377.082 319.786 C 377.007 319.711,376.848 320.034,376.730 320.505 M319.398 322.731 C 319.003 325.392,318.948 326.299,319.199 326.048 C 319.419 325.829,320.066 320.602,319.895 320.431 C 319.821 320.357,319.598 321.392,319.398 322.731 M173.885 321.285 C 173.882 321.727,173.995 322.450,174.137 322.892 C 174.482 323.971,174.482 322.805,174.137 321.446 C 173.916 320.580,173.891 320.564,173.885 321.285 M174.532 324.819 C 174.532 325.438,174.598 325.691,174.679 325.382 C 174.760 325.072,174.760 324.566,174.679 324.257 C 174.598 323.948,174.532 324.201,174.532 324.819 M374.826 326.510 C 374.078 328.466,374.201 328.839,374.969 326.946 C 375.318 326.083,375.548 325.321,375.479 325.252 C 375.410 325.183,375.116 325.749,374.826 326.510 M112.486 326.265 C 112.491 326.739,113.998 329.858,114.029 329.457 C 114.044 329.270,113.702 328.402,113.270 327.530 C 112.837 326.657,112.485 326.088,112.486 326.265 M174.983 327.229 C 175.084 327.936,175.287 329.361,175.435 330.395 C 175.583 331.430,175.794 332.367,175.905 332.478 C 176.182 332.755,175.732 329.516,175.220 327.554 C 174.866 326.198,174.829 326.146,174.983 327.229 M318.789 327.390 C 318.789 328.008,318.856 328.261,318.936 327.952 C 319.017 327.643,319.017 327.137,318.936 326.827 C 318.856 326.518,318.789 326.771,318.789 327.390 M314.699 332.399 L 310.843 336.123 314.779 332.516 C 318.301 329.288,318.917 328.674,318.635 328.675 C 318.590 328.675,316.819 330.351,314.699 332.399 M373.638 329.522 C 373.460 329.989,373.375 330.430,373.448 330.503 C 373.521 330.576,373.734 330.194,373.922 329.655 C 374.340 328.456,374.088 328.339,373.638 329.522 M114.079 330.120 C 114.079 330.297,114.286 330.803,114.538 331.245 C 114.791 331.687,114.997 331.904,114.997 331.727 C 114.997 331.550,114.791 331.044,114.538 330.602 C 114.286 330.161,114.079 329.944,114.079 330.120 M372.410 332.731 C 372.027 333.732,371.767 334.605,371.834 334.672 C 371.900 334.738,372.268 333.973,372.651 332.972 C 373.034 331.971,373.293 331.097,373.227 331.031 C 373.160 330.965,372.793 331.730,372.410 332.731 M176.139 334.137 C 176.139 334.755,176.205 335.008,176.286 334.699 C 176.367 334.390,176.367 333.884,176.286 333.574 C 176.205 333.265,176.139 333.518,176.139 334.137 M176.477 336.867 C 176.480 337.751,176.542 338.074,176.616 337.586 C 176.690 337.098,176.688 336.375,176.612 335.980 C 176.535 335.584,176.475 335.984,176.477 336.867 M186.813 336.146 C 186.728 336.369,186.696 341.393,186.743 347.312 L 186.827 358.072 235.823 358.072 L 284.819 358.072 284.819 346.988 L 284.819 335.904 235.894 335.822 C 196.777 335.757,186.937 335.822,186.813 336.146 M284.498 346.988 L 284.498 357.751 235.823 357.751 L 187.149 357.751 187.064 347.312 C 187.017 341.570,187.049 336.690,187.134 336.467 C 187.259 336.143,197.014 336.078,235.894 336.144 L 284.498 336.225 284.498 346.988 M306.158 340.513 C 303.934 342.749,301.957 344.797,301.764 345.065 C 301.571 345.332,303.440 343.551,305.918 341.106 C 308.396 338.662,310.373 336.613,310.312 336.555 C 310.251 336.496,308.381 338.277,306.158 340.513 M369.827 339.305 C 369.274 340.754,368.873 341.993,368.938 342.057 C 369.002 342.121,369.515 340.996,370.079 339.556 C 370.642 338.117,371.042 336.879,370.968 336.805 C 370.894 336.731,370.381 337.856,369.827 339.305 M117.711 338.956 C 117.993 339.999,118.963 342.188,119.088 342.063 C 119.161 341.990,118.852 341.153,118.401 340.202 C 117.950 339.252,117.639 338.691,117.711 338.956 M176.935 341.994 C 177.034 343.754,177.228 345.922,177.368 346.813 C 177.699 348.937,177.375 343.311,177.014 340.680 C 176.827 339.318,176.805 339.683,176.935 341.994 M119.960 344.418 C 120.242 345.461,121.212 347.650,121.337 347.525 C 121.410 347.452,121.101 346.615,120.650 345.664 C 120.199 344.713,119.888 344.153,119.960 344.418 M367.127 346.244 C 366.659 347.425,366.328 348.443,366.391 348.506 C 366.455 348.570,366.893 347.658,367.364 346.481 C 367.836 345.303,368.167 344.285,368.100 344.218 C 368.034 344.152,367.596 345.063,367.127 346.244 M299.549 348.032 C 298.706 349.137,298.262 349.843,298.562 349.603 C 299.146 349.135,301.459 346.024,301.223 346.024 C 301.145 346.024,300.392 346.928,299.549 348.032 M177.708 350.102 C 177.687 351.019,177.782 351.838,177.918 351.922 C 178.053 352.006,178.118 351.472,178.061 350.736 C 177.894 348.574,177.748 348.311,177.708 350.102 M296.041 352.682 C 294.343 354.938,292.385 358.957,292.396 360.161 C 292.399 360.426,292.824 359.504,293.341 358.112 C 293.858 356.720,294.834 354.841,295.509 353.935 C 297.349 351.470,298.213 350.201,298.053 350.201 C 297.974 350.201,297.069 351.318,296.041 352.682 M364.508 352.998 C 363.203 356.260,361.069 359.251,358.702 361.135 C 357.560 362.043,356.627 362.864,356.627 362.959 C 356.627 363.053,356.807 362.991,357.028 362.820 C 357.249 362.649,358.224 361.891,359.194 361.136 C 361.624 359.244,366.282 351.717,365.504 350.939 C 365.436 350.871,364.988 351.798,364.508 352.998 M123.174 352.129 C 123.437 353.086,125.074 356.640,125.196 356.517 C 125.265 356.449,124.808 355.325,124.182 354.019 C 123.555 352.714,123.102 351.863,123.174 352.129 M178.073 353.574 C 178.077 354.281,178.142 354.532,178.219 354.133 C 178.296 353.733,178.293 353.155,178.213 352.848 C 178.132 352.540,178.069 352.867,178.073 353.574 M178.382 359.679 C 178.270 366.680,176.751 373.458,174.458 377.189 C 173.534 378.691,172.989 379.703,173.246 379.438 C 176.440 376.139,178.732 367.577,178.554 359.613 L 178.454 355.181 178.382 359.679 M125.345 357.108 C 125.338 357.285,125.747 358.297,126.253 359.357 C 126.760 360.418,127.179 361.141,127.186 360.964 C 127.192 360.787,126.783 359.775,126.277 358.715 C 125.771 357.655,125.351 356.932,125.345 357.108 M290.166 366.341 L 288.828 370.281 288.863 375.904 C 288.885 379.554,289.051 382.090,289.336 383.133 C 289.577 384.016,289.695 384.305,289.598 383.775 C 289.501 383.245,289.347 380.040,289.256 376.653 L 289.089 370.494 290.430 366.581 C 291.168 364.429,291.711 362.608,291.638 362.535 C 291.564 362.461,290.902 364.174,290.166 366.341 M128.359 364.241 C 128.841 365.393,129.157 365.913,129.157 365.555 C 129.157 365.208,128.180 363.052,128.024 363.052 C 127.935 363.052,128.086 363.587,128.359 364.241 M351.761 366.537 C 350.451 367.570,349.058 368.587,348.665 368.797 C 348.273 369.007,347.952 369.324,347.952 369.502 C 347.952 369.679,349.111 368.915,350.527 367.804 C 351.943 366.692,353.498 365.531,353.981 365.223 C 354.464 364.914,354.698 364.661,354.501 364.660 C 354.305 364.659,353.071 365.504,351.761 366.537 M186.882 365.836 C 186.312 366.406,186.650 387.792,187.229 387.766 C 187.565 387.751,187.629 387.675,187.390 387.578 C 187.080 387.453,186.988 384.968,186.988 376.680 L 186.988 365.944 235.832 365.944 L 284.675 365.944 284.587 376.868 C 284.538 382.876,284.608 387.791,284.743 387.791 C 284.878 387.791,284.950 382.839,284.904 376.787 L 284.819 365.783 235.958 365.702 C 209.085 365.657,187.000 365.717,186.882 365.836 M129.168 366.120 C 129.174 366.288,129.397 366.787,129.663 367.229 L 130.147 368.032 129.937 367.229 C 129.718 366.391,129.147 365.569,129.168 366.120 M130.789 369.639 C 130.787 369.815,131.145 370.683,131.583 371.566 C 132.021 372.450,132.287 372.811,132.173 372.369 C 131.928 371.415,130.793 369.176,130.789 369.639 M344.337 372.237 C 343.321 373.045,342.490 373.776,342.490 373.860 C 342.490 373.944,343.357 373.346,344.418 372.530 C 346.081 371.251,346.599 370.756,346.265 370.765 C 346.221 370.767,345.353 371.429,344.337 372.237 M133.036 374.678 C 132.998 375.028,134.696 378.824,134.831 378.690 C 134.898 378.623,134.526 377.644,134.006 376.513 C 133.486 375.383,133.049 374.557,133.036 374.678 M338.795 376.586 C 337.912 377.286,335.635 379.035,333.735 380.473 C 330.668 382.795,329.494 383.801,330.683 383.091 C 331.546 382.575,340.230 375.860,340.410 375.569 C 340.697 375.105,340.540 375.204,338.795 376.586 M134.963 379.277 C 134.963 379.454,135.169 379.960,135.422 380.402 C 135.674 380.843,135.881 381.060,135.881 380.884 C 135.881 380.707,135.674 380.201,135.422 379.759 C 135.169 379.317,134.963 379.100,134.963 379.277 M171.969 381.139 C 171.617 381.736,171.076 382.609,170.768 383.080 C 170.460 383.551,170.276 383.936,170.359 383.936 C 170.613 383.936,172.909 380.352,172.754 380.197 C 172.675 380.118,172.322 380.541,171.969 381.139 M136.087 382.008 C 136.203 382.450,136.425 382.949,136.582 383.116 C 137.041 383.607,136.900 382.903,136.361 382.008 L 135.877 381.205 136.087 382.008 M137.190 384.444 C 137.191 384.805,138.404 386.827,138.619 386.827 C 138.704 386.827,138.463 386.285,138.084 385.622 C 137.234 384.138,137.188 384.078,137.190 384.444 M169.399 385.315 C 169.019 385.959,167.874 386.908,166.476 387.739 C 165.211 388.490,164.177 389.183,164.177 389.277 C 164.177 389.457,165.670 388.602,167.854 387.174 C 168.918 386.478,170.690 384.257,170.182 384.257 C 170.095 384.257,169.742 384.733,169.399 385.315 M326.761 385.100 C 326.151 385.534,325.572 385.973,325.476 386.077 C 325.184 386.393,327.184 385.305,327.871 384.774 C 328.920 383.964,327.967 384.244,326.761 385.100 M290.004 386.345 C 290.101 387.229,290.203 387.966,290.231 387.984 C 290.259 388.001,291.421 388.778,292.814 389.709 C 294.207 390.641,295.259 391.261,295.152 391.087 C 295.044 390.913,293.955 390.093,292.731 389.264 C 290.697 387.887,290.476 387.627,290.166 386.248 L 289.827 384.739 290.004 386.345 M322.249 387.835 C 320.747 388.728,319.301 389.674,319.036 389.938 C 318.771 390.202,320.036 389.528,321.847 388.440 C 323.659 387.352,325.141 386.399,325.141 386.323 C 325.141 386.115,325.176 386.097,322.249 387.835 M140.731 389.639 C 142.688 392.139,143.824 392.906,145.542 392.886 C 145.984 392.881,145.582 392.692,144.649 392.466 C 143.716 392.240,142.909 392.000,142.856 391.931 C 140.855 389.345,139.054 387.149,138.935 387.149 C 138.851 387.149,139.659 388.269,140.731 389.639 M163.036 389.686 C 162.868 389.845,161.436 390.712,159.853 391.614 C 158.270 392.515,157.165 393.253,157.399 393.253 C 157.632 393.253,158.999 392.534,160.437 391.654 C 163.845 389.571,164.079 389.408,163.679 389.403 C 163.493 389.400,163.204 389.527,163.036 389.686 M316.496 391.189 C 315.717 391.617,315.283 391.967,315.532 391.966 C 315.780 391.965,316.562 391.608,317.269 391.173 C 318.919 390.157,318.350 390.168,316.496 391.189 M295.582 391.414 C 295.582 391.948,299.293 393.971,300.467 394.076 L 301.847 394.199 300.484 393.904 C 299.735 393.742,298.506 393.192,297.754 392.682 C 296.037 391.520,295.582 391.254,295.582 391.414 M309.792 393.164 C 308.154 393.618,306.873 394.049,306.947 394.122 C 307.081 394.256,313.298 392.648,313.548 392.414 C 313.844 392.137,312.622 392.381,309.792 393.164 M146.908 393.153 C 147.217 393.234,147.723 393.234,148.032 393.153 C 148.341 393.072,148.088 393.006,147.470 393.006 C 146.851 393.006,146.598 393.072,146.908 393.153 M149.913 393.636 C 150.601 393.758,151.888 393.859,152.771 393.859 C 153.655 393.859,154.941 393.758,155.629 393.636 C 156.395 393.500,155.284 393.414,152.771 393.414 C 150.258 393.414,149.148 393.500,149.913 393.636 M303.052 394.451 C 303.715 394.520,304.799 394.520,305.462 394.451 C 306.124 394.382,305.582 394.325,304.257 394.325 C 302.932 394.325,302.390 394.382,303.052 394.451 " stroke="none" fill="#df832d" fill-rule="evenodd"></path><path id="path4" d="M8.434 1.828 C 8.743 1.909,9.249 1.909,9.558 1.828 C 9.867 1.747,9.614 1.681,8.996 1.681 C 8.378 1.681,8.124 1.747,8.434 1.828 M20.964 3.113 C 21.273 3.194,21.779 3.194,22.088 3.113 C 22.398 3.032,22.145 2.966,21.526 2.966 C 20.908 2.966,20.655 3.032,20.964 3.113 M7.860 33.414 C 7.860 41.984,7.901 45.490,7.952 41.205 C 8.002 36.920,8.002 29.908,7.952 25.622 C 7.901 21.337,7.860 24.843,7.860 33.414 M228.413 65.160 C 228.843 65.509,229.638 66.039,230.180 66.338 L 231.165 66.881 230.383 66.246 C 229.953 65.897,229.157 65.367,228.616 65.068 L 227.631 64.525 228.413 65.160 M248.675 78.510 C 248.675 78.599,249.108 78.980,249.639 79.357 C 250.169 79.735,250.602 79.971,250.602 79.883 C 250.602 79.795,250.169 79.414,249.639 79.036 C 249.108 78.659,248.675 78.422,248.675 78.510 M7.535 98.956 C 7.535 105.406,7.578 108.044,7.630 104.819 C 7.682 101.594,7.682 96.317,7.630 93.092 C 7.578 89.867,7.535 92.506,7.535 98.956 M268.594 92.326 C 268.594 92.414,269.028 92.795,269.558 93.173 C 270.088 93.550,270.522 93.787,270.522 93.698 C 270.522 93.610,270.088 93.229,269.558 92.851 C 269.028 92.474,268.594 92.237,268.594 92.326 M291.727 108.390 C 291.727 108.478,292.161 108.859,292.691 109.237 C 293.221 109.614,293.655 109.851,293.655 109.763 C 293.655 109.674,293.221 109.293,292.691 108.916 C 292.161 108.538,291.727 108.302,291.727 108.390 M300.080 114.173 C 300.080 114.261,300.514 114.643,301.044 115.020 C 301.574 115.398,302.008 115.634,302.008 115.546 C 302.008 115.457,301.574 115.076,301.044 114.699 C 300.514 114.321,300.080 114.085,300.080 114.173 M320.000 128.631 C 320.000 128.719,320.434 129.100,320.964 129.478 C 321.494 129.855,321.928 130.092,321.928 130.004 C 321.928 129.915,321.494 129.534,320.964 129.157 C 320.434 128.779,320.000 128.543,320.000 128.631 M344.900 154.217 C 345.174 154.747,345.470 155.181,345.559 155.181 C 345.647 155.181,345.495 154.747,345.221 154.217 C 344.947 153.687,344.650 153.253,344.562 153.253 C 344.473 153.253,344.625 153.687,344.900 154.217 M74.975 159.284 C 75.229 159.695,77.108 161.086,77.108 160.863 C 77.108 160.784,76.578 160.314,75.929 159.819 C 75.280 159.324,74.851 159.084,74.975 159.284 M78.715 162.028 C 78.715 162.084,79.185 162.553,79.759 163.072 L 80.803 164.016 79.860 162.972 C 78.980 161.999,78.715 161.780,78.715 162.028 M363.075 193.253 C 363.075 193.430,363.282 193.936,363.534 194.378 C 363.787 194.819,363.993 195.036,363.993 194.859 C 363.993 194.683,363.787 194.177,363.534 193.735 C 363.282 193.293,363.075 193.076,363.075 193.253 M90.041 204.498 C 90.044 205.205,90.110 205.456,90.187 205.056 C 90.264 204.657,90.261 204.079,90.181 203.771 C 90.100 203.464,90.037 203.791,90.041 204.498 M90.694 214.779 C 90.697 215.663,90.759 215.986,90.833 215.498 C 90.907 215.009,90.905 214.286,90.829 213.891 C 90.752 213.496,90.692 213.896,90.694 214.779 M232.379 217.425 C 233.224 217.492,234.525 217.491,235.271 217.424 C 236.016 217.356,235.325 217.302,233.735 217.303 C 232.145 217.304,231.534 217.359,232.379 217.425 M221.450 217.741 C 221.939 217.814,222.661 217.812,223.057 217.736 C 223.452 217.660,223.052 217.600,222.169 217.602 C 221.285 217.604,220.962 217.667,221.450 217.741 M91.011 219.759 C 91.011 220.554,91.074 220.880,91.150 220.482 C 91.227 220.084,91.227 219.434,91.150 219.036 C 91.074 218.639,91.011 218.964,91.011 219.759 M263.454 222.596 C 263.719 222.760,264.297 222.991,264.739 223.109 C 265.297 223.258,265.395 223.233,265.060 223.026 C 264.795 222.862,264.217 222.632,263.775 222.513 C 263.217 222.364,263.119 222.389,263.454 222.596 M91.320 225.221 C 91.320 225.839,91.386 226.092,91.466 225.783 C 91.547 225.474,91.547 224.968,91.466 224.659 C 91.386 224.349,91.320 224.602,91.320 225.221 M91.654 230.040 C 91.654 230.835,91.716 231.161,91.793 230.763 C 91.870 230.365,91.870 229.715,91.793 229.317 C 91.716 228.920,91.654 229.245,91.654 230.040 M285.649 232.730 C 285.980 233.026,287.871 233.895,287.871 233.751 C 287.871 233.566,286.090 232.610,285.746 232.610 C 285.619 232.610,285.576 232.664,285.649 232.730 M91.979 235.341 C 91.982 236.225,92.044 236.548,92.118 236.060 C 92.192 235.571,92.190 234.849,92.114 234.453 C 92.037 234.058,91.977 234.458,91.979 235.341 M289.505 234.658 C 289.835 234.954,291.727 235.823,291.727 235.679 C 291.727 235.494,289.946 234.538,289.601 234.538 C 289.474 234.538,289.431 234.592,289.505 234.658 M181.024 236.225 L 180.080 237.269 181.124 236.325 C 181.699 235.806,182.169 235.337,182.169 235.281 C 182.169 235.033,181.904 235.252,181.024 236.225 M92.296 240.321 C 92.296 241.116,92.359 241.442,92.436 241.044 C 92.512 240.647,92.512 239.996,92.436 239.598 C 92.359 239.201,92.296 239.526,92.296 240.321 M302.811 244.819 C 303.681 245.703,304.466 246.426,304.554 246.426 C 304.643 246.426,304.003 245.703,303.133 244.819 C 302.262 243.936,301.478 243.213,301.390 243.213 C 301.301 243.213,301.941 243.936,302.811 244.819 M92.605 245.462 C 92.605 246.080,92.671 246.333,92.752 246.024 C 92.832 245.715,92.832 245.209,92.752 244.900 C 92.671 244.590,92.605 244.843,92.605 245.462 M284.908 257.670 L 284.996 268.914 235.831 268.996 L 186.667 269.079 235.904 269.078 L 285.141 269.076 285.225 257.751 C 285.271 251.522,285.199 246.426,285.064 246.426 C 284.930 246.425,284.859 251.485,284.908 257.670 M186.490 257.831 C 186.490 263.839,186.533 266.252,186.586 263.192 C 186.639 260.133,186.639 255.217,186.586 252.269 C 186.533 249.320,186.489 251.823,186.490 257.831 M306.667 248.996 C 307.357 249.703,307.994 250.281,308.082 250.281 C 308.171 250.281,307.678 249.703,306.988 248.996 C 306.298 248.289,305.661 247.711,305.572 247.711 C 305.484 247.711,305.976 248.289,306.667 248.996 M92.939 250.602 C 92.939 251.398,93.002 251.723,93.078 251.325 C 93.155 250.928,93.155 250.277,93.078 249.880 C 93.002 249.482,92.939 249.807,92.939 250.602 M309.558 252.209 C 310.248 252.916,310.885 253.494,310.974 253.494 C 311.062 253.494,310.570 252.916,309.880 252.209 C 309.189 251.502,308.552 250.924,308.464 250.924 C 308.376 250.924,308.868 251.502,309.558 252.209 M312.129 255.100 C 312.819 255.807,313.456 256.386,313.544 256.386 C 313.632 256.386,313.140 255.807,312.450 255.100 C 311.760 254.394,311.123 253.815,311.034 253.815 C 310.946 253.815,311.438 254.394,312.129 255.100 M93.260 255.743 C 93.260 256.538,93.323 256.863,93.399 256.466 C 93.476 256.068,93.476 255.418,93.399 255.020 C 93.323 254.622,93.260 254.948,93.260 255.743 M314.217 257.450 C 314.217 257.505,314.687 257.975,315.261 258.494 L 316.305 259.438 315.362 258.394 C 314.482 257.420,314.217 257.202,314.217 257.450 M93.569 260.562 C 93.569 261.181,93.635 261.434,93.715 261.124 C 93.796 260.815,93.796 260.309,93.715 260.000 C 93.635 259.691,93.569 259.944,93.569 260.562 M93.907 266.185 C 93.910 267.068,93.972 267.392,94.046 266.903 C 94.120 266.415,94.118 265.692,94.041 265.297 C 93.965 264.902,93.905 265.301,93.907 266.185 M168.780 266.827 C 168.782 268.064,168.840 268.531,168.909 267.864 C 168.979 267.198,168.978 266.186,168.907 265.615 C 168.836 265.045,168.779 265.590,168.780 266.827 M94.224 271.165 C 94.224 271.960,94.287 272.285,94.363 271.888 C 94.440 271.490,94.440 270.839,94.363 270.442 C 94.287 270.044,94.224 270.369,94.224 271.165 M168.441 273.735 C 168.441 274.530,168.504 274.855,168.580 274.458 C 168.657 274.060,168.657 273.410,168.580 273.012 C 168.504 272.614,168.441 272.940,168.441 273.735 M322.645 273.414 C 322.645 274.032,322.711 274.285,322.792 273.976 C 322.873 273.667,322.873 273.161,322.792 272.851 C 322.711 272.542,322.645 272.795,322.645 273.414 M235.739 276.224 L 284.972 276.307 285.062 287.471 L 285.153 298.635 285.147 287.390 L 285.141 276.145 235.823 276.143 L 186.506 276.141 235.739 276.224 M186.490 287.711 C 186.490 293.896,186.533 296.380,186.586 293.232 C 186.639 290.084,186.638 285.024,186.586 281.987 C 186.533 278.951,186.490 281.526,186.490 287.711 M168.428 279.197 C 168.428 279.815,168.494 280.068,168.575 279.759 C 168.656 279.450,168.656 278.944,168.575 278.635 C 168.494 278.325,168.428 278.578,168.428 279.197 M323.287 284.337 C 323.287 284.956,323.354 285.209,323.434 284.900 C 323.515 284.590,323.515 284.084,323.434 283.775 C 323.354 283.466,323.287 283.719,323.287 284.337 M169.077 287.390 C 169.081 288.096,169.146 288.348,169.223 287.948 C 169.300 287.548,169.297 286.970,169.217 286.663 C 169.136 286.356,169.073 286.683,169.077 287.390 M169.398 291.245 C 169.402 291.952,169.468 292.203,169.545 291.803 C 169.621 291.404,169.618 290.826,169.538 290.518 C 169.458 290.211,169.395 290.538,169.398 291.245 M322.645 292.048 C 322.645 292.667,322.711 292.920,322.792 292.610 C 322.873 292.301,322.873 291.795,322.792 291.486 C 322.711 291.177,322.645 291.430,322.645 292.048 M321.681 303.936 C 321.681 304.554,321.747 304.807,321.828 304.498 C 321.909 304.189,321.909 303.683,321.828 303.373 C 321.747 303.064,321.681 303.317,321.681 303.936 M285.056 317.188 L 284.980 328.351 235.743 328.434 L 186.506 328.516 235.753 328.595 C 275.051 328.659,285.031 328.593,285.155 328.271 C 285.240 328.049,285.270 322.953,285.221 316.946 L 285.132 306.024 285.056 317.188 M321.360 307.470 C 321.360 308.088,321.426 308.341,321.507 308.032 C 321.587 307.723,321.587 307.217,321.507 306.908 C 321.426 306.598,321.360 306.851,321.360 307.470 M186.488 317.108 C 186.488 322.498,186.532 324.703,186.586 322.008 C 186.639 319.313,186.639 314.904,186.586 312.209 C 186.532 309.514,186.488 311.719,186.488 317.108 M314.859 331.727 C 313.543 333.052,312.538 334.137,312.627 334.137 C 312.715 334.137,313.864 333.052,315.181 331.727 C 316.497 330.402,317.502 329.317,317.414 329.317 C 317.325 329.317,316.176 330.402,314.859 331.727 M212.771 335.663 C 225.627 335.709,246.663 335.709,259.518 335.663 C 272.373 335.616,261.855 335.578,236.145 335.578 C 210.434 335.578,199.916 335.616,212.771 335.663 M285.125 346.988 C 285.125 353.261,285.168 355.827,285.220 352.691 C 285.273 349.554,285.273 344.422,285.220 341.285 C 285.168 338.149,285.125 340.715,285.125 346.988 M308.264 338.072 L 306.024 340.402 308.353 338.161 C 310.517 336.080,310.829 335.743,310.594 335.743 C 310.545 335.743,309.497 336.791,308.264 338.072 M176.781 337.028 C 176.781 337.647,176.847 337.900,176.928 337.590 C 177.009 337.281,177.009 336.775,176.928 336.466 C 176.847 336.157,176.781 336.410,176.781 337.028 M186.500 347.149 L 186.506 358.394 235.502 358.395 L 284.498 358.397 235.586 358.314 L 186.675 358.231 186.584 347.067 L 186.493 335.904 186.500 347.149 M177.745 346.988 C 177.745 347.606,177.811 347.859,177.892 347.550 C 177.973 347.241,177.973 346.735,177.892 346.426 C 177.811 346.116,177.745 346.369,177.745 346.988 M299.405 347.711 C 297.785 349.817,297.742 349.880,297.914 349.880 C 298.003 349.880,298.676 349.084,299.410 348.112 C 300.143 347.141,300.679 346.345,300.600 346.345 C 300.520 346.345,299.983 346.960,299.405 347.711 M294.618 354.056 C 294.241 354.586,294.004 355.020,294.093 355.020 C 294.181 355.020,294.562 354.586,294.940 354.056 C 295.317 353.526,295.554 353.092,295.465 353.092 C 295.377 353.092,294.996 353.526,294.618 354.056 M178.762 360.482 C 178.762 363.044,178.812 364.092,178.873 362.811 C 178.934 361.530,178.934 359.434,178.873 358.153 C 178.812 356.871,178.762 357.920,178.762 360.482 M358.715 361.642 L 357.430 362.792 358.795 361.770 C 359.970 360.892,360.394 360.468,360.080 360.487 C 360.036 360.489,359.422 361.009,358.715 361.642 M235.739 365.542 L 284.972 365.625 285.062 376.628 L 285.153 387.631 285.147 376.546 L 285.141 365.462 235.823 365.460 L 186.506 365.459 235.739 365.542 M186.488 376.225 C 186.488 381.614,186.532 383.819,186.586 381.124 C 186.639 378.430,186.639 374.020,186.586 371.325 C 186.532 368.631,186.488 370.835,186.488 376.225 M129.822 368.353 C 129.822 368.530,130.029 369.036,130.281 369.478 C 130.534 369.920,130.740 370.137,130.740 369.960 C 130.740 369.783,130.534 369.277,130.281 368.835 C 130.029 368.394,129.822 368.177,129.822 368.353 M348.916 369.196 C 347.796 370.177,347.796 370.179,348.826 369.494 C 349.395 369.115,349.945 368.668,350.049 368.499 C 350.359 367.998,350.102 368.156,348.916 369.196 M288.647 375.743 C 288.647 378.924,288.695 380.181,288.754 378.538 C 288.812 376.894,288.812 374.292,288.753 372.755 C 288.694 371.218,288.646 372.562,288.647 375.743 M132.071 373.494 C 132.071 373.671,132.278 374.177,132.530 374.618 C 132.783 375.060,132.989 375.277,132.989 375.100 C 132.989 374.924,132.783 374.418,132.530 373.976 C 132.278 373.534,132.071 373.317,132.071 373.494 M339.920 376.102 C 339.124 376.722,338.257 377.460,337.992 377.741 C 337.727 378.023,338.414 377.571,339.518 376.738 C 340.622 375.905,341.526 375.160,341.526 375.082 C 341.526 374.858,341.450 374.906,339.920 376.102 M142.148 391.888 C 142.667 392.462,143.318 392.920,143.594 392.906 C 144.027 392.885,144.030 392.857,143.614 392.706 C 143.349 392.609,142.699 392.151,142.169 391.687 L 141.205 390.843 142.148 391.888 " stroke="none" fill="#f9bc7a" fill-rule="evenodd"></path></g></svg>