<svg id="svg" version="1.1" xmlns="http://www.w3.org/2000/svg" xmlns:xlink="http://www.w3.org/1999/xlink" width="400" height="399.03614457831327" viewBox="0, 0, 400,399.03614457831327"><g id="svgg"><path id="path0" d="M192.450 4.526 C 186.846 5.009,182.926 5.520,181.409 5.966 C 180.549 6.219,179.525 6.426,179.133 6.426 C 178.741 6.426,178.312 6.534,178.180 6.666 C 178.047 6.799,177.264 7.076,176.439 7.282 C 175.615 7.488,174.072 7.894,173.012 8.183 C 171.952 8.473,170.578 8.823,169.960 8.960 C 169.341 9.098,167.968 9.611,166.908 10.099 C 165.847 10.587,164.474 11.200,163.855 11.461 C 159.709 13.209,154.425 15.786,152.771 16.867 C 151.888 17.444,149.226 19.172,146.856 20.708 C 144.486 22.243,141.667 24.329,140.591 25.344 C 139.515 26.358,137.287 28.326,135.640 29.718 C 133.994 31.109,131.642 33.486,130.415 34.999 C 129.188 36.513,127.454 38.618,126.561 39.679 C 124.083 42.623,121.446 46.277,121.446 46.766 C 121.446 46.833,120.456 48.462,119.246 50.385 C 118.037 52.308,116.581 54.879,116.011 56.098 C 115.442 57.316,114.841 58.564,114.677 58.871 C 114.512 59.178,114.378 59.579,114.378 59.761 C 114.378 59.944,113.957 60.994,113.444 62.095 C 111.534 66.189,110.067 70.689,108.916 75.984 C 108.503 77.884,107.954 79.974,107.440 81.606 C 107.190 82.402,106.985 84.232,106.986 85.675 C 106.987 87.117,106.771 89.430,106.506 90.815 C 105.677 95.149,106.173 107.570,107.370 112.450 C 107.565 113.245,107.827 114.618,107.952 115.502 C 108.077 116.386,108.336 117.759,108.528 118.554 C 108.721 119.349,109.116 121.084,109.406 122.410 C 109.697 123.735,110.064 125.108,110.222 125.462 C 110.898 126.978,112.450 131.262,112.450 131.613 C 112.450 131.824,112.655 132.405,112.906 132.906 C 113.157 133.406,113.606 134.466,113.903 135.261 C 114.200 136.056,114.551 136.924,114.683 137.189 C 115.180 138.192,117.387 142.250,118.526 144.257 C 119.178 145.406,119.993 146.920,120.338 147.622 C 120.682 148.325,121.289 149.263,121.687 149.707 C 122.084 150.152,122.410 150.625,122.410 150.759 C 122.410 150.893,122.891 151.545,123.479 152.208 C 124.068 152.871,124.994 154.064,125.537 154.859 C 126.081 155.655,126.798 156.594,127.132 156.948 C 127.465 157.301,128.196 158.259,128.757 159.077 C 130.969 162.305,141.307 171.539,146.336 174.779 C 146.747 175.044,148.074 175.971,149.285 176.839 C 150.495 177.707,154.522 179.915,158.233 181.746 C 161.944 183.577,165.231 185.216,165.538 185.389 C 165.845 185.561,166.382 185.703,166.732 185.703 C 167.082 185.703,167.843 185.906,168.423 186.154 C 170.656 187.110,177.914 189.333,179.598 189.576 C 180.570 189.717,182.522 189.991,183.936 190.185 C 185.349 190.379,186.940 190.714,187.470 190.931 C 188.860 191.500,210.464 191.489,212.068 190.919 C 212.697 190.695,214.505 190.376,216.084 190.209 C 219.218 189.878,221.806 189.398,222.811 188.963 C 223.165 188.810,224.321 188.430,225.382 188.119 C 226.442 187.809,227.743 187.411,228.273 187.236 C 228.803 187.060,229.743 186.803,230.361 186.663 C 232.035 186.284,233.364 185.754,237.269 183.904 C 239.213 182.984,242.032 181.664,243.534 180.970 C 245.036 180.277,247.250 179.034,248.454 178.208 C 249.658 177.382,250.722 176.707,250.817 176.707 C 250.913 176.707,251.540 176.273,252.209 175.743 C 252.878 175.213,253.529 174.779,253.655 174.779 C 253.780 174.779,254.431 174.345,255.100 173.815 C 255.770 173.285,256.417 172.851,256.538 172.851 C 257.308 172.851,268.866 162.043,270.453 159.839 C 271.090 158.956,272.124 157.649,272.753 156.936 C 275.881 153.385,277.216 151.492,280.321 146.200 C 284.091 139.776,284.780 138.439,286.115 134.940 C 286.419 134.145,286.853 133.060,287.080 132.530 C 287.307 132.000,287.879 130.554,288.350 129.317 C 288.822 128.080,289.413 126.593,289.664 126.013 C 289.915 125.433,290.120 124.525,290.120 123.995 C 290.120 123.465,290.337 122.513,290.602 121.878 C 290.867 121.244,291.084 120.304,291.084 119.790 C 291.084 119.276,291.301 118.336,291.566 117.701 C 291.831 117.067,292.048 116.122,292.048 115.602 C 292.048 115.082,292.228 114.341,292.449 113.955 C 292.669 113.569,292.951 111.590,293.076 109.558 C 293.201 107.526,293.423 104.005,293.569 101.733 C 293.971 95.507,293.298 84.304,292.424 82.672 C 292.217 82.286,292.048 81.405,292.048 80.715 C 292.048 80.024,291.833 78.750,291.570 77.882 C 291.307 77.015,291.090 75.967,291.088 75.553 C 291.084 74.831,289.398 69.438,288.858 68.423 C 288.714 68.152,288.488 67.429,288.357 66.817 C 288.226 66.204,288.010 65.558,287.878 65.382 C 287.745 65.205,287.559 64.699,287.465 64.257 C 287.045 62.287,286.681 61.456,284.013 56.386 C 282.897 54.265,281.503 51.609,280.915 50.484 C 279.882 48.505,277.492 44.944,275.502 42.418 C 274.972 41.746,273.818 40.203,272.938 38.991 C 270.216 35.244,262.719 27.832,258.396 24.614 C 250.679 18.871,249.701 18.204,246.557 16.531 C 241.122 13.639,236.027 11.153,235.020 10.900 C 234.490 10.767,233.261 10.344,232.289 9.960 C 231.317 9.576,230.088 9.148,229.558 9.009 C 229.028 8.870,227.799 8.442,226.827 8.056 C 225.855 7.671,224.337 7.214,223.454 7.040 C 220.162 6.392,216.646 5.760,214.702 5.468 C 213.599 5.302,212.442 5.036,212.131 4.876 C 211.392 4.497,195.973 4.223,192.450 4.526 M135.100 255.100 C 134.040 255.232,132.766 255.504,132.268 255.702 C 131.771 255.901,130.858 256.064,130.239 256.064 C 129.620 256.064,128.834 256.215,128.490 256.398 C 128.147 256.582,126.964 256.861,125.861 257.018 C 123.952 257.291,121.463 257.771,116.466 258.831 C 115.229 259.093,113.422 259.422,112.450 259.563 C 111.478 259.703,110.276 259.985,109.778 260.190 C 109.281 260.395,108.295 260.562,107.588 260.562 C 106.882 260.562,105.992 260.729,105.612 260.932 C 105.232 261.136,104.048 261.417,102.982 261.558 C 98.885 262.097,94.596 263.185,93.174 264.045 C 92.689 264.338,87.828 267.579,82.371 271.248 C 76.914 274.916,69.538 279.870,65.979 282.256 L 59.509 286.596 57.628 289.402 C 56.593 290.946,55.601 292.452,55.423 292.749 C 55.246 293.045,53.221 296.059,50.924 299.445 C 48.627 302.832,46.602 305.848,46.426 306.149 C 45.857 307.116,41.654 313.408,41.467 313.574 C 39.415 315.390,35.702 322.642,35.298 325.622 C 35.154 326.683,34.808 328.635,34.529 329.960 C 33.627 334.236,33.064 337.148,32.788 338.956 C 32.640 339.928,32.358 341.130,32.163 341.627 C 31.967 342.125,31.807 343.033,31.807 343.646 C 31.807 344.258,31.590 345.279,31.325 345.913 C 31.060 346.547,30.843 347.632,30.843 348.323 C 30.843 349.014,30.627 350.098,30.361 350.732 C 30.096 351.367,29.880 352.429,29.880 353.092 C 29.880 353.756,29.663 354.818,29.398 355.452 C 29.133 356.087,28.916 357.232,28.916 357.998 C 28.916 358.763,28.767 359.539,28.584 359.721 C 27.962 360.343,27.824 366.263,28.394 367.871 C 28.676 368.667,28.908 369.864,28.911 370.532 C 28.914 371.201,29.133 372.267,29.398 372.901 C 29.663 373.535,29.880 374.526,29.880 375.103 C 29.880 375.808,30.328 376.811,31.245 378.160 C 31.996 379.264,33.550 381.558,34.699 383.256 C 36.244 385.542,37.246 386.659,38.554 387.550 C 45.628 392.373,47.066 393.253,47.877 393.253 C 48.361 393.253,49.276 393.470,49.910 393.735 C 50.545 394.000,51.584 394.217,52.220 394.217 C 52.855 394.217,53.644 394.360,53.972 394.536 C 54.299 394.711,55.555 394.997,56.762 395.172 C 59.517 395.569,339.784 395.605,342.848 395.208 C 344.017 395.056,345.463 394.783,346.061 394.601 C 346.659 394.419,348.016 394.100,349.076 393.893 C 350.137 393.686,351.522 393.409,352.154 393.277 C 353.240 393.051,354.503 392.274,360.643 388.052 C 363.020 386.417,363.437 385.949,366.207 381.818 C 367.853 379.361,369.393 377.134,369.628 376.868 C 369.862 376.603,370.125 375.735,370.212 374.940 C 370.298 374.145,370.613 372.337,370.910 370.924 C 372.252 364.552,372.253 363.892,370.937 357.590 C 370.661 356.265,370.308 354.299,370.154 353.221 C 370.000 352.143,369.712 350.960,369.515 350.591 C 369.318 350.223,369.157 349.343,369.157 348.636 C 369.157 347.929,368.989 346.944,368.784 346.447 C 368.579 345.949,368.302 344.747,368.168 343.775 C 368.033 342.803,367.760 341.285,367.560 340.402 C 366.924 337.590,366.301 334.649,366.132 333.655 C 366.041 333.124,365.739 331.534,365.460 330.120 C 365.181 328.707,364.808 326.755,364.629 325.783 C 363.928 321.952,361.727 317.536,358.626 313.735 C 358.482 313.558,356.674 310.884,354.609 307.791 C 352.545 304.699,349.840 300.682,348.600 298.866 C 347.360 297.049,346.345 295.468,346.345 295.352 C 346.345 295.237,346.070 294.843,345.733 294.479 C 345.397 294.114,344.855 293.372,344.529 292.830 C 344.203 292.288,343.357 291.005,342.651 289.979 C 341.944 288.954,341.185 287.788,340.964 287.388 C 340.658 286.833,332.801 281.304,328.640 278.715 C 328.356 278.538,326.640 277.382,324.828 276.145 C 323.015 274.908,321.191 273.679,320.776 273.414 C 320.360 273.149,316.871 270.821,313.022 268.241 C 305.239 263.023,303.900 262.464,297.018 261.558 C 295.952 261.417,294.768 261.136,294.388 260.932 C 294.008 260.729,293.104 260.562,292.380 260.562 C 291.656 260.562,290.545 260.345,289.910 260.080 C 289.276 259.815,288.187 259.598,287.490 259.598 C 286.793 259.598,285.942 259.448,285.599 259.264 C 285.255 259.081,284.072 258.796,282.969 258.631 C 279.091 258.052,276.353 257.508,276.116 257.269 C 275.985 257.137,275.286 257.022,274.565 257.014 C 273.843 257.006,272.675 256.792,271.968 256.537 C 271.261 256.282,270.231 256.072,269.679 256.069 C 269.127 256.066,268.043 255.811,267.269 255.502 C 265.771 254.903,139.752 254.519,135.100 255.100 " stroke="none" fill="#fb7c04" fill-rule="evenodd"></path><path id="path1" d="M0.000 199.518 L 0.000 399.036 200.000 399.036 L 400.000 399.036 400.000 199.518 L 400.000 0.000 200.000 0.000 L 0.000 0.000 0.000 199.518 M211.888 3.857 C 213.363 4.239,217.682 5.050,220.695 5.510 C 222.557 5.794,230.788 8.392,236.145 10.386 C 237.293 10.813,239.534 11.848,241.124 12.685 C 251.061 17.915,250.097 17.318,257.598 22.900 C 266.861 29.794,277.351 41.848,282.343 51.334 C 286.450 59.140,287.488 61.362,288.528 64.578 C 288.899 65.727,289.326 66.956,289.477 67.309 C 290.225 69.064,291.693 74.022,292.139 76.305 C 292.415 77.719,292.814 79.743,293.024 80.803 C 293.234 81.863,293.520 83.454,293.659 84.337 C 293.798 85.221,294.088 86.954,294.302 88.188 C 295.052 92.499,294.407 109.083,293.297 114.056 C 293.119 114.851,292.852 116.080,292.704 116.787 C 292.555 117.494,292.199 119.084,291.913 120.321 C 291.627 121.558,291.257 123.248,291.090 124.077 C 290.678 126.123,285.592 138.865,284.244 141.229 C 280.232 148.261,277.724 152.256,275.953 154.439 C 274.833 155.819,272.873 158.249,271.597 159.839 C 268.122 164.169,255.645 175.422,254.317 175.422 C 254.241 175.422,252.713 176.434,250.924 177.671 C 249.134 178.908,247.582 179.920,247.475 179.920 C 247.367 179.920,247.051 180.110,246.772 180.342 C 246.493 180.574,245.181 181.249,243.855 181.842 C 242.530 182.436,239.855 183.666,237.912 184.577 C 233.500 186.644,232.335 187.102,229.719 187.798 C 228.570 188.104,227.052 188.548,226.345 188.784 C 222.496 190.072,219.287 190.871,216.860 191.148 C 215.362 191.318,212.546 191.717,210.602 192.034 C 206.030 192.780,193.454 192.731,188.663 191.949 C 186.946 191.669,184.530 191.303,183.293 191.135 C 182.056 190.968,180.625 190.689,180.113 190.516 C 179.600 190.343,178.774 190.201,178.276 190.201 C 177.778 190.201,176.896 190.003,176.316 189.761 C 174.694 189.085,173.125 188.557,171.888 188.273 C 170.650 187.989,169.081 187.462,167.459 186.785 C 166.879 186.543,166.156 186.344,165.853 186.342 C 162.271 186.322,142.474 173.941,136.148 167.764 C 134.398 166.056,132.132 163.863,131.113 162.892 C 130.093 161.920,128.255 159.823,127.028 158.233 C 125.802 156.643,124.403 154.835,123.919 154.217 C 120.754 150.166,120.081 149.082,115.642 140.884 C 113.347 136.644,113.307 136.550,111.137 130.442 C 110.917 129.823,110.545 128.862,110.309 128.305 C 110.073 127.748,109.880 127.070,109.880 126.798 C 109.880 126.526,109.758 126.228,109.609 126.136 C 109.307 125.949,108.580 123.229,107.796 119.357 C 106.822 114.543,106.280 111.970,105.970 110.683 C 105.455 108.540,105.235 92.026,105.687 89.455 C 105.903 88.230,106.202 85.783,106.353 84.016 C 106.603 81.079,107.005 78.961,107.633 77.269 C 107.765 76.916,108.260 75.036,108.734 73.092 C 110.076 67.592,110.191 67.163,110.479 66.575 C 110.910 65.695,111.603 64.093,113.746 59.021 C 114.851 56.407,116.367 53.298,117.115 52.114 C 117.864 50.929,119.642 48.080,121.067 45.783 C 123.644 41.629,130.519 33.222,133.884 30.112 C 139.666 24.767,150.234 16.707,151.461 16.707 C 151.530 16.707,152.576 16.057,153.785 15.262 C 154.995 14.467,156.082 13.816,156.202 13.816 C 156.428 13.815,160.402 12.078,161.317 11.580 C 161.599 11.426,163.117 10.770,164.690 10.122 C 166.263 9.474,167.688 8.811,167.855 8.649 C 168.023 8.486,168.452 8.353,168.809 8.353 C 169.165 8.353,170.040 8.151,170.752 7.904 C 171.465 7.656,172.988 7.205,174.137 6.901 C 176.202 6.355,177.908 5.885,180.402 5.175 C 181.108 4.973,182.916 4.666,184.418 4.491 C 185.920 4.316,188.450 3.962,190.040 3.704 C 193.375 3.163,209.650 3.277,211.888 3.857 M266.024 254.453 C 266.996 254.601,268.948 254.962,270.361 255.254 C 271.775 255.546,273.771 255.919,274.796 256.083 C 275.822 256.247,276.933 256.527,277.265 256.705 C 277.597 256.883,278.325 257.028,278.882 257.028 C 279.439 257.028,280.786 257.236,281.875 257.490 C 282.964 257.745,284.976 258.179,286.345 258.454 C 287.715 258.730,289.919 259.175,291.244 259.443 C 299.701 261.153,301.257 261.453,302.972 261.706 C 303.767 261.823,304.887 262.112,305.460 262.348 C 306.349 262.714,324.363 274.525,324.819 275.041 C 324.908 275.141,325.847 275.789,326.908 276.481 C 327.968 277.172,328.884 277.849,328.942 277.986 C 329.001 278.122,329.178 278.233,329.335 278.233 C 329.492 278.233,331.468 279.490,333.726 281.027 C 335.984 282.563,338.542 284.293,339.411 284.870 C 340.729 285.745,341.791 287.108,345.806 293.080 C 365.869 322.919,364.731 321.118,365.130 323.695 C 365.240 324.402,365.529 325.920,365.774 327.068 C 366.018 328.217,366.370 329.952,366.556 330.924 C 367.216 334.376,368.224 339.457,368.501 340.723 C 368.656 341.430,369.018 343.237,369.306 344.739 C 369.594 346.241,370.033 348.410,370.281 349.558 C 370.529 350.707,370.805 352.080,370.894 352.610 C 371.379 355.493,371.827 357.603,372.259 359.036 C 373.111 361.871,373.178 365.234,372.444 368.407 C 372.084 369.968,371.522 372.529,371.195 374.099 C 370.627 376.832,370.458 377.164,367.187 381.966 C 363.484 387.403,364.109 386.820,356.407 392.021 C 354.231 393.489,350.863 394.846,349.369 394.855 C 348.999 394.858,347.554 395.185,346.156 395.582 L 343.614 396.305 201.767 396.391 C 52.449 396.482,55.164 396.504,52.686 395.178 C 52.359 395.003,51.683 394.856,51.186 394.851 C 48.837 394.829,46.070 393.707,42.570 391.358 C 36.237 387.107,36.290 387.157,32.896 382.168 C 28.922 376.326,28.973 376.442,28.263 371.727 C 28.116 370.755,27.760 369.165,27.470 368.193 C 26.845 366.092,26.958 361.999,27.723 359.036 C 27.997 357.976,28.458 355.880,28.748 354.378 C 29.037 352.876,29.482 350.635,29.735 349.398 C 29.988 348.161,30.504 345.558,30.881 343.614 C 31.259 341.671,31.774 339.068,32.025 337.831 C 32.277 336.594,32.555 335.149,32.643 334.618 C 32.835 333.458,33.498 330.299,34.194 327.229 C 34.475 325.992,34.703 324.601,34.701 324.137 C 34.697 322.637,35.585 320.721,37.845 317.354 C 41.350 312.134,50.394 298.684,50.756 298.153 C 50.937 297.888,52.856 295.008,55.020 291.753 C 58.851 285.994,59.020 285.794,61.365 284.298 C 62.691 283.452,64.064 282.548,64.418 282.288 C 66.266 280.931,71.400 277.590,71.639 277.590 C 71.790 277.590,71.963 277.467,72.021 277.317 C 72.080 277.167,73.502 276.138,75.181 275.031 C 76.859 273.924,78.667 272.714,79.197 272.343 C 88.642 265.718,94.936 261.868,96.340 261.854 C 96.756 261.851,98.130 261.624,99.392 261.352 C 100.654 261.079,102.735 260.645,104.016 260.388 C 105.297 260.130,107.394 259.709,108.675 259.452 C 114.076 258.369,116.260 257.924,118.233 257.504 C 119.382 257.259,120.755 256.992,121.285 256.910 C 121.815 256.829,123.406 256.521,124.819 256.227 C 126.233 255.933,128.474 255.479,129.799 255.218 C 131.124 254.957,132.932 254.579,133.815 254.380 C 135.741 253.944,261.748 253.495,263.293 253.919 C 263.823 254.064,265.052 254.305,266.024 254.453 " stroke="none" fill="#fcfbfb" fill-rule="evenodd"></path><path id="path2" d="M194.957 3.476 C 194.658 3.597,196.248 3.715,198.491 3.740 C 201.537 3.774,202.163 3.720,200.964 3.527 C 198.988 3.210,195.692 3.182,194.957 3.476 M191.245 4.086 C 191.731 4.159,192.526 4.159,193.012 4.086 C 193.498 4.012,193.100 3.952,192.129 3.952 C 191.157 3.952,190.759 4.012,191.245 4.086 M205.221 4.093 C 206.325 4.156,208.133 4.156,209.237 4.093 C 210.341 4.031,209.438 3.979,207.229 3.979 C 205.020 3.979,204.116 4.031,205.221 4.093 M212.209 4.498 C 212.562 4.650,213.068 4.774,213.333 4.774 C 213.637 4.774,213.578 4.672,213.173 4.498 C 212.819 4.346,212.313 4.222,212.048 4.222 C 211.744 4.222,211.804 4.324,212.209 4.498 M183.379 5.052 C 183.957 5.124,184.824 5.122,185.307 5.049 C 185.790 4.976,185.317 4.917,184.257 4.919 C 183.197 4.921,182.802 4.981,183.379 5.052 M214.378 5.041 C 214.687 5.122,215.193 5.122,215.502 5.041 C 215.811 4.960,215.558 4.894,214.940 4.894 C 214.321 4.894,214.068 4.960,214.378 5.041 M177.510 6.307 C 176.494 6.803,176.675 6.782,179.116 6.113 C 179.994 5.873,180.009 5.848,179.277 5.842 C 178.835 5.838,178.040 6.047,177.510 6.307 M220.004 6.010 C 220.403 6.087,220.982 6.084,221.289 6.004 C 221.596 5.923,221.269 5.861,220.562 5.864 C 219.855 5.868,219.604 5.934,220.004 6.010 M164.900 10.291 C 164.149 10.624,163.534 10.968,163.534 11.055 C 163.534 11.265,165.861 10.301,166.249 9.930 C 166.660 9.538,166.495 9.582,164.900 10.291 M157.430 13.655 C 156.988 13.907,156.771 14.114,156.948 14.114 C 157.124 14.114,157.631 13.907,158.072 13.655 C 158.514 13.402,158.731 13.195,158.554 13.195 C 158.378 13.195,157.871 13.402,157.430 13.655 M243.855 14.602 C 243.855 14.690,244.289 14.987,244.819 15.261 C 245.349 15.535,245.783 15.687,245.783 15.599 C 245.783 15.510,245.349 15.214,244.819 14.940 C 244.289 14.666,243.855 14.514,243.855 14.602 M256.359 22.607 C 256.787 23.134,257.992 23.930,257.992 23.686 C 257.992 23.625,257.522 23.231,256.948 22.810 C 256.302 22.337,256.077 22.260,256.359 22.607 M141.827 23.534 L 140.884 24.578 141.928 23.635 C 142.901 22.755,143.120 22.490,142.871 22.490 C 142.816 22.490,142.346 22.960,141.827 23.534 M259.920 25.089 C 260.008 25.167,262.827 27.900,266.185 31.162 L 272.289 37.093 266.988 31.698 C 264.072 28.730,261.253 25.997,260.723 25.624 C 260.193 25.252,259.831 25.011,259.920 25.089 M138.293 26.747 L 137.349 27.791 138.394 26.848 C 139.367 25.968,139.585 25.703,139.337 25.703 C 139.282 25.703,138.812 26.173,138.293 26.747 M136.044 28.675 L 135.100 29.719 136.145 28.775 C 136.719 28.256,137.189 27.786,137.189 27.731 C 137.189 27.483,136.924 27.701,136.044 28.675 M132.681 31.727 L 130.602 33.896 132.771 31.817 C 133.964 30.673,134.940 29.697,134.940 29.648 C 134.940 29.411,134.613 29.713,132.681 31.727 M128.333 36.707 L 127.390 37.751 128.434 36.807 C 129.407 35.928,129.626 35.663,129.377 35.663 C 129.322 35.663,128.852 36.133,128.333 36.707 M274.692 40.793 C 275.066 41.318,275.535 41.849,275.736 41.973 C 275.936 42.097,275.696 41.668,275.201 41.019 C 274.127 39.611,273.722 39.432,274.692 40.793 M123.650 42.329 C 122.726 43.445,122.334 44.016,122.493 44.016 C 122.582 44.016,123.041 43.510,123.512 42.892 C 124.388 41.744,124.494 41.311,123.650 42.329 M276.627 43.373 C 277.004 43.904,277.385 44.337,277.473 44.337 C 277.562 44.337,277.325 43.904,276.948 43.373 C 276.570 42.843,276.189 42.410,276.101 42.410 C 276.012 42.410,276.249 42.843,276.627 43.373 M279.197 46.908 C 279.574 47.438,279.955 47.871,280.044 47.871 C 280.132 47.871,279.896 47.438,279.518 46.908 C 279.141 46.378,278.759 45.944,278.671 45.944 C 278.583 45.944,278.819 46.378,279.197 46.908 M114.430 58.006 C 113.891 59.187,113.994 59.439,114.576 58.365 C 114.848 57.864,115.010 57.393,114.937 57.320 C 114.863 57.246,114.635 57.555,114.430 58.006 M290.466 71.968 C 290.465 72.431,291.371 74.270,291.394 73.852 C 291.400 73.740,291.194 73.162,290.936 72.567 C 290.678 71.972,290.466 71.703,290.466 71.968 M291.480 75.502 C 291.480 76.120,291.546 76.373,291.627 76.064 C 291.708 75.755,291.708 75.249,291.627 74.940 C 291.546 74.631,291.480 74.884,291.480 75.502 M108.211 75.984 C 108.101 76.514,107.918 77.309,107.804 77.751 C 107.678 78.235,107.799 78.113,108.108 77.441 C 108.390 76.829,108.574 76.034,108.515 75.674 C 108.434 75.173,108.363 75.245,108.211 75.984 M106.426 87.229 C 106.430 87.936,106.496 88.187,106.573 87.787 C 106.649 87.388,106.647 86.809,106.566 86.502 C 106.486 86.195,106.423 86.522,106.426 87.229 M294.093 91.406 C 294.094 93.173,294.148 93.855,294.213 92.921 C 294.278 91.987,294.278 90.542,294.212 89.708 C 294.146 88.875,294.092 89.639,294.093 91.406 M105.777 91.566 C 105.777 92.185,105.843 92.438,105.924 92.129 C 106.005 91.819,106.005 91.313,105.924 91.004 C 105.843 90.695,105.777 90.948,105.777 91.566 M294.086 102.008 C 294.087 103.422,294.144 103.960,294.212 103.204 C 294.279 102.449,294.278 101.292,294.209 100.634 C 294.140 99.976,294.085 100.594,294.086 102.008 M105.802 103.614 C 105.804 104.675,105.864 105.070,105.936 104.492 C 106.007 103.915,106.006 103.047,105.932 102.565 C 105.859 102.082,105.801 102.554,105.802 103.614 M106.116 107.791 C 106.118 108.675,106.181 108.998,106.255 108.510 C 106.328 108.021,106.327 107.298,106.250 106.903 C 106.174 106.508,106.114 106.908,106.116 107.791 M293.421 109.237 C 293.421 110.032,293.483 110.357,293.560 109.960 C 293.637 109.562,293.637 108.912,293.560 108.514 C 293.483 108.116,293.421 108.442,293.421 109.237 M107.820 117.912 C 108.293 120.524,108.519 121.318,108.553 120.482 C 108.570 120.040,108.367 119.028,108.101 118.233 C 107.705 117.051,107.654 116.992,107.820 117.912 M290.815 122.365 C 290.610 123.049,290.451 123.881,290.463 124.214 C 290.475 124.547,290.694 124.039,290.951 123.085 C 291.487 121.091,291.374 120.496,290.815 122.365 M285.353 137.684 C 284.815 138.866,284.918 139.118,285.500 138.044 C 285.772 137.542,285.934 137.072,285.860 136.998 C 285.787 136.925,285.559 137.234,285.353 137.684 M115.663 140.402 C 116.023 141.108,116.391 141.687,116.479 141.687 C 116.567 141.687,116.345 141.108,115.984 140.402 C 115.623 139.695,115.256 139.116,115.168 139.116 C 115.079 139.116,115.302 139.695,115.663 140.402 M281.285 145.221 C 281.011 145.751,280.859 146.185,280.947 146.185 C 281.036 146.185,281.332 145.751,281.606 145.221 C 281.881 144.691,282.033 144.257,281.944 144.257 C 281.856 144.257,281.559 144.691,281.285 145.221 M118.715 145.863 C 118.989 146.394,119.286 146.827,119.374 146.827 C 119.462 146.827,119.310 146.394,119.036 145.863 C 118.762 145.333,118.465 144.900,118.377 144.900 C 118.289 144.900,118.441 145.333,118.715 145.863 M121.491 150.537 C 122.067 151.340,122.755 152.171,123.019 152.384 C 123.283 152.597,122.875 151.940,122.112 150.924 C 120.472 148.737,119.978 148.430,121.491 150.537 M124.951 155.127 C 125.124 155.451,125.519 155.920,125.827 156.171 C 126.174 156.453,126.096 156.228,125.623 155.582 C 124.780 154.430,124.463 154.215,124.951 155.127 M127.369 158.178 C 127.864 158.827,128.334 159.357,128.413 159.357 C 128.637 159.357,127.246 157.478,126.834 157.224 C 126.634 157.100,126.875 157.529,127.369 158.178 M272.250 158.153 C 271.301 159.235,270.747 160.000,270.911 160.000 C 270.991 160.000,271.522 159.422,272.090 158.715 C 273.193 157.343,273.304 156.949,272.250 158.153 M269.850 161.205 C 268.474 162.740,267.847 163.534,268.012 163.534 C 268.100 163.534,268.782 162.811,269.527 161.928 C 270.960 160.229,271.192 159.708,269.850 161.205 M133.815 165.141 C 135.930 167.261,137.733 168.996,137.821 168.996 C 137.910 168.996,136.252 167.261,134.137 165.141 C 132.022 163.020,130.219 161.285,130.131 161.285 C 130.042 161.285,131.700 163.020,133.815 165.141 M265.692 165.382 L 263.936 167.229 265.783 165.473 C 266.799 164.507,267.631 163.676,267.631 163.625 C 267.631 163.387,267.323 163.665,265.692 165.382 M261.988 168.755 L 261.044 169.799 262.088 168.856 C 263.062 167.976,263.280 167.711,263.032 167.711 C 262.977 167.711,262.507 168.181,261.988 168.755 M138.474 169.428 C 138.474 169.689,139.741 170.856,140.884 171.646 C 141.991 172.412,141.760 172.148,139.839 170.450 C 139.088 169.786,138.474 169.326,138.474 169.428 M259.423 171.004 L 258.153 172.369 259.518 171.099 C 260.788 169.918,261.031 169.639,260.788 169.639 C 260.736 169.639,260.121 170.253,259.423 171.004 M256.867 173.052 C 256.290 173.544,256.172 173.739,256.573 173.540 C 257.162 173.248,258.266 172.190,257.951 172.220 C 257.885 172.227,257.398 172.601,256.867 173.052 M147.149 176.008 C 147.767 176.544,148.707 177.231,149.237 177.533 C 150.575 178.297,149.898 177.694,147.791 176.247 C 146.366 175.268,146.242 175.222,147.149 176.008 M244.177 181.044 C 243.735 181.297,243.518 181.503,243.695 181.503 C 243.871 181.503,244.378 181.297,244.819 181.044 C 245.261 180.792,245.478 180.585,245.301 180.585 C 245.124 180.585,244.618 180.792,244.177 181.044 M182.735 190.749 C 183.134 190.826,183.713 190.823,184.020 190.743 C 184.327 190.662,184.000 190.600,183.293 190.603 C 182.586 190.607,182.335 190.672,182.735 190.749 M216.466 190.749 C 216.863 190.825,217.514 190.825,217.912 190.749 C 218.309 190.672,217.984 190.610,217.189 190.610 C 216.394 190.610,216.068 190.672,216.466 190.749 M186.185 191.165 C 186.538 191.317,187.044 191.441,187.309 191.441 C 187.613 191.441,187.554 191.339,187.149 191.165 C 186.795 191.013,186.289 190.889,186.024 190.889 C 185.720 190.889,185.780 190.991,186.185 191.165 M188.514 191.713 C 188.912 191.789,189.562 191.789,189.960 191.713 C 190.357 191.636,190.032 191.573,189.237 191.573 C 188.442 191.573,188.116 191.636,188.514 191.713 M208.916 191.716 C 209.402 191.790,210.197 191.790,210.683 191.716 C 211.169 191.642,210.771 191.582,209.799 191.582 C 208.827 191.582,208.430 191.642,208.916 191.716 M192.691 192.044 C 193.618 192.109,195.137 192.109,196.064 192.044 C 196.992 191.979,196.233 191.926,194.378 191.926 C 192.522 191.926,191.763 191.979,192.691 192.044 M202.178 192.365 C 203.023 192.431,204.324 192.431,205.070 192.363 C 205.816 192.296,205.124 192.242,203.534 192.243 C 201.944 192.244,201.334 192.299,202.178 192.365 M134.542 254.685 C 134.942 254.762,135.520 254.759,135.827 254.679 C 136.134 254.598,135.807 254.535,135.100 254.539 C 134.394 254.542,134.142 254.608,134.542 254.685 M264.177 254.679 C 264.486 254.760,264.992 254.760,265.301 254.679 C 265.610 254.598,265.357 254.532,264.739 254.532 C 264.120 254.532,263.867 254.598,264.177 254.679 M129.723 255.649 C 130.122 255.726,130.701 255.723,131.008 255.642 C 131.315 255.562,130.988 255.499,130.281 255.503 C 129.574 255.506,129.323 255.572,129.723 255.649 M269.160 255.649 C 269.560 255.726,270.138 255.723,270.446 255.642 C 270.753 255.562,270.426 255.499,269.719 255.503 C 269.012 255.506,268.761 255.572,269.160 255.649 M124.582 256.613 C 124.982 256.690,125.560 256.687,125.867 256.606 C 126.174 256.526,125.847 256.463,125.141 256.467 C 124.434 256.470,124.182 256.536,124.582 256.613 M274.301 256.613 C 274.701 256.690,275.279 256.687,275.586 256.606 C 275.893 256.526,275.566 256.463,274.859 256.467 C 274.153 256.470,273.901 256.536,274.301 256.613 M119.920 257.571 C 120.229 257.652,120.735 257.652,121.044 257.571 C 121.353 257.490,121.100 257.424,120.482 257.424 C 119.863 257.424,119.610 257.490,119.920 257.571 M117.751 257.992 C 117.346 258.166,117.287 258.268,117.590 258.268 C 117.855 258.268,118.361 258.144,118.715 257.992 C 119.120 257.818,119.179 257.716,118.876 257.716 C 118.610 257.716,118.104 257.840,117.751 257.992 M290.763 259.915 C 291.028 260.089,291.594 260.233,292.021 260.236 C 293.053 260.243,292.791 260.060,291.406 259.806 C 290.614 259.660,290.424 259.693,290.763 259.915 M104.578 260.562 C 104.173 260.736,104.114 260.838,104.418 260.838 C 104.683 260.838,105.189 260.714,105.542 260.562 C 105.947 260.388,106.007 260.286,105.703 260.286 C 105.438 260.286,104.932 260.410,104.578 260.562 M102.249 261.105 C 102.558 261.186,103.064 261.186,103.373 261.105 C 103.683 261.024,103.430 260.958,102.811 260.958 C 102.193 260.958,101.940 261.024,102.249 261.105 M99.759 261.526 C 99.354 261.700,99.295 261.802,99.598 261.802 C 99.863 261.802,100.369 261.678,100.723 261.526 C 101.128 261.352,101.187 261.250,100.884 261.250 C 100.618 261.250,100.112 261.374,99.759 261.526 M300.241 261.845 C 300.855 262.111,303.224 262.293,302.945 262.053 C 302.871 261.990,302.088 261.854,301.205 261.752 C 300.171 261.633,299.828 261.666,300.241 261.845 M88.419 266.483 C 86.926 267.538,86.716 267.840,87.977 267.118 C 88.564 266.782,89.197 266.325,89.381 266.104 C 89.856 265.537,89.633 265.624,88.419 266.483 M313.253 267.747 C 313.253 267.836,313.687 268.217,314.217 268.594 C 314.747 268.972,315.181 269.208,315.181 269.120 C 315.181 269.032,314.747 268.651,314.217 268.273 C 313.687 267.896,313.253 267.659,313.253 267.747 M82.253 270.554 C 81.460 271.075,80.593 271.726,80.325 272.002 C 80.058 272.278,80.743 271.909,81.847 271.181 C 82.952 270.454,83.855 269.791,83.855 269.709 C 83.855 269.501,83.869 269.494,82.253 270.554 M325.281 275.951 C 325.379 276.110,325.975 276.544,326.605 276.916 C 327.234 277.288,327.669 277.461,327.571 277.302 C 327.472 277.143,326.876 276.709,326.247 276.337 C 325.617 275.966,325.182 275.792,325.281 275.951 M330.924 279.667 C 330.924 279.800,333.310 281.451,334.137 281.889 C 334.402 282.029,334.257 281.842,333.815 281.474 C 332.902 280.711,330.924 279.475,330.924 279.667 M66.951 280.858 C 65.646 281.841,65.271 282.227,66.024 281.816 C 66.860 281.358,68.331 280.177,68.075 280.168 C 67.967 280.164,67.461 280.475,66.951 280.858 M341.428 287.575 C 341.747 288.119,342.213 288.733,342.464 288.940 C 342.715 289.148,342.515 288.703,342.020 287.952 C 340.980 286.375,340.570 286.114,341.428 287.575 M343.104 290.067 C 343.277 290.390,343.671 290.860,343.980 291.111 C 344.327 291.393,344.249 291.168,343.776 290.522 C 342.932 289.369,342.616 289.155,343.104 290.067 M54.446 293.092 C 53.951 293.843,53.751 294.288,54.002 294.081 C 54.484 293.682,55.714 291.727,55.483 291.727 C 55.408 291.727,54.941 292.341,54.446 293.092 M50.442 299.116 C 50.064 299.647,49.828 300.080,49.916 300.080 C 50.004 300.080,50.386 299.647,50.763 299.116 C 51.141 298.586,51.377 298.153,51.289 298.153 C 51.200 298.153,50.819 298.586,50.442 299.116 M43.051 310.120 C 42.578 310.767,42.501 310.991,42.848 310.709 C 43.375 310.281,44.171 309.076,43.927 309.076 C 43.866 309.076,43.472 309.546,43.051 310.120 M40.556 313.815 C 39.725 315.017,39.454 315.502,39.617 315.502 C 39.692 315.502,40.137 314.924,40.604 314.217 C 41.555 312.780,41.514 312.433,40.556 313.815 M359.741 314.884 C 360.060 315.428,360.527 316.042,360.778 316.250 C 361.028 316.457,360.829 316.012,360.333 315.261 C 359.293 313.684,358.883 313.423,359.741 314.884 M34.257 327.563 C 34.146 327.850,34.071 328.398,34.089 328.781 C 34.110 329.222,34.219 329.065,34.386 328.356 C 34.666 327.162,34.590 326.693,34.257 327.563 M365.704 329.157 C 365.707 329.863,365.773 330.115,365.850 329.715 C 365.927 329.315,365.924 328.737,365.843 328.430 C 365.763 328.123,365.700 328.450,365.704 329.157 M365.989 330.924 C 365.989 331.189,366.113 331.695,366.265 332.048 C 366.439 332.453,366.541 332.513,366.541 332.209 C 366.541 331.944,366.417 331.438,366.265 331.084 C 366.091 330.679,365.989 330.620,365.989 330.924 M33.167 333.815 C 33.167 334.434,33.233 334.687,33.314 334.378 C 33.395 334.068,33.395 333.562,33.314 333.253 C 33.233 332.944,33.167 333.197,33.167 333.815 M366.661 333.815 C 366.661 334.434,366.727 334.687,366.808 334.378 C 366.889 334.068,366.889 333.562,366.808 333.253 C 366.727 332.944,366.661 333.197,366.661 333.815 M366.953 335.743 C 366.953 336.008,367.077 336.514,367.229 336.867 C 367.403 337.272,367.505 337.332,367.505 337.028 C 367.505 336.763,367.381 336.257,367.229 335.904 C 367.055 335.499,366.953 335.439,366.953 335.743 M32.203 338.635 C 32.203 339.253,32.269 339.506,32.350 339.197 C 32.431 338.888,32.431 338.382,32.350 338.072 C 32.269 337.763,32.203 338.016,32.203 338.635 M31.239 343.454 C 31.239 344.072,31.305 344.325,31.386 344.016 C 31.467 343.707,31.467 343.201,31.386 342.892 C 31.305 342.582,31.239 342.835,31.239 343.454 M368.589 343.775 C 368.589 344.394,368.655 344.647,368.736 344.337 C 368.816 344.028,368.816 343.522,368.736 343.213 C 368.655 342.904,368.589 343.157,368.589 343.775 M30.132 348.755 C 30.012 349.462,29.830 350.402,29.729 350.843 C 29.628 351.285,29.771 351.068,30.046 350.361 C 30.321 349.655,30.503 348.715,30.449 348.273 C 30.374 347.658,30.300 347.770,30.132 348.755 M29.274 353.468 C 29.254 353.762,29.154 354.269,29.052 354.592 C 28.877 355.150,28.886 355.151,29.234 354.608 C 29.436 354.294,29.536 353.788,29.456 353.484 C 29.326 352.986,29.308 352.985,29.274 353.468 M372.129 361.285 C 372.133 361.992,372.199 362.243,372.275 361.844 C 372.352 361.444,372.349 360.866,372.269 360.559 C 372.189 360.251,372.126 360.578,372.129 361.285 M27.178 363.489 C 27.067 364.083,27.091 364.882,27.233 365.265 C 27.418 365.765,27.498 365.461,27.516 364.185 C 27.546 362.140,27.463 361.970,27.178 363.489 M372.486 364.104 C 372.519 365.253,372.600 365.482,372.807 365.016 C 372.970 364.652,372.952 364.017,372.764 363.482 C 372.472 362.654,372.447 362.712,372.486 364.104 M372.123 367.229 C 372.123 367.847,372.189 368.100,372.270 367.791 C 372.350 367.482,372.350 366.976,372.270 366.667 C 372.189 366.357,372.123 366.610,372.123 367.229 M27.635 367.738 C 27.638 368.076,27.787 368.570,27.966 368.835 C 28.205 369.187,28.234 369.057,28.077 368.353 C 27.813 367.172,27.629 366.916,27.635 367.738 M371.122 372.102 C 371.101 372.397,371.001 372.903,370.899 373.227 C 370.724 373.785,370.734 373.785,371.082 373.243 C 371.284 372.928,371.384 372.422,371.304 372.118 C 371.173 371.621,371.155 371.619,371.122 372.102 M29.112 374.137 C 29.376 375.318,29.560 375.574,29.553 374.752 C 29.551 374.414,29.402 373.920,29.222 373.655 C 28.984 373.303,28.954 373.433,29.112 374.137 M369.038 378.233 L 368.460 379.277 369.123 378.474 C 369.710 377.762,369.971 377.189,369.708 377.189 C 369.658 377.189,369.356 377.659,369.038 378.233 M32.980 381.693 C 33.499 382.621,35.106 384.900,35.242 384.900 C 35.460 384.900,34.398 383.218,33.517 382.169 C 33.071 381.639,32.830 381.424,32.980 381.693 M365.622 383.293 C 365.245 383.823,365.008 384.257,365.097 384.257 C 365.185 384.257,365.566 383.823,365.944 383.293 C 366.321 382.763,366.558 382.329,366.469 382.329 C 366.381 382.329,366.000 382.763,365.622 383.293 M359.716 389.074 C 357.437 390.800,357.870 390.754,360.289 389.014 C 360.978 388.518,361.412 388.116,361.253 388.121 C 361.094 388.126,360.402 388.555,359.716 389.074 M42.874 390.976 C 43.116 391.367,45.944 393.359,45.944 393.138 C 45.944 393.058,45.206 392.462,44.304 391.814 C 43.402 391.166,42.759 390.789,42.874 390.976 M355.835 391.684 C 354.147 392.952,353.989 393.163,355.283 392.419 C 356.194 391.896,357.628 390.639,357.239 390.705 C 357.167 390.717,356.535 391.157,355.835 391.684 M349.880 394.217 C 349.218 394.429,349.190 394.479,349.719 394.501 C 350.072 394.516,350.578 394.388,350.843 394.217 C 351.406 393.853,351.015 393.853,349.880 394.217 M54.699 395.402 C 55.008 395.483,55.514 395.483,55.823 395.402 C 56.133 395.321,55.880 395.255,55.261 395.255 C 54.643 395.255,54.390 395.321,54.699 395.402 M57.189 395.823 C 57.454 395.995,57.888 396.135,58.153 396.135 C 58.581 396.135,58.581 396.100,58.153 395.823 C 57.888 395.652,57.454 395.512,57.189 395.512 C 56.760 395.512,56.760 395.546,57.189 395.823 M341.847 395.823 C 341.419 396.100,341.419 396.135,341.847 396.135 C 342.112 396.135,342.546 395.995,342.811 395.823 C 343.240 395.546,343.240 395.512,342.811 395.512 C 342.546 395.512,342.112 395.652,341.847 395.823 " stroke="none" fill="#fbcb97" fill-rule="evenodd"></path><path id="path3" d="M190.040 3.733 C 188.450 3.981,186.209 4.308,185.060 4.459 C 183.177 4.708,183.114 4.738,184.418 4.771 C 185.213 4.790,187.020 4.598,188.434 4.342 C 189.847 4.087,191.727 3.863,192.610 3.844 C 193.494 3.825,194.506 3.686,194.859 3.534 C 195.859 3.105,193.436 3.205,190.040 3.733 M201.285 3.525 C 202.169 3.676,204.606 3.812,206.701 3.827 C 208.873 3.843,211.497 4.073,212.805 4.361 C 214.068 4.640,216.040 5.074,217.189 5.326 C 218.337 5.578,219.783 5.765,220.402 5.741 C 221.468 5.700,221.452 5.685,220.080 5.451 C 217.147 4.951,213.137 4.181,211.925 3.886 C 211.238 3.719,208.202 3.508,205.178 3.416 C 201.641 3.310,200.252 3.348,201.285 3.525 M180.793 5.017 C 180.684 5.126,180.118 5.328,179.534 5.466 C 178.647 5.676,178.605 5.722,179.277 5.745 C 179.719 5.761,180.659 5.565,181.365 5.310 C 182.441 4.923,182.515 4.845,181.821 4.833 C 181.364 4.826,180.902 4.908,180.793 5.017 M175.743 6.457 C 174.594 6.789,173.017 7.213,172.238 7.399 C 171.458 7.585,170.591 7.885,170.310 8.067 C 169.752 8.428,169.896 8.400,173.173 7.516 C 174.145 7.254,175.506 6.895,176.197 6.719 C 177.417 6.408,178.802 5.777,178.153 5.828 C 177.976 5.842,176.892 6.125,175.743 6.457 M222.811 6.274 C 223.518 6.507,224.386 6.699,224.739 6.701 C 225.092 6.703,224.731 6.499,223.936 6.248 C 223.141 5.998,222.273 5.806,222.008 5.822 C 221.743 5.838,222.104 6.041,222.811 6.274 M225.885 7.027 C 226.162 7.208,227.969 7.876,229.901 8.511 C 231.833 9.146,233.665 9.804,233.972 9.974 C 234.278 10.143,234.712 10.277,234.935 10.271 C 235.703 10.253,234.420 9.710,230.521 8.405 C 224.990 6.553,225.299 6.644,225.885 7.027 M166.426 9.342 C 164.312 10.420,164.453 10.571,166.640 9.572 C 167.494 9.182,168.554 8.765,168.996 8.646 L 169.799 8.429 168.996 8.435 C 168.554 8.438,167.398 8.846,166.426 9.342 M162.088 11.245 C 161.028 11.761,160.405 12.189,160.704 12.196 C 161.003 12.203,161.327 12.080,161.424 11.923 C 161.521 11.766,161.988 11.540,162.461 11.422 C 163.347 11.199,164.885 10.271,164.329 10.294 C 164.157 10.301,163.149 10.729,162.088 11.245 M236.787 10.906 C 237.582 11.230,239.028 11.925,240.000 12.450 C 240.972 12.975,243.502 14.313,245.622 15.424 C 250.317 17.883,250.146 17.774,255.100 21.447 C 257.309 23.085,259.478 24.671,259.920 24.971 C 262.867 26.978,271.780 36.469,275.753 41.833 C 279.957 47.508,280.347 48.130,283.425 54.072 C 284.322 55.803,285.110 57.166,285.176 57.099 C 285.294 56.982,283.321 53.033,281.367 49.478 C 280.833 48.506,279.223 46.073,277.788 44.070 C 270.188 33.460,263.565 26.984,251.727 18.587 C 249.095 16.720,236.729 10.268,235.843 10.299 C 235.567 10.308,235.992 10.582,236.787 10.906 M159.181 12.478 C 159.013 12.625,158.080 13.079,157.108 13.485 C 156.137 13.891,154.500 14.782,153.471 15.465 C 152.443 16.148,151.541 16.707,151.468 16.707 C 150.235 16.707,139.682 24.751,133.884 30.112 C 131.212 32.582,123.738 41.495,121.956 44.337 C 121.015 45.839,119.254 48.659,118.044 50.602 C 116.098 53.730,111.800 62.788,111.812 63.739 C 111.816 64.068,112.840 62.069,113.440 60.562 C 114.429 58.074,115.984 54.614,116.497 53.760 C 121.665 45.146,124.548 40.750,125.627 39.839 C 125.732 39.751,127.308 37.902,129.129 35.729 C 130.950 33.557,133.617 30.753,135.056 29.498 C 136.494 28.243,138.808 26.197,140.198 24.950 C 142.379 22.994,143.789 21.936,146.239 20.413 C 146.533 20.230,148.021 19.285,149.544 18.313 C 154.838 14.935,155.994 14.261,157.751 13.525 C 159.529 12.780,160.422 12.209,159.807 12.209 C 159.631 12.209,159.349 12.330,159.181 12.478 M285.301 57.652 C 285.301 57.890,286.640 60.080,286.785 60.080 C 286.860 60.080,286.626 59.502,286.265 58.795 C 285.690 57.667,285.301 57.207,285.301 57.652 M287.373 62.169 C 287.504 62.522,287.965 63.884,288.398 65.195 C 289.295 67.910,289.774 68.908,289.789 68.096 C 289.795 67.822,289.682 67.461,289.538 67.293 C 289.395 67.125,288.940 65.904,288.529 64.578 C 288.117 63.253,287.634 62.024,287.457 61.847 C 287.241 61.632,287.213 61.739,287.373 62.169 M111.142 65.099 C 110.940 65.608,110.647 66.272,110.492 66.575 C 110.336 66.879,110.073 67.674,109.907 68.343 C 109.741 69.011,109.233 70.972,108.778 72.700 C 108.324 74.427,107.964 76.090,107.979 76.394 C 108.004 76.899,108.525 75.168,109.216 72.289 C 109.873 69.549,110.616 66.981,110.927 66.368 C 111.756 64.738,111.842 64.506,111.681 64.345 C 111.587 64.251,111.344 64.590,111.142 65.099 M289.799 69.290 C 289.799 69.644,289.898 70.032,290.019 70.153 C 290.141 70.275,290.565 71.347,290.963 72.536 C 291.361 73.726,291.695 74.506,291.707 74.271 C 291.726 73.855,290.162 69.050,289.920 68.782 C 289.854 68.708,289.799 68.937,289.799 69.290 M291.898 76.145 C 292.359 79.673,292.694 81.574,292.995 82.365 C 293.181 82.854,293.336 83.715,293.340 84.278 C 293.343 84.841,293.559 86.024,293.820 86.908 C 294.334 88.645,294.334 88.646,293.658 84.337 C 293.150 81.094,291.605 73.904,291.898 76.145 M107.503 77.510 C 107.445 77.731,107.223 78.562,107.012 79.357 C 106.800 80.153,106.504 82.249,106.353 84.016 C 106.202 85.783,105.904 88.226,105.689 89.445 C 105.415 91.000,105.350 94.261,105.471 100.369 C 105.634 108.682,105.868 111.032,106.864 114.378 C 107.329 115.939,107.264 115.390,106.484 111.165 C 105.697 106.901,105.491 93.004,106.151 88.633 C 106.435 86.755,106.667 84.396,106.667 83.391 C 106.667 82.386,106.799 81.317,106.960 81.016 C 107.283 80.413,107.940 77.108,107.737 77.108 C 107.667 77.108,107.562 77.289,107.503 77.510 M294.192 97.671 C 294.074 102.530,293.915 107.373,293.839 108.434 C 293.704 110.313,293.708 110.325,294.005 108.916 C 294.327 107.386,294.801 90.573,294.553 89.478 C 294.473 89.124,294.310 92.811,294.192 97.671 M293.304 112.129 C 293.140 113.767,292.799 115.346,291.976 118.276 C 291.796 118.918,291.710 119.628,291.785 119.853 C 291.860 120.078,292.106 119.408,292.333 118.364 C 292.559 117.320,292.958 115.721,293.219 114.811 C 293.481 113.900,293.646 112.527,293.587 111.758 L 293.480 110.361 293.304 112.129 M107.364 116.787 C 107.349 117.317,107.551 118.474,107.811 119.357 C 108.235 120.793,108.264 120.827,108.087 119.679 C 107.629 116.703,107.392 115.755,107.364 116.787 M291.103 122.500 C 290.867 123.599,290.466 125.126,290.213 125.894 C 289.960 126.662,289.821 127.358,289.904 127.441 C 289.987 127.524,290.270 126.896,290.533 126.045 C 291.215 123.840,291.857 120.826,291.682 120.651 C 291.600 120.570,291.340 121.402,291.103 122.500 M108.306 121.557 C 108.264 122.322,109.221 125.690,109.594 126.088 C 109.751 126.256,109.880 126.596,109.880 126.843 C 109.880 127.090,110.073 127.748,110.309 128.305 C 110.545 128.862,110.917 129.823,111.137 130.442 C 112.824 135.193,113.256 136.289,114.110 137.992 C 114.642 139.052,115.225 140.064,115.406 140.241 C 115.680 140.508,114.499 137.926,113.388 135.828 C 113.225 135.521,113.092 135.099,113.092 134.891 C 113.092 134.558,111.582 130.427,110.819 128.675 C 110.665 128.321,110.309 127.382,110.027 126.586 C 109.550 125.241,109.287 124.379,108.606 121.928 C 108.452 121.370,108.325 121.214,108.306 121.557 M288.751 129.876 C 288.296 130.982,287.235 133.622,286.393 135.743 C 285.552 137.863,284.265 140.610,283.533 141.847 C 282.801 143.084,281.141 145.904,279.842 148.112 C 278.544 150.321,277.391 152.201,277.279 152.289 C 277.167 152.378,275.094 154.932,272.671 157.967 C 270.248 161.001,268.131 163.531,267.968 163.589 C 267.805 163.647,266.759 164.565,265.643 165.628 C 259.890 171.110,249.171 179.131,245.390 180.784 C 243.351 181.675,242.234 182.261,242.350 182.377 C 242.477 182.503,246.083 180.843,247.201 180.143 C 247.538 179.932,249.247 178.783,250.996 177.590 C 252.746 176.398,254.241 175.422,254.317 175.422 C 255.645 175.422,268.122 164.169,271.597 159.839 C 272.873 158.249,274.833 155.819,275.953 154.439 C 277.721 152.260,280.227 148.269,284.223 141.266 C 285.307 139.366,289.908 128.195,289.695 127.981 C 289.630 127.917,289.205 128.769,288.751 129.876 M115.663 140.781 C 115.663 141.122,120.557 149.809,121.428 151.015 C 121.880 151.640,122.717 152.725,123.289 153.425 C 123.860 154.126,125.490 156.200,126.910 158.034 C 129.084 160.843,136.998 168.951,138.306 169.710 C 138.526 169.837,136.369 167.596,133.514 164.730 C 130.658 161.863,127.534 158.465,126.570 157.178 C 125.607 155.890,123.936 153.699,122.856 152.307 C 121.777 150.916,120.271 148.643,119.511 147.258 C 116.912 142.520,116.532 141.847,116.097 141.214 C 115.858 140.865,115.663 140.671,115.663 140.781 M138.972 170.570 C 140.135 171.669,152.291 180.025,152.469 179.847 C 152.537 179.779,151.260 178.826,149.630 177.731 C 145.424 174.902,140.490 171.425,139.808 170.807 C 139.215 170.271,138.416 170.044,138.972 170.570 M152.932 180.060 C 152.932 180.210,157.735 182.677,158.956 183.155 C 160.669 183.825,159.434 183.045,156.406 181.543 C 153.021 179.864,152.932 179.826,152.932 180.060 M239.265 183.593 C 236.879 184.757,235.962 185.404,237.751 184.661 C 239.407 183.973,242.139 182.519,241.767 182.524 C 241.590 182.526,240.464 183.007,239.265 183.593 M162.249 184.763 C 162.978 185.271,165.464 186.346,165.890 186.338 C 166.096 186.334,165.759 186.096,165.141 185.808 C 164.522 185.521,163.596 185.090,163.083 184.852 C 161.976 184.337,161.575 184.294,162.249 184.763 M234.859 185.703 C 234.241 186.041,233.912 186.325,234.129 186.332 C 234.345 186.339,234.996 186.057,235.575 185.704 C 236.914 184.887,236.351 184.886,234.859 185.703 M167.550 186.806 C 169.226 187.534,170.731 188.021,171.727 188.156 C 172.257 188.229,171.751 187.978,170.602 187.601 C 169.454 187.223,168.263 186.786,167.956 186.629 C 167.649 186.473,167.216 186.355,166.992 186.366 C 166.769 186.377,167.020 186.575,167.550 186.806 M232.553 186.510 C 232.463 186.600,231.246 187.036,229.849 187.479 C 227.148 188.335,227.687 188.364,230.758 187.528 C 232.839 186.961,234.080 186.372,233.226 186.355 C 232.946 186.350,232.644 186.419,232.553 186.510 M173.655 188.701 C 175.829 189.719,177.275 190.100,181.044 190.648 C 181.764 190.752,181.481 190.622,180.402 190.352 C 176.398 189.350,174.546 188.854,173.333 188.459 C 172.980 188.344,173.124 188.453,173.655 188.701 M225.060 188.816 C 224.353 189.074,222.546 189.625,221.044 190.040 C 219.542 190.456,218.602 190.805,218.956 190.816 C 219.637 190.838,226.764 188.765,227.074 188.455 C 227.379 188.149,226.416 188.322,225.060 188.816 M183.936 191.174 C 184.819 191.305,186.120 191.505,186.827 191.617 L 188.112 191.820 186.667 191.337 C 185.871 191.071,184.570 190.871,183.775 190.893 L 182.329 190.934 183.936 191.174 M213.012 191.353 L 211.245 191.790 212.851 191.592 C 213.735 191.483,215.325 191.292,216.386 191.168 L 218.313 190.941 216.546 190.928 C 215.574 190.921,213.984 191.112,213.012 191.353 M189.880 192.145 C 192.694 192.605,207.108 192.658,209.157 192.215 L 210.924 191.834 208.675 192.060 C 206.400 192.289,197.227 192.255,191.325 191.997 C 188.656 191.880,188.411 191.905,189.880 192.145 M198.822 253.815 C 163.893 253.904,135.242 254.048,135.154 254.137 C 135.066 254.225,164.174 254.297,199.839 254.297 C 235.505 254.297,264.661 254.276,264.632 254.250 C 264.067 253.758,252.292 253.680,198.822 253.815 M132.530 254.642 C 132.353 254.715,131.052 254.998,129.639 255.271 C 128.225 255.544,126.490 255.898,125.783 256.057 L 124.498 256.346 125.783 256.246 C 127.976 256.074,134.919 254.510,133.494 254.509 C 133.141 254.509,132.707 254.569,132.530 254.642 M267.149 254.947 C 268.032 255.193,269.116 255.390,269.558 255.386 C 270.045 255.381,269.729 255.203,268.755 254.932 C 267.871 254.687,266.787 254.490,266.345 254.494 C 265.858 254.498,266.174 254.677,267.149 254.947 M272.129 255.896 C 272.924 256.160,274.080 256.359,274.699 256.338 C 275.771 256.301,275.756 256.287,274.378 256.037 C 270.880 255.401,270.584 255.383,272.129 255.896 M121.928 256.763 C 120.722 257.042,118.702 257.454,114.272 258.324 C 113.242 258.526,112.475 258.767,112.567 258.858 C 112.658 258.950,113.501 258.856,114.439 258.649 C 118.705 257.708,120.423 257.368,121.767 257.195 C 123.154 257.017,124.847 256.346,123.695 256.431 C 123.430 256.451,122.635 256.600,121.928 256.763 M278.554 257.233 C 279.310 257.343,282.223 257.936,285.722 258.691 C 286.572 258.875,287.342 258.950,287.433 258.858 C 287.525 258.767,286.758 258.529,285.728 258.330 C 284.698 258.130,282.964 257.756,281.875 257.498 C 280.786 257.239,279.412 257.048,278.823 257.072 C 278.007 257.105,277.943 257.144,278.554 257.233 M108.755 259.457 C 107.341 259.954,107.474 259.943,111.004 259.278 L 112.289 259.036 111.165 259.021 C 110.546 259.012,109.462 259.208,108.755 259.457 M288.996 259.278 C 292.585 259.954,292.595 259.955,291.084 259.449 C 290.289 259.183,289.205 258.981,288.675 259.001 C 287.833 259.032,287.874 259.067,288.996 259.278 M103.936 260.439 C 102.519 260.937,102.477 260.940,106.185 260.242 L 107.470 260.000 106.345 259.994 C 105.727 259.990,104.643 260.190,103.936 260.439 M293.815 260.268 C 296.729 260.876,297.457 260.926,295.904 260.410 C 295.108 260.146,294.024 259.945,293.494 259.965 C 292.633 259.996,292.668 260.029,293.815 260.268 M98.956 261.382 C 98.161 261.609,97.799 261.801,98.153 261.807 C 98.506 261.814,99.518 261.618,100.402 261.373 C 101.285 261.128,101.647 260.936,101.205 260.947 C 100.763 260.958,99.751 261.154,98.956 261.382 M299.759 261.371 C 300.908 261.637,302.603 262.007,303.526 262.193 C 305.037 262.499,308.024 263.828,308.434 264.378 C 308.767 264.825,328.996 278.223,328.989 277.992 C 328.986 277.860,328.169 277.249,327.174 276.636 C 326.179 276.022,325.206 275.372,325.012 275.190 C 324.526 274.735,306.851 263.001,305.901 262.502 C 305.480 262.281,304.034 261.895,302.688 261.643 C 299.113 260.975,297.339 260.810,299.759 261.371 M94.297 262.456 C 93.590 262.783,90.048 265.044,86.426 267.481 C 82.803 269.918,78.972 272.485,77.912 273.186 C 76.851 273.888,75.085 275.057,73.986 275.785 C 72.887 276.513,71.984 277.208,71.978 277.330 C 71.972 277.452,73.939 276.223,76.349 274.599 C 78.759 272.975,81.614 271.067,82.695 270.359 C 83.775 269.652,86.248 267.989,88.191 266.665 C 93.224 263.234,93.865 262.870,95.789 262.353 C 97.117 261.995,97.290 261.886,96.546 261.876 C 96.016 261.868,95.004 262.129,94.297 262.456 M67.725 279.951 C 65.834 281.215,64.280 282.358,64.272 282.491 C 64.260 282.682,71.096 278.248,71.620 277.724 C 72.260 277.084,70.575 278.048,67.725 279.951 M329.344 278.361 C 329.545 278.553,335.899 282.887,338.498 284.603 C 340.728 286.076,340.888 286.279,346.912 295.261 C 350.290 300.297,355.512 308.081,358.517 312.558 C 361.522 317.035,364.194 321.300,364.455 322.036 C 364.716 322.772,364.941 323.127,364.955 322.826 C 365.009 321.643,364.985 321.606,345.806 293.080 C 341.791 287.108,340.729 285.745,339.411 284.870 C 338.542 284.293,335.984 282.563,333.726 281.027 C 331.468 279.490,329.528 278.233,329.415 278.233 C 329.302 278.233,329.270 278.291,329.344 278.361 M61.365 284.291 C 58.923 285.860,57.335 287.886,52.260 295.904 C 50.169 299.207,52.566 296.008,55.743 291.255 C 58.862 286.589,59.367 285.995,61.313 284.707 C 63.437 283.301,64.198 282.726,63.920 282.737 C 63.840 282.740,62.691 283.439,61.365 284.291 M50.819 298.082 C 50.475 298.567,44.439 307.533,37.859 317.333 C 35.329 321.101,35.054 321.707,34.683 324.337 C 34.533 325.398,34.321 326.627,34.211 327.068 C 34.052 327.712,34.080 327.767,34.352 327.345 C 34.538 327.055,34.835 325.801,35.011 324.559 C 35.474 321.294,35.469 321.303,49.705 300.276 C 51.136 298.161,52.074 296.316,50.819 298.082 M365.041 324.819 C 365.034 325.438,365.237 326.450,365.490 327.068 L 365.952 328.193 365.751 327.068 C 365.641 326.450,365.439 325.438,365.302 324.819 L 365.054 323.695 365.041 324.819 M33.681 329.317 C 33.464 331.048,32.836 334.171,32.380 335.786 C 32.199 336.428,32.112 337.138,32.187 337.363 C 32.262 337.588,32.502 336.918,32.721 335.874 C 32.940 334.830,33.345 332.964,33.621 331.727 C 33.897 330.490,34.064 329.116,33.992 328.675 C 33.898 328.095,33.811 328.274,33.681 329.317 M365.989 329.157 C 365.969 329.687,366.171 330.771,366.437 331.566 C 366.943 333.077,366.942 333.067,366.266 329.478 C 366.055 328.356,366.020 328.315,365.989 329.157 M366.930 334.485 C 366.943 334.912,367.084 335.550,367.244 335.904 C 367.447 336.351,367.476 336.157,367.339 335.261 C 367.112 333.769,366.898 333.362,366.930 334.485 M367.753 338.153 C 367.845 339.036,368.128 340.482,368.384 341.365 C 368.937 343.283,368.757 341.800,368.052 338.635 C 367.626 336.724,367.600 336.683,367.753 338.153 M31.720 339.116 C 31.154 342.192,31.138 342.718,31.663 341.095 C 31.939 340.239,32.119 339.154,32.061 338.685 C 31.974 337.967,31.920 338.036,31.720 339.116 M30.522 345.060 C 30.288 346.299,30.169 347.385,30.258 347.473 C 30.346 347.562,30.610 346.620,30.843 345.382 C 31.077 344.143,31.196 343.057,31.108 342.969 C 31.019 342.880,30.756 343.821,30.522 345.060 M369.028 344.578 C 369.461 347.494,369.716 348.511,369.753 347.470 C 369.771 346.940,369.573 345.783,369.312 344.900 C 368.882 343.444,368.855 343.414,369.028 344.578 M29.631 349.958 C 28.773 354.073,28.592 355.125,28.721 355.254 C 28.797 355.329,29.023 354.549,29.223 353.519 C 29.424 352.489,29.741 350.951,29.929 350.101 C 30.116 349.252,30.205 348.492,30.126 348.413 C 30.048 348.334,29.825 349.029,29.631 349.958 M370.005 349.558 C 370.111 350.177,370.307 351.261,370.441 351.968 L 370.683 353.253 370.698 352.129 C 370.707 351.510,370.510 350.426,370.262 349.719 C 369.817 348.451,369.813 348.449,370.005 349.558 M370.941 354.378 C 371.062 354.996,371.268 356.153,371.399 356.948 C 371.530 357.743,371.801 359.044,372.000 359.839 C 372.199 360.635,372.463 361.863,372.586 362.570 C 372.734 363.424,372.849 363.628,372.927 363.176 C 372.992 362.803,372.811 361.574,372.525 360.446 C 372.239 359.317,371.860 357.459,371.683 356.317 C 371.505 355.174,371.216 354.018,371.040 353.746 C 370.813 353.396,370.784 353.579,370.941 354.378 M28.313 356.466 C 28.287 356.996,28.069 358.080,27.828 358.876 C 27.587 359.671,27.305 361.116,27.202 362.088 C 27.029 363.709,27.039 363.749,27.327 362.570 C 28.426 358.069,28.635 356.953,28.506 356.269 C 28.381 355.610,28.354 355.638,28.313 356.466 M27.122 366.550 C 27.243 367.501,27.554 368.730,27.811 369.280 C 28.177 370.062,28.238 370.105,28.087 369.478 C 27.981 369.036,27.773 367.902,27.625 366.958 C 27.269 364.684,26.839 364.335,27.122 366.550 M372.601 365.408 C 372.474 365.731,372.383 366.454,372.398 367.014 L 372.427 368.032 372.737 366.956 C 373.101 365.691,372.990 364.419,372.601 365.408 M371.778 369.433 C 371.573 370.117,371.425 371.166,371.449 371.764 C 371.483 372.596,371.522 372.663,371.618 372.048 C 371.686 371.606,371.903 370.626,372.100 369.870 C 372.552 368.134,372.279 367.762,371.778 369.433 M28.310 371.514 C 28.274 372.410,29.119 376.329,29.516 377.102 C 31.116 380.220,36.343 387.049,38.050 388.251 C 43.068 391.785,46.353 393.896,46.836 393.896 C 47.127 393.896,46.823 393.619,46.161 393.282 C 45.499 392.944,44.348 392.214,43.603 391.659 C 42.858 391.103,41.302 390.039,40.144 389.293 C 36.671 387.056,36.189 386.542,32.872 381.526 C 29.640 376.640,29.446 376.187,28.474 371.245 C 28.390 370.816,28.335 370.905,28.310 371.514 M370.970 373.550 C 370.875 373.873,370.695 374.714,370.569 375.419 C 370.418 376.267,369.256 378.317,367.140 381.467 C 363.553 386.805,363.396 386.980,360.482 388.879 C 359.333 389.628,358.032 390.489,357.590 390.792 C 357.149 391.096,355.920 391.917,354.859 392.617 C 353.799 393.317,353.080 393.891,353.262 393.893 C 353.585 393.896,356.160 392.228,361.239 388.726 C 364.479 386.493,370.183 378.543,370.972 375.162 C 371.380 373.410,371.379 372.162,370.970 373.550 M48.032 394.217 C 48.993 394.630,49.795 394.630,49.157 394.217 C 48.892 394.046,48.386 393.913,48.032 393.923 L 47.390 393.941 48.032 394.217 M350.522 394.224 C 349.581 394.529,346.510 395.152,344.342 395.478 C 343.505 395.604,342.722 395.805,342.602 395.926 C 342.204 396.323,343.636 396.154,346.185 395.502 C 347.567 395.149,349.072 394.848,349.529 394.835 C 349.987 394.822,350.867 394.616,351.486 394.378 C 352.707 393.907,351.898 393.778,350.522 394.224 M50.365 394.765 C 50.765 394.842,51.343 394.839,51.650 394.759 C 51.958 394.678,51.631 394.616,50.924 394.619 C 50.217 394.623,49.966 394.689,50.365 394.765 M52.369 394.970 C 52.369 395.072,52.912 395.292,53.574 395.458 C 55.401 395.915,57.676 396.203,57.417 395.945 C 57.291 395.819,56.429 395.602,55.502 395.464 C 54.574 395.325,53.490 395.115,53.092 394.998 C 52.695 394.881,52.369 394.868,52.369 394.970 M129.211 396.386 C 168.028 396.431,231.642 396.431,270.576 396.386 C 309.510 396.341,277.751 396.304,200.000 396.304 C 122.249 396.304,90.394 396.341,129.211 396.386 " stroke="none" fill="#fbe6c8" fill-rule="evenodd"></path><path id="path4" d="M194.538 3.838 C 194.008 3.983,192.779 4.121,191.807 4.147 C 190.835 4.172,189.390 4.344,188.594 4.529 C 187.799 4.714,185.920 4.988,184.418 5.136 C 182.916 5.285,180.856 5.639,179.841 5.922 C 178.826 6.206,177.199 6.652,176.226 6.914 C 175.254 7.176,173.627 7.614,172.610 7.889 C 171.594 8.164,170.257 8.500,169.639 8.637 C 169.020 8.773,168.225 9.044,167.871 9.239 C 167.518 9.433,166.578 9.880,165.783 10.232 C 164.988 10.584,162.227 11.804,159.649 12.942 C 155.349 14.840,153.818 15.703,148.317 19.323 C 147.281 20.004,146.390 20.562,146.337 20.562 C 146.045 20.562,142.771 22.892,141.754 23.824 C 141.098 24.425,138.787 26.482,136.616 28.395 C 134.446 30.308,131.988 32.675,131.154 33.654 C 130.321 34.633,128.627 36.608,127.390 38.042 C 124.687 41.175,122.955 43.491,121.446 45.989 C 120.827 47.013,119.481 49.233,118.454 50.921 C 115.638 55.553,111.197 65.540,110.095 69.719 C 109.139 73.341,108.874 74.398,108.721 75.181 C 108.634 75.622,108.362 76.707,108.116 77.590 C 106.966 81.715,106.678 83.278,106.521 86.265 C 106.428 88.032,106.216 90.273,106.051 91.245 C 105.885 92.217,105.765 95.036,105.783 97.510 L 105.816 102.008 106.054 96.707 C 106.185 93.791,106.442 90.755,106.626 89.960 C 106.810 89.165,106.966 87.285,106.972 85.783 C 106.979 84.281,107.190 82.402,107.440 81.606 C 107.954 79.974,108.503 77.884,108.916 75.984 C 110.067 70.689,111.534 66.189,113.444 62.095 C 113.957 60.994,114.378 59.944,114.378 59.761 C 114.378 59.579,114.512 59.178,114.677 58.871 C 114.841 58.564,115.442 57.316,116.011 56.098 C 116.581 54.879,118.037 52.308,119.246 50.385 C 120.456 48.462,121.446 46.833,121.446 46.766 C 121.446 46.277,124.083 42.623,126.561 39.679 C 127.454 38.618,129.188 36.513,130.415 34.999 C 131.642 33.486,133.994 31.109,135.640 29.718 C 137.287 28.326,139.515 26.358,140.591 25.344 C 141.667 24.329,144.486 22.243,146.856 20.708 C 149.226 19.172,151.888 17.444,152.771 16.867 C 154.425 15.786,159.709 13.209,163.855 11.461 C 164.474 11.200,165.847 10.587,166.908 10.099 C 167.968 9.611,169.341 9.098,169.960 8.960 C 170.578 8.823,171.880 8.493,172.851 8.227 C 173.823 7.962,175.269 7.580,176.064 7.378 C 176.859 7.175,177.727 6.926,177.992 6.823 C 179.346 6.298,182.334 5.716,185.060 5.448 C 186.739 5.283,188.691 4.975,189.398 4.764 C 191.059 4.268,211.123 4.324,212.064 4.828 C 212.412 5.014,213.599 5.302,214.702 5.468 C 216.646 5.760,220.162 6.392,223.454 7.040 C 224.337 7.214,225.855 7.671,226.827 8.056 C 227.799 8.442,229.028 8.870,229.558 9.009 C 230.088 9.148,231.317 9.576,232.289 9.960 C 233.261 10.344,234.490 10.767,235.020 10.900 C 236.027 11.153,241.122 13.639,246.557 16.531 C 249.701 18.204,250.679 18.871,258.396 24.614 C 262.719 27.832,270.216 35.244,272.938 38.991 C 273.818 40.203,274.972 41.746,275.502 42.418 C 277.492 44.944,279.882 48.505,280.915 50.484 C 281.503 51.609,282.897 54.265,284.013 56.386 C 286.681 61.456,287.045 62.287,287.465 64.257 C 287.559 64.699,287.745 65.205,287.878 65.382 C 288.010 65.558,288.226 66.204,288.357 66.817 C 288.488 67.429,288.714 68.152,288.858 68.423 C 289.398 69.438,291.084 74.831,291.088 75.553 C 291.090 75.967,291.307 77.015,291.570 77.882 C 291.833 78.750,292.048 79.998,292.048 80.657 C 292.048 81.315,292.272 82.340,292.545 82.935 L 293.043 84.016 292.861 83.052 C 292.761 82.522,292.545 81.142,292.381 79.986 C 292.217 78.829,291.930 77.482,291.744 76.993 C 291.558 76.503,291.406 75.683,291.406 75.171 C 291.406 74.658,291.206 73.764,290.962 73.184 C 290.717 72.603,290.271 71.333,289.970 70.361 C 289.670 69.390,289.294 68.305,289.135 67.952 C 288.976 67.598,288.356 65.791,287.756 63.936 C 287.156 62.080,286.307 59.912,285.870 59.116 C 285.434 58.321,283.947 55.502,282.567 52.851 C 281.188 50.201,279.740 47.598,279.350 47.068 C 272.097 37.196,271.061 35.954,265.668 30.674 C 262.595 27.665,259.285 24.660,258.313 23.996 C 255.801 22.282,253.281 20.450,252.445 19.731 C 251.228 18.686,248.717 17.215,243.695 14.607 C 241.044 13.231,238.659 11.981,238.394 11.830 C 237.703 11.436,233.562 9.929,232.610 9.725 C 232.169 9.630,231.663 9.449,231.486 9.323 C 231.309 9.196,230.080 8.754,228.755 8.340 C 227.430 7.926,226.201 7.490,226.024 7.373 C 225.523 7.039,218.462 5.581,215.228 5.144 C 214.239 5.010,212.937 4.751,212.337 4.567 C 211.736 4.384,208.426 4.145,204.980 4.036 C 201.534 3.927,197.992 3.779,197.108 3.707 C 196.225 3.635,195.068 3.694,194.538 3.838 M293.189 86.104 C 293.645 91.913,293.799 98.025,293.578 101.526 C 293.439 103.735,293.268 107.205,293.198 109.237 L 293.072 112.932 293.341 110.040 C 294.479 97.832,294.436 90.455,293.195 84.980 C 293.115 84.627,293.112 85.133,293.189 86.104 M106.067 103.775 C 105.994 105.611,106.656 111.831,107.127 113.735 C 108.115 117.731,108.600 120.041,108.597 120.743 C 108.594 121.500,109.267 123.918,110.043 125.944 C 110.280 126.562,110.852 128.153,111.314 129.478 C 111.776 130.803,112.366 132.297,112.623 132.797 C 112.881 133.297,113.092 133.898,113.092 134.133 C 113.092 134.878,114.855 138.482,117.711 143.580 C 119.235 146.299,120.482 148.582,120.482 148.651 C 120.482 148.766,125.539 155.471,128.657 159.490 C 130.509 161.877,139.872 170.717,142.490 172.551 C 150.411 178.099,152.812 179.560,159.134 182.670 C 162.879 184.514,166.233 186.027,166.586 186.034 C 166.940 186.041,167.590 186.253,168.032 186.506 C 168.474 186.759,169.204 186.970,169.655 186.977 C 170.105 186.983,170.611 187.112,170.779 187.263 C 170.947 187.415,172.169 187.864,173.494 188.262 C 174.819 188.660,176.155 189.115,176.462 189.272 C 176.768 189.430,177.347 189.552,177.747 189.545 C 178.147 189.537,176.450 188.875,173.976 188.072 C 171.502 187.270,169.003 186.408,168.423 186.158 C 167.843 185.908,167.082 185.703,166.732 185.703 C 166.382 185.703,165.845 185.561,165.538 185.389 C 165.231 185.216,161.944 183.577,158.233 181.746 C 154.522 179.915,150.495 177.707,149.285 176.839 C 148.074 175.971,146.747 175.044,146.336 174.779 C 141.307 171.539,130.969 162.305,128.757 159.077 C 128.196 158.259,127.465 157.301,127.132 156.948 C 126.798 156.594,126.081 155.655,125.537 154.859 C 124.994 154.064,124.068 152.871,123.479 152.208 C 122.891 151.545,122.410 150.893,122.410 150.759 C 122.410 150.625,122.084 150.152,121.687 149.707 C 121.289 149.263,120.682 148.325,120.338 147.622 C 119.993 146.920,119.178 145.406,118.526 144.257 C 117.387 142.250,115.180 138.192,114.683 137.189 C 114.551 136.924,114.200 136.056,113.903 135.261 C 113.606 134.466,113.157 133.406,112.906 132.906 C 112.655 132.405,112.450 131.824,112.450 131.613 C 112.450 131.262,110.898 126.978,110.222 125.462 C 110.064 125.108,109.697 123.735,109.406 122.410 C 109.116 121.084,108.721 119.349,108.530 118.554 C 108.339 117.759,108.074 116.313,107.941 115.341 C 107.808 114.369,107.539 113.167,107.343 112.670 C 107.148 112.172,106.976 111.088,106.960 110.260 C 106.923 108.191,106.122 102.381,106.067 103.775 M292.422 113.909 C 292.216 114.360,292.048 115.138,292.048 115.639 C 292.048 116.139,291.831 117.067,291.566 117.701 C 291.301 118.336,291.084 119.276,291.084 119.790 C 291.084 120.304,290.867 121.244,290.602 121.878 C 290.337 122.513,290.120 123.465,290.120 123.995 C 290.120 124.525,289.915 125.433,289.664 126.013 C 289.413 126.593,288.822 128.080,288.350 129.317 C 287.879 130.554,287.307 132.000,287.080 132.530 C 286.853 133.060,286.419 134.145,286.115 134.940 C 285.458 136.663,284.712 138.397,284.256 139.265 C 283.199 141.279,282.480 142.583,282.035 143.293 C 280.179 146.253,277.607 150.806,277.724 150.924 C 277.802 151.001,278.201 150.503,278.611 149.817 C 279.022 149.131,279.527 148.286,279.735 147.940 C 282.333 143.604,285.090 138.450,285.915 136.386 C 286.480 134.972,287.075 133.526,287.237 133.173 C 287.400 132.819,287.830 131.735,288.193 130.763 C 288.556 129.791,288.978 128.707,289.132 128.353 C 289.798 126.815,290.442 124.747,290.442 124.143 C 290.442 123.783,290.642 122.848,290.887 122.065 C 291.132 121.283,291.578 119.486,291.877 118.072 C 292.177 116.659,292.568 115.021,292.747 114.434 C 293.144 113.126,292.933 112.787,292.422 113.909 M276.198 152.670 C 273.522 155.933,272.375 157.372,271.122 159.036 C 268.977 161.884,257.401 172.851,256.539 172.851 C 256.417 172.851,255.770 173.285,255.100 173.815 C 254.431 174.345,253.780 174.779,253.655 174.779 C 253.529 174.779,252.878 175.213,252.209 175.743 C 251.540 176.273,250.913 176.707,250.817 176.707 C 250.722 176.707,249.658 177.382,248.454 178.208 C 247.250 179.034,245.036 180.277,243.534 180.970 C 242.032 181.664,239.213 182.984,237.269 183.904 C 233.364 185.754,232.035 186.284,230.361 186.663 C 229.743 186.803,228.803 187.060,228.273 187.236 C 227.743 187.411,226.442 187.809,225.382 188.119 C 224.321 188.430,223.165 188.810,222.811 188.963 C 221.806 189.398,219.218 189.878,216.084 190.209 C 214.505 190.376,212.697 190.695,212.068 190.919 C 210.464 191.489,188.860 191.500,187.470 190.931 C 186.512 190.539,182.682 189.917,179.920 189.705 L 178.474 189.593 179.759 189.885 C 181.123 190.194,186.086 191.016,189.558 191.507 C 192.849 191.973,206.352 192.021,209.639 191.578 C 217.916 190.463,219.745 190.171,221.365 189.703 C 222.337 189.422,223.615 189.070,224.204 188.921 C 224.793 188.772,225.661 188.513,226.132 188.346 C 226.603 188.179,227.855 187.787,228.916 187.474 C 232.049 186.550,234.516 185.719,235.109 185.389 C 235.990 184.897,244.581 180.838,245.405 180.524 C 250.328 178.646,267.045 165.054,271.087 159.641 C 271.798 158.690,272.649 157.622,272.980 157.269 C 273.310 156.916,274.074 155.976,274.677 155.181 C 275.281 154.386,276.210 153.267,276.741 152.696 C 277.272 152.124,277.623 151.573,277.521 151.470 C 277.419 151.368,276.824 151.908,276.198 152.670 M136.064 254.522 C 135.181 254.686,133.629 255.027,132.615 255.281 C 131.602 255.535,130.327 255.743,129.783 255.743 C 129.239 255.743,128.541 255.878,128.233 256.043 C 127.925 256.207,126.742 256.487,125.604 256.664 C 124.465 256.841,123.028 257.135,122.410 257.318 L 121.285 257.650 122.410 257.513 C 125.610 257.123,127.932 256.697,128.490 256.398 C 128.834 256.215,129.612 256.064,130.220 256.064 C 130.827 256.064,131.957 255.811,132.731 255.502 C 134.054 254.973,138.023 254.940,200.000 254.940 C 261.977 254.940,265.946 254.973,267.269 255.502 C 268.043 255.811,269.127 256.066,269.679 256.069 C 270.231 256.072,271.261 256.282,271.968 256.537 C 272.675 256.792,273.843 257.006,274.565 257.014 C 275.286 257.022,275.985 257.137,276.116 257.269 C 276.353 257.508,279.091 258.052,282.969 258.631 C 284.072 258.796,285.255 259.081,285.599 259.264 C 285.942 259.448,286.793 259.598,287.490 259.598 C 288.187 259.598,289.276 259.815,289.910 260.080 C 290.545 260.345,291.656 260.562,292.380 260.562 C 293.104 260.562,294.008 260.729,294.388 260.932 C 294.768 261.136,295.952 261.417,297.018 261.558 C 303.900 262.464,305.239 263.023,313.022 268.241 C 316.871 270.821,320.360 273.149,320.776 273.414 C 321.191 273.679,323.015 274.908,324.828 276.145 C 326.640 277.382,328.356 278.538,328.640 278.715 C 332.801 281.304,340.658 286.833,340.964 287.388 C 341.185 287.788,341.944 288.954,342.651 289.979 C 343.357 291.005,344.203 292.288,344.529 292.830 C 344.855 293.372,345.397 294.114,345.733 294.479 C 346.070 294.843,346.345 295.237,346.345 295.352 C 346.345 295.468,347.360 297.049,348.600 298.866 C 349.840 300.682,352.545 304.699,354.609 307.791 C 356.674 310.884,358.482 313.558,358.626 313.735 C 361.727 317.536,363.928 321.952,364.629 325.783 C 364.808 326.755,365.181 328.707,365.460 330.120 C 365.739 331.534,366.041 333.124,366.132 333.655 C 366.301 334.649,366.924 337.590,367.560 340.402 C 367.760 341.285,368.033 342.803,368.168 343.775 C 368.302 344.747,368.579 345.949,368.784 346.447 C 368.989 346.944,369.157 347.929,369.157 348.636 C 369.157 349.343,369.318 350.223,369.515 350.591 C 369.712 350.960,370.000 352.143,370.154 353.221 C 370.308 354.299,370.661 356.265,370.937 357.590 C 372.253 363.892,372.252 364.552,370.910 370.924 C 370.613 372.337,370.324 374.145,370.269 374.940 C 370.214 375.735,370.235 376.024,370.316 375.582 C 370.396 375.141,370.664 373.912,370.911 372.851 C 371.158 371.791,371.527 370.056,371.731 368.996 C 371.934 367.936,372.233 366.464,372.395 365.726 C 372.556 364.988,372.617 364.193,372.531 363.959 C 372.444 363.725,372.236 362.667,372.069 361.606 C 371.902 360.546,371.542 358.594,371.270 357.269 C 370.997 355.944,370.630 353.973,370.454 352.890 C 370.278 351.807,369.986 350.533,369.806 350.058 C 369.626 349.583,369.478 348.708,369.478 348.112 C 369.478 347.517,369.318 346.623,369.122 346.125 C 368.927 345.628,368.658 344.426,368.525 343.454 C 368.392 342.482,368.123 341.036,367.928 340.241 C 367.733 339.446,367.347 337.639,367.072 336.225 C 366.796 334.811,366.364 332.715,366.112 331.566 C 365.860 330.418,365.581 329.044,365.493 328.514 C 364.912 325.022,364.620 323.541,364.289 322.410 C 363.988 321.381,354.852 307.404,342.111 288.481 C 340.573 286.197,338.615 284.717,327.700 277.590 C 326.482 276.795,321.186 273.253,315.931 269.719 C 306.447 263.340,304.465 262.241,302.358 262.194 C 301.755 262.180,300.526 261.963,299.627 261.712 C 297.681 261.167,295.118 260.627,292.691 260.248 C 291.034 259.989,289.785 259.730,286.265 258.913 C 285.470 258.729,284.024 258.447,283.052 258.286 C 282.080 258.125,280.201 257.769,278.876 257.495 C 277.550 257.221,275.535 256.849,274.396 256.669 C 273.258 256.489,272.075 256.207,271.767 256.043 C 271.459 255.878,270.708 255.743,270.098 255.743 C 269.488 255.743,268.286 255.540,267.426 255.291 C 266.567 255.042,264.813 254.681,263.528 254.488 C 260.570 254.043,138.476 254.076,136.064 254.522 M118.394 257.994 C 117.027 258.359,113.856 258.987,111.968 259.267 C 111.084 259.397,109.711 259.664,108.916 259.858 C 108.120 260.053,106.313 260.444,104.900 260.728 C 103.486 261.012,101.438 261.452,100.349 261.706 C 99.260 261.961,98.020 262.169,97.595 262.169 C 96.361 262.169,93.778 263.142,92.209 264.198 C 81.829 271.184,70.265 278.944,66.667 281.338 C 64.193 282.984,62.024 284.448,61.847 284.591 C 61.671 284.734,61.060 285.126,60.490 285.462 C 59.559 286.011,53.866 294.149,44.980 307.636 C 44.008 309.111,41.622 312.671,39.679 315.548 C 37.735 318.425,35.955 321.414,35.723 322.191 C 35.135 324.163,35.480 324.249,36.130 322.292 C 36.557 321.008,40.699 314.237,41.463 313.574 C 41.652 313.411,45.841 307.142,46.426 306.149 C 46.602 305.848,48.627 302.832,50.924 299.445 C 53.221 296.059,55.246 293.045,55.423 292.749 C 55.601 292.452,56.593 290.946,57.628 289.402 L 59.509 286.596 65.979 282.256 C 69.538 279.870,76.914 274.916,82.371 271.248 C 87.828 267.579,92.689 264.338,93.174 264.045 C 94.596 263.185,98.885 262.097,102.982 261.558 C 104.048 261.417,105.232 261.136,105.612 260.932 C 105.992 260.729,106.882 260.562,107.588 260.562 C 108.295 260.562,109.281 260.395,109.778 260.190 C 110.276 259.985,111.478 259.703,112.450 259.563 C 114.339 259.291,118.313 258.498,120.161 258.025 C 121.271 257.740,121.273 257.736,120.321 257.736 C 119.791 257.736,118.924 257.852,118.394 257.994 M34.928 325.542 C 34.842 326.293,34.525 328.064,34.224 329.478 C 33.923 330.892,33.625 332.627,33.562 333.333 L 33.446 334.618 33.736 333.494 C 34.725 329.664,35.618 324.177,35.253 324.177 C 35.160 324.177,35.014 324.791,34.928 325.542 M32.838 336.546 C 32.610 337.606,32.207 339.558,31.943 340.884 C 31.679 342.209,31.250 344.233,30.990 345.382 C 30.729 346.530,30.518 347.858,30.519 348.332 C 30.521 348.807,30.362 349.602,30.167 350.100 C 29.971 350.597,29.691 351.799,29.544 352.771 C 29.397 353.743,29.189 354.972,29.081 355.502 C 28.886 356.464,28.886 356.464,29.382 355.385 C 29.656 354.790,29.880 353.760,29.880 353.095 C 29.880 352.430,30.096 351.367,30.361 350.732 C 30.627 350.098,30.843 349.014,30.843 348.323 C 30.843 347.632,31.060 346.547,31.325 345.913 C 31.590 345.279,31.807 344.267,31.807 343.665 C 31.807 343.063,32.024 341.956,32.289 341.205 C 32.554 340.454,32.771 339.342,32.771 338.734 C 32.771 338.126,32.925 337.342,33.112 336.991 C 33.300 336.641,33.408 335.963,33.353 335.486 C 33.281 334.859,33.138 335.152,32.838 336.546 M28.550 357.751 C 28.442 358.458,28.123 360.237,27.843 361.705 C 27.264 364.737,27.274 364.840,28.921 372.209 C 29.119 373.092,29.389 374.466,29.522 375.261 C 29.698 376.314,30.460 377.711,32.326 380.402 C 33.736 382.434,35.199 384.605,35.577 385.226 C 36.197 386.244,37.461 387.393,38.930 388.273 C 40.013 388.922,42.461 390.562,44.567 392.048 C 45.756 392.888,47.049 393.574,47.440 393.574 C 47.831 393.574,48.558 393.732,49.055 393.925 C 49.878 394.244,51.551 394.578,54.618 395.035 L 55.743 395.203 54.458 394.715 C 53.751 394.446,52.698 394.224,52.118 394.222 C 51.538 394.219,50.545 394.000,49.910 393.735 C 49.276 393.470,48.361 393.253,47.877 393.253 C 47.066 393.253,45.628 392.373,38.554 387.550 C 37.246 386.659,36.244 385.542,34.699 383.256 C 33.550 381.558,31.996 379.264,31.245 378.160 C 30.328 376.811,29.880 375.808,29.880 375.103 C 29.880 374.526,29.663 373.535,29.398 372.901 C 29.133 372.267,28.914 371.201,28.911 370.532 C 28.908 369.864,28.676 368.667,28.394 367.871 C 27.815 366.239,27.963 360.440,28.603 359.669 C 28.796 359.435,28.908 358.619,28.852 357.855 L 28.748 356.466 28.550 357.751 M369.527 376.969 C 369.327 377.210,367.824 379.405,366.188 381.846 C 363.439 385.947,363.018 386.419,360.643 388.052 C 354.503 392.274,353.240 393.051,352.154 393.277 C 351.522 393.409,350.137 393.689,349.076 393.899 C 346.551 394.400,344.095 395.136,344.862 395.161 C 345.195 395.172,345.990 395.049,346.629 394.889 C 347.268 394.728,348.948 394.352,350.361 394.053 C 353.623 393.364,353.600 393.375,357.430 390.670 C 359.197 389.423,360.932 388.277,361.285 388.123 C 362.542 387.578,363.904 385.967,366.729 381.687 C 368.303 379.301,369.742 377.249,369.927 377.126 C 370.111 377.003,370.179 376.819,370.077 376.717 C 369.974 376.614,369.727 376.728,369.527 376.969 M57.189 395.577 C 58.793 396.127,341.079 396.125,342.972 395.575 C 344.237 395.207,344.226 395.204,342.329 395.345 C 339.722 395.540,59.604 395.541,57.627 395.346 C 56.066 395.192,56.065 395.192,57.189 395.577 " stroke="none" fill="#fcbc74" fill-rule="evenodd"></path></g></svg>