<svg id="svg" version="1.1" xmlns="http://www.w3.org/2000/svg" xmlns:xlink="http://www.w3.org/1999/xlink" width="400" height="399.03614457831327" viewBox="0, 0, 400,399.03614457831327"><g id="svgg"><path id="path0" d="M0.000 199.518 L 0.000 399.036 200.000 399.036 L 400.000 399.036 400.000 199.518 L 400.000 0.000 200.000 0.000 L 0.000 0.000 0.000 199.518 M343.775 42.713 C 352.555 44.322,360.331 51.423,363.322 60.562 C 364.544 64.294,364.680 68.361,364.587 98.153 L 364.498 126.426 293.735 126.507 L 222.972 126.588 222.972 168.434 C 222.972 191.450,223.068 224.486,223.186 241.847 L 223.399 273.414 293.486 273.414 C 349.894 273.414,363.682 273.494,364.134 273.825 C 364.664 274.212,364.690 276.053,364.586 306.033 L 364.476 337.831 363.600 340.661 C 360.819 349.639,354.220 356.352,345.863 358.704 C 344.803 359.003,343.492 359.380,342.949 359.543 C 341.650 359.933,31.083 359.942,29.742 359.552 C 17.627 356.030,10.207 349.381,8.011 340.080 C 7.802 339.197,7.505 338.142,7.350 337.736 C 6.962 336.719,6.980 65.398,7.368 64.119 C 7.533 63.577,7.844 62.482,8.059 61.687 C 10.511 52.638,20.114 43.938,29.076 42.645 C 30.905 42.381,342.332 42.449,343.775 42.713 M381.365 152.482 C 387.162 154.238,394.538 160.909,394.538 164.394 C 394.538 164.628,394.683 164.819,394.859 164.819 C 395.072 164.819,395.181 176.703,395.181 199.828 L 395.181 234.836 393.815 237.492 C 391.151 242.673,386.198 246.580,380.562 247.948 C 377.662 248.651,270.360 249.011,265.221 248.335 C 255.528 247.058,248.947 241.062,247.406 232.102 C 246.701 228.003,247.074 167.974,247.817 165.944 C 250.759 157.904,257.071 152.655,264.578 152.003 C 270.528 151.486,379.554 151.933,381.365 152.482 M298.795 178.940 C 288.529 180.459,280.803 189.593,280.803 200.211 C 280.803 223.469,311.708 230.544,321.986 209.639 C 329.627 194.095,316.230 176.360,298.795 178.940 " stroke="none" fill="#fbfbfb" fill-rule="evenodd"></path><path id="path1" d="M32.932 43.070 C 32.225 43.216,31.064 43.345,30.353 43.355 C 25.442 43.425,13.958 50.255,12.891 53.741 C 12.824 53.958,12.509 54.426,12.190 54.779 C 10.520 56.630,8.741 61.543,7.886 66.667 C 7.103 71.357,7.305 332.729,8.094 336.867 C 10.332 348.598,19.600 357.450,31.004 358.749 C 33.953 359.085,338.805 359.114,341.526 358.779 C 352.352 357.444,360.780 349.567,363.208 338.514 C 363.648 336.509,363.700 332.396,363.622 305.382 L 363.534 274.538 293.292 274.457 C 235.378 274.390,222.987 274.301,222.695 273.950 C 222.440 273.642,222.317 252.901,222.255 199.814 L 222.169 126.104 292.851 125.944 L 363.534 125.783 363.628 95.582 C 363.728 63.291,363.783 64.680,362.211 59.823 C 360.319 53.979,354.767 47.854,349.076 45.332 C 348.546 45.097,347.891 44.796,347.620 44.662 C 347.349 44.528,346.626 44.312,346.014 44.180 C 345.401 44.049,344.755 43.828,344.578 43.689 C 344.402 43.551,343.390 43.334,342.329 43.207 C 339.597 42.882,34.491 42.746,32.932 43.070 M262.008 153.222 C 257.170 154.581,252.105 158.439,250.376 162.083 C 249.955 162.970,249.486 163.912,249.334 164.177 C 249.063 164.650,248.771 165.706,248.065 168.760 C 247.472 171.325,247.580 228.927,248.183 231.818 C 250.026 240.651,255.275 245.752,264.257 247.437 C 268.062 248.151,373.717 248.233,377.831 247.525 C 382.789 246.672,384.827 245.846,388.079 243.374 C 390.596 241.459,393.896 236.829,393.896 235.211 C 393.896 234.909,394.108 234.380,394.367 234.037 C 395.079 233.096,395.099 167.187,394.388 166.246 C 394.128 165.903,393.911 165.327,393.906 164.966 C 393.849 161.295,386.763 154.850,381.051 153.274 C 377.643 152.333,265.345 152.284,262.008 153.222 M304.739 178.013 C 314.685 179.355,322.448 186.127,324.234 195.020 C 325.115 199.408,325.114 201.454,324.228 205.622 C 321.530 218.321,307.433 226.054,295.013 221.649 C 279.278 216.068,274.743 196.399,286.468 184.584 C 290.171 180.853,294.293 178.778,299.438 178.054 C 300.586 177.892,301.671 177.739,301.847 177.713 C 302.024 177.688,303.325 177.822,304.739 178.013 " stroke="none" fill="#fb7c04" fill-rule="evenodd"></path><path id="path2" d="M33.016 42.637 C 33.415 42.714,33.994 42.711,34.301 42.630 C 34.608 42.550,34.281 42.487,33.574 42.491 C 32.867 42.494,32.616 42.560,33.016 42.637 M16.989 48.860 L 15.582 50.170 17.108 48.953 C 17.948 48.283,18.635 47.694,18.635 47.643 C 18.635 47.395,18.284 47.655,16.989 48.860 M357.269 51.185 C 357.269 51.240,357.739 51.710,358.313 52.229 L 359.357 53.173 358.414 52.129 C 357.534 51.155,357.269 50.937,357.269 51.185 M363.057 61.874 C 363.060 62.213,363.209 62.707,363.388 62.972 C 363.626 63.324,363.656 63.194,363.499 62.490 C 363.234 61.309,363.051 61.052,363.057 61.874 M363.791 65.221 C 363.791 66.193,363.851 66.590,363.925 66.104 C 363.999 65.618,363.999 64.823,363.925 64.337 C 363.851 63.851,363.791 64.249,363.791 65.221 M7.229 66.827 C 7.107 67.383,7.074 67.904,7.156 67.986 C 7.238 68.068,7.397 67.673,7.510 67.108 C 7.778 65.769,7.518 65.510,7.229 66.827 M364.095 97.242 C 364.033 119.801,363.931 125.925,363.614 126.052 C 363.300 126.179,363.302 126.220,363.625 126.240 C 364.339 126.284,364.344 126.031,364.258 97.028 L 364.173 68.594 364.095 97.242 M222.484 188.916 C 222.484 208.088,222.523 215.932,222.570 206.345 C 222.617 196.759,222.617 181.072,222.570 171.486 C 222.523 161.900,222.484 169.743,222.484 188.916 M254.598 156.546 L 253.655 157.590 254.699 156.647 C 255.273 156.128,255.743 155.658,255.743 155.603 C 255.743 155.354,255.478 155.573,254.598 156.546 M388.755 156.888 C 388.755 156.943,389.225 157.413,389.799 157.932 L 390.843 158.876 389.900 157.831 C 389.020 156.858,388.755 156.639,388.755 156.888 M252.055 158.956 C 251.365 159.795,251.133 160.193,251.539 159.839 C 252.258 159.215,253.653 157.430,253.423 157.430 C 253.360 157.430,252.744 158.116,252.055 158.956 M301.931 178.219 C 302.331 178.296,302.909 178.293,303.217 178.213 C 303.524 178.132,303.197 178.069,302.490 178.073 C 301.783 178.077,301.532 178.142,301.931 178.219 M298.394 178.540 C 298.791 178.617,299.442 178.617,299.839 178.540 C 300.237 178.463,299.912 178.401,299.116 178.401 C 298.321 178.401,297.996 178.463,298.394 178.540 M304.823 178.540 C 305.223 178.617,305.801 178.614,306.108 178.534 C 306.415 178.454,306.088 178.391,305.382 178.394 C 304.675 178.398,304.423 178.464,304.823 178.540 M289.144 182.513 L 288.032 183.500 289.237 182.636 C 290.302 181.872,290.648 181.526,290.349 181.526 C 290.298 181.526,289.756 181.970,289.144 182.513 M316.466 183.233 C 316.466 183.288,316.936 183.758,317.510 184.277 L 318.554 185.221 317.611 184.177 C 316.731 183.203,316.466 182.985,316.466 183.233 M284.692 186.838 C 284.143 187.463,283.695 188.070,283.695 188.188 C 283.695 188.305,283.804 188.264,283.938 188.096 C 284.072 187.929,284.605 187.321,285.123 186.747 C 285.640 186.173,285.980 185.703,285.877 185.703 C 285.773 185.703,285.240 186.214,284.692 186.838 M324.603 200.321 C 324.605 201.558,324.663 202.025,324.732 201.358 C 324.802 200.692,324.801 199.680,324.730 199.109 C 324.659 198.539,324.602 199.084,324.603 200.321 M321.316 211.586 C 320.945 212.215,320.787 212.639,320.966 212.529 C 321.314 212.314,322.357 210.442,322.128 210.442 C 322.053 210.442,321.687 210.956,321.316 211.586 M318.087 215.691 L 315.691 218.313 317.869 216.225 C 319.644 214.522,321.020 212.902,320.574 213.040 C 320.523 213.056,319.404 214.249,318.087 215.691 M285.622 215.100 C 286.222 215.719,286.785 216.225,286.873 216.225 C 286.961 216.225,286.543 215.719,285.944 215.100 C 285.344 214.482,284.782 213.976,284.693 213.976 C 284.605 213.976,285.023 214.482,285.622 215.100 M299.518 222.551 C 299.827 222.632,300.333 222.632,300.643 222.551 C 300.952 222.470,300.699 222.404,300.080 222.404 C 299.462 222.404,299.209 222.470,299.518 222.551 M262.570 247.611 C 262.880 247.692,263.386 247.692,263.695 247.611 C 264.004 247.530,263.751 247.464,263.133 247.464 C 262.514 247.464,262.261 247.530,262.570 247.611 M379.197 247.611 C 379.506 247.692,380.012 247.692,380.321 247.611 C 380.631 247.530,380.378 247.464,379.759 247.464 C 379.141 247.464,378.888 247.530,379.197 247.611 M293.921 248.273 C 309.176 248.319,334.043 248.319,349.182 248.273 C 364.321 248.227,351.839 248.189,321.446 248.189 C 291.052 248.189,278.666 248.227,293.921 248.273 M222.721 261.427 C 222.682 268.175,222.759 273.764,222.892 273.846 C 223.111 273.982,223.106 264.485,222.880 253.494 C 222.832 251.108,222.760 254.678,222.721 261.427 M363.613 274.291 C 363.926 274.512,364.031 281.025,364.097 304.275 L 364.182 333.976 364.179 304.123 C 364.177 277.861,364.119 274.255,363.695 274.139 C 363.340 274.042,363.318 274.082,363.613 274.291 M7.096 334.458 C 7.105 334.723,7.238 335.229,7.390 335.582 L 7.666 336.225 7.683 335.582 C 7.693 335.229,7.561 334.723,7.390 334.458 C 7.113 334.029,7.080 334.029,7.096 334.458 M363.794 336.546 C 363.796 337.606,363.856 338.001,363.928 337.424 C 363.999 336.847,363.998 335.979,363.924 335.496 C 363.851 335.013,363.793 335.486,363.794 336.546 M8.699 341.205 C 8.698 341.668,9.604 343.507,9.627 343.089 C 9.633 342.977,9.427 342.399,9.169 341.804 C 8.911 341.209,8.699 340.940,8.699 341.205 M12.851 349.016 C 12.851 349.071,13.321 349.541,13.896 350.060 L 14.940 351.004 13.996 349.960 C 13.117 348.987,12.851 348.768,12.851 349.016 M356.446 351.888 L 355.502 352.932 356.546 351.988 C 357.520 351.108,357.738 350.843,357.490 350.843 C 357.435 350.843,356.965 351.313,356.446 351.888 M16.225 352.450 C 16.915 353.157,17.552 353.735,17.640 353.735 C 17.729 353.735,17.236 353.157,16.546 352.450 C 15.856 351.743,15.219 351.165,15.131 351.165 C 15.042 351.165,15.535 351.743,16.225 352.450 M31.647 359.340 C 33.354 359.840,339.055 360.074,340.309 359.576 C 340.612 359.456,271.648 359.357,187.056 359.357 C 102.464 359.357,32.530 359.248,31.647 359.114 L 30.040 358.870 31.647 359.340 " stroke="none" fill="#f3a55a" fill-rule="evenodd"></path><path id="path3" d="M110.120 42.651 C 151.691 42.696,219.715 42.696,261.285 42.651 C 302.855 42.606,268.843 42.569,185.703 42.569 C 102.562 42.569,68.550 42.606,110.120 42.651 M30.683 43.052 C 29.131 43.265,29.120 43.274,30.361 43.305 C 31.068 43.322,32.225 43.217,32.932 43.071 C 34.572 42.731,33.109 42.719,30.683 43.052 M341.450 43.279 C 341.849 43.356,342.427 43.353,342.735 43.273 C 343.042 43.193,342.715 43.130,342.008 43.133 C 341.301 43.137,341.050 43.203,341.450 43.279 M26.092 43.997 C 24.674 44.481,23.608 45.007,24.123 44.970 C 24.608 44.936,28.659 43.424,28.273 43.422 C 28.008 43.420,27.027 43.679,26.092 43.997 M22.410 45.485 C 21.164 46.161,21.305 46.394,22.570 45.751 C 23.781 45.135,23.996 44.975,23.588 44.993 C 23.426 45.000,22.896 45.221,22.410 45.485 M350.201 45.741 C 350.201 45.819,350.857 46.267,351.659 46.737 C 352.462 47.208,353.618 48.032,354.230 48.568 C 355.264 49.476,355.836 49.596,354.940 48.717 C 354.031 47.826,350.201 45.421,350.201 45.741 M19.357 47.261 C 17.490 48.583,17.624 48.794,19.518 47.514 C 21.402 46.240,21.376 46.262,21.017 46.279 C 20.855 46.287,20.108 46.729,19.357 47.261 M16.461 49.487 C 15.884 50.012,15.531 50.442,15.678 50.442 C 15.824 50.442,16.360 50.008,16.867 49.478 C 18.048 48.245,17.820 48.251,16.461 49.487 M356.333 50.319 C 356.759 50.870,357.173 51.263,357.252 51.193 C 357.331 51.122,356.982 50.672,356.476 50.191 L 355.557 49.317 356.333 50.319 M14.779 51.184 C 14.514 51.404,13.938 52.014,13.498 52.539 C 12.961 53.182,13.144 53.079,14.061 52.224 C 15.287 51.080,15.585 50.742,15.341 50.773 C 15.297 50.779,15.044 50.964,14.779 51.184 M359.103 53.889 C 359.950 55.135,360.691 56.109,360.750 56.055 C 360.921 55.899,358.717 52.577,358.112 52.078 C 357.810 51.829,358.256 52.644,359.103 53.889 M11.510 55.328 C 10.429 57.000,9.626 58.607,9.651 59.051 C 9.658 59.175,10.102 58.410,10.638 57.349 C 11.173 56.289,11.915 55.097,12.286 54.700 C 12.657 54.303,12.882 53.900,12.786 53.803 C 12.689 53.707,12.115 54.393,11.510 55.328 M362.115 59.511 C 362.454 60.438,362.742 61.487,362.756 61.843 C 362.772 62.232,362.850 62.319,362.953 62.062 C 363.145 61.579,362.172 58.242,361.764 57.990 C 361.619 57.900,361.777 58.585,362.115 59.511 M8.537 61.870 C 8.419 62.341,8.384 62.788,8.460 62.864 C 8.536 62.940,8.694 62.617,8.812 62.146 C 8.931 61.675,8.965 61.228,8.890 61.152 C 8.814 61.076,8.655 61.399,8.537 61.870 M363.248 63.454 C 363.513 64.635,363.696 64.892,363.690 64.070 C 363.687 63.731,363.538 63.237,363.359 62.972 C 363.121 62.620,363.091 62.750,363.248 63.454 M7.614 66.393 C 6.760 71.066,6.946 332.785,7.806 336.707 L 8.335 339.116 8.164 337.078 C 8.070 335.958,7.858 334.683,7.691 334.246 C 7.102 332.696,7.302 69.566,7.895 66.701 C 8.173 65.357,8.354 64.025,8.297 63.743 C 8.240 63.460,7.932 64.653,7.614 66.393 M363.694 96.225 L 363.534 125.783 292.851 125.944 L 222.169 126.104 222.167 173.655 L 222.164 221.205 222.327 173.815 L 222.490 126.426 293.066 126.265 C 331.882 126.177,363.726 126.019,363.830 125.915 C 363.934 125.811,363.982 112.438,363.937 96.196 L 363.854 66.667 363.694 96.225 M321.928 152.607 C 366.686 152.734,380.171 152.862,381.023 153.168 C 381.630 153.385,382.185 153.504,382.258 153.432 C 383.172 152.518,379.292 152.455,321.928 152.448 L 263.936 152.441 321.928 152.607 M261.606 152.970 C 261.032 153.136,260.562 153.336,260.562 153.415 C 260.562 153.593,262.426 153.244,263.293 152.904 L 263.936 152.651 263.293 152.660 C 262.940 152.665,262.181 152.804,261.606 152.970 M257.592 154.622 C 256.931 154.990,256.436 155.338,256.492 155.395 C 256.627 155.529,259.277 154.248,259.277 154.049 C 259.277 153.781,258.829 153.934,257.592 154.622 M385.675 155.187 C 386.890 155.898,387.932 156.432,387.990 156.374 C 388.129 156.236,384.126 153.896,383.752 153.896 C 383.594 153.896,384.459 154.477,385.675 155.187 M254.447 156.882 C 253.646 157.625,252.778 158.520,252.519 158.872 C 252.260 159.223,252.952 158.648,254.056 157.594 C 255.872 155.860,256.232 155.472,255.984 155.516 C 255.940 155.524,255.248 156.139,254.447 156.882 M389.404 157.956 C 390.116 158.599,391.221 159.972,391.861 161.008 C 393.199 163.177,393.650 163.533,392.551 161.553 C 391.736 160.086,388.863 156.787,388.401 156.787 C 388.241 156.787,388.693 157.313,389.404 157.956 M251.171 160.241 C 250.502 161.000,248.866 164.295,249.286 164.035 C 249.470 163.922,249.919 163.153,250.284 162.328 C 250.649 161.502,251.182 160.568,251.468 160.253 C 251.753 159.937,251.915 159.679,251.826 159.679 C 251.738 159.679,251.443 159.932,251.171 160.241 M393.906 164.992 C 393.911 165.339,394.128 165.903,394.388 166.246 C 395.134 167.233,395.095 232.916,394.347 234.057 C 394.066 234.487,393.910 235.024,394.001 235.251 C 394.111 235.525,394.175 235.488,394.192 235.140 C 394.205 234.852,394.434 234.437,394.699 234.217 C 395.566 233.497,395.411 167.334,394.538 165.622 C 394.125 164.811,393.899 164.587,393.906 164.992 M247.858 167.952 C 247.724 168.614,247.596 182.892,247.576 199.679 L 247.537 230.201 247.737 199.679 C 247.847 182.892,248.046 168.614,248.180 167.952 C 248.314 167.289,248.351 166.747,248.263 166.747 C 248.175 166.747,247.992 167.289,247.858 167.952 M300.402 177.992 C 299.548 178.172,299.471 178.234,300.080 178.252 C 300.522 178.266,301.462 178.157,302.169 178.010 C 303.240 177.789,303.293 177.745,302.490 177.750 C 301.960 177.753,301.020 177.862,300.402 177.992 M296.064 178.626 C 295.711 178.775,294.947 179.073,294.367 179.290 C 292.398 180.027,293.496 179.884,295.750 179.110 C 296.983 178.687,297.703 178.344,297.349 178.349 C 296.996 178.353,296.418 178.478,296.064 178.626 M309.558 179.185 C 309.912 179.270,310.338 179.470,310.506 179.630 C 310.674 179.789,310.955 179.920,311.130 179.920 C 311.305 179.920,311.167 179.707,310.824 179.448 C 310.481 179.189,309.912 178.988,309.558 179.003 L 308.916 179.030 309.558 179.185 M290.960 180.963 C 288.105 182.511,282.142 188.755,282.846 189.459 C 282.935 189.548,283.300 189.046,283.659 188.344 C 284.628 186.444,288.776 182.461,291.044 181.252 C 292.126 180.675,293.012 180.139,293.012 180.061 C 293.012 179.851,293.003 179.855,290.960 180.963 M312.405 180.317 C 312.734 180.540,313.649 181.142,314.439 181.654 C 317.531 183.658,320.131 186.458,321.706 189.477 C 322.025 190.090,322.361 190.518,322.451 190.427 C 323.467 189.412,316.484 182.124,312.843 180.401 C 312.273 180.131,312.076 180.093,312.405 180.317 M323.380 192.771 C 323.981 195.153,324.111 195.501,324.144 194.816 C 324.162 194.439,323.952 193.644,323.677 193.049 C 323.349 192.338,323.247 192.243,323.380 192.771 M280.248 196.627 C 280.248 197.422,280.311 197.747,280.387 197.349 C 280.464 196.952,280.464 196.301,280.387 195.904 C 280.311 195.506,280.248 195.831,280.248 196.627 M324.384 196.948 C 324.638 198.333,324.821 198.595,324.814 197.564 C 324.812 197.137,324.667 196.570,324.494 196.305 C 324.271 195.966,324.239 196.157,324.384 196.948 M279.942 200.482 C 279.942 201.631,280.001 202.100,280.072 201.526 C 280.143 200.952,280.143 200.012,280.072 199.438 C 280.001 198.863,279.942 199.333,279.942 200.482 M324.542 202.946 C 324.518 203.329,324.415 203.907,324.313 204.231 C 324.138 204.788,324.148 204.789,324.495 204.248 C 324.697 203.933,324.799 203.355,324.724 202.963 C 324.586 202.250,324.585 202.250,324.542 202.946 M280.217 204.016 C 280.202 204.811,280.402 205.896,280.662 206.426 C 280.922 206.956,281.043 207.100,280.932 206.747 C 280.821 206.394,280.621 205.309,280.487 204.337 L 280.245 202.570 280.217 204.016 M323.888 205.783 C 323.797 207.171,322.290 210.659,320.763 213.012 L 320.242 213.815 320.936 213.012 C 322.404 211.312,324.355 206.752,324.073 205.682 C 323.959 205.249,323.922 205.269,323.888 205.783 M281.148 207.871 C 281.147 208.334,282.054 210.174,282.077 209.756 C 282.083 209.644,281.877 209.065,281.619 208.471 C 281.361 207.876,281.149 207.606,281.148 207.871 M282.939 211.807 C 288.114 220.253,297.307 224.309,307.149 222.488 C 310.717 221.827,315.617 218.981,318.554 215.862 L 320.481 213.815 318.232 215.953 C 315.699 218.362,313.213 220.022,310.843 220.889 C 309.960 221.212,309.092 221.579,308.916 221.704 C 308.439 222.042,306.382 222.341,303.143 222.541 C 295.893 222.990,288.183 219.161,284.119 213.092 C 283.152 211.648,282.219 210.632,282.939 211.807 M222.407 248.555 C 222.343 269.304,222.405 273.719,222.763 274.016 C 223.080 274.279,242.147 274.398,293.365 274.457 L 363.534 274.538 363.697 304.739 L 363.860 334.940 363.938 304.659 C 363.981 288.004,363.980 274.342,363.936 274.299 C 363.892 274.256,332.120 274.147,293.333 274.058 L 222.811 273.896 222.648 248.675 L 222.484 223.454 222.407 248.555 M247.781 230.843 C 247.784 231.197,247.897 231.920,248.032 232.450 C 248.252 233.316,248.278 233.332,248.283 232.610 C 248.287 232.169,248.174 231.446,248.032 231.004 C 247.831 230.375,247.776 230.340,247.781 230.843 M249.021 235.842 C 249.007 236.118,249.221 236.624,249.496 236.967 C 249.987 237.580,249.991 237.580,249.700 236.948 C 249.537 236.594,249.324 236.088,249.225 235.823 C 249.071 235.407,249.043 235.410,249.021 235.842 M393.092 237.108 C 392.818 237.639,392.666 238.072,392.755 238.072 C 392.843 238.072,393.140 237.639,393.414 237.108 C 393.688 236.578,393.840 236.145,393.751 236.145 C 393.663 236.145,393.367 236.578,393.092 237.108 M391.569 239.714 C 391.085 240.402,390.752 240.964,390.830 240.964 C 391.060 240.964,392.712 238.708,392.575 238.581 C 392.506 238.517,392.054 239.027,391.569 239.714 M251.603 240.562 C 252.191 241.321,253.449 242.562,254.614 243.536 C 255.142 243.977,254.636 243.363,253.490 242.173 C 251.448 240.052,250.734 239.443,251.603 240.562 M390.057 241.747 C 389.846 242.001,388.825 242.830,387.789 243.589 C 386.753 244.347,385.961 245.024,386.030 245.093 C 386.204 245.267,389.073 243.125,390.016 242.118 C 390.444 241.660,390.715 241.285,390.617 241.285 C 390.520 241.285,390.268 241.493,390.057 241.747 M256.707 244.967 C 256.707 245.553,261.882 247.493,262.912 247.292 C 263.549 247.168,263.540 247.151,262.811 247.107 C 261.820 247.048,259.631 246.298,257.962 245.447 C 257.272 245.094,256.707 244.879,256.707 244.967 M384.759 245.521 C 383.729 246.119,380.948 247.065,380.085 247.112 C 379.358 247.151,379.348 247.169,379.980 247.292 C 380.967 247.484,385.542 245.840,385.542 245.293 C 385.542 245.086,385.477 245.105,384.759 245.521 M264.900 247.711 C 266.259 248.057,267.425 248.057,266.345 247.711 C 265.904 247.569,265.181 247.456,264.739 247.460 C 264.017 247.465,264.034 247.491,264.900 247.711 M376.707 247.711 C 375.841 247.931,375.825 247.957,376.546 247.962 C 376.988 247.965,377.711 247.852,378.153 247.711 C 379.232 247.365,378.066 247.365,376.707 247.711 M363.413 337.510 C 363.386 337.863,363.290 338.514,363.199 338.956 L 363.034 339.759 363.378 338.971 C 363.568 338.537,363.664 337.887,363.592 337.525 C 363.464 336.884,363.460 336.884,363.413 337.510 M362.327 341.753 C 361.496 344.540,359.026 348.652,356.756 351.025 C 355.647 352.184,354.911 353.076,355.121 353.008 C 357.161 352.340,363.560 341.925,362.987 340.206 C 362.929 340.032,362.632 340.729,362.327 341.753 M10.281 344.549 C 10.281 345.964,16.467 352.849,19.438 354.742 C 21.302 355.930,25.466 357.913,26.083 357.908 C 26.316 357.906,25.377 357.411,23.996 356.808 C 18.953 354.606,14.804 351.121,11.758 346.527 C 10.946 345.301,10.281 344.411,10.281 344.549 M353.253 354.227 C 351.996 355.257,352.335 355.250,353.735 354.217 C 354.334 353.775,354.687 353.419,354.520 353.425 C 354.353 353.432,353.783 353.792,353.253 354.227 M348.755 356.799 C 348.225 357.041,348.017 357.247,348.292 357.255 C 348.567 357.263,349.073 357.057,349.417 356.797 C 350.178 356.221,350.015 356.222,348.755 356.799 M30.843 358.966 C 33.909 359.525,339.237 359.526,342.008 358.967 L 343.936 358.579 341.687 358.805 C 338.854 359.090,34.059 359.081,31.004 358.795 L 28.755 358.585 30.843 358.966 " stroke="none" fill="#f69231" fill-rule="evenodd"></path><path id="path4" d="M28.755 42.725 C 28.048 42.855,27.108 43.130,26.667 43.336 C 25.924 43.683,25.949 43.696,26.988 43.506 C 27.606 43.393,29.124 43.118,30.361 42.895 C 32.094 42.584,32.315 42.490,31.325 42.490 C 30.618 42.490,29.462 42.596,28.755 42.725 M342.008 42.755 C 352.459 44.464,359.840 50.989,363.243 61.526 L 364.177 64.418 364.177 95.261 L 364.177 126.104 293.613 126.185 C 236.700 126.251,222.983 126.346,222.708 126.678 C 222.283 127.190,222.775 273.346,223.203 273.774 C 223.362 273.932,254.206 274.090,293.831 274.136 L 364.177 274.217 364.176 305.863 C 364.175 339.883,364.264 337.730,362.677 342.329 C 360.592 348.376,355.470 354.028,349.496 356.874 C 346.928 358.098,345.898 358.413,341.687 359.265 C 340.131 359.580,339.943 359.678,340.713 359.775 C 341.238 359.842,342.178 359.752,342.801 359.576 C 343.425 359.400,344.803 359.010,345.863 358.709 C 354.242 356.330,360.819 349.637,363.600 340.661 L 364.476 337.831 364.586 306.033 C 364.690 276.053,364.664 274.212,364.134 273.825 C 363.682 273.494,349.894 273.414,293.486 273.414 L 223.399 273.414 223.186 241.847 C 223.068 224.486,222.972 191.450,222.972 168.434 L 222.972 126.588 293.735 126.507 L 364.498 126.426 364.587 98.153 C 364.696 63.509,364.639 62.697,361.711 56.616 C 358.119 49.156,349.763 43.111,342.329 42.596 L 340.080 42.440 342.008 42.755 M22.451 44.933 C 15.330 48.507,9.953 54.765,8.054 61.687 C 7.836 62.482,7.511 63.646,7.332 64.274 C 7.153 64.902,7.064 65.770,7.134 66.202 C 7.222 66.743,7.382 66.388,7.650 65.060 C 9.557 55.607,14.702 48.979,23.254 44.958 C 24.689 44.283,25.647 43.725,25.382 43.718 C 25.116 43.710,23.798 44.257,22.451 44.933 M264.578 152.003 C 257.071 152.655,250.759 157.904,247.817 165.944 C 247.074 167.974,246.701 228.003,247.406 232.102 C 248.947 241.062,255.528 247.058,265.221 248.335 C 270.360 249.011,377.662 248.651,380.562 247.948 C 383.608 247.209,387.057 245.413,389.129 243.487 L 390.843 241.894 388.755 243.467 C 385.231 246.121,382.460 247.271,377.794 248.014 C 374.840 248.486,268.052 248.486,265.097 248.014 C 259.567 247.133,256.764 245.798,253.327 242.410 C 250.101 239.230,249.058 237.361,247.858 232.610 C 247.206 230.025,247.177 170.811,247.827 167.711 C 249.361 160.392,254.846 154.585,261.943 152.767 C 265.384 151.885,378.963 152.066,381.714 152.957 C 387.612 154.868,393.195 160.150,394.338 164.900 C 394.562 165.830,395.181 166.125,395.181 165.301 C 395.181 165.036,395.036 164.819,394.859 164.819 C 394.683 164.819,394.538 164.628,394.538 164.394 C 394.538 160.909,387.162 154.238,381.365 152.482 C 379.554 151.933,270.528 151.486,264.578 152.003 M298.795 178.628 C 295.650 179.088,290.606 181.123,289.940 182.201 C 289.814 182.404,290.635 182.057,291.763 181.430 C 300.929 176.336,313.074 178.660,319.253 186.690 C 328.173 198.284,324.556 213.551,311.325 220.149 C 310.353 220.633,309.754 221.033,309.993 221.037 C 312.727 221.082,319.354 215.226,321.984 210.442 C 324.491 205.880,325.233 198.039,323.551 193.896 C 323.407 193.542,323.027 192.602,322.707 191.807 C 318.989 182.590,309.073 177.124,298.795 178.628 M286.805 184.861 C 277.221 194.707,278.383 210.075,289.321 218.156 C 291.445 219.724,295.683 221.711,296.802 221.663 C 297.103 221.650,296.556 221.358,295.586 221.014 C 279.835 215.427,275.614 196.549,287.456 184.659 C 288.644 183.466,289.502 182.490,289.364 182.490 C 289.226 182.490,288.074 183.557,286.805 184.861 M308.112 221.365 C 307.684 221.642,307.684 221.677,308.112 221.677 C 308.378 221.677,308.811 221.537,309.076 221.365 C 309.505 221.089,309.505 221.054,309.076 221.054 C 308.811 221.054,308.378 221.194,308.112 221.365 M298.282 222.000 C 300.201 222.617,303.403 222.703,305.542 222.196 L 307.631 221.700 305.542 221.915 C 302.848 222.192,301.974 222.193,299.438 221.923 C 297.971 221.767,297.627 221.790,298.282 222.000 M394.508 235.059 C 393.725 236.989,392.495 239.241,391.591 240.402 C 391.075 241.064,390.790 241.606,390.958 241.606 C 391.658 241.606,395.522 234.773,395.075 234.325 C 394.970 234.220,394.715 234.550,394.508 235.059 M7.068 336.049 C 7.068 336.571,7.195 337.330,7.350 337.736 C 7.505 338.142,7.802 339.197,8.011 340.080 C 9.876 347.979,17.366 355.674,25.772 358.327 C 30.140 359.706,30.978 359.901,31.978 359.775 C 32.748 359.678,32.560 359.580,31.004 359.265 C 27.447 358.546,25.871 358.142,24.739 357.659 C 24.120 357.396,23.253 357.024,22.811 356.833 C 20.750 355.943,16.989 353.240,15.058 351.261 C 10.805 346.900,8.897 343.188,7.699 336.948 C 7.310 334.922,7.068 334.578,7.068 336.049 " stroke="none" fill="#fbbc87" fill-rule="evenodd"></path></g></svg>