<svg id="svg" version="1.1" xmlns="http://www.w3.org/2000/svg" xmlns:xlink="http://www.w3.org/1999/xlink" width="400" height="399.03614457831327" viewBox="0, 0, 400,399.03614457831327"><g id="svgg"><path id="path0" d="M0.000 199.518 L 0.000 399.036 200.000 399.036 L 400.000 399.036 400.000 199.518 L 400.000 0.000 200.000 0.000 L 0.000 0.000 0.000 199.518 M205.720 10.468 C 209.999 11.409,213.830 12.966,216.225 14.738 C 216.843 15.196,219.157 17.013,221.365 18.776 C 225.367 21.970,226.547 22.927,232.232 27.586 C 233.879 28.936,235.776 30.474,236.448 31.004 C 237.120 31.534,241.194 34.846,245.502 38.363 C 249.809 41.881,253.971 45.279,254.750 45.914 C 260.112 50.285,266.064 55.154,267.149 56.056 C 267.855 56.643,269.157 57.704,270.040 58.413 C 274.000 61.590,279.495 66.073,280.969 67.330 C 283.576 69.554,283.445 69.868,283.404 61.526 C 283.335 47.424,284.677 43.840,291.282 40.482 L 293.494 39.357 311.950 39.267 C 333.972 39.159,334.424 39.234,338.429 43.683 C 342.200 47.872,342.163 47.462,342.166 85.187 L 342.169 117.201 346.069 120.368 C 350.705 124.132,356.575 128.924,361.165 132.691 C 362.995 134.193,365.144 135.920,365.941 136.528 C 366.738 137.137,367.462 137.727,367.550 137.840 C 367.639 137.954,368.589 138.757,369.661 139.626 C 391.601 157.391,393.599 159.090,395.465 161.567 L 397.269 163.963 397.371 168.815 L 397.473 173.666 396.339 175.152 C 395.193 176.652,392.623 178.467,390.846 179.030 C 388.073 179.910,386.400 180.024,373.655 180.206 L 360.000 180.402 359.826 275.020 C 359.697 344.880,359.555 370.017,359.281 371.084 C 357.462 378.190,352.075 384.709,345.657 387.572 C 340.599 389.829,343.022 389.719,298.398 389.719 C 256.042 389.719,257.451 389.767,253.012 388.178 C 246.439 385.824,240.021 379.295,238.018 372.924 C 236.625 368.491,236.680 370.234,236.575 327.390 C 236.474 286.250,236.458 285.686,235.352 283.530 C 232.087 277.165,232.445 277.227,199.496 277.339 L 172.691 277.430 171.011 278.281 C 168.565 279.520,166.801 281.025,165.630 282.872 C 163.392 286.402,163.535 283.358,163.528 327.527 C 163.521 370.154,163.531 369.860,161.923 374.137 C 158.988 381.940,152.903 387.287,144.578 389.378 C 142.501 389.900,60.875 389.684,58.715 389.151 C 50.793 387.196,41.124 377.508,41.124 371.524 C 41.124 371.082,40.978 370.448,40.800 370.114 C 40.583 369.708,40.476 338.236,40.478 275.380 C 40.479 223.611,40.393 181.026,40.286 180.747 C 40.114 180.299,38.680 180.240,27.676 180.235 C 9.249 180.225,5.407 179.153,2.715 173.268 C -0.089 167.139,2.970 161.625,13.815 153.254 C 14.610 152.640,15.420 151.991,15.615 151.812 C 16.073 151.390,37.420 133.956,44.899 127.896 C 45.562 127.359,48.003 125.362,50.323 123.460 C 54.538 120.003,62.840 113.247,69.576 107.791 C 71.539 106.201,80.127 99.189,88.660 92.209 C 97.193 85.229,105.008 78.867,106.027 78.072 C 107.650 76.805,112.940 72.498,119.838 66.827 C 121.020 65.855,123.328 63.976,124.967 62.651 C 126.605 61.325,128.110 60.094,128.310 59.914 C 128.738 59.530,142.025 48.701,143.492 47.540 C 144.043 47.104,147.151 44.572,150.399 41.913 C 153.648 39.255,159.775 34.253,164.016 30.798 C 168.257 27.343,173.100 23.397,174.779 22.029 C 183.719 14.746,184.499 14.178,187.732 12.606 C 189.451 11.769,189.682 11.694,193.735 10.648 C 196.846 9.846,202.502 9.761,205.720 10.468 " stroke="none" fill="#fcfbfa" fill-rule="evenodd"></path><path id="path1" d="M196.847 10.810 C 196.733 10.924,195.661 11.203,194.464 11.429 C 188.040 12.644,186.247 13.666,176.362 21.744 C 174.670 23.126,171.850 25.414,170.097 26.827 C 168.343 28.241,165.606 30.482,164.016 31.807 C 159.749 35.363,158.228 36.610,155.982 38.394 C 152.593 41.085,149.246 43.810,149.076 44.016 C 148.988 44.123,147.844 45.071,146.533 46.122 C 145.223 47.172,143.416 48.644,142.517 49.392 C 141.619 50.140,140.378 51.149,139.759 51.635 C 139.141 52.121,137.695 53.286,136.546 54.223 C 135.398 55.160,133.663 56.569,132.691 57.354 C 131.719 58.139,129.824 59.688,128.479 60.796 C 127.135 61.905,125.472 63.264,124.785 63.816 C 124.097 64.369,122.811 65.419,121.928 66.150 C 121.044 66.881,119.525 68.091,118.551 68.840 C 117.577 69.588,116.276 70.656,115.659 71.212 C 114.512 72.248,112.997 73.475,109.880 75.897 C 108.909 76.652,107.897 77.502,107.631 77.786 C 107.366 78.070,105.366 79.733,103.187 81.481 C 101.007 83.229,98.244 85.454,97.046 86.426 C 95.848 87.398,93.800 89.052,92.494 90.103 C 91.189 91.154,90.048 92.094,89.960 92.192 C 89.871 92.289,89.076 92.945,88.193 93.648 C 87.309 94.351,86.423 95.074,86.223 95.254 C 86.023 95.435,84.590 96.594,83.039 97.831 C 81.488 99.068,79.627 100.596,78.905 101.227 C 78.182 101.857,76.723 103.048,75.663 103.874 C 73.772 105.347,72.769 106.165,68.100 110.040 C 66.823 111.100,64.949 112.618,63.936 113.414 C 62.923 114.209,61.051 115.727,59.777 116.787 C 58.503 117.847,56.553 119.438,55.443 120.321 C 54.334 121.205,52.383 122.795,51.108 123.855 C 49.833 124.916,48.258 126.190,47.608 126.686 C 46.958 127.183,45.992 128.006,45.462 128.515 C 44.932 129.024,43.755 129.991,42.847 130.664 C 41.041 132.002,36.983 135.278,36.271 135.973 C 36.025 136.213,35.245 136.832,34.538 137.350 C 33.831 137.867,32.654 138.801,31.921 139.426 C 30.180 140.911,27.099 143.457,24.096 145.891 C 22.771 146.966,20.819 148.554,19.759 149.421 C 18.699 150.288,16.809 151.830,15.559 152.848 C 14.309 153.866,11.877 155.849,10.153 157.255 C 6.751 160.031,4.161 163.166,3.538 165.261 C 3.321 165.990,2.921 167.126,2.650 167.787 C 1.804 169.840,3.553 174.288,5.947 176.173 C 9.630 179.073,13.321 179.598,30.009 179.598 L 40.728 179.598 40.922 180.321 C 41.029 180.719,41.118 223.044,41.120 274.378 C 41.124 352.793,41.196 368.045,41.571 369.799 C 42.058 372.081,43.192 375.281,43.961 376.546 C 46.312 380.413,47.727 382.111,50.039 383.838 C 50.702 384.333,51.431 384.915,51.659 385.130 C 52.761 386.171,57.682 388.071,61.044 388.753 C 63.404 389.232,142.457 389.028,144.578 388.537 C 153.593 386.453,161.058 378.445,162.345 369.478 C 162.510 368.329,162.737 349.028,162.849 326.586 L 163.052 285.783 163.971 283.970 C 165.614 280.728,168.596 278.246,172.435 276.925 C 175.133 275.997,226.055 275.958,228.607 276.882 C 232.531 278.303,234.350 279.873,236.215 283.444 L 237.269 285.462 237.464 326.747 C 237.652 366.693,237.724 369.451,238.645 372.209 C 240.103 376.575,245.427 383.746,247.806 384.548 C 248.019 384.620,248.627 384.994,249.157 385.379 C 250.757 386.543,254.020 387.880,256.867 388.537 C 259.111 389.056,337.695 389.056,340.241 388.538 C 349.237 386.707,356.531 379.416,358.665 370.120 C 358.888 369.149,359.030 337.746,359.098 274.395 C 359.179 199.615,359.283 180.064,359.600 179.862 C 359.820 179.723,364.963 179.606,371.030 179.603 C 389.640 179.595,393.882 178.558,396.528 173.373 C 397.289 171.880,397.261 165.992,396.484 164.498 C 395.676 162.941,393.124 159.825,391.671 158.619 C 388.948 156.359,383.781 152.138,382.166 150.854 C 381.284 150.153,380.490 149.491,380.402 149.381 C 380.313 149.272,378.714 147.966,376.847 146.479 C 371.872 142.516,366.635 138.256,364.229 136.215 C 363.493 135.591,362.169 134.508,361.285 133.807 C 360.402 133.107,359.317 132.218,358.876 131.833 C 358.434 131.447,357.466 130.651,356.725 130.064 C 355.983 129.476,353.259 127.261,350.670 125.141 C 348.082 123.020,345.537 120.978,345.016 120.602 C 344.495 120.226,343.425 119.314,342.637 118.576 L 341.205 117.234 341.194 84.721 C 341.182 50.284,341.176 50.153,339.674 46.908 C 338.494 44.361,335.348 41.637,332.447 40.652 C 329.969 39.811,295.008 39.919,292.722 40.776 C 288.937 42.194,286.021 45.271,284.781 49.157 C 284.640 49.598,284.446 54.440,284.351 59.916 C 284.143 71.779,284.364 71.265,280.803 68.189 C 280.008 67.502,279.053 66.733,278.680 66.482 C 278.308 66.230,277.296 65.429,276.431 64.701 C 274.992 63.489,273.635 62.367,268.112 57.819 C 267.052 56.945,264.884 55.198,263.293 53.936 C 261.703 52.673,259.890 51.190,259.264 50.639 C 258.638 50.089,257.640 49.277,257.046 48.835 C 256.451 48.394,255.000 47.237,253.822 46.265 C 252.643 45.293,251.124 44.064,250.447 43.534 C 249.770 43.004,248.585 42.007,247.815 41.319 C 247.045 40.631,245.641 39.475,244.695 38.749 C 243.750 38.023,241.920 36.562,240.628 35.502 C 236.116 31.797,233.929 30.016,229.991 26.841 C 227.809 25.081,225.952 23.556,225.863 23.452 C 224.826 22.233,213.763 13.815,213.197 13.815 C 213.105 13.815,212.267 13.467,211.334 13.041 C 210.402 12.615,209.277 12.189,208.835 12.094 C 206.355 11.562,204.708 11.170,203.833 10.903 C 202.721 10.564,197.167 10.490,196.847 10.810 " stroke="none" fill="#fb7c04" fill-rule="evenodd"></path><path id="path2" d="M194.538 10.475 L 192.932 10.913 194.538 10.703 C 196.625 10.430,203.765 10.423,205.622 10.691 L 207.068 10.900 205.462 10.461 C 203.364 9.887,196.660 9.895,194.538 10.475 M191.004 11.318 C 186.199 12.942,184.795 13.869,174.779 22.029 C 173.100 23.397,168.257 27.343,164.016 30.798 C 159.775 34.253,153.648 39.255,150.399 41.913 C 147.151 44.572,144.043 47.104,143.492 47.540 C 142.025 48.701,128.738 59.530,128.310 59.914 C 128.110 60.094,126.605 61.325,124.967 62.651 C 123.328 63.976,121.020 65.855,119.838 66.827 C 112.940 72.498,107.650 76.805,106.027 78.072 C 105.008 78.867,97.193 85.229,88.660 92.209 C 80.127 99.189,71.539 106.201,69.576 107.791 C 62.840 113.247,54.538 120.003,50.323 123.460 C 48.003 125.362,45.562 127.359,44.899 127.896 C 37.420 133.956,16.073 151.390,15.615 151.812 C 15.420 151.991,14.610 152.640,13.815 153.254 C 6.206 159.127,1.459 164.775,2.001 167.311 C 2.077 167.665,2.271 167.399,2.529 166.586 C 3.759 162.707,5.816 160.192,11.629 155.455 C 14.308 153.272,17.305 150.829,18.290 150.026 C 19.275 149.223,20.369 148.330,20.723 148.043 C 21.076 147.756,22.302 146.750,23.447 145.809 C 24.592 144.867,25.991 143.735,26.556 143.293 C 27.121 142.851,29.702 140.755,32.290 138.635 C 34.879 136.514,37.601 134.299,38.338 133.711 C 39.075 133.124,40.040 132.329,40.482 131.944 C 40.924 131.560,41.936 130.741,42.731 130.125 C 43.526 129.509,44.378 128.812,44.624 128.576 C 45.127 128.094,49.006 124.924,50.597 123.695 C 51.169 123.253,53.041 121.735,54.757 120.321 C 56.473 118.908,58.425 117.317,59.095 116.787 C 59.765 116.257,61.799 114.594,63.614 113.092 C 65.430 111.590,67.466 109.928,68.138 109.398 C 68.811 108.867,69.984 107.912,70.745 107.275 C 73.021 105.368,91.238 90.506,92.363 89.639 C 92.936 89.197,94.810 87.679,96.528 86.265 C 98.247 84.851,100.285 83.189,101.057 82.570 C 101.830 81.952,104.574 79.711,107.156 77.590 C 109.739 75.470,112.760 73.012,113.871 72.129 C 114.982 71.245,116.937 69.655,118.214 68.594 C 119.492 67.534,121.101 66.213,121.791 65.659 C 122.480 65.104,123.661 64.139,124.414 63.513 C 125.167 62.888,127.229 61.202,128.996 59.768 C 130.763 58.334,134.280 55.468,136.811 53.400 C 139.343 51.331,141.964 49.205,142.636 48.675 C 143.308 48.145,144.996 46.779,146.387 45.641 C 147.778 44.503,150.072 42.632,151.486 41.483 C 152.900 40.334,154.129 39.310,154.217 39.207 C 154.305 39.104,155.028 38.525,155.823 37.920 C 156.618 37.315,157.866 36.307,158.595 35.679 C 159.324 35.052,160.770 33.855,161.808 33.019 C 165.008 30.443,168.104 27.924,172.085 24.659 C 184.778 14.246,185.863 13.494,190.522 11.884 C 191.671 11.487,192.671 11.109,192.744 11.043 C 192.986 10.828,191.988 10.985,191.004 11.318 M208.149 11.418 C 208.744 11.676,209.404 11.888,209.615 11.888 C 209.827 11.888,210.749 12.249,211.665 12.691 C 212.581 13.133,213.410 13.494,213.508 13.494 C 213.969 13.494,217.626 16.066,220.083 18.118 C 221.587 19.374,223.539 20.975,224.421 21.676 C 225.303 22.377,226.096 23.028,226.185 23.123 C 226.273 23.218,227.419 24.163,228.731 25.222 C 230.042 26.282,232.002 27.871,233.085 28.755 C 238.477 33.155,243.082 36.895,244.285 37.850 C 245.020 38.435,246.334 39.519,247.203 40.260 C 248.072 41.000,249.177 41.896,249.658 42.249 C 250.140 42.602,255.563 47.012,261.709 52.048 C 267.856 57.084,274.494 62.506,276.460 64.096 C 278.426 65.687,280.668 67.530,281.441 68.193 C 284.099 70.471,284.016 70.745,284.016 59.674 C 284.016 46.440,285.133 43.745,291.941 40.556 L 293.815 39.679 312.095 39.588 C 333.790 39.481,333.454 39.430,337.596 43.476 C 341.802 47.586,341.623 45.816,341.750 84.447 C 341.835 109.950,341.948 117.412,342.255 117.708 C 342.473 117.918,344.436 119.532,346.618 121.294 C 348.800 123.056,351.558 125.293,352.746 126.265 C 353.935 127.237,355.981 128.892,357.293 129.943 C 358.605 130.993,359.751 131.941,359.839 132.048 C 359.987 132.227,363.349 134.958,365.750 136.849 C 366.298 137.281,367.266 138.076,367.901 138.616 C 368.536 139.156,369.332 139.817,369.669 140.084 C 370.005 140.351,371.789 141.797,373.632 143.297 C 375.475 144.797,377.860 146.734,378.933 147.601 C 380.006 148.468,381.324 149.553,381.863 150.011 C 382.790 150.798,383.559 151.423,386.720 153.950 C 392.710 158.741,394.829 160.826,396.355 163.430 C 397.207 164.883,397.547 165.211,397.212 164.257 C 396.157 161.251,394.132 159.440,369.661 139.626 C 368.589 138.757,367.639 137.954,367.550 137.840 C 367.462 137.727,366.738 137.137,365.941 136.528 C 365.144 135.920,362.995 134.193,361.165 132.691 C 356.575 128.924,350.705 124.132,346.069 120.368 L 342.169 117.201 342.166 85.187 C 342.163 47.462,342.200 47.872,338.429 43.683 C 334.424 39.234,333.972 39.159,311.950 39.267 L 293.494 39.357 291.282 40.482 C 284.677 43.840,283.335 47.424,283.404 61.526 C 283.445 69.868,283.576 69.554,280.969 67.330 C 279.495 66.073,274.000 61.590,270.040 58.413 C 269.157 57.704,267.855 56.643,267.149 56.056 C 266.064 55.154,260.112 50.285,254.750 45.914 C 253.971 45.279,249.809 41.881,245.502 38.363 C 241.194 34.846,237.120 31.534,236.448 31.004 C 235.776 30.474,233.879 28.936,232.232 27.586 C 226.547 22.927,225.367 21.970,221.365 18.776 C 214.854 13.579,214.178 13.152,210.130 11.684 C 207.845 10.855,206.408 10.662,208.149 11.418 M1.949 170.994 C 1.905 172.131,3.548 175.031,4.988 176.359 C 8.699 179.779,11.317 180.226,27.684 180.235 C 35.841 180.239,40.163 180.354,40.270 180.570 C 40.360 180.751,40.397 180.715,40.351 180.490 C 40.286 180.170,37.327 180.035,26.801 179.873 C 14.419 179.682,11.913 179.517,9.639 178.740 C 6.824 177.778,4.046 175.451,3.167 173.318 C 1.987 170.459,1.972 170.429,1.949 170.994 M396.677 174.026 C 394.119 178.902,389.993 179.892,372.163 179.908 C 361.291 179.918,359.886 179.977,359.713 180.428 C 359.606 180.707,359.518 223.033,359.518 274.484 C 359.518 353.095,359.447 368.366,359.072 370.121 C 357.435 377.782,352.771 383.738,345.759 387.121 C 344.046 387.948,343.334 388.188,340.043 389.051 C 338.189 389.537,259.080 389.537,257.226 389.051 C 252.868 387.908,250.947 387.130,248.286 385.427 C 243.306 382.242,239.666 377.113,237.649 370.442 C 237.421 369.689,237.249 355.545,237.128 327.711 L 236.948 286.104 235.745 283.643 C 234.216 280.516,231.016 277.590,229.125 277.590 C 228.852 277.590,229.344 277.954,230.218 278.399 C 233.126 279.880,234.824 281.916,236.107 285.462 C 236.349 286.130,236.490 298.944,236.566 327.229 C 236.681 370.237,236.625 368.491,238.018 372.924 C 240.443 380.637,247.980 387.232,256.792 389.351 C 259.253 389.943,337.783 389.867,340.562 389.270 C 349.592 387.331,356.952 380.180,359.281 371.084 C 359.555 370.017,359.697 344.880,359.826 275.020 L 360.000 180.402 373.655 180.206 C 381.534 180.094,387.853 179.868,388.594 179.672 C 391.320 178.952,392.185 178.583,393.863 177.424 C 395.561 176.250,397.730 173.687,397.349 173.306 C 397.243 173.200,396.940 173.524,396.677 174.026 M173.104 277.211 C 172.802 277.331,185.113 277.430,200.463 277.430 C 215.813 277.430,228.205 277.323,228.001 277.194 C 227.535 276.897,173.853 276.914,173.104 277.211 M169.960 278.440 C 167.596 279.820,165.470 282.066,164.378 284.337 L 163.373 286.426 163.182 327.550 C 163.063 353.089,162.867 369.284,162.666 370.281 C 160.980 378.648,154.930 385.622,146.988 388.355 C 143.932 389.406,142.649 389.433,101.526 389.310 C 63.027 389.195,59.304 389.122,57.671 388.445 C 57.317 388.299,56.233 387.859,55.261 387.467 C 51.577 385.983,47.296 382.495,45.012 379.116 C 43.036 376.193,42.041 373.852,40.984 369.639 C 40.718 368.578,40.561 368.217,40.634 368.835 C 41.747 378.212,49.448 386.864,58.715 389.151 C 60.875 389.684,142.501 389.900,144.578 389.378 C 152.903 387.287,158.988 381.940,161.923 374.137 C 163.531 369.860,163.521 370.154,163.528 327.527 C 163.534 291.276,163.582 287.521,164.067 286.081 C 165.227 282.629,167.511 280.036,170.850 278.379 C 171.686 277.964,172.153 277.618,171.888 277.610 C 171.622 277.603,170.755 277.976,169.960 278.440 " stroke="none" fill="#fbbc7b" fill-rule="evenodd"></path><path id="path3" d="M202.115 10.397 C 202.189 10.461,202.900 10.599,203.695 10.704 C 204.660 10.832,204.927 10.801,204.498 10.611 C 203.884 10.339,201.836 10.155,202.115 10.397 M193.173 11.145 C 193.482 11.226,193.988 11.226,194.297 11.145 C 194.606 11.064,194.353 10.998,193.735 10.998 C 193.116 10.998,192.863 11.064,193.173 11.145 M185.622 13.999 C 184.421 14.651,184.494 14.922,185.703 14.297 C 186.233 14.023,186.667 13.730,186.667 13.646 C 186.667 13.440,186.632 13.451,185.622 13.999 M224.970 22.340 C 225.451 22.845,225.902 23.194,225.972 23.115 C 226.042 23.037,225.649 22.623,225.098 22.196 L 224.096 21.421 224.970 22.340 M174.277 22.892 L 173.333 23.936 174.378 22.992 C 174.952 22.473,175.422 22.003,175.422 21.948 C 175.422 21.700,175.157 21.918,174.277 22.892 M162.704 32.312 L 161.446 33.460 162.811 32.419 C 164.059 31.468,164.363 31.165,164.070 31.165 C 164.011 31.165,163.396 31.681,162.704 32.312 M159.345 35.043 L 158.233 36.030 159.438 35.166 C 160.502 34.402,160.849 34.056,160.550 34.056 C 160.499 34.056,159.957 34.500,159.345 35.043 M241.285 35.442 C 241.285 35.497,241.755 35.967,242.329 36.486 L 243.373 37.430 242.430 36.386 C 241.550 35.412,241.285 35.194,241.285 35.442 M303.511 39.759 C 308.491 39.809,316.732 39.809,321.825 39.759 C 326.917 39.709,322.843 39.668,312.771 39.668 C 302.699 39.668,298.532 39.709,303.511 39.759 M249.960 42.510 C 249.960 42.565,250.430 43.035,251.004 43.554 L 252.048 44.498 251.105 43.454 C 250.225 42.480,249.960 42.262,249.960 42.510 M338.662 44.857 C 339.089 45.408,339.502 45.801,339.581 45.731 C 339.660 45.661,339.311 45.210,338.806 44.729 L 337.887 43.855 338.662 44.857 M285.125 46.937 C 284.842 47.484,284.668 47.988,284.738 48.058 C 284.808 48.128,285.105 47.680,285.399 47.064 C 286.060 45.679,285.831 45.573,285.125 46.937 M144.397 47.309 L 143.454 48.353 144.498 47.410 C 145.471 46.530,145.690 46.265,145.442 46.265 C 145.386 46.265,144.916 46.735,144.397 47.309 M141.027 50.040 L 139.920 51.245 141.124 50.138 C 141.787 49.529,142.329 48.987,142.329 48.933 C 142.329 48.688,142.057 48.919,141.027 50.040 M341.681 84.819 C 341.681 102.755,341.720 110.092,341.767 101.124 C 341.814 92.157,341.814 77.482,341.767 68.514 C 341.720 59.546,341.681 66.884,341.681 84.819 M132.352 57.108 L 131.245 58.313 132.450 57.206 C 133.112 56.597,133.655 56.055,133.655 56.001 C 133.655 55.756,133.383 55.987,132.352 57.108 M126.426 61.895 C 125.458 62.760,125.386 62.880,126.133 62.380 C 127.021 61.786,128.138 60.704,127.831 60.735 C 127.765 60.742,127.133 61.264,126.426 61.895 M120.143 67.068 L 119.036 68.273 120.241 67.166 C 121.362 66.135,121.594 65.863,121.348 65.863 C 121.294 65.863,120.752 66.406,120.143 67.068 M282.369 69.157 C 282.611 69.466,283.117 69.702,283.493 69.682 C 284.142 69.646,284.144 69.636,283.534 69.486 C 283.181 69.400,282.675 69.163,282.410 68.961 C 281.991 68.642,281.985 68.668,282.369 69.157 M111.469 74.137 L 110.361 75.341 111.566 74.234 C 112.229 73.625,112.771 73.083,112.771 73.029 C 112.771 72.784,112.499 73.015,111.469 74.137 M102.630 81.365 L 101.687 82.410 102.731 81.466 C 103.704 80.586,103.923 80.321,103.675 80.321 C 103.619 80.321,103.149 80.791,102.630 81.365 M99.418 83.936 L 98.474 84.980 99.518 84.036 C 100.491 83.157,100.710 82.892,100.462 82.892 C 100.406 82.892,99.937 83.361,99.418 83.936 M69.859 108.032 L 68.916 109.076 69.960 108.133 C 70.933 107.253,71.152 106.988,70.903 106.988 C 70.848 106.988,70.378 107.458,69.859 108.032 M66.961 110.385 L 65.703 111.532 67.068 110.492 C 68.316 109.540,68.620 109.237,68.327 109.237 C 68.268 109.237,67.653 109.753,66.961 110.385 M60.863 115.422 L 59.920 116.466 60.964 115.522 C 61.538 115.003,62.008 114.533,62.008 114.478 C 62.008 114.230,61.743 114.448,60.863 115.422 M48.976 125.060 L 48.032 126.104 49.076 125.161 C 49.651 124.642,50.120 124.172,50.120 124.117 C 50.120 123.868,49.855 124.087,48.976 125.060 M27.935 142.249 L 26.827 143.454 28.032 142.347 C 28.695 141.738,29.237 141.195,29.237 141.142 C 29.237 140.896,28.965 141.128,27.935 142.249 M375.261 144.679 C 375.261 144.734,375.731 145.204,376.305 145.723 L 377.349 146.667 376.406 145.622 C 375.526 144.649,375.261 144.431,375.261 144.679 M18.635 149.774 C 17.793 150.538,17.591 150.815,18.153 150.437 C 19.040 149.840,20.513 148.416,20.210 148.447 C 20.139 148.455,19.430 149.052,18.635 149.774 M387.149 154.317 C 387.149 154.373,387.618 154.843,388.193 155.362 L 389.237 156.305 388.293 155.261 C 387.414 154.288,387.149 154.069,387.149 154.317 M6.887 159.438 L 5.944 160.482 6.988 159.538 C 7.562 159.019,8.032 158.549,8.032 158.494 C 8.032 158.246,7.767 158.464,6.887 159.438 M396.477 164.035 C 396.498 164.574,397.407 165.968,397.408 165.462 C 397.409 165.197,397.197 164.699,396.938 164.356 C 396.678 164.013,396.471 163.869,396.477 164.035 M2.502 166.595 C 2.403 166.943,2.224 167.518,2.104 167.871 C 1.985 168.225,2.122 168.108,2.410 167.611 C 2.697 167.115,2.876 166.540,2.808 166.334 C 2.739 166.129,2.602 166.246,2.502 166.595 M394.056 176.601 C 393.349 177.234,393.060 177.603,393.414 177.420 C 394.009 177.112,395.784 175.405,395.478 175.435 C 395.403 175.442,394.763 175.967,394.056 176.601 M13.253 179.499 C 13.562 179.579,14.068 179.579,14.378 179.499 C 14.687 179.418,14.434 179.352,13.815 179.352 C 13.197 179.352,12.944 179.418,13.253 179.499 M15.823 179.820 C 16.133 179.901,16.639 179.901,16.948 179.820 C 17.257 179.739,17.004 179.673,16.386 179.673 C 15.767 179.673,15.514 179.739,15.823 179.820 M383.695 179.820 C 384.004 179.901,384.510 179.901,384.819 179.820 C 385.129 179.739,384.876 179.673,384.257 179.673 C 383.639 179.673,383.386 179.739,383.695 179.820 M40.482 273.992 L 40.643 368.032 40.723 274.233 C 40.768 222.644,40.696 180.326,40.563 180.193 C 40.430 180.060,40.394 222.270,40.482 273.992 M187.414 276.867 C 194.804 276.916,206.804 276.915,214.080 276.867 C 221.356 276.819,215.309 276.780,200.643 276.780 C 185.976 276.780,180.023 276.819,187.414 276.867 M228.112 277.254 C 228.378 277.434,228.871 277.583,229.210 277.585 C 230.032 277.592,229.776 277.408,228.594 277.144 C 227.890 276.986,227.760 277.016,228.112 277.254 M166.574 280.884 L 164.980 282.570 166.667 280.976 C 167.594 280.099,168.353 279.340,168.353 279.289 C 168.353 279.049,168.056 279.316,166.574 280.884 M232.610 279.297 C 232.610 279.353,233.080 279.822,233.655 280.341 L 234.699 281.285 233.755 280.241 C 232.876 279.268,232.610 279.049,232.610 279.297 M163.586 285.476 C 163.381 285.926,163.219 286.542,163.227 286.842 C 163.235 287.143,163.445 286.817,163.694 286.117 C 164.213 284.662,164.144 284.252,163.586 285.476 M236.883 287.871 C 236.883 288.843,236.944 289.241,237.017 288.755 C 237.091 288.269,237.091 287.474,237.017 286.988 C 236.944 286.502,236.883 286.900,236.883 287.871 M162.973 366.426 C 162.976 367.133,163.042 367.384,163.119 366.984 C 163.196 366.585,163.193 366.006,163.112 365.699 C 163.032 365.392,162.969 365.719,162.973 366.426 M354.811 379.357 C 354.511 379.843,353.388 381.181,352.314 382.329 L 350.361 384.418 352.383 382.490 C 353.495 381.430,354.683 380.092,355.023 379.518 C 355.771 378.254,355.581 378.109,354.811 379.357 M246.990 384.498 C 247.406 384.896,247.919 385.216,248.130 385.211 C 248.341 385.206,248.225 385.041,247.871 384.845 C 247.518 384.649,247.005 384.328,246.731 384.132 C 246.458 383.936,246.574 384.100,246.990 384.498 M146.345 388.285 C 145.048 388.879,145.824 388.880,147.192 388.286 C 147.787 388.028,148.056 387.822,147.791 387.830 C 147.526 387.837,146.876 388.042,146.345 388.285 M143.133 389.076 C 142.728 389.250,142.668 389.352,142.972 389.352 C 143.237 389.352,143.743 389.228,144.096 389.076 C 144.501 388.902,144.561 388.800,144.257 388.800 C 143.992 388.800,143.486 388.924,143.133 389.076 M338.795 389.076 C 338.390 389.250,338.331 389.352,338.635 389.352 C 338.900 389.352,339.406 389.228,339.759 389.076 C 340.164 388.902,340.223 388.800,339.920 388.800 C 339.655 388.800,339.149 388.924,338.795 389.076 " stroke="none" fill="#f9a659" fill-rule="evenodd"></path><path id="path4" d="M198.795 10.508 C 199.193 10.584,199.843 10.584,200.241 10.508 C 200.639 10.431,200.313 10.369,199.518 10.369 C 198.723 10.369,198.398 10.431,198.795 10.508 M195.341 10.924 L 194.538 11.181 195.341 11.208 C 195.783 11.223,196.361 11.095,196.627 10.924 C 197.240 10.527,196.580 10.527,195.341 10.924 M203.695 10.919 C 203.960 11.093,204.526 11.237,204.953 11.240 C 205.984 11.247,205.723 11.064,204.337 10.810 C 203.546 10.664,203.356 10.697,203.695 10.919 M191.647 11.638 C 191.116 11.816,190.249 12.168,189.719 12.418 C 189.189 12.669,189.044 12.780,189.398 12.665 C 190.326 12.363,192.116 11.879,193.414 11.579 C 194.511 11.325,194.515 11.319,193.574 11.316 C 193.044 11.315,192.177 11.459,191.647 11.638 M207.390 11.709 C 208.096 11.979,208.964 12.187,209.317 12.171 C 209.682 12.155,209.474 12.011,208.835 11.837 C 206.769 11.274,206.091 11.214,207.390 11.709 M212.048 13.333 C 212.490 13.586,212.996 13.792,213.173 13.792 C 213.349 13.792,213.133 13.586,212.691 13.333 C 212.249 13.081,211.743 12.874,211.566 12.874 C 211.390 12.874,211.606 13.081,212.048 13.333 M213.655 13.929 C 213.655 14.014,214.197 14.410,214.859 14.809 C 215.522 15.208,218.233 17.264,220.884 19.379 C 223.534 21.494,225.414 22.927,225.060 22.564 C 222.793 20.232,213.655 13.314,213.655 13.929 M184.409 15.002 C 183.972 15.302,182.185 16.711,180.438 18.135 C 178.691 19.558,176.706 21.157,176.028 21.687 C 173.833 23.402,164.141 31.329,161.928 33.220 C 161.486 33.597,160.257 34.583,159.197 35.411 C 157.103 37.046,154.300 39.539,155.341 38.840 C 156.020 38.384,158.700 36.213,163.821 31.968 C 165.527 30.554,168.003 28.526,169.325 27.461 C 170.646 26.396,173.245 24.289,175.100 22.780 C 180.358 18.503,183.528 15.964,184.578 15.189 C 185.707 14.356,185.571 14.206,184.409 15.002 M225.881 23.357 C 225.891 23.499,227.590 24.957,229.656 26.599 C 233.134 29.361,234.819 30.728,240.765 35.613 C 241.981 36.612,243.750 38.023,244.695 38.749 C 245.641 39.475,247.045 40.631,247.815 41.319 C 248.585 42.007,249.770 43.004,250.447 43.534 C 251.124 44.064,252.643 45.293,253.822 46.265 C 255.000 47.237,256.453 48.394,257.049 48.835 C 257.646 49.277,258.717 50.148,259.428 50.770 C 260.992 52.137,265.673 55.898,266.345 56.328 C 266.610 56.497,266.188 56.073,265.408 55.386 C 263.919 54.076,262.677 53.058,255.878 47.578 C 253.595 45.738,251.207 43.786,250.572 43.241 C 249.938 42.695,249.070 41.966,248.645 41.621 C 248.219 41.275,246.442 39.829,244.696 38.408 C 242.949 36.986,240.978 35.390,240.315 34.859 C 239.652 34.329,237.972 32.963,236.583 31.823 C 229.116 25.699,225.865 23.127,225.881 23.357 M152.289 40.999 C 149.352 43.473,148.850 44.080,151.325 42.165 C 153.167 40.741,154.877 39.157,154.508 39.218 C 154.436 39.230,153.438 40.032,152.289 40.999 M292.585 40.490 C 290.372 41.331,288.202 42.918,286.928 44.628 C 285.923 45.977,285.993 45.935,287.733 44.145 C 290.182 41.627,291.891 40.723,295.261 40.165 L 296.707 39.925 295.422 39.913 C 294.715 39.906,293.438 40.166,292.585 40.490 M315.020 40.159 C 325.936 40.270,332.061 40.451,332.691 40.682 C 334.284 41.265,335.806 42.308,337.670 44.092 C 338.641 45.022,339.080 45.349,338.646 44.819 C 336.922 42.718,334.710 41.112,332.458 40.327 C 331.300 39.924,328.514 39.860,314.699 39.919 L 298.313 39.989 315.020 40.159 M146.827 45.502 C 145.679 46.454,144.063 47.774,143.237 48.436 C 139.477 51.447,132.437 57.245,131.554 58.057 C 130.255 59.252,131.218 58.631,132.886 57.198 C 133.611 56.574,135.403 55.124,136.867 53.976 C 138.332 52.827,140.124 51.373,140.849 50.744 C 141.575 50.115,142.617 49.248,143.165 48.816 C 143.714 48.385,145.232 47.176,146.539 46.130 C 147.846 45.084,148.976 44.180,149.050 44.122 C 149.123 44.064,149.123 43.961,149.050 43.893 C 148.976 43.826,147.976 44.550,146.827 45.502 M339.277 46.055 C 339.277 46.116,339.518 46.648,339.811 47.237 C 340.105 47.827,340.452 48.752,340.582 49.295 C 340.753 50.010,340.827 50.090,340.851 49.585 C 340.884 48.870,339.758 45.944,339.449 45.944 C 339.355 45.944,339.277 45.994,339.277 46.055 M284.416 49.473 C 284.135 50.371,284.016 53.572,284.016 60.214 L 284.016 69.674 283.293 69.829 C 282.656 69.966,282.666 69.979,283.373 69.932 L 284.177 69.880 284.362 59.920 C 284.463 54.442,284.661 49.562,284.801 49.076 C 285.198 47.695,284.863 48.041,284.416 49.473 M341.049 51.365 C 341.134 51.962,341.205 67.026,341.205 84.842 L 341.205 117.234 342.637 118.576 C 343.425 119.314,344.495 120.226,345.016 120.602 C 345.537 120.978,347.459 122.502,349.287 123.989 C 351.115 125.476,352.421 126.463,352.190 126.182 C 351.958 125.901,350.007 124.262,347.852 122.539 C 345.698 120.816,343.394 118.896,342.731 118.273 L 341.526 117.139 341.494 84.513 C 341.476 66.452,341.335 51.529,341.177 51.084 C 340.934 50.398,340.915 50.439,341.049 51.365 M268.699 58.229 C 269.588 59.067,270.397 59.670,270.496 59.571 C 270.596 59.471,270.406 59.238,270.074 59.052 C 269.742 58.866,268.933 58.262,268.276 57.710 C 267.620 57.158,267.810 57.392,268.699 58.229 M127.988 60.820 C 126.903 61.738,125.108 63.213,123.999 64.096 C 122.890 64.980,121.313 66.281,120.495 66.988 C 119.677 67.695,118.509 68.684,117.898 69.187 L 116.787 70.101 118.072 69.219 C 118.779 68.733,119.863 67.880,120.482 67.323 C 121.436 66.463,122.692 65.441,125.301 63.399 C 126.845 62.191,130.120 59.376,130.120 59.257 C 130.120 59.023,130.031 59.089,127.988 60.820 M270.961 59.990 C 271.087 60.205,272.305 61.286,273.667 62.392 C 275.030 63.498,276.347 64.599,276.595 64.838 C 276.843 65.077,277.783 65.818,278.684 66.483 C 279.585 67.149,280.527 67.940,280.777 68.242 C 281.027 68.543,281.533 68.934,281.901 69.111 C 282.859 69.570,282.289 69.080,274.217 62.512 C 273.333 61.793,272.538 61.133,272.450 61.044 C 271.810 60.404,270.776 59.672,270.961 59.990 M115.314 71.093 C 114.681 71.663,113.186 72.924,111.992 73.896 C 108.756 76.531,107.831 77.383,109.398 76.287 C 110.104 75.792,111.274 74.871,111.996 74.240 C 112.719 73.609,113.977 72.586,114.792 71.968 C 115.607 71.349,116.348 70.663,116.440 70.442 C 116.668 69.890,116.622 69.917,115.314 71.093 M105.114 79.513 C 103.695 80.659,102.428 81.768,102.299 81.977 C 102.169 82.186,103.280 81.376,104.767 80.176 C 107.897 77.650,108.148 77.430,107.888 77.430 C 107.782 77.430,106.534 78.367,105.114 79.513 M100.206 83.474 C 99.430 84.147,96.574 86.497,93.859 88.694 C 89.422 92.287,85.940 95.119,81.102 99.071 C 79.243 100.589,73.836 104.993,71.774 106.667 C 71.013 107.285,68.320 109.471,65.791 111.524 C 63.262 113.577,60.984 115.529,60.729 115.862 C 60.474 116.194,60.694 116.076,61.217 115.600 C 61.740 115.124,62.981 114.112,63.974 113.351 C 64.966 112.590,66.823 111.100,68.100 110.040 C 72.739 106.189,73.769 105.349,75.663 103.874 C 76.723 103.048,78.182 101.857,78.905 101.227 C 79.627 100.596,81.488 99.068,83.039 97.831 C 84.590 96.594,86.023 95.435,86.223 95.254 C 86.423 95.074,87.309 94.351,88.193 93.648 C 89.076 92.945,89.871 92.286,89.960 92.185 C 90.048 92.083,90.926 91.360,91.910 90.578 C 97.479 86.155,102.101 82.270,101.812 82.258 C 101.705 82.253,100.982 82.800,100.206 83.474 M57.189 118.554 C 55.695 119.791,54.361 120.803,54.225 120.803 C 54.088 120.803,53.976 120.956,53.976 121.143 C 53.976 121.478,56.437 119.648,58.956 117.441 C 61.218 115.459,59.999 116.226,57.189 118.554 M51.566 123.109 C 50.506 123.996,48.699 125.487,47.550 126.422 C 46.402 127.357,44.378 129.008,43.052 130.090 C 41.727 131.172,39.608 132.886,38.343 133.900 C 37.078 134.914,36.090 135.791,36.146 135.849 C 36.203 135.907,37.359 135.039,38.716 133.921 C 40.073 132.803,41.904 131.353,42.786 130.700 C 43.668 130.046,45.010 128.962,45.769 128.290 C 46.527 127.618,48.130 126.273,49.330 125.301 C 51.826 123.280,53.890 121.456,53.655 121.479 C 53.566 121.488,52.627 122.222,51.566 123.109 M353.878 127.661 C 354.418 128.164,355.871 129.385,357.108 130.375 C 358.345 131.365,359.430 132.259,359.518 132.363 C 359.606 132.467,360.402 133.121,361.285 133.816 C 362.169 134.512,363.493 135.591,364.229 136.215 C 365.544 137.331,367.305 138.779,371.378 142.097 C 375.573 145.513,376.947 146.573,376.736 146.233 C 376.618 146.040,374.105 143.918,371.152 141.515 C 368.199 139.113,365.494 136.910,365.141 136.620 C 364.787 136.330,363.691 135.436,362.704 134.633 C 361.717 133.830,359.331 131.887,357.402 130.316 C 353.372 127.033,352.490 126.369,353.878 127.661 M34.365 137.224 C 33.210 138.262,33.543 138.134,35.144 136.925 C 35.654 136.540,35.937 136.225,35.774 136.225 C 35.611 136.225,34.977 136.675,34.365 137.224 M31.325 139.659 C 30.442 140.472,30.153 140.841,30.683 140.479 C 31.586 139.863,33.368 138.135,33.068 138.167 C 32.993 138.175,32.209 138.846,31.325 139.659 M28.724 141.730 C 28.388 142.107,27.390 142.964,26.506 143.636 C 25.622 144.307,23.671 145.880,22.169 147.130 C 20.667 148.381,18.701 149.970,17.800 150.660 C 16.899 151.351,15.960 152.111,15.712 152.350 C 15.464 152.589,14.540 153.360,13.658 154.063 C 9.349 157.499,6.385 160.124,5.762 161.057 C 5.273 161.787,5.481 161.649,6.472 160.583 C 7.826 159.127,9.323 157.853,15.268 153.092 C 16.813 151.855,18.759 150.265,19.593 149.558 C 20.426 148.851,22.385 147.261,23.945 146.024 C 26.961 143.632,29.845 141.064,29.528 141.052 C 29.423 141.048,29.061 141.353,28.724 141.730 M377.992 147.313 C 379.409 148.595,380.373 149.411,382.169 150.845 C 383.052 151.551,385.076 153.221,386.667 154.556 C 389.618 157.033,391.430 158.294,389.398 156.457 C 388.171 155.348,381.700 150.072,378.827 147.839 C 377.838 147.069,377.462 146.833,377.992 147.313 M392.105 158.876 C 392.817 159.582,394.090 161.072,394.933 162.186 C 395.776 163.299,396.466 164.108,396.466 163.982 C 396.466 163.622,393.895 160.244,392.967 159.384 C 391.408 157.940,390.801 157.582,392.105 158.876 M3.300 165.060 C 3.128 165.546,2.807 166.450,2.586 167.068 C 2.365 167.687,2.120 168.554,2.043 168.996 C 1.884 169.901,2.793 167.750,3.198 166.265 C 3.342 165.735,3.564 165.048,3.692 164.739 C 3.820 164.430,3.854 164.177,3.768 164.177 C 3.682 164.177,3.472 164.574,3.300 165.060 M397.042 168.603 C 397.292 174.653,394.264 177.982,387.631 178.952 C 386.035 179.185,386.033 179.187,387.314 179.232 C 390.558 179.346,395.252 176.502,396.787 173.494 C 397.464 172.168,397.732 166.435,397.159 165.533 C 397.016 165.308,396.964 166.689,397.042 168.603 M2.252 170.040 C 2.270 170.450,3.268 173.312,3.653 174.056 C 4.262 175.234,6.040 176.818,7.707 177.669 C 9.416 178.541,9.807 178.464,8.178 177.576 C 5.084 175.891,3.897 174.511,3.031 171.594 C 2.650 170.311,2.228 169.468,2.252 170.040 M11.807 179.183 C 12.205 179.259,12.855 179.259,13.253 179.183 C 13.651 179.106,13.325 179.043,12.530 179.043 C 11.735 179.043,11.410 179.106,11.807 179.183 M14.886 179.473 C 15.210 179.820,40.804 180.181,40.804 179.839 C 40.803 179.707,35.924 179.597,29.960 179.596 C 23.996 179.595,18.104 179.502,16.867 179.391 C 15.559 179.272,14.730 179.307,14.886 179.473 M371.566 179.598 L 359.679 179.771 371.245 179.821 C 377.606 179.849,383.462 179.756,384.257 179.615 C 385.482 179.397,385.531 179.363,384.578 179.392 C 383.960 179.410,378.104 179.503,371.566 179.598 M359.174 274.217 C 359.074 326.169,358.891 369.181,358.769 369.799 C 358.647 370.418,358.766 370.152,359.033 369.209 C 359.463 367.694,359.510 356.585,359.438 273.627 L 359.357 179.759 359.174 274.217 M40.882 274.056 C 40.797 374.949,40.709 369.276,42.423 373.815 C 43.048 375.469,44.066 377.343,45.930 380.274 C 46.167 380.645,46.664 381.133,47.036 381.358 C 47.605 381.703,47.582 381.623,46.891 380.843 C 46.143 380.001,45.248 378.691,43.956 376.546 C 43.371 375.574,42.132 372.368,41.659 370.602 C 41.421 369.710,41.261 340.442,41.138 274.859 L 40.961 180.402 40.882 274.056 M172.851 276.809 L 171.727 277.263 172.851 277.025 C 174.289 276.721,226.987 276.711,228.273 277.015 L 229.237 277.243 228.273 276.788 C 226.837 276.112,174.528 276.131,172.851 276.809 M169.481 278.224 C 166.678 279.874,163.144 284.178,163.226 285.843 C 163.233 285.987,163.675 285.237,164.209 284.177 C 165.431 281.751,167.324 279.787,169.799 278.377 C 170.859 277.773,171.582 277.279,171.406 277.280 C 171.229 277.280,170.363 277.705,169.481 278.224 M231.647 278.458 C 232.676 279.176,234.554 281.054,235.279 282.088 C 235.801 282.833,235.816 282.837,235.485 282.140 C 234.920 280.952,232.913 278.878,231.831 278.366 C 230.844 277.897,230.844 277.897,231.647 278.458 M236.180 283.855 C 236.210 284.574,237.060 286.411,237.073 285.783 C 237.080 285.430,236.879 284.779,236.627 284.337 C 236.374 283.896,236.173 283.679,236.180 283.855 M163.047 325.783 C 163.047 347.606,163.086 356.534,163.132 345.622 C 163.179 334.711,163.179 316.855,163.132 305.944 C 163.086 295.032,163.047 303.960,163.047 325.783 M237.220 326.747 C 237.200 348.570,237.276 366.852,237.387 367.373 C 237.575 368.247,237.538 309.240,237.341 293.815 C 237.294 290.104,237.240 304.924,237.220 326.747 M162.404 367.983 C 162.280 369.307,162.243 370.583,162.321 370.818 C 162.400 371.053,162.565 370.033,162.689 368.552 C 162.812 367.071,162.850 365.795,162.772 365.717 C 162.694 365.639,162.528 366.658,162.404 367.983 M237.794 369.521 C 237.770 370.164,237.976 371.176,238.251 371.770 C 238.565 372.451,238.671 372.554,238.538 372.048 C 238.421 371.606,238.216 370.594,238.081 369.799 C 237.841 368.375,237.836 368.371,237.794 369.521 M357.231 374.292 C 356.609 375.867,356.201 377.093,356.325 377.016 C 356.638 376.822,358.668 371.734,358.500 371.565 C 358.425 371.490,357.854 372.717,357.231 374.292 M160.439 375.462 C 159.885 376.765,159.497 377.831,159.575 377.831 C 159.804 377.831,161.650 373.621,161.543 373.344 C 161.489 373.206,160.993 374.159,160.439 375.462 M238.741 373.066 C 238.527 374.808,243.403 381.522,246.747 384.091 C 247.189 384.431,246.357 383.486,244.899 381.993 C 242.167 379.193,240.792 377.275,239.508 374.470 C 239.101 373.580,238.756 372.948,238.741 373.066 M354.451 379.357 C 352.836 381.643,350.945 383.438,348.434 385.071 C 346.224 386.507,345.500 387.091,346.667 386.497 C 349.439 385.083,353.172 381.806,354.889 379.277 C 356.582 376.783,356.223 376.849,354.451 379.357 M158.276 379.357 C 157.218 381.018,153.412 384.603,151.566 385.678 C 150.036 386.570,149.407 387.187,150.763 386.466 C 153.534 384.993,157.341 381.533,158.672 379.278 C 159.560 377.773,159.246 377.835,158.276 379.357 M48.355 382.651 C 48.602 383.237,50.155 384.498,50.972 384.776 C 51.349 384.905,51.272 384.770,50.763 384.408 C 50.321 384.094,49.553 383.462,49.056 383.003 C 48.559 382.545,48.243 382.386,48.355 382.651 M248.096 385.009 C 248.333 385.247,248.886 385.621,249.324 385.841 C 250.011 386.187,249.988 386.129,249.157 385.422 C 248.156 384.570,247.339 384.253,248.096 385.009 M250.464 386.496 C 250.748 386.781,255.042 388.449,255.420 388.422 C 255.753 388.399,253.959 387.492,253.559 387.481 C 253.329 387.475,252.543 387.181,251.812 386.827 C 250.335 386.114,249.999 386.032,250.464 386.496 M53.976 386.678 C 53.976 386.902,56.310 387.816,56.619 387.713 C 56.773 387.662,56.241 387.376,55.437 387.078 C 54.634 386.781,53.976 386.600,53.976 386.678 M148.273 387.321 C 147.743 387.564,147.526 387.764,147.791 387.765 C 148.056 387.767,148.635 387.562,149.076 387.309 C 150.092 386.729,149.549 386.736,148.273 387.321 M344.578 387.140 C 344.225 387.289,343.461 387.587,342.881 387.804 C 342.301 388.021,341.877 388.249,341.938 388.310 C 342.065 388.437,345.371 387.266,345.636 387.001 C 345.885 386.752,345.329 386.825,344.578 387.140 M60.080 388.843 C 61.181 389.140,71.240 389.234,102.169 389.234 C 133.098 389.234,143.157 389.140,144.257 388.843 L 145.703 388.451 144.257 388.673 C 142.369 388.963,61.969 388.963,60.080 388.673 L 58.635 388.451 60.080 388.843 M255.770 388.550 C 255.843 388.613,256.554 388.752,257.349 388.857 C 258.315 388.984,258.582 388.953,258.153 388.763 C 257.539 388.492,255.491 388.308,255.770 388.550 M339.143 388.675 C 339.011 388.807,320.878 388.990,298.849 389.081 L 258.795 389.247 298.795 389.221 C 326.083 389.203,339.204 389.085,340.080 388.851 C 341.315 388.521,341.326 388.506,340.375 388.471 C 339.830 388.450,339.276 388.542,339.143 388.675 " stroke="none" fill="#f48d2c" fill-rule="evenodd"></path></g></svg>