<svg xmlns="http://www.w3.org/2000/svg" width="30.033" height="29.25" viewBox="0 0 30.033 29.25">
  <g id="football-outline" transform="translate(-2.983 -3.375)">
    <path id="Path_9" data-name="Path 9" d="M31.5,18A13.5,13.5,0,1,1,18,4.5,13.5,13.5,0,0,1,31.5,18Z" fill="none" stroke="#000" stroke-linecap="round" stroke-miterlimit="10" stroke-width="2.25"/>
    <path id="Path_10" data-name="Path 10" d="M18,12.315,12.65,16.8l1.413,5.7h7.875l1.413-5.7Z" fill="none" stroke="#000" stroke-linecap="round" stroke-linejoin="round" stroke-width="2.25"/>
    <path id="Path_11" data-name="Path 11" d="M23.35,16.8l3.717-1.575,1.813-5.151" fill="none" stroke="#000" stroke-linecap="round" stroke-linejoin="round" stroke-width="2.25"/>
    <path id="Path_12" data-name="Path 12" d="M31.43,18.982l-4.362-3.754" fill="none" stroke="#000" stroke-linecap="round" stroke-linejoin="round" stroke-width="2.25"/>
    <path id="Path_13" data-name="Path 13" d="M12.65,16.8,8.933,15.228,7.12,10.077" fill="none" stroke="#000" stroke-linecap="round" stroke-linejoin="round" stroke-width="2.25"/>
    <path id="Path_14" data-name="Path 14" d="M4.57,18.982l4.362-3.754" fill="none" stroke="#000" stroke-linecap="round" stroke-linejoin="round" stroke-width="2.25"/>
    <path id="Path_15" data-name="Path 15" d="M18,12.315V8.267l4.5-3" fill="none" stroke="#000" stroke-linecap="round" stroke-linejoin="round" stroke-width="2.25"/>
    <path id="Path_16" data-name="Path 16" d="M13.5,5.269l4.5,3" fill="none" stroke="#000" stroke-linecap="round" stroke-linejoin="round" stroke-width="2.25"/>
    <path id="Path_17" data-name="Path 17" d="M21.938,22.5l1.969,3.375-1.969,4.992" fill="none" stroke="#000" stroke-linecap="round" stroke-linejoin="round" stroke-width="2.25"/>
    <path id="Path_18" data-name="Path 18" d="M28.88,25.875H24.047" fill="none" stroke="#000" stroke-linecap="round" stroke-linejoin="round" stroke-width="2.25"/>
    <path id="Path_19" data-name="Path 19" d="M14.063,22.5l-1.969,3.375L14.089,30.9" fill="none" stroke="#000" stroke-linecap="round" stroke-linejoin="round" stroke-width="2.25"/>
    <path id="Path_20" data-name="Path 20" d="M7.146,25.875h4.948" fill="none" stroke="#000" stroke-linecap="round" stroke-linejoin="round" stroke-width="2.25"/>
  </g>
</svg>