<svg xmlns="http://www.w3.org/2000/svg" width="21.309" height="21.209" viewBox="0 0 21.309 21.209">
    <g id="baseball-sharp" transform="translate(0)">
        <path id="Path_21" data-name="Path 21" d="M20.679,3.893a.724.724,0,0,1-.178.464l-.006.268-1.445-.03c0,.067,0,.136.008.2a9.247,9.247,0,0,0,.18,1.372L20.527,5.8l.407,1.4-1.288.375a9.24,9.24,0,0,0,.7,1.444l1.109-.782.842,1.192-1.11.785q.274.33.579.636c.2.2.418.4.636.578l.819-1.158,1.192.842-.82,1.155a9.322,9.322,0,0,0,1.443.695l.391-1.345,1.4.407-.391,1.347a9.271,9.271,0,0,0,1.617.191l-.022-1.287.908-.015a10.846,10.846,0,0,0-8.278-8.535A.712.712,0,0,1,20.679,3.893Z" transform="translate(-7.629 -3.719)"/>
        <path id="Path_22" data-name="Path 22" d="M12.1,27.943l1.455.025a9.253,9.253,0,0,0-.189-1.562l-1.258.365-.407-1.4,1.257-.365a9.277,9.277,0,0,0-.695-1.443l-1.06.75-.842-1.192,1.062-.751c-.182-.22-.375-.433-.578-.636s-.418-.4-.636-.58l-.725,1.026L8.3,21.336l.725-1.025a9.243,9.243,0,0,0-1.445-.695l-.332,1.144-1.4-.407.333-1.147A9.245,9.245,0,0,0,4.8,19.029c-.083,0-.166-.008-.249-.01l.021,1.165-.923.016a10.84,10.84,0,0,0,8.437,8.681Z" transform="translate(-3.649 -7.672)"/>
        <path id="Path_23" data-name="Path 23" d="M24.133,16.742,24.1,15.018a10.741,10.741,0,0,1-2.05-.247l-.4,1.4-1.4-.406.409-1.408a10.788,10.788,0,0,1-1.88-.9l-.853,1.207-1.192-.842.851-1.205a10.648,10.648,0,0,1-1.564-1.564l-1.157.817-.842-1.192,1.156-.817a10.741,10.741,0,0,1-.906-1.88l-1.343.39-.407-1.4,1.342-.389q-.1-.481-.166-.972h-.024l-.041-.73-.017-.313-.935-.016a.7.7,0,0,1-.093-.008l-.331-.007,0-.129a.73.73,0,0,1-.3-.6.692.692,0,0,1,.007-.087,10.846,10.846,0,0,0-8.3,8.58l.839-.015L4.53,13.6l.356.02.73.04v.025q.491.061.972.166l.349-1.2,1.4.41-.349,1.2a10.7,10.7,0,0,1,1.88.906l.758-1.072,1.193.844L11.064,16a10.611,10.611,0,0,1,1.564,1.564l1.111-.782.842,1.192-1.114.785a10.786,10.786,0,0,1,.9,1.88l1.318-.382.407,1.4-1.316.382a10.736,10.736,0,0,1,.246,2l1.534.027-.015.859a10.843,10.843,0,0,0,8.343-8.2Z" transform="translate(-3.654 -3.718)"/>
    </g>
</svg>
