<svg xmlns="http://www.w3.org/2000/svg" width="41.443" height="41.441" viewBox="0 0 41.443 41.441">
    <path id="bat" d="M28.808,25.167l-3.581,3.57a1.8,1.8,0,0,1-1.318.542,1.844,1.844,0,0,1-1.332-.542,1.875,1.875,0,0,1-.015-2.656l.516-.514L18.81,21.311a13.994,13.994,0,0,0-3.065-2.185q-1.976-1.1-3.738-2A10.273,10.273,0,0,1,9.614,15.6L.446,6.458A2.455,2.455,0,0,1,.1,4.172a5.035,5.035,0,0,1,1.361-2.7A5.049,5.049,0,0,1,4.171.117,2.477,2.477,0,0,1,6.463.459L15.63,9.6a10.2,10.2,0,0,1,1.533,2.385q.9,1.757,2.006,3.727a13.991,13.991,0,0,0,2.192,3.056l4.268,4.256.516-.514a1.814,1.814,0,0,1,1.332-.542,1.79,1.79,0,0,1,1.332.557,1.835,1.835,0,0,1,.544,1.328,1.789,1.789,0,0,1-.544,1.314Z" transform="matrix(-0.719, -0.695, 0.695, -0.719, 21.104, 41.452)"/>
</svg>
