<svg xmlns="http://www.w3.org/2000/svg" width="20.342" height="30.875" viewBox="0 0 20.342 30.875">
  <g id="lock-fill" transform="translate(-5.625 -1.125)">
    <path id="Path_7" data-name="Path 7" d="M5.625,20.25c0-2.485,1.656-4.5,3.7-4.5H22.268c2.043,0,3.7,2.015,3.7,4.5V31.5c0,2.485-1.656,4.5-3.7,4.5H9.324c-2.043,0-3.7-2.015-3.7-4.5Z" transform="translate(0 -4)"/>
    <path id="Path_8" data-name="Path 8" d="M10.125,9c0-4.349,2.539-7.875,5.671-7.875S21.467,4.651,21.467,9v6.75h-1.62V9c0-3.107-1.814-5.625-4.051-5.625S11.745,5.893,11.745,9v6.75h-1.62Z" fill-rule="evenodd"/>
  </g>
</svg>
