<svg xmlns="http://www.w3.org/2000/svg" width="32.1" height="26.899" viewBox="0 0 32.1 26.899">
  <g id="box-arrow-in-right" transform="matrix(1, -0.017, 0.017, 1, -2.52, -2.779)">
    <path id="Path_4" data-name="Path 4" d="M18.329,22.819a.816.816,0,0,1,0-1.311l5.955-4.9-5.955-4.9a.816.816,0,0,1,0-1.311,1.3,1.3,0,0,1,1.593,0l6.75,5.556a.816.816,0,0,1,0,1.311l-6.75,5.556a1.3,1.3,0,0,1-1.593,0Z" transform="translate(0.248 0)" fill="#910202" fill-rule="evenodd"/>
    <path id="Path_5" data-name="Path 5" d="M2.25,18a1.125,1.125,0,0,1,1.125-1.125h20.25a1.125,1.125,0,0,1,0,2.25H3.375A1.125,1.125,0,0,1,2.25,18Z" transform="translate(0 -1.393)" fill="#910202" fill-rule="evenodd"/>
    <path id="Path_6" data-name="Path 6" d="M30.681,29.839A3.254,3.254,0,0,0,34.1,26.786V6.429a3.254,3.254,0,0,0-3.423-3.054H12.423A3.254,3.254,0,0,0,9,6.429V9.482A1.085,1.085,0,0,0,10.141,10.5a1.085,1.085,0,0,0,1.141-1.018V6.429a1.085,1.085,0,0,1,1.141-1.018H30.681a1.085,1.085,0,0,1,1.141,1.018V26.786A1.085,1.085,0,0,1,30.681,27.8H12.423a1.085,1.085,0,0,1-1.141-1.018V23.732a1.085,1.085,0,0,0-1.141-1.018A1.085,1.085,0,0,0,9,23.732v3.054a3.254,3.254,0,0,0,3.423,3.054Z" fill="#910202" fill-rule="evenodd"/>
  </g>
</svg>
