<svg xmlns="http://www.w3.org/2000/svg" width="29.209" height="26.776" viewBox="0 0 29.209 26.776">
  <g id="journal-text" transform="translate(-2.25 -2.25)">
    <path id="Path_9" data-name="Path 9" d="M8.993,2.25H26.966c2.482,0,4.493,1.713,4.493,3.825V25.2c0,2.113-2.012,3.825-4.493,3.825H8.993C6.512,29.026,4.5,27.313,4.5,25.2H6.747a2.1,2.1,0,0,0,2.247,1.913H26.966A2.1,2.1,0,0,0,29.212,25.2V6.075a2.1,2.1,0,0,0-2.247-1.913H8.993A2.1,2.1,0,0,0,6.747,6.075H4.5C4.5,3.963,6.512,2.25,8.993,2.25Z"/>
    <path id="Path_10" data-name="Path 10" d="M4.5,10.659V9.83C4.5,9.371,5,9,5.625,9s1.125.371,1.125.83v.83H7.875c.621,0,1.125.371,1.125.83s-.5.83-1.125.83h-4.5c-.621,0-1.125-.371-1.125-.83s.5-.83,1.125-.83Zm0,4.978v-.83c0-.458.5-.83,1.125-.83s1.125.371,1.125.83v.83H7.875c.621,0,1.125.371,1.125.83s-.5.83-1.125.83h-4.5c-.621,0-1.125-.371-1.125-.83s.5-.83,1.125-.83Zm0,4.978v-.83c0-.458.5-.83,1.125-.83s1.125.371,1.125.83v.83H7.875c.621,0,1.125.371,1.125.83s-.5.83-1.125.83h-4.5c-.621,0-1.125-.371-1.125-.83s.5-.83,1.125-.83Z"/>
    <path id="Path_11" data-name="Path 11" d="M11.25,23.625A1.125,1.125,0,0,1,12.375,22.5h4.5a1.125,1.125,0,0,1,0,2.25h-4.5A1.125,1.125,0,0,1,11.25,23.625Zm0-4.5A1.125,1.125,0,0,1,12.375,18h11.25a1.125,1.125,0,0,1,0,2.25H12.375A1.125,1.125,0,0,1,11.25,19.125Zm0-4.5A1.125,1.125,0,0,1,12.375,13.5h11.25a1.125,1.125,0,0,1,0,2.25H12.375A1.125,1.125,0,0,1,11.25,14.625Zm0-4.5A1.125,1.125,0,0,1,12.375,9h11.25a1.125,1.125,0,0,1,0,2.25H12.375A1.125,1.125,0,0,1,11.25,10.125Z" transform="translate(-0.023 -2.025)" fill-rule="evenodd"/>
  </g>
</svg>
